<svg width="306" height="218" viewBox="0 0 306 218" fill="none" xmlns="http://www.w3.org/2000/svg">
<path d="M9.16211 35.1645C14.048 35.1645 18.0074 39.2353 18.0074 44.2587C18.0074 39.2353 21.9668 35.1645 26.8589 35.1645C21.9668 35.1645 18.0074 31.0937 18.0074 26.0703C18.0071 31.0937 14.0477 35.1645 9.16211 35.1645Z" fill="#EDE73B" stroke="#2E3436" stroke-width="0.839751" stroke-miterlimit="10" stroke-linecap="round" stroke-linejoin="round"/>
<path d="M271.303 161.351C275.957 158.326 282.18 159.647 285.205 164.301C282.18 159.647 283.5 153.424 288.16 150.395C283.5 153.424 277.277 152.103 274.252 147.449C277.277 152.103 275.957 158.326 271.303 161.351Z" fill="#EDE73B" stroke="#2E3436" stroke-width="0.839751" stroke-miterlimit="10" stroke-linecap="round" stroke-linejoin="round"/>
<path d="M34.2324 27.5452C37.4895 27.5452 40.1293 30.1859 40.1293 33.4441C40.1293 30.1859 42.769 27.5452 46.0303 27.5452C42.7687 27.5452 40.1293 24.9045 40.1293 21.6462C40.1293 24.9045 37.4898 27.5452 34.2324 27.5452Z" fill="#EDE73B" stroke="#2E3436" stroke-width="0.839751" stroke-miterlimit="10" stroke-linecap="round" stroke-linejoin="round"/>
<path d="M290.525 124.588C293.552 122.621 297.599 123.479 299.566 126.506C297.599 123.479 298.457 119.432 301.488 117.463C298.457 119.432 294.41 118.573 292.443 115.547C294.41 118.573 293.552 122.62 290.525 124.588Z" fill="#EDE73B" stroke="#2E3436" stroke-width="0.839751" stroke-miterlimit="10" stroke-linecap="round" stroke-linejoin="round"/>
<path d="M256.426 33.444C252.49 33.444 249.3 36.7446 249.3 40.8176C249.3 36.7446 246.111 33.444 242.17 33.444C246.111 33.444 249.3 30.1433 249.3 26.0703C249.3 30.1433 252.49 33.444 256.426 33.444Z" fill="#EDE73B" stroke="#2E3436" stroke-width="0.839751" stroke-miterlimit="10" stroke-linecap="round" stroke-linejoin="round"/>
<path d="M243.644 21.1549C241.201 21.1549 239.221 23.1354 239.221 25.5791C239.221 23.1354 237.241 21.1549 234.795 21.1549C237.241 21.1549 239.221 19.1744 239.221 16.7307C239.221 19.1744 241.201 21.1549 243.644 21.1549Z" fill="#EDE73B" stroke="#2E3436" stroke-width="0.839751" stroke-miterlimit="10" stroke-linecap="round" stroke-linejoin="round"/>
<path d="M270.725 97.2257C268.016 97.2257 265.82 99.4217 265.82 102.131C265.82 99.4217 263.624 97.2257 260.911 97.2257C263.624 97.2257 265.82 95.0296 265.82 92.3201C265.82 95.0296 268.015 97.2257 270.725 97.2257Z" fill="#EDE73B" stroke="#2E3436" stroke-width="0.839751" stroke-miterlimit="10" stroke-linecap="round" stroke-linejoin="round"/>
<path d="M297.27 200.457C294.561 200.457 292.365 202.653 292.365 205.362C292.365 202.653 290.169 200.457 287.456 200.457C290.169 200.457 292.365 198.261 292.365 195.551C292.365 198.261 294.56 200.457 297.27 200.457Z" fill="#EDE73B" stroke="#2E3436" stroke-width="0.839751" stroke-miterlimit="10" stroke-linecap="round" stroke-linejoin="round"/>
<path d="M2.77148 146.261C6.70734 146.261 9.89689 149.452 9.89689 153.389C9.89689 149.452 13.0864 146.261 17.0272 146.261C13.0864 146.261 9.89689 143.071 9.89689 139.133C9.89689 143.071 6.70734 146.261 2.77148 146.261Z" fill="#EDE73B" stroke="#2E3436" stroke-width="0.839751" stroke-miterlimit="10" stroke-linecap="round" stroke-linejoin="round"/>
<path d="M13.5864 134.217C16.0292 134.217 18.009 136.198 18.009 138.642C18.009 136.198 19.9888 134.217 22.4348 134.217C19.9888 134.217 18.009 132.237 18.009 129.793C18.009 132.237 16.0292 134.217 13.5864 134.217Z" fill="#EDE73B" stroke="#2E3436" stroke-width="0.839751" stroke-miterlimit="10" stroke-linecap="round" stroke-linejoin="round"/>
<path d="M43.5257 194.162V214.78H1.00049C1.00049 214.78 1.00049 194.162 22.2631 194.162H43.5257Z" fill="#47C3F1" stroke="#2E3436" stroke-width="0.839751" stroke-miterlimit="10" stroke-linecap="round" stroke-linejoin="round"/>
<path d="M37.1636 209.009C37.1636 205.19 39.9046 202.016 43.5257 201.335V214.78H39.7229C38.1539 213.351 37.1636 211.298 37.1636 209.009Z" fill="#47C3F1" stroke="#2E3436" stroke-width="0.839751" stroke-miterlimit="10" stroke-linecap="round" stroke-linejoin="round"/>
<path d="M43.5252 210.14V214.78H1C1 214.78 1.00094 212.834 1.61692 210.14H43.5252Z" fill="#2E3436" stroke="#2E3436" stroke-width="0.839751" stroke-miterlimit="10" stroke-linecap="round" stroke-linejoin="round"/>
<path d="M18.9831 203.658C18.6602 203.906 18.2789 204.027 17.9005 204.027C17.3677 204.027 16.8405 203.788 16.4903 203.333L11.3105 196.601C12.3407 196.056 13.4745 195.584 14.7208 195.203L19.3082 201.165C19.9069 201.943 19.7613 203.059 18.9831 203.658Z" fill="#47C3F1" stroke="#2E3436" stroke-width="0.839751" stroke-miterlimit="10" stroke-linecap="round" stroke-linejoin="round"/>
<path d="M23.4778 203.658C23.1549 203.906 22.7737 204.026 22.3952 204.026C21.8624 204.026 21.3353 203.788 20.9851 203.333L14.728 195.201C15.9101 194.841 17.1922 194.563 18.5867 194.386L23.8029 201.165C24.4013 201.943 24.2557 203.059 23.4778 203.658Z" fill="#47C3F1" stroke="#2E3436" stroke-width="0.839751" stroke-miterlimit="10" stroke-linecap="round" stroke-linejoin="round"/>
<path d="M27.9715 203.658C27.6486 203.906 27.2673 204.026 26.8889 204.026C26.356 204.026 25.8289 203.788 25.4787 203.333L18.5938 194.385C19.7407 194.24 20.9613 194.162 22.2626 194.162H22.9081L28.2969 201.165C28.8949 201.943 28.7493 203.059 27.9715 203.658Z" fill="#47C3F1" stroke="#2E3436" stroke-width="0.839751" stroke-miterlimit="10" stroke-linecap="round" stroke-linejoin="round"/>
<path d="M59.9082 194.162V214.78H102.433C102.433 214.78 102.433 194.162 81.1708 194.162H59.9082Z" fill="#47C3F1" stroke="#2E3436" stroke-width="0.839751" stroke-miterlimit="10" stroke-linecap="round" stroke-linejoin="round"/>
<path d="M66.2694 209.009C66.2694 205.19 63.5284 202.016 59.9072 201.335V214.78H63.7101C65.2791 213.351 66.2694 211.298 66.2694 209.009Z" fill="#47C3F1" stroke="#2E3436" stroke-width="0.839751" stroke-miterlimit="10" stroke-linecap="round" stroke-linejoin="round"/>
<path d="M59.9077 210.14V214.78H102.433C102.433 214.78 102.432 212.834 101.816 210.14H59.9077Z" fill="#2E3436" stroke="#2E3436" stroke-width="0.839751" stroke-miterlimit="10" stroke-linecap="round" stroke-linejoin="round"/>
<path d="M84.4496 203.657C84.7725 203.906 85.1538 204.026 85.5322 204.026C86.065 204.026 86.5922 203.788 86.9424 203.332L92.1222 196.601C91.092 196.055 89.9583 195.583 88.7119 195.203L84.1245 201.164C83.5261 201.943 83.6714 203.058 84.4496 203.657Z" fill="#47C3F1" stroke="#2E3436" stroke-width="0.839751" stroke-miterlimit="10" stroke-linecap="round" stroke-linejoin="round"/>
<path d="M79.9549 203.658C80.2778 203.906 80.6591 204.026 81.0375 204.026C81.5703 204.026 82.0975 203.788 82.4477 203.333L88.7047 195.201C87.5226 194.841 86.2405 194.563 84.846 194.386L79.6298 201.165C79.0314 201.943 79.177 203.059 79.9549 203.658Z" fill="#47C3F1" stroke="#2E3436" stroke-width="0.839751" stroke-miterlimit="10" stroke-linecap="round" stroke-linejoin="round"/>
<path d="M75.4618 203.658C75.7847 203.906 76.166 204.026 76.5444 204.026C77.0772 204.026 77.6044 203.788 77.9546 203.333L84.8395 194.385C83.6926 194.24 82.4719 194.162 81.1706 194.162H80.5252L75.1364 201.165C74.5383 201.943 74.6839 203.059 75.4618 203.658Z" fill="#47C3F1" stroke="#2E3436" stroke-width="0.839751" stroke-miterlimit="10" stroke-linecap="round" stroke-linejoin="round"/>
<path d="M55.9992 163.392H82.2486L79.035 151.052H54.9097L55.9992 163.392Z" fill="#FFF2ED" stroke="#2E3436" stroke-width="0.839751" stroke-miterlimit="10" stroke-linecap="round" stroke-linejoin="round"/>
<path d="M69.086 112.85H34.2471L30.7251 126.373H72.608L69.086 112.85Z" fill="#FFF2ED" stroke="#2E3436" stroke-width="0.839751" stroke-miterlimit="10" stroke-linecap="round" stroke-linejoin="round"/>
<path d="M15.4568 184.996H13.4937L10.7637 195.424H46.7567L47.7994 184.996H45.4252L46.2433 175.731H17.8698L15.4568 184.996Z" fill="#FFF2ED" stroke="#2E3436" stroke-width="0.839751" stroke-miterlimit="10" stroke-linecap="round" stroke-linejoin="round"/>
<path d="M49.6983 136.604C49.6983 135.475 50.5888 134.632 51.6595 134.632C52.7301 134.632 53.6345 135.475 53.6345 136.604L53.8206 138.713H75.8215L72.6077 126.373H30.7251L27.5112 138.713H49.5122L49.6983 136.604Z" fill="#FFF2ED" stroke="#2E3436" stroke-width="0.839751" stroke-miterlimit="10" stroke-linecap="round" stroke-linejoin="round"/>
<path d="M21.0832 163.392L17.8696 175.731H46.2431L47.3329 163.392H21.0832Z" fill="#FFF2ED" stroke="#2E3436" stroke-width="0.839751" stroke-miterlimit="10" stroke-linecap="round" stroke-linejoin="round"/>
<path d="M82.2489 163.392H55.9995L57.089 175.731H85.4628L82.2489 163.392Z" fill="#FFF2ED" stroke="#2E3436" stroke-width="0.839751" stroke-miterlimit="10" stroke-linecap="round" stroke-linejoin="round"/>
<path d="M89.8391 184.996H87.8763L85.4632 175.731H57.0895L57.9075 184.996H55.5337L56.5764 195.424H92.5691L89.8391 184.996Z" fill="#FFF2ED" stroke="#2E3436" stroke-width="0.839751" stroke-miterlimit="10" stroke-linecap="round" stroke-linejoin="round"/>
<path d="M49.5122 138.713H27.5112L24.2974 151.052H48.4227L49.5122 138.713Z" fill="#FFF2ED" stroke="#2E3436" stroke-width="0.839751" stroke-miterlimit="10" stroke-linecap="round" stroke-linejoin="round"/>
<path d="M54.9103 151.052H79.0356L75.8218 138.713H53.8208L54.9103 151.052Z" fill="#FFF2ED" stroke="#2E3436" stroke-width="0.839751" stroke-miterlimit="10" stroke-linecap="round" stroke-linejoin="round"/>
<path d="M48.4227 151.052H24.2974L21.0835 163.392H47.3332L48.4227 151.052Z" fill="#FFF2ED" stroke="#2E3436" stroke-width="0.839751" stroke-miterlimit="10" stroke-linecap="round" stroke-linejoin="round"/>
<path d="M71.7421 121.312H70.6149C66.695 121.312 63.5176 118.134 63.5176 114.214V100.827H82.663V110.391C82.663 116.422 77.7735 121.312 71.7421 121.312Z" fill="#EDE73B" stroke="#2E3436" stroke-width="0.839751" stroke-miterlimit="10" stroke-linecap="round" stroke-linejoin="round"/>
<path d="M80.4297 69.0007C80.4297 63.2128 75.7379 58.521 69.95 58.521H64.1241H30.4482H24.6223C18.8344 58.521 14.1426 63.2128 14.1426 69.0007V88.8651H30.4482V93.6608V121.405H71.0593V89.963L80.4297 83.968V69.0007Z" fill="#E0E0E0" stroke="#2E3436" stroke-width="0.839751" stroke-miterlimit="10" stroke-linecap="round" stroke-linejoin="round"/>
<path d="M71.0588 115.625L75.7167 120.283C75.7167 120.283 71.825 121.312 69.2817 121.312L71.0588 115.625Z" fill="#475059" stroke="#2E3436" stroke-width="0.839751" stroke-miterlimit="10" stroke-linecap="round" stroke-linejoin="round"/>
<path d="M77.5197 184.707L67.5352 122.011" stroke="#2E3436" stroke-width="0.839751" stroke-miterlimit="10" stroke-linecap="round" stroke-linejoin="round"/>
<path d="M65.1116 184.996L61.627 122.011" stroke="#2E3436" stroke-width="0.839751" stroke-miterlimit="10" stroke-linecap="round" stroke-linejoin="round"/>
<path d="M25.647 184.707L35.6312 122.011" stroke="#2E3436" stroke-width="0.839751" stroke-miterlimit="10" stroke-linecap="round" stroke-linejoin="round"/>
<path d="M38.0547 184.996L41.5394 122.011" stroke="#2E3436" stroke-width="0.839751" stroke-miterlimit="10" stroke-linecap="round" stroke-linejoin="round"/>
<path d="M61.0786 137.185L88.1944 84.7173L82.0296 82.2888L54.6079 135.349" fill="#DD7800"/>
<path d="M61.0786 137.185L88.1944 84.7173L82.0296 82.2888L54.6079 135.349" stroke="#2E3436" stroke-width="0.839751" stroke-miterlimit="10" stroke-linecap="round" stroke-linejoin="round"/>
<path d="M85.1883 90.0773L112.304 37.6098L106.139 35.1814L78.7173 88.2416" fill="#DD7800"/>
<path d="M85.1883 90.0773L112.304 37.6098L106.139 35.1814L78.7173 88.2416" stroke="#2E3436" stroke-width="0.839751" stroke-miterlimit="10" stroke-linecap="round" stroke-linejoin="round"/>
<path d="M68.8232 93.8068C68.6154 90.9384 69.9036 87.915 72.4045 86.5212L72.578 85.8443C74.5552 80.3664 82.0342 81.5256 82.0342 81.5256L78.7174 88.2408L85.0591 89.7815L88.8055 83.4385C93.7101 85.9874 96.6444 91.8657 95.7334 97.3175C95.1495 100.813 93.1471 103.976 90.521 106.355C89.3471 107.419 88.0414 108.345 86.6149 109.033C82.6326 110.955 77.7409 110.869 73.8285 108.808C70.084 106.835 67.4011 103.462 66.5865 99.3129C65.8177 97.2695 66.995 94.9647 68.6813 93.8598L68.8232 93.8068Z" fill="#EDE73B" stroke="#2E3436" stroke-width="0.839751" stroke-miterlimit="10" stroke-linecap="round" stroke-linejoin="round"/>
<path d="M72.5778 85.845C70.6006 91.3229 75.6322 94.7046 79.1602 96.3096L72.5778 85.845Z" fill="#EDE73B"/>
<path d="M72.5778 85.845C70.6006 91.3229 75.6322 94.7046 79.1602 96.3096" stroke="#2E3436" stroke-width="0.839751" stroke-miterlimit="10" stroke-linecap="round" stroke-linejoin="round"/>
<path d="M74.3332 101.314C71.6126 99.6239 69.353 96.9852 68.7197 93.8457L74.3332 101.314Z" fill="#EDE73B"/>
<path d="M74.3332 101.314C71.6126 99.6239 69.353 96.9852 68.7197 93.8457" stroke="#2E3436" stroke-width="0.839751" stroke-miterlimit="10" stroke-linecap="round" stroke-linejoin="round"/>
<path d="M14.1475 88.8647C14.1475 114.87 27.9845 137.644 48.6976 150.224C50.7288 151.458 53.1714 151.912 55.4784 151.342C56.9425 150.981 58.8764 150.404 59.9082 148.02C61.2867 147.845 62.6212 147.354 63.6903 146.478C65.1394 145.291 65.7959 142.712 65.4237 140.876L66.2371 140.589C68.0354 139.792 69.2846 137.955 69.5259 136.003C69.6467 135.027 69.5288 134.035 69.2194 133.101C68.8139 131.878 68.0492 130.805 67.0852 129.95L65.5618 128.65L63.2523 133.119L57.6056 129.763L60.1721 124.722L59.1475 124.163C44.8581 118.09 39.8637 105.291 36.5937 88.9162L14.1475 88.8647Z" fill="#EDE73B" stroke="#2E3436" stroke-width="0.839751" stroke-miterlimit="10" stroke-linecap="round" stroke-linejoin="round"/>
<path d="M52.9775 145.764C54.3002 147.311 56.3976 148.03 58.4322 148.09C58.9233 148.104 59.4184 148.082 59.9083 148.019" fill="#EDE73B"/>
<path d="M52.9775 145.764C54.3002 147.311 56.3976 148.03 58.4322 148.09C58.9233 148.104 59.4184 148.082 59.9083 148.019" stroke="#2E3436" stroke-width="0.839751" stroke-miterlimit="10" stroke-linecap="round" stroke-linejoin="round"/>
<path d="M56.9092 139.302C58.315 140.838 60.5937 141.177 62.6764 141.174C63.8882 141.172 65.1296 141.08 66.2376 140.589" fill="#EDE73B"/>
<path d="M56.9092 139.302C58.315 140.838 60.5937 141.177 62.6764 141.174C63.8882 141.172 65.1296 141.08 66.2376 140.589" stroke="#2E3436" stroke-width="0.839751" stroke-miterlimit="10" stroke-linecap="round" stroke-linejoin="round"/>
<path d="M132.83 67.9571L154.14 28.1694L87.6559 1L66.3462 40.7877L132.83 67.9571Z" fill="white" stroke="#2E3436" stroke-width="0.839751" stroke-miterlimit="10" stroke-linecap="round" stroke-linejoin="round"/>
<path d="M62.0924 58.6382L60.9966 61.1943C57.3896 68.8198 49.3402 68.8198 45.7328 61.1943L44.5234 58.6382H62.0924Z" fill="white" stroke="#2E3436" stroke-width="0.839751" stroke-miterlimit="10" stroke-linecap="round" stroke-linejoin="round"/>
<path d="M59.7856 58.6426L58.5326 61.0453C56.0898 65.7296 50.6385 65.7296 48.1957 61.0453L46.9424 58.6426H59.7856Z" fill="#EDE73B" stroke="#2E3436" stroke-width="0.839751" stroke-miterlimit="10" stroke-linecap="round" stroke-linejoin="round"/>
<path d="M59.7858 58.6426L58.5328 61.0453C58.3555 61.3854 58.1607 61.6977 57.9539 61.9885L54.6079 58.6426H59.7858Z" fill="#475059" stroke="#2E3436" stroke-width="0.839751" stroke-miterlimit="10" stroke-linecap="round" stroke-linejoin="round"/>
<path d="M72.1118 86.9174V77.2563" stroke="#2E3436" stroke-width="0.839751" stroke-miterlimit="10" stroke-linecap="round" stroke-linejoin="round"/>
<path d="M36.5938 88.9163V77.2563" stroke="#2E3436" stroke-width="0.839751" stroke-miterlimit="10" stroke-linecap="round" stroke-linejoin="round"/>
<path d="M57.6057 129.83L55.4399 128.367L59.3536 126.397L57.6057 129.83Z" fill="#475059" stroke="#2E3436" stroke-width="0.839751" stroke-miterlimit="10" stroke-linecap="round" stroke-linejoin="round"/>
<path d="M45.4253 184.996H15.4565" stroke="#2E3436" stroke-width="0.839751" stroke-miterlimit="10" stroke-linecap="round" stroke-linejoin="round"/>
<path d="M87.876 184.996H57.9072" stroke="#2E3436" stroke-width="0.839751" stroke-miterlimit="10" stroke-linecap="round" stroke-linejoin="round"/>
<path d="M59.8521 53.3699H57.96C57.2747 53.3699 56.7192 52.8145 56.7192 52.1292V51.7991C56.7192 51.1138 57.2747 50.5583 57.96 50.5583H59.8521C60.5375 50.5583 61.0929 51.1138 61.0929 51.7991V52.1292C61.0929 52.8142 60.5375 53.3699 59.8521 53.3699Z" fill="#EDE73B" stroke="#2E3436" stroke-width="0.839751" stroke-miterlimit="10" stroke-linecap="round" stroke-linejoin="round"/>
<path d="M55.9146 58.6431H50.277C48.6249 58.6431 47.2856 57.3038 47.2856 55.6517V47.6735C47.2856 46.0214 48.6249 44.6821 50.277 44.6821H55.9146C57.5667 44.6821 58.906 46.0214 58.906 47.6735V55.6517C58.906 57.3038 57.5667 58.6431 55.9146 58.6431Z" fill="#EDE73B" stroke="#2E3436" stroke-width="0.839751" stroke-miterlimit="10" stroke-linecap="round" stroke-linejoin="round"/>
<path d="M58.6876 46.8774C58.0688 46.0596 56.6213 44.6812 55.5167 44.6812H50.6749C48.8031 44.6812 47.2856 46.1987 47.2856 48.0704V51.1917L58.6876 46.8774Z" fill="#475059" stroke="#2E3436" stroke-width="0.839751" stroke-miterlimit="10" stroke-linecap="round" stroke-linejoin="round"/>
<path d="M48.6479 50.558L62.4668 45.2603" stroke="#2E3436" stroke-width="1.6795" stroke-miterlimit="10" stroke-linecap="round" stroke-linejoin="round"/>
<path d="M52.9583 49.8101C52.541 49.262 51.8836 48.9067 51.1415 48.9067C49.8794 48.9067 48.8564 49.9297 48.8564 51.1918C48.8564 52.4539 49.8794 53.4768 51.1415 53.4768C51.9715 53.4768 52.696 53.0328 53.0961 52.3707" fill="#EDE73B"/>
<path d="M52.9583 49.8101C52.541 49.262 51.8836 48.9067 51.1415 48.9067C49.8794 48.9067 48.8564 49.9297 48.8564 51.1918C48.8564 52.4539 49.8794 53.4768 51.1415 53.4768C51.9715 53.4768 52.696 53.0328 53.0961 52.3707" stroke="#2E3436" stroke-width="0.839751" stroke-miterlimit="10" stroke-linecap="round" stroke-linejoin="round"/>
<path d="M58.7028 54.4554L56.7773 53.0693" stroke="#2E3436" stroke-width="0.839751" stroke-miterlimit="10" stroke-linecap="round" stroke-linejoin="round"/>
<path d="M57.0982 50.6685C57.376 50.6685 57.6012 50.3868 57.6012 50.0393C57.6012 49.6918 57.376 49.4102 57.0982 49.4102C56.8204 49.4102 56.5952 49.6918 56.5952 50.0393C56.5952 50.3868 56.8204 50.6685 57.0982 50.6685Z" fill="#475059" stroke="#2E3436" stroke-width="0.839751" stroke-miterlimit="10" stroke-linecap="round" stroke-linejoin="round"/>
<path d="M36.593 86.2427H14.1465V88.9165H36.593V86.2427Z" fill="white" stroke="#2E3436" stroke-width="0.839751" stroke-miterlimit="10" stroke-linecap="round" stroke-linejoin="round"/>
<path d="M96.9688 53.9626L101.541 58.5349L102.61 56.3654L96.9688 53.9626Z" fill="#475059" stroke="#2E3436" stroke-width="0.839751" stroke-miterlimit="10" stroke-linecap="round" stroke-linejoin="round"/>
<g style="mix-blend-mode:multiply" opacity="0.3">
<g style="mix-blend-mode:multiply" opacity="0.3">
<g style="mix-blend-mode:multiply" opacity="0.3">
<path d="M101.806 16.6807L106.708 24.0518L124.134 32.6221L126.09 28.6241L101.806 16.6807Z" fill="#2E3436"/>
</g>
<g style="mix-blend-mode:multiply" opacity="0.3">
<path d="M105.439 30.5887C102 30.5912 98.5869 31.217 95.3642 32.4358L100.161 22.6931L105.439 30.5887ZM86.671 42.126C90.0124 38.4484 94.3568 35.8325 99.161 34.605L100.073 48.6844L103.728 50.473L102.653 33.9676C105.982 33.5971 109.348 33.899 112.551 34.8553L99.7056 15.6389L86.6659 42.1234" fill="#2E3436"/>
</g>
<g style="mix-blend-mode:multiply" opacity="0.3">
<path d="M115.601 37.321L120.594 39.7739L118.64 43.7614L104.008 36.5721L103.911 35.0676C107.94 34.8108 111.963 35.585 115.603 37.3179" fill="#2E3436"/>
</g>
<g style="mix-blend-mode:multiply" opacity="0.3">
<path d="M104.631 45.9829L104.963 51.0937L113.064 55.0698L115.02 51.0822L104.631 45.9829Z" fill="#2E3436"/>
</g>
</g>
</g>
<path d="M102.581 16.418L107.483 23.789L124.909 32.3597L126.865 28.3618L102.581 16.418Z" fill="#F78F01"/>
<path d="M106.213 30.3257C102.774 30.3282 99.3608 30.9539 96.1381 32.1727L100.935 22.4301L106.213 30.3257ZM87.445 41.8627C90.7864 38.1852 95.1307 35.5693 99.935 34.3419L100.847 48.4212L104.502 50.2098L103.426 33.7045C106.756 33.334 110.122 33.6359 113.325 34.5923L100.479 15.376L87.4398 41.8602" fill="#FBBF13"/>
<path d="M116.376 37.0578L121.368 39.5108L119.415 43.4982L104.782 36.3089L104.686 34.8044C108.715 34.5476 112.737 35.3218 116.377 37.0547" fill="#F78F01"/>
<path d="M105.405 45.7197L105.737 50.8304L113.838 54.8066L115.794 50.8191L105.405 45.7197Z" fill="#F78F01"/>
<path d="M218.76 48.0331C220.83 48.0331 222.507 46.3552 222.507 44.2855C222.507 42.2157 220.83 40.5378 218.76 40.5378C216.69 40.5378 215.012 42.2157 215.012 44.2855C215.012 46.3552 216.69 48.0331 218.76 48.0331Z" fill="#EDE73B" stroke="#475059" stroke-width="0.839751" stroke-miterlimit="10" stroke-linecap="round" stroke-linejoin="round"/>
<path d="M227.818 62.0244H209.569V53.7453C209.569 50.5789 212.136 48.0117 215.303 48.0117H222.085C225.251 48.0117 227.818 50.5789 227.818 53.7453V62.0244Z" fill="#EDE73B" stroke="#475059" stroke-width="0.839751" stroke-miterlimit="10" stroke-linecap="round" stroke-linejoin="round"/>
<path d="M212.863 61.7918C212.863 63.4803 214.232 64.8494 215.921 64.8494H221.426C223.114 64.8494 224.483 63.4803 224.483 61.7918V55.7434H212.863L212.863 61.7918Z" fill="#FC7EE4" stroke="#475059" stroke-width="0.839751" stroke-miterlimit="10" stroke-linecap="round" stroke-linejoin="round"/>
<path d="M221.7 58.532C221.52 57.8799 220.929 57.3979 220.22 57.3979C219.51 57.3979 218.919 57.8796 218.739 58.532" stroke="#475059" stroke-width="0.839751" stroke-miterlimit="10" stroke-linecap="round" stroke-linejoin="round"/>
<path d="M218.739 58.532C218.559 57.8799 217.968 57.3979 217.259 57.3979C216.549 57.3979 215.958 57.8796 215.778 58.532" stroke="#475059" stroke-width="0.839751" stroke-miterlimit="10" stroke-linecap="round" stroke-linejoin="round"/>
<path d="M217.258 61.27C217.438 61.9221 218.029 62.4041 218.738 62.4041C219.448 62.4041 220.039 61.9224 220.219 61.27" stroke="#475059" stroke-width="0.839751" stroke-miterlimit="10" stroke-linecap="round" stroke-linejoin="round"/>
<path d="M218.738 60.5894C219.25 60.5894 219.665 60.1747 219.665 59.6631C219.665 59.1515 219.25 58.7368 218.738 58.7368C218.227 58.7368 217.812 59.1515 217.812 59.6631C217.812 60.1747 218.227 60.5894 218.738 60.5894Z" fill="#475059"/>
<path d="M244.623 122.096C250.945 122.096 256.07 117.599 256.07 112.052C256.07 111.347 255.971 110.22 255.814 109.556L246.821 71.4449C246.076 67.8953 243.868 64.8496 240.225 64.8496H197.189C194.239 64.8496 191.742 66.791 190.907 69.4658L176.314 106.196C176.151 106.67 175.988 107.144 175.825 107.619C175.587 108.559 175.463 109.545 175.468 110.561C175.504 117.026 180.931 122.173 187.396 122.173H203.433L242.488 122.306" fill="#FFF2ED"/>
<path d="M244.623 122.096C250.945 122.096 256.07 117.599 256.07 112.052C256.07 111.347 255.971 110.22 255.814 109.556L246.821 71.4449C246.076 67.8953 243.868 64.8496 240.225 64.8496H197.189C194.239 64.8496 191.742 66.791 190.907 69.4658L176.314 106.196C176.151 106.67 175.988 107.144 175.825 107.619C175.587 108.559 175.463 109.545 175.468 110.561C175.504 117.026 180.931 122.173 187.396 122.173H203.433L242.488 122.306" stroke="#475059" stroke-width="0.839751" stroke-miterlimit="10" stroke-linecap="round" stroke-linejoin="round"/>
<path d="M196.122 122.306C194.886 129.329 191.094 128.449 189.858 135.472C188.623 142.495 192.416 143.139 191.18 150.162C189.945 157.185 186.152 156.541 184.917 163.564C183.681 170.588 187.474 171.232 186.238 178.256C185.003 185.28 181.21 184.635 179.975 191.659L216.885 191.567V139.226C216.885 138.164 217.9 137.12 218.986 137.12C220.057 137.12 221.062 138.14 221.087 139.18V191.567L257.997 191.659C256.762 184.635 252.969 185.28 251.734 178.256C250.498 171.232 254.291 170.588 253.055 163.564C251.82 156.541 248.027 157.185 246.792 150.162C245.557 143.139 249.349 142.495 248.114 135.472C246.879 128.449 243.086 129.093 241.851 122.071L196.122 122.306Z" fill="#DD7800" stroke="#475059" stroke-width="0.839751" stroke-miterlimit="10" stroke-linecap="round" stroke-linejoin="round"/>
<path d="M236.746 119.078C243.507 119.078 248.989 114.269 248.989 108.336C248.989 102.403 243.507 97.593 236.746 97.593C229.985 97.593 224.504 102.403 224.504 108.336C224.504 114.269 229.985 119.078 236.746 119.078Z" fill="#FC7EE4" stroke="#475059" stroke-width="0.839751" stroke-miterlimit="10" stroke-linecap="round" stroke-linejoin="round"/>
<path d="M238.369 100.233H244.534V100.046C242.418 98.5134 239.705 97.593 236.747 97.593V100.233H238.369V100.233Z" fill="#475059" stroke="#475059" stroke-width="0.839751" stroke-miterlimit="10" stroke-linecap="round" stroke-linejoin="round"/>
<path d="M236.11 90.4296C235.79 87.5715 233.971 84.8346 231.257 83.9215L230.963 83.288C227.732 77.7589 219.048 81.5853 219.048 81.5853L223.557 87.5788L216.575 82.5863L214.925 83.641C210.569 87.0434 208.403 93.6074 210.296 98.8006C211.509 102.13 214.055 104.874 217.073 106.733C218.421 107.564 219.874 108.236 221.402 108.652C225.669 109.813 230.463 108.835 233.932 106.093C237.253 103.469 239.274 99.6626 239.316 95.4339C239.698 93.2845 238.119 91.2338 236.26 90.4556L236.11 90.4296Z" fill="#FC7EE4" stroke="#475059" stroke-width="0.839751" stroke-miterlimit="10" stroke-linecap="round" stroke-linejoin="round"/>
<path d="M230.963 83.2881C233.909 88.3122 229.58 92.5569 226.405 94.7798" stroke="#475059" stroke-width="0.839751" stroke-miterlimit="10" stroke-linecap="round" stroke-linejoin="round"/>
<path d="M232.065 98.8173C234.431 96.6584 236.17 93.651 236.219 90.4487" stroke="#475059" stroke-width="0.839751" stroke-miterlimit="10" stroke-linecap="round" stroke-linejoin="round"/>
<path d="M211.124 88.3171C208.171 89.6034 206.975 88.608 203.412 90.6866C199.322 93.073 200.293 94.738 196.203 97.1244C192.113 99.5108 191.142 97.8461 187.051 100.232" stroke="#475059" stroke-width="0.839751" stroke-miterlimit="10" stroke-linecap="round" stroke-linejoin="round"/>
<path d="M224.919 111.354C221.903 112.683 220.682 111.654 217.043 113.803C212.865 116.27 213.857 117.99 209.679 120.457C207.088 121.987 205.723 121.906 204.063 122.212" stroke="#475059" stroke-width="0.839751" stroke-miterlimit="10" stroke-linecap="round" stroke-linejoin="round"/>
<path d="M202.346 86.2583V91.3442" stroke="#475059" stroke-width="0.839751" stroke-miterlimit="10" stroke-linecap="round" stroke-linejoin="round"/>
<path d="M226.014 113.507L231.316 122.071" stroke="#475059" stroke-width="0.839751" stroke-miterlimit="10" stroke-linecap="round" stroke-linejoin="round"/>
<path d="M234.758 128.037C235.389 133.031 237.524 137.826 240.814 141.636" stroke="#475059" stroke-width="0.839751" stroke-miterlimit="10" stroke-linecap="round" stroke-linejoin="round"/>
<path d="M203.214 128.037C202.583 133.031 200.448 137.826 197.158 141.636" stroke="#475059" stroke-width="0.839751" stroke-miterlimit="10" stroke-linecap="round" stroke-linejoin="round"/>
<path d="M210.945 64.8496L213.597 67.8438C216.376 70.9802 221.534 70.9061 224.208 67.6916L226.573 64.8496H210.945Z" fill="#FC7EE4" stroke="#475059" stroke-width="0.839751" stroke-miterlimit="10" stroke-linecap="round" stroke-linejoin="round"/>
<path d="M210.945 64.8496L213.597 67.8438C213.671 67.9263 213.746 68.0054 213.822 68.0836L217.056 64.8496H210.945Z" fill="#475059" stroke="#475059" stroke-width="0.839751" stroke-miterlimit="10" stroke-linecap="round" stroke-linejoin="round"/>
<path d="M227.894 191.699L247.157 191.619C247.157 199.086 252.253 206.946 259.149 208.725C261.015 209.207 261.294 211.736 259.579 212.613C257.736 213.555 254.994 214.326 250.955 214.326C250.955 214.326 240.023 214.912 234.749 208.431C234.126 207.665 232.914 207.847 232.56 208.769L231.337 212.235H231.337C231.11 212.946 230.444 213.462 229.657 213.462C228.736 213.462 227.981 212.755 227.902 211.854C227.899 211.855 227.897 211.855 227.894 211.856V191.699Z" fill="#2E3436"/>
<path d="M226.328 202.685L222.075 203.168L225.604 200.746L222.255 198.08L226.463 198.863L225.98 194.61L228.402 198.139L231.068 194.79L230.286 198.998L234.539 198.515L231.009 200.937L234.359 203.603L230.15 202.82L230.634 207.073L228.211 203.544L225.546 206.893L226.328 202.685Z" fill="white" stroke="#2E3436" stroke-width="0.839751" stroke-miterlimit="10" stroke-linecap="round" stroke-linejoin="round"/>
<path d="M210.077 191.699L190.814 191.619C190.814 199.086 185.719 206.946 178.822 208.726C176.956 209.208 176.677 211.736 178.393 212.613C180.235 213.555 182.977 214.326 187.016 214.326C187.016 214.326 197.948 214.912 203.222 208.431C203.845 207.666 205.058 207.847 205.411 208.769L206.634 212.235H206.634C206.861 212.947 207.527 213.463 208.314 213.463C209.235 213.463 209.991 212.756 210.069 211.855C210.072 211.855 210.075 211.856 210.077 211.856V191.699Z" fill="#2E3436"/>
<path d="M211.643 202.685L215.896 203.168L212.367 200.746L215.717 198.081L211.508 198.863L211.991 194.61L209.569 198.139L206.904 194.79L207.686 198.998L203.433 198.515L206.962 200.937L203.613 203.603L207.821 202.82L207.338 207.073L209.76 203.544L212.426 206.894L211.643 202.685Z" fill="white" stroke="#2E3436" stroke-width="0.839751" stroke-miterlimit="10" stroke-linecap="round" stroke-linejoin="round"/>
<path d="M169.722 63.4391L169.709 63.4627L169.709 63.4631C169.39 64.025 169.129 64.8818 168.929 65.987C168.727 67.0992 168.591 68.4291 168.508 69.8973C168.343 72.8332 168.392 76.2902 168.531 79.6008C168.669 82.9096 168.898 86.0638 169.092 88.3914C169.189 89.555 169.278 90.5115 169.342 91.1769C169.374 91.5096 169.4 91.7694 169.418 91.946L169.439 92.147L169.444 92.1982L169.445 92.211L169.446 92.2142L169.446 92.215C169.446 92.2151 169.446 92.2152 169.028 92.2596L169.446 92.2152L169.475 92.4866L169.238 92.6232C168.573 93.0071 167.358 93.3181 165.812 93.5768C164.245 93.8391 162.276 94.0568 160.056 94.227C155.614 94.5674 150.141 94.7194 144.818 94.6517C139.498 94.584 134.313 94.2967 130.451 93.7552C128.524 93.4849 126.904 93.1484 125.756 92.735C125.184 92.5291 124.702 92.2947 124.356 92.021C124.043 91.7737 123.795 91.4557 123.751 91.0632C122.863 89.4884 121.96 86.9124 121.204 83.9667C120.432 80.9572 119.805 77.5268 119.506 74.3145C119.208 71.1121 119.232 68.0868 119.786 65.9073C120.063 64.8188 120.483 63.896 121.103 63.2747C121.732 62.6447 122.543 62.3511 123.516 62.4771L123.61 62.4695C123.701 62.4622 123.837 62.4513 124.014 62.4373C124.367 62.4094 124.886 62.3689 125.545 62.319C126.862 62.2192 128.742 62.0813 130.989 61.9293C135.483 61.6253 141.451 61.2645 147.343 61.0376C153.232 60.811 159.057 60.7175 163.261 60.9505C165.356 61.0666 167.08 61.2651 168.211 61.5801C168.766 61.7345 169.244 61.9335 169.54 62.2143C169.696 62.3622 169.822 62.5516 169.86 62.785C169.897 63.0203 169.836 63.2432 169.722 63.4391Z" fill="#7BD527" stroke="#2E3436" stroke-width="0.839751" stroke-linecap="round"/>
<path d="M173.139 93.6746L173.288 93.609L173.442 93.6609L173.443 93.6611L173.705 93.7496L173.727 94.026L173.309 94.059C173.727 94.026 173.727 94.0261 173.727 94.0265L173.727 94.0281L173.728 94.0344L173.73 94.0593L173.738 94.1581L173.768 94.5437L173.883 96.0122C173.983 97.28 174.126 99.097 174.297 101.294C174.641 105.689 175.1 111.604 175.566 117.687C176.497 129.845 177.454 142.694 177.549 145.389L177.567 145.876L177.082 145.821C161.885 144.093 147.804 143.473 137.034 143.737C131.648 143.869 127.1 144.223 123.657 144.766C121.936 145.038 120.5 145.356 119.379 145.715C118.247 146.077 117.479 146.466 117.053 146.857L116.296 147.551L116.35 146.525L116.769 146.548C116.35 146.525 116.35 146.525 116.35 146.525L116.35 146.524L116.35 146.518L116.352 146.494L116.356 146.401C116.361 146.319 116.367 146.197 116.374 146.037C116.39 145.717 116.412 145.247 116.438 144.645C116.491 143.442 116.56 141.715 116.626 139.619C116.758 135.426 116.878 129.758 116.832 123.856C116.785 117.952 116.571 111.823 116.036 106.703C115.769 104.143 115.422 101.844 114.978 99.9568C114.555 98.1546 114.051 96.7667 113.47 95.883C113.315 95.8527 113.188 95.8237 113.091 95.7958C113.03 95.7781 112.956 95.754 112.891 95.7196C112.862 95.7041 112.801 95.6695 112.746 95.6076C112.686 95.54 112.593 95.3857 112.654 95.1881C112.703 95.0278 112.824 94.9534 112.862 94.9317C112.913 94.9026 112.962 94.8869 112.992 94.8782C113.056 94.86 113.127 94.8492 113.193 94.8415C113.328 94.8257 113.513 94.8159 113.735 94.81C114.625 94.7863 116.307 94.8221 118.545 94.8888C119.955 94.9308 121.59 94.9851 123.396 95.0451C127.341 95.1763 132.102 95.3345 137.117 95.4502C144.427 95.6187 152.263 95.6963 158.87 95.4671C162.175 95.3525 165.165 95.1613 167.626 94.8677C170.099 94.5726 171.996 94.1781 173.139 93.6746Z" fill="#7BD527" stroke="#2E3436" stroke-width="0.839751" stroke-linecap="round"/>
<path d="M190.19 100.465V101.033L190.131 101.015C189.982 102.761 190.164 105.614 190.545 109.005C190.962 112.718 191.612 117.025 192.293 121.121C192.974 125.215 193.686 129.094 194.228 131.95C194.499 133.378 194.728 134.549 194.888 135.364C194.969 135.771 195.032 136.089 195.075 136.305L195.125 136.552L195.137 136.614L195.14 136.63L195.141 136.634L195.141 136.635C195.141 136.635 195.141 136.635 194.73 136.719L195.141 136.635L195.232 137.083L194.779 137.136L179.674 138.9L179.229 138.952L179.206 138.504L177.199 99.2989L177.18 98.9208L177.554 98.8626L177.619 99.2774C177.554 98.8626 177.554 98.8625 177.554 98.8625L177.555 98.8624L177.556 98.8623L177.56 98.8617L177.574 98.8596L177.625 98.8524C177.669 98.8462 177.734 98.8377 177.818 98.8277C177.986 98.8077 178.232 98.7816 178.548 98.757C179.179 98.7078 180.087 98.6641 181.204 98.6851C183.439 98.7272 186.517 99.0278 189.894 100.064L189.78 100.435L190.19 100.465V100.465Z" fill="#7BD527" stroke="#2E3436" stroke-width="0.839751" stroke-linecap="round"/>
<path d="M103.216 110.758C103.11 111.164 103.11 111.164 103.111 111.164L103.112 111.165L103.115 111.165L103.121 111.167L103.136 111.17C103.148 111.173 103.163 111.176 103.18 111.179C103.216 111.185 103.265 111.192 103.326 111.197C103.448 111.208 103.62 111.213 103.845 111.197C104.296 111.163 104.955 111.043 105.843 110.71C107.618 110.044 110.314 108.527 114.106 105.138L114.344 104.925L114.221 104.676C113.007 100.028 110.216 95.8718 106.813 90.8056C106.707 90.6474 106.6 90.4882 106.493 90.3282C102.925 85.0128 98.6885 78.6151 94.7451 69.5089L94.548 69.0538L94.1316 69.3233L81.7458 77.3422L81.3261 77.6139L81.6662 77.9803C87.3844 84.1407 92.6762 92.3742 96.544 99.0824C98.4762 102.434 100.05 105.399 101.14 107.526C101.686 108.589 102.11 109.443 102.398 110.03C102.542 110.324 102.651 110.551 102.725 110.704C102.762 110.781 102.79 110.839 102.808 110.879L102.829 110.922L102.834 110.933L102.836 110.936L102.836 110.937C102.836 110.937 102.836 110.937 103.216 110.758ZM103.216 110.758L103.11 111.164L102.92 111.115L102.836 110.937L103.216 110.758Z" fill="#7BD527" stroke="#2E3436" stroke-width="0.839751" stroke-linecap="round"/>
<path d="M166.93 148.307L166.963 148.326L166.992 148.351L166.993 148.352L167.134 148.472L167.14 148.657L166.721 148.671C167.14 148.657 167.14 148.658 167.14 148.658L167.14 148.66L167.141 148.666L167.141 148.694L167.145 148.801L167.159 149.222C167.171 149.59 167.189 150.131 167.212 150.821C167.259 152.202 167.326 154.18 167.408 156.569C167.573 161.347 167.8 167.769 168.047 174.345C168.543 187.517 169.12 201.259 169.446 203.707L169.517 204.24L168.983 204.179C162.113 203.405 157.271 203.406 154.155 203.599C152.596 203.695 151.469 203.839 150.736 203.958C150.369 204.018 150.1 204.071 149.925 204.109C149.838 204.128 149.774 204.143 149.732 204.153C149.712 204.158 149.697 204.162 149.688 204.164L149.678 204.167L149.676 204.167L149.676 204.167L149.676 204.167L149.676 204.167L149.146 204.312V203.762V147.681V147.376L149.436 147.281L149.566 147.681C149.436 147.281 149.436 147.281 149.436 147.281L149.436 147.281L149.438 147.281L149.445 147.279L149.468 147.271C149.488 147.265 149.518 147.256 149.556 147.244C149.633 147.221 149.745 147.187 149.891 147.146C150.181 147.065 150.602 146.954 151.129 146.835C152.182 146.595 153.664 146.321 155.377 146.18C158.792 145.899 163.181 146.142 166.93 148.307Z" fill="#7BD527" stroke="#2E3436" stroke-width="0.839751" stroke-linecap="round"/>
<path d="M124.675 147.74V147.492L124.893 147.372C126.332 146.579 128.212 146.122 130.191 145.874C132.176 145.624 134.295 145.58 136.232 145.631C138.17 145.682 139.934 145.827 141.213 145.961C141.853 146.027 142.372 146.091 142.732 146.137C142.912 146.161 143.052 146.18 143.148 146.194C143.195 146.2 143.232 146.206 143.257 146.209L143.285 146.213L143.292 146.215L143.294 146.215L143.295 146.215C143.295 146.215 143.295 146.215 143.232 146.63L143.295 146.215L143.737 146.282L143.643 146.719C143.157 148.971 142.931 153.582 142.873 159.28C142.815 164.962 142.923 171.678 143.094 178.111C143.264 184.543 143.497 190.687 143.686 195.224C143.781 197.493 143.866 199.359 143.926 200.658C143.956 201.308 143.981 201.815 143.997 202.161L144.017 202.554L144.022 202.655L144.023 202.68L144.023 202.687L144.023 202.688C144.023 202.689 144.023 202.689 143.604 202.71L144.023 202.689L144.045 203.113L143.62 203.129C139.317 203.295 137.749 203.187 135.744 202.852C135.303 202.779 134.843 202.695 134.328 202.601C132.528 202.272 130.056 201.82 125.398 201.268L125.008 201.221L125.028 200.829C125.174 198.035 125.423 185.919 125.468 173.919C125.49 167.92 125.46 161.956 125.341 157.205C125.282 154.829 125.2 152.761 125.091 151.144C124.981 149.511 124.846 148.383 124.692 147.859L124.675 147.801V147.741V147.74Z" fill="#7BD527" stroke="#2E3436" stroke-width="0.839751" stroke-linecap="round"/>
<path d="M148.419 74.2058H148.408V73.7859C148.408 71.8908 148.815 69.9146 149.671 68.3963C150.532 66.8701 151.879 65.7649 153.736 65.7649C155.55 65.7649 157.433 66.8243 158.845 68.3137C160.261 69.8067 161.275 71.8053 161.275 73.7859C161.275 77.6625 158.434 80.8856 154.842 80.8856C151.38 80.8856 148.615 77.8925 148.419 74.2058Z" fill="white" fill-opacity="0.94118" stroke="#2E3436" stroke-width="0.839751" stroke-linecap="round"/>
<path d="M153.817 90.6756L157.451 90.8481L157.903 90.7577V91.2699V98.5273V98.9472H157.483H152.864H152.389L152.448 98.475L153.381 91.0427L153.429 90.6571L153.817 90.6756Z" fill="#0F775E" stroke="#2E3436" stroke-width="0.839751" stroke-linecap="round"/>
<path d="M133.492 91.0904L133.423 91.4977L133.817 91.4702L134.342 98.9609L134.369 99.357L133.976 99.4068L129.824 99.9316L129.351 99.9914V99.5151V91.103V90.6348L129.817 90.6856L132.944 91.0275L132.939 90.9629L133.492 91.0904L133.492 91.0904Z" fill="#0F775E" stroke="#2E3436" stroke-width="0.839751" stroke-linecap="round"/>
<path d="M136.515 139.962L137.696 139.715L137.03 140.514L137.545 149.158L137.587 149.86L136.949 149.564L133.457 147.945L133.241 147.844L133.216 147.607L132.556 141.174L132.518 140.798L132.888 140.72L136.515 139.962Z" fill="#0F775E" stroke="#2E3436" stroke-width="0.839751" stroke-linecap="round"/>
<path d="M160.163 140.637L161.572 141.138L160.467 141.369L160.966 148.494L160.99 148.838L160.658 148.929L156.342 150.113L155.799 150.262L155.811 149.7L155.976 141.782L155.983 141.448L156.31 141.38L159.578 140.697L159.559 140.422L160.163 140.637L160.163 140.637Z" fill="#0F775E" stroke="#2E3436" stroke-width="0.839751" stroke-linecap="round"/>
<path d="M111.272 102.458L112.097 102.205L112.019 102.407L119.619 102.015L120.129 101.989L120.057 102.493L119.419 106.982L119.367 107.346L118.999 107.343L109.862 107.246L109.257 107.24L109.475 106.675L111.003 102.709L111.339 102.838L111.272 102.458L111.272 102.458Z" fill="#0F775E" stroke="#2E3436" stroke-width="0.839751" stroke-linecap="round"/>
<path d="M172.72 101.645H173.148L173.146 101.706L180.206 102.796L180.598 102.856L180.559 103.251L180.153 107.417L180.106 107.891L179.642 107.785L172.564 106.179L172.231 106.104L172.237 105.762L172.301 102.058L172.688 102.064L172.72 101.645H172.72Z" fill="#0F775E" stroke="#2E3436" stroke-width="0.839751" stroke-linecap="round"/>
<path d="M133.322 66.1845C136.889 65.7641 140.089 68.6327 140.542 72.4826C140.764 74.3647 140.591 76.3749 139.918 77.9829C139.241 79.5994 138.033 80.8545 136.189 81.0718C134.387 81.2842 132.393 80.4523 130.816 79.1384C129.236 77.8213 127.995 75.9551 127.763 73.9881C127.309 70.1381 129.755 66.6048 133.322 66.1845Z" fill="white" fill-opacity="0.94118" stroke="#2E3436" stroke-width="0.839751" stroke-linecap="round"/>
<path d="M136.706 108.195L136.709 108.22V108.22C136.844 109.406 136.735 110.678 136.309 111.705C135.876 112.747 135.089 113.584 133.872 113.729C132.697 113.868 131.421 113.322 130.425 112.486C129.425 111.646 128.629 110.448 128.48 109.171C128.192 106.702 129.747 104.402 132.06 104.128C134.374 103.853 136.418 105.726 136.706 108.195Z" fill="#4E9A06" fill-opacity="0.94118" stroke="#2E3436" stroke-width="0.839751" stroke-linecap="round"/>
<path fill-rule="evenodd" clip-rule="evenodd" d="M133.006 106.984C132.896 106.022 132.131 105.324 131.297 105.426C130.463 105.528 129.875 106.392 129.984 107.354C130.093 108.316 131.164 109.221 131.997 109.119C132.831 109.016 133.115 107.946 133.005 106.984L133.006 106.984Z" fill="white" fill-opacity="0.94118"/>
<path d="M139.659 89.5456L139.888 84.6092L139.833 84.1724H140.309H149.882H150.302V84.5923V90.8241V91.3013L149.828 91.2405L140.025 89.9815L139.641 89.9322L139.659 89.5456Z" fill="white" fill-opacity="0.78431" stroke="#2E3436" stroke-width="0.839751" stroke-linecap="round"/>
<path d="M149.755 85.9761C146.346 87.2189 144.398 87.5416 140.789 86.7969C140.772 86.7969 140.758 86.8109 140.758 86.8284V88.3158C140.758 88.3333 140.772 88.3473 140.789 88.3473C144.086 89.5198 145.984 89.49 149.481 88.3473C149.499 88.3473 149.422 88.7893 149.422 88.7718L149.513 86.8284C149.513 86.8109 149.772 85.9761 149.755 85.9761Z" fill="#475059"/>
<path d="M151.639 71.6578C151.639 73.5717 152.823 75.1234 154.284 75.1234C155.745 75.1234 156.929 73.5718 156.929 71.6578C156.929 69.7438 155.745 68.1921 154.284 68.1921C152.823 68.1921 151.639 69.7438 151.639 71.6578Z" fill="#475059"/>
<path d="M131.574 71.6578C131.574 73.5717 132.758 75.1234 134.218 75.1234C135.679 75.1234 136.863 73.5718 136.863 71.6578C136.863 69.7438 135.679 68.1921 134.218 68.1921C132.758 68.1921 131.574 69.7438 131.574 71.6578Z" fill="#475059"/>
<path d="M162.043 49.9309V50.2752L161.837 50.3163L150.58 62.3418L150.464 62.4647L150.296 62.4741L145.653 62.732L144.744 62.7825L145.296 62.0583L145.63 62.3128C145.296 62.0583 145.296 62.0582 145.296 62.0581L145.296 62.0576L145.298 62.0559L145.303 62.0495L145.321 62.0252C145.338 62.0039 145.362 61.9727 145.394 61.9321C145.457 61.8509 145.551 61.7322 145.672 61.581C145.916 61.2786 146.272 60.8457 146.722 60.3219C147.623 59.2747 148.906 57.8617 150.434 56.399C153.437 53.5237 157.454 50.3889 161.408 49.5467L162.043 48.868V49.9309V49.9309Z" fill="#475059" stroke="#2E3436" stroke-width="0.839751"/>
<path d="M162.23 52.5881C160.503 52.5881 159.102 51.1875 159.102 49.4597C159.102 47.732 160.503 46.3313 162.23 46.3313C163.958 46.3313 165.359 47.732 165.359 49.4597C165.359 51.1875 163.958 52.5881 162.23 52.5881Z" fill="#475059" stroke="#2E3436" stroke-width="0.839751"/>
<path d="M121.362 48.7152L121.551 48.4709L121.575 47.966L121.575 47.966L121.743 47.9482L121.8 47.992C123.779 48.4071 126.125 49.4682 128.515 50.8064C130.951 52.1709 133.464 53.8409 135.728 55.4581C137.993 57.076 140.015 58.6447 141.47 59.8088C142.198 60.3909 142.784 60.8722 143.189 61.2081C143.391 61.3761 143.548 61.5078 143.655 61.5976C143.708 61.6425 143.749 61.677 143.776 61.7003L143.807 61.7268L143.815 61.7336L143.817 61.7353L143.818 61.7358C143.818 61.7359 143.818 61.736 143.545 62.0552L143.818 61.736L144.763 62.5434L143.522 62.4744L138.879 62.2165L138.748 62.2092L138.645 62.1289L121.362 48.7152Z" fill="#475059" stroke="#2E3436" stroke-width="0.839751"/>
<path d="M120.743 50.1401C122.471 50.1401 123.872 48.7395 123.872 47.0117C123.872 45.284 122.471 43.8833 120.743 43.8833C119.015 43.8833 117.615 45.284 117.615 47.0117C117.615 48.7395 119.015 50.1401 120.743 50.1401Z" fill="#475059" stroke="#2E3436" stroke-width="0.839751"/>
<path d="M192.902 144.311L187.727 141.354L187.304 141.112L187.605 140.73L190.442 137.118L190.8 136.663L191.085 137.09L197.483 142.209L197.682 142.368L197.633 142.617L195.312 154.483L195.197 155.071L194.684 154.763L192.104 153.215L191.871 153.076L191.903 152.806L192.902 144.311Z" fill="#2E3436" stroke="#2E3436" stroke-width="0.839751"/>
<path d="M188.135 137.306L188.418 136.871L188.78 137.332L191.618 140.943L191.918 141.326L191.496 141.567L186.32 144.525L187.319 153.02L187.351 153.289L187.118 153.429L184.539 154.976L184.026 155.284L183.911 154.697L181.589 142.831L181.54 142.581L181.739 142.423L188.135 137.306Z" fill="#2E3436" stroke="#2E3436" stroke-width="0.839751"/>
<path d="M87.7659 67.1243L84.7686 72.2774L84.524 72.6979L84.9758 72.8784L89.2408 74.5821L89.915 74.8514L89.8278 74.2417L92.7838 66.6484L92.8761 66.4114L92.7088 66.2199L84.7542 57.114L84.3605 56.6633L84.0706 57.1869L82.6137 59.8189L82.4823 60.0563L82.6448 60.2736L87.7659 67.1243Z" fill="#2E3436" stroke="#2E3436" stroke-width="0.839751"/>
<path d="M87.7391 75.2043L88.2247 75.5866L88.3273 74.8648L88.9734 70.3177L89.0419 69.8361L88.5553 69.8388L82.5941 69.8725L79.2028 62.0203L79.0952 61.7712L78.8239 61.7669L75.816 61.72L75.2176 61.7106L75.4124 62.2765L79.3487 73.7088L79.4315 73.9493L79.683 73.9873L87.7391 75.2043Z" fill="#2E3436" stroke="#2E3436" stroke-width="0.839751"/>
<path d="M165.312 204.582C165.433 204.58 165.548 204.631 165.63 204.72L174.385 214.387C174.495 214.509 174.524 214.683 174.46 214.834C174.396 214.985 174.249 215.084 174.085 215.089L147.819 215.819C147.668 215.823 147.526 215.745 147.448 215.615C147.37 215.484 147.368 215.322 147.443 215.191L153.28 204.976C153.354 204.847 153.49 204.767 153.638 204.765L165.312 204.582Z" fill="#2E3436" stroke="#2E3436" stroke-width="0.839751" stroke-linecap="round" stroke-linejoin="round"/>
<path d="M139.774 203.305C139.887 203.303 139.995 203.346 140.076 203.425C140.116 203.464 140.147 203.511 140.169 203.561L145.274 215.259C145.329 215.386 145.319 215.533 145.245 215.65C145.171 215.768 145.044 215.841 144.906 215.847L122.288 216.73C122.141 216.736 122.002 216.665 121.921 216.542C121.84 216.42 121.829 216.264 121.892 216.131L127.728 203.766C127.797 203.622 127.941 203.529 128.1 203.526L139.774 203.305Z" fill="#2E3436" stroke="#2E3436" stroke-width="0.839751" stroke-linecap="round" stroke-linejoin="round"/>
<path d="M165.143 159.957L160.401 157.768L160.577 157.387L160.753 157.006L165.495 159.195L165.319 159.576L165.143 159.957Z" stroke="#2E3436" stroke-width="0.839751"/>
<path d="M164.261 155.502L162.254 162.068L161.853 161.946L161.451 161.823L163.458 155.256L163.859 155.379L164.261 155.502Z" stroke="#2E3436" stroke-width="0.839751"/>
</svg>
