<svg width="313" height="280" viewBox="0 0 313 280" fill="none" xmlns="http://www.w3.org/2000/svg">
<path d="M5.93074 229.118C8.89908 231.17 9.54511 235.108 7.37397 237.915C9.54511 235.108 13.71 234.496 16.6822 236.55C13.71 234.496 13.064 230.558 15.2352 227.751C13.0638 230.558 8.89889 231.17 5.93074 229.118Z" fill="#EDE73B" stroke="#2E3436" stroke-width="0.761076" stroke-miterlimit="10" stroke-linecap="round" stroke-linejoin="round"/>
<path d="M274.931 10.1185C277.899 12.1703 278.545 16.108 276.374 18.9151C278.545 16.108 282.71 15.4958 285.682 17.5503C282.71 15.4958 282.064 11.5582 284.235 8.75097C282.064 11.558 277.899 12.1702 274.931 10.1185Z" fill="#EDE73B" stroke="#2E3436" stroke-width="0.761076" stroke-miterlimit="10" stroke-linecap="round" stroke-linejoin="round"/>
<path d="M24.3516 235.167C26.3021 236.515 26.7267 239.103 25.3 240.948C26.7267 239.103 29.4638 238.701 31.4168 240.051C29.4636 238.701 29.0393 236.113 30.4659 234.268C29.0393 236.113 26.3023 236.515 24.3516 235.167Z" fill="#EDE73B" stroke="#2E3436" stroke-width="0.761076" stroke-miterlimit="10" stroke-linecap="round" stroke-linejoin="round"/>
<path d="M293.352 16.167C295.302 17.5153 295.727 20.1031 294.3 21.9477C295.727 20.1031 298.464 19.7008 300.417 21.0508C298.464 19.7006 298.039 17.113 299.466 15.2684C298.039 17.113 295.302 17.5154 293.352 16.167Z" fill="#EDE73B" stroke="#2E3436" stroke-width="0.761076" stroke-miterlimit="10" stroke-linecap="round" stroke-linejoin="round"/>
<path d="M20.1851 222.34C22.1356 223.688 22.5602 226.276 21.1335 228.12C22.5602 226.276 25.2973 225.873 27.2503 227.223C25.2971 225.873 24.8728 223.286 26.2994 221.441C24.8728 223.286 22.1358 223.688 20.1851 222.34Z" fill="#EDE73B" stroke="#2E3436" stroke-width="0.761076" stroke-miterlimit="10" stroke-linecap="round" stroke-linejoin="round"/>
<path d="M289.185 3.33966C291.136 4.68794 291.56 7.2757 290.134 9.12033C291.56 7.2757 294.297 6.87342 296.25 8.22341C294.297 6.87329 293.873 4.28565 295.299 2.44102C293.873 4.28565 291.136 4.68807 289.185 3.33966Z" fill="#EDE73B" stroke="#2E3436" stroke-width="0.761076" stroke-miterlimit="10" stroke-linecap="round" stroke-linejoin="round"/>
<path d="M196.132 229.072C196.132 226.043 193.362 223.057 188.818 221.152C185.875 219.897 182.283 219.118 178.993 218.166C175.704 217.214 172.458 215.916 171.03 214.098H145.971C144.543 215.916 141.297 217.214 138.008 218.166C134.719 219.118 131.127 219.941 128.184 221.152C123.639 223.057 120.913 226.043 120.87 229.072H196.132Z" fill="#E0E0E0" stroke="#2E3436" stroke-width="0.836456" stroke-miterlimit="10" stroke-linecap="round" stroke-linejoin="round"/>
<path d="M292.255 37H1.1167V200.595H292.255V37Z" fill="#2E3436" stroke="#2E3436" stroke-width="0.836456" stroke-miterlimit="10" stroke-linecap="round" stroke-linejoin="round"/>
<path d="M304.114 48.469H12.9326V214.055H304.114V48.469Z" fill="#F4FFE9" stroke="#2E3436" stroke-width="0.836456" stroke-miterlimit="10" stroke-linecap="round" stroke-linejoin="round"/>
<path d="M304.113 197.565H12.9316V214.055H304.113V197.565Z" fill="#E0E0E0" stroke="#2E3436" stroke-width="0.836456" stroke-miterlimit="10" stroke-linecap="round" stroke-linejoin="round"/>
<path d="M158.479 208.904C160.2 208.904 161.595 207.509 161.595 205.788C161.595 204.067 160.2 202.672 158.479 202.672C156.758 202.672 155.363 204.067 155.363 205.788C155.363 207.509 156.758 208.904 158.479 208.904Z" fill="#2E3436" stroke="#2E3436" stroke-width="0.836456" stroke-miterlimit="10" stroke-linecap="round" stroke-linejoin="round"/>
<path d="M166.586 278.895C155.648 248.076 126.25 226.008 91.6701 226.008C57.0906 226.008 27.6539 248.076 16.7158 278.895H166.586Z" fill="white" stroke="#2E3436" stroke-width="0.767581" stroke-miterlimit="10" stroke-linecap="round" stroke-linejoin="round"/>
<path d="M166.586 278.895C155.648 248.076 126.25 226.008 91.6701 226.008C57.0906 226.008 27.6539 248.076 16.7158 278.895H166.586Z" stroke="#2E3436" stroke-width="0.767581" stroke-miterlimit="10" stroke-linecap="round" stroke-linejoin="round"/>
<path d="M316.495 278.895C305.557 248.076 276.12 226.008 241.54 226.008C206.961 226.008 177.562 248.076 166.586 278.895H316.495Z" fill="#0F775E" stroke="#2E3436" stroke-width="0.767581" stroke-miterlimit="10" stroke-linecap="round" stroke-linejoin="round"/>
<path d="M101.879 218.025H99.6909C98.8466 218.025 98.1558 217.335 98.1558 216.49V216.145C98.1558 215.3 98.8466 214.61 99.6909 214.61H101.879C102.723 214.61 103.414 215.3 103.414 216.145V216.49C103.414 217.335 102.723 218.025 101.879 218.025Z" fill="#FC7EE4" stroke="#2E3436" stroke-width="0.767581" stroke-miterlimit="10" stroke-linecap="round" stroke-linejoin="round"/>
<path d="M95.9685 226.008H87.3716C85.3375 226.008 83.7256 224.358 83.7256 222.362V210.541C83.7256 208.507 85.3759 206.895 87.3716 206.895H95.9685C98.0026 206.895 99.6145 208.546 99.6145 210.541V222.362C99.6145 224.358 97.9642 226.008 95.9685 226.008Z" fill="#FC7EE4" stroke="#2E3436" stroke-width="0.767581" stroke-miterlimit="10" stroke-linecap="round" stroke-linejoin="round"/>
<path d="M99.4607 198.644H91.9768C91.7849 198.644 88.8297 198.644 88.8297 198.644C85.9512 198.682 83.2263 200.947 82.4204 203.902C82.0749 205.284 82.0366 206.857 81.0387 207.855C80.8084 208.085 80.5398 208.239 80.2711 208.392C79.9257 208.354 79.5803 208.354 79.2349 208.354C72.4802 208.354 67.0687 214.034 67.4909 220.865C67.8363 226.737 72.6337 231.496 78.5057 231.88C85.3372 232.302 91.0173 226.891 91.0173 220.136C91.0173 218.102 90.48 216.183 89.5972 214.494C89.367 214.072 89.4054 213.612 89.674 213.228C90.2497 212.499 91.3243 211.386 93.0514 210.848C95.2006 210.196 97.5801 209.966 99.7293 209.966C102.876 209.889 105.409 207.202 105.218 203.979C105.102 200.985 102.493 198.644 99.4607 198.644Z" fill="#2E3436" stroke="#2E3436" stroke-width="0.767581" stroke-miterlimit="10" stroke-linecap="round" stroke-linejoin="round"/>
<path d="M97.3117 214.802C97.6085 214.802 97.849 214.269 97.849 213.612C97.849 212.955 97.6085 212.422 97.3117 212.422C97.015 212.422 96.7744 212.955 96.7744 213.612C96.7744 214.269 97.015 214.802 97.3117 214.802Z" fill="#2E3436" stroke="#2E3436" stroke-width="0.767581" stroke-miterlimit="10" stroke-linecap="round" stroke-linejoin="round"/>
<path d="M99.6149 220.098L96.084 218.179" stroke="#2E3436" stroke-width="0.767581" stroke-miterlimit="10" stroke-linecap="round" stroke-linejoin="round"/>
<path d="M230.679 217.949H232.866C233.711 217.949 234.401 217.258 234.401 216.413V216.068C234.401 215.224 233.711 214.533 232.866 214.533H230.679C229.834 214.533 229.144 215.224 229.144 216.068V216.413C229.144 217.258 229.834 217.949 230.679 217.949Z" fill="#EDE73B" stroke="#2E3436" stroke-width="0.767581" stroke-miterlimit="10" stroke-linecap="round" stroke-linejoin="round"/>
<path d="M236.589 225.931H245.186C247.22 225.931 248.832 224.281 248.832 222.285V210.465C248.832 208.431 247.182 206.819 245.186 206.819H236.589C234.555 206.819 232.943 208.469 232.943 210.465V222.285C232.943 224.281 234.594 225.931 236.589 225.931Z" fill="#EDE73B" stroke="#2E3436" stroke-width="0.767581" stroke-miterlimit="10" stroke-linecap="round" stroke-linejoin="round"/>
<path d="M232.943 220.021L236.474 218.87" stroke="#2E3436" stroke-width="0.767581" stroke-miterlimit="10" stroke-linecap="round" stroke-linejoin="round"/>
<path d="M235.668 214.418C235.965 214.418 236.205 213.885 236.205 213.228C236.205 212.571 235.965 212.038 235.668 212.038C235.371 212.038 235.131 212.571 235.131 213.228C235.131 213.885 235.371 214.418 235.668 214.418Z" fill="#2E3436" stroke="#2E3436" stroke-width="0.767581" stroke-miterlimit="10" stroke-linecap="round" stroke-linejoin="round"/>
<path d="M149.392 254.677C149.545 254.447 149.737 254.178 149.929 253.833L150.044 253.641C150.697 252.567 151.042 251.3 151.042 249.995C151.042 246.004 147.818 242.818 143.865 242.818C141.14 242.818 138.799 244.315 137.571 246.541L130.701 256.596L124.944 249.995C124.906 249.995 124.868 250.034 124.829 250.034L113.699 236.908C113.661 236.87 113.623 236.793 113.584 236.754L113.431 236.562C112.126 235.104 110.245 234.221 108.134 234.221C104.143 234.221 100.958 237.445 100.958 241.398C100.958 243.01 101.495 244.507 102.378 245.697L102.493 245.812C102.569 245.927 102.685 246.042 102.8 246.157L112.932 258.247C112.893 258.285 112.855 258.362 112.778 258.4L107.021 251.645C106.638 251.031 106.139 250.456 105.601 249.957C104.335 248.882 102.723 248.23 100.958 248.23C96.9662 248.23 93.7807 251.454 93.7807 255.407C93.7807 256.865 94.2029 258.208 94.9704 259.36C95.2775 259.82 95.6229 260.204 96.0067 260.588L105.41 271.871C105.41 271.948 105.371 271.986 105.371 272.063L101.533 267.573C101.149 266.959 100.651 266.383 100.113 265.884C98.8467 264.809 97.2348 264.157 95.4694 264.157C91.4779 264.157 88.2925 267.381 88.2925 271.334C88.2925 273.138 88.9449 274.788 90.0579 276.016L92.5142 278.895H180.402C166.778 278.434 155.072 271.833 143.981 263.351L149.392 254.677Z" fill="#EDE73B" stroke="#2E3436" stroke-width="0.767581" stroke-miterlimit="10" stroke-linecap="round" stroke-linejoin="round"/>
<path d="M183.242 278.895H180.172C181.208 278.933 182.206 278.933 183.242 278.895Z" fill="#EDE73B" stroke="#2E3436" stroke-width="0.767581" stroke-miterlimit="10" stroke-linecap="round" stroke-linejoin="round"/>
<path d="M218.896 278.933L231.753 258.822" stroke="#2E3436" stroke-width="0.767581" stroke-miterlimit="10" stroke-linecap="round" stroke-linejoin="round"/>
<path d="M223.041 272.447L229.336 278.741H218.896" fill="#2E3436"/>
<path d="M223.041 272.447L229.336 278.741H218.896" stroke="#2E3436" stroke-width="0.767581" stroke-miterlimit="10" stroke-linecap="round" stroke-linejoin="round"/>
<path d="M242.5 218.563C242.922 218.755 243.383 218.87 243.882 218.87C245.609 218.87 246.99 217.488 246.99 215.761C246.99 214.034 245.609 212.652 243.882 212.652C243.383 212.652 242.922 212.767 242.5 212.998" fill="#EDE73B"/>
<path d="M242.5 218.563C242.922 218.755 243.383 218.87 243.882 218.87C245.609 218.87 246.99 217.488 246.99 215.761C246.99 214.034 245.609 212.652 243.882 212.652C243.383 212.652 242.922 212.767 242.5 212.998" stroke="#2E3436" stroke-width="0.767581" stroke-miterlimit="10" stroke-linecap="round" stroke-linejoin="round"/>
<path d="M242.5 213.151L240.927 209.428L239.391 213.19C239.238 213.458 239.161 213.765 239.161 214.072C239.161 215.07 239.967 215.876 240.965 215.876C241.963 215.876 242.769 215.07 242.769 214.072C242.73 213.727 242.654 213.42 242.5 213.151Z" fill="#47C3F1" stroke="#2E3436" stroke-width="0.767581" stroke-miterlimit="10" stroke-linecap="round" stroke-linejoin="round"/>
</svg>
