<svg width="91" height="232" viewBox="0 0 91 232" fill="none" xmlns="http://www.w3.org/2000/svg">
<path d="M22.1401 141.428C31.6078 135.275 44.267 137.961 50.4204 147.429C44.267 137.961 46.9529 125.302 56.4327 119.14C46.9529 125.302 34.2937 122.616 28.1403 113.148C34.2931 122.616 31.6072 135.275 22.1401 141.428Z" fill="#EDE73B" stroke="#2E3436" stroke-width="2" stroke-miterlimit="10" stroke-linecap="round" stroke-linejoin="round"/>
<path d="M61.2445 66.6407C67.4013 62.6392 75.6342 64.386 79.6356 70.5427C75.6342 64.386 77.381 56.1531 83.5455 52.1466C77.3804 56.1535 69.148 54.4064 65.1466 48.2497C69.148 54.4064 67.4019 62.6389 61.2445 66.6407Z" fill="#EDE73B" stroke="#2E3436" stroke-width="2" stroke-miterlimit="10" stroke-linecap="round" stroke-linejoin="round"/>
<path d="M20.9657 10.9793C15.4537 10.9793 10.9864 15.4466 10.9864 20.9585C10.9864 15.4466 6.51916 10.9793 1 10.9793C6.51916 10.9793 10.9864 6.51196 10.9864 1C10.9864 6.51196 15.453 10.9793 20.9657 10.9793Z" fill="#EDE73B" stroke="#2E3436" stroke-width="2" stroke-miterlimit="10" stroke-linecap="round" stroke-linejoin="round"/>
<path d="M74.9657 220.979C69.4537 220.979 64.9864 225.447 64.9864 230.959C64.9864 225.447 60.5192 220.979 55 220.979C60.5192 220.979 64.9864 216.512 64.9864 211C64.9864 216.512 69.453 220.979 74.9657 220.979Z" fill="#EDE73B" stroke="#2E3436" stroke-width="2" stroke-miterlimit="10" stroke-linecap="round" stroke-linejoin="round"/>
</svg>
