<svg width="313" height="229" viewBox="0 0 313 229" fill="none" xmlns="http://www.w3.org/2000/svg">
<path d="M259.726 152.501H61.7316C58.4684 152.501 55.8228 149.856 55.8228 146.592V6.90889C55.8228 3.6456 58.4684 1 61.7316 1H259.726C262.99 1 265.635 3.6456 265.635 6.90889V146.593C265.635 149.856 262.99 152.501 259.726 152.501Z" fill="#FFF2ED" stroke="#2E3436" stroke-width="0.647845" stroke-miterlimit="10" stroke-linecap="round" stroke-linejoin="round"/>
<path d="M260.656 1H60.7999C58.0505 1 55.8218 3.22874 55.8218 5.97815V18.0987H265.634V5.97815C265.634 3.22874 263.405 1 260.656 1Z" fill="#E0E0E0" stroke="#2E3436" stroke-width="0.647845" stroke-miterlimit="10" stroke-linecap="round" stroke-linejoin="round"/>
<path d="M65.118 12.9037C66.9706 12.9037 68.4724 11.4019 68.4724 9.54937C68.4724 7.69681 66.9706 6.19501 65.118 6.19501C63.2655 6.19501 61.7637 7.69681 61.7637 9.54937C61.7637 11.4019 63.2655 12.9037 65.118 12.9037Z" fill="#FF0000" stroke="#2E3436" stroke-width="0.647845" stroke-miterlimit="10" stroke-linecap="round" stroke-linejoin="round"/>
<path d="M75.1122 12.9037C76.9647 12.9037 78.4665 11.4019 78.4665 9.54937C78.4665 7.69681 76.9647 6.19501 75.1122 6.19501C73.2596 6.19501 71.7578 7.69681 71.7578 9.54937C71.7578 11.4019 73.2596 12.9037 75.1122 12.9037Z" fill="#EDE73B" stroke="#2E3436" stroke-width="0.647845" stroke-miterlimit="10" stroke-linecap="round" stroke-linejoin="round"/>
<path d="M84.8993 12.9037C86.7518 12.9037 88.2536 11.4019 88.2536 9.54937C88.2536 7.69681 86.7518 6.19501 84.8993 6.19501C83.0467 6.19501 81.5449 7.69681 81.5449 9.54937C81.5449 11.4019 83.0467 12.9037 84.8993 12.9037Z" fill="#0F775E" stroke="#2E3436" stroke-width="0.647845" stroke-miterlimit="10" stroke-linecap="round" stroke-linejoin="round"/>
<path d="M179.892 140.608V102.443" stroke="#2E3436" stroke-width="0.647845" stroke-miterlimit="10" stroke-linecap="round" stroke-linejoin="round"/>
<path d="M210.566 140.961V102.796" stroke="#2E3436" stroke-width="0.647845" stroke-miterlimit="10" stroke-linecap="round" stroke-linejoin="round"/>
<path d="M241.169 140.961V102.796" stroke="#2E3436" stroke-width="0.647845" stroke-miterlimit="10" stroke-linecap="round" stroke-linejoin="round"/>
<path d="M165.114 132.033L186.533 118.311L203.55 125.172L227.375 110.532L241.169 114.681L256.79 102.443" stroke="#2E3436" stroke-width="0.647845" stroke-miterlimit="10" stroke-linecap="round" stroke-linejoin="round"/>
<path d="M159.019 102.443H259.251" stroke="#2E3436" stroke-width="0.647845" stroke-miterlimit="10" stroke-linecap="round" stroke-linejoin="round"/>
<path d="M159.018 112.598H259.25" stroke="#2E3436" stroke-width="0.647845" stroke-miterlimit="10" stroke-linecap="round" stroke-linejoin="round"/>
<path d="M159.018 121.879H259.25" stroke="#2E3436" stroke-width="0.647845" stroke-miterlimit="10" stroke-linecap="round" stroke-linejoin="round"/>
<path d="M159.018 140.608H259.25" stroke="#2E3436" stroke-width="0.647845" stroke-miterlimit="10" stroke-linecap="round" stroke-linejoin="round"/>
<path d="M159.018 132.033H259.25" stroke="#2E3436" stroke-width="0.647845" stroke-miterlimit="10" stroke-linecap="round" stroke-linejoin="round"/>
<path d="M165.114 134.591C166.527 134.591 167.672 133.446 167.672 132.033C167.672 130.621 166.527 129.476 165.114 129.476C163.702 129.476 162.557 130.621 162.557 132.033C162.557 133.446 163.702 134.591 165.114 134.591Z" fill="#47C3F1" stroke="#2E3436" stroke-width="0.647845" stroke-miterlimit="10" stroke-linecap="round" stroke-linejoin="round"/>
<path d="M186.736 121.262C188.148 121.262 189.293 120.117 189.293 118.705C189.293 117.292 188.148 116.147 186.736 116.147C185.323 116.147 184.178 117.292 184.178 118.705C184.178 120.117 185.323 121.262 186.736 121.262Z" fill="#FF0000" stroke="#2E3436" stroke-width="0.647845" stroke-miterlimit="10" stroke-linecap="round" stroke-linejoin="round"/>
<path d="M203.429 127.61C204.841 127.61 205.986 126.465 205.986 125.053C205.986 123.64 204.841 122.495 203.429 122.495C202.016 122.495 200.871 123.64 200.871 125.053C200.871 126.465 202.016 127.61 203.429 127.61Z" fill="#47C3F1" stroke="#2E3436" stroke-width="0.647845" stroke-miterlimit="10" stroke-linecap="round" stroke-linejoin="round"/>
<path d="M227.078 113.189C228.491 113.189 229.636 112.044 229.636 110.631C229.636 109.219 228.491 108.074 227.078 108.074C225.666 108.074 224.521 109.219 224.521 110.631C224.521 112.044 225.666 113.189 227.078 113.189Z" fill="#FF0000" stroke="#2E3436" stroke-width="0.647845" stroke-miterlimit="10" stroke-linecap="round" stroke-linejoin="round"/>
<path d="M241.169 117.238C242.582 117.238 243.727 116.093 243.727 114.681C243.727 113.268 242.582 112.123 241.169 112.123C239.757 112.123 238.612 113.268 238.612 114.681C238.612 116.093 239.757 117.238 241.169 117.238Z" fill="#47C3F1" stroke="#2E3436" stroke-width="0.647845" stroke-miterlimit="10" stroke-linecap="round" stroke-linejoin="round"/>
<path d="M256.692 105.001C258.105 105.001 259.25 103.856 259.25 102.443C259.25 101.031 258.105 99.8859 256.692 99.8859C255.28 99.8859 254.135 101.031 254.135 102.443C254.135 103.856 255.28 105.001 256.692 105.001Z" fill="#FF0000" stroke="#2E3436" stroke-width="0.647845" stroke-miterlimit="10" stroke-linecap="round" stroke-linejoin="round"/>
<path d="M179.892 141.55C180.411 141.55 180.833 141.128 180.833 140.608C180.833 140.088 180.411 139.667 179.892 139.667C179.372 139.667 178.95 140.088 178.95 140.608C178.95 141.128 179.372 141.55 179.892 141.55Z" fill="#2E3436" stroke="#2E3436" stroke-width="0.647845" stroke-miterlimit="10" stroke-linecap="round" stroke-linejoin="round"/>
<path d="M210.495 141.55C211.015 141.55 211.436 141.128 211.436 140.608C211.436 140.088 211.015 139.667 210.495 139.667C209.975 139.667 209.554 140.088 209.554 140.608C209.554 141.128 209.975 141.55 210.495 141.55Z" fill="#2E3436" stroke="#2E3436" stroke-width="0.647845" stroke-miterlimit="10" stroke-linecap="round" stroke-linejoin="round"/>
<path d="M241.24 141.55C241.76 141.55 242.181 141.128 242.181 140.608C242.181 140.088 241.76 139.667 241.24 139.667C240.72 139.667 240.298 140.088 240.298 140.608C240.298 141.128 240.72 141.55 241.24 141.55Z" fill="#2E3436" stroke="#2E3436" stroke-width="0.647845" stroke-miterlimit="10" stroke-linecap="round" stroke-linejoin="round"/>
<path d="M203.906 30.6922V30.2948C203.906 29.024 205.165 27.9935 206.718 27.9935H234.751C236.304 27.9935 237.563 29.0237 237.563 30.2948V31.6462C237.563 32.9171 236.304 33.9476 234.751 33.9476H206.718C205.165 33.9476 203.906 32.9174 203.906 31.6462V30.6922Z" fill="#2E3436" stroke="#2E3436" stroke-width="0.647845" stroke-miterlimit="10" stroke-linecap="round" stroke-linejoin="round"/>
<path d="M197.91 43.4686V35.5553C197.91 32.5102 200.378 30.0416 203.423 30.0416H235.353C232.308 30.0416 229.839 32.5102 229.839 35.5553V43.4686" fill="white"/>
<path d="M197.91 43.4686V35.5553C197.91 32.5102 200.378 30.0416 203.423 30.0416H235.353C232.308 30.0416 229.839 32.5102 229.839 35.5553V43.4686" stroke="#2E3436" stroke-width="0.647845" stroke-miterlimit="10" stroke-linecap="round" stroke-linejoin="round"/>
<path d="M192.208 57.0915V49.1783C192.208 46.1332 194.677 43.6646 197.722 43.6646H229.652C226.607 43.6646 224.138 46.1332 224.138 49.1783V57.0915" fill="white"/>
<path d="M192.208 57.0915V49.1783C192.208 46.1332 194.677 43.6646 197.722 43.6646H229.652C226.607 43.6646 224.138 46.1332 224.138 49.1783V57.0915" stroke="#2E3436" stroke-width="0.647845" stroke-miterlimit="10" stroke-linecap="round" stroke-linejoin="round"/>
<path d="M218.324 90.7696H186.394V70.4363V62.5231C186.394 59.478 188.863 57.0094 191.908 57.0094H223.837C220.792 57.0094 218.323 59.478 218.323 62.5231V70.4363V90.7696" fill="white"/>
<path d="M218.324 90.7696H186.394V70.4363V62.5231C186.394 59.478 188.863 57.0094 191.908 57.0094H223.837C220.792 57.0094 218.323 59.478 218.323 62.5231V70.4363V90.7696" stroke="#2E3436" stroke-width="0.647845" stroke-miterlimit="10" stroke-linecap="round" stroke-linejoin="round"/>
<path d="M192.851 62.5023H190.877V85.4198H192.851V62.5023Z" fill="#2E3436"/>
<path d="M198.328 73.8893H196.354V85.3483H198.328V73.8893Z" fill="#2E3436"/>
<path d="M203.951 34.8356H223.837" stroke="#2E3436" stroke-width="0.647845" stroke-miterlimit="10" stroke-linecap="round" stroke-linejoin="round"/>
<path d="M203.951 38.4037H223.837" stroke="#2E3436" stroke-width="0.647845" stroke-miterlimit="10" stroke-linecap="round" stroke-linejoin="round"/>
<path d="M198.223 47.7762H218.109" stroke="#2E3436" stroke-width="0.647845" stroke-miterlimit="10" stroke-linecap="round" stroke-linejoin="round"/>
<path d="M198.223 51.4526H218.109" stroke="#2E3436" stroke-width="0.647845" stroke-miterlimit="10" stroke-linecap="round" stroke-linejoin="round"/>
<path d="M212.627 80.9137C212.627 80.8484 212.625 80.7834 212.622 80.7189C212.619 80.6538 212.591 80.5907 212.586 80.5264C212.58 80.4617 212.599 80.3942 212.59 80.3302C212.582 80.2657 212.542 80.2066 212.53 80.1429C212.518 80.0789 212.512 80.0147 212.498 79.9518C212.483 79.8884 212.46 79.8282 212.443 79.7659C212.426 79.7033 212.451 79.6277 212.431 79.5661C212.411 79.5044 212.369 79.4499 212.346 79.3892C212.323 79.3284 212.292 79.271 212.266 79.2114C212.241 79.1517 212.225 79.0872 212.197 79.029C212.169 78.9704 212.149 78.907 212.119 78.8501C212.088 78.7929 212.04 78.7452 212.006 78.6896C211.973 78.634 211.957 78.5666 211.921 78.5126C211.885 78.4584 211.831 78.4164 211.793 78.3641C211.755 78.3118 211.7 78.2717 211.66 78.221C211.62 78.1703 211.594 78.1074 211.551 78.0586C211.509 78.0098 211.447 77.9784 211.403 77.9318C211.358 77.8849 211.317 77.8348 211.271 77.7898C211.224 77.745 211.184 77.6933 211.135 77.6507C211.086 77.6082 211.051 77.5475 211.001 77.5071C210.95 77.4667 210.875 77.458 210.822 77.4201C210.77 77.3819 210.74 77.3106 210.686 77.2748C210.632 77.239 210.556 77.2382 210.5 77.2049C210.445 77.1715 210.392 77.1333 210.336 77.1027C210.279 77.0721 210.224 77.0366 210.166 77.0084C210.107 76.9802 210.043 76.9647 209.984 76.9392C209.924 76.9138 209.86 76.9024 209.799 76.8794C209.739 76.8566 209.693 76.7923 209.631 76.7723C209.569 76.7522 209.507 76.73 209.445 76.7127C209.382 76.6956 209.315 76.6931 209.252 76.6788C209.189 76.6644 209.125 76.6547 209.061 76.6433C208.997 76.6319 208.93 76.643 208.865 76.6343C208.801 76.6257 208.74 76.5872 208.675 76.5815C208.611 76.5758 208.545 76.5969 208.479 76.5942C208.415 76.5912 208.35 76.5907 208.285 76.5907C208.22 76.5907 208.156 76.5953 208.091 76.598C208.026 76.601 207.961 76.5926 207.897 76.5983C207.832 76.604 207.769 76.623 207.705 76.6316C207.641 76.6403 207.577 76.6484 207.513 76.6598C207.449 76.6715 207.379 76.6509 207.316 76.6652C207.252 76.6796 207.196 76.7224 207.133 76.7398C207.071 76.7571 207.005 76.7644 206.944 76.7842C206.882 76.8043 206.823 76.8327 206.762 76.8552C206.701 76.878 206.64 76.8989 206.58 76.9243C206.521 76.9498 206.462 76.9775 206.403 77.0057C206.345 77.0338 206.28 77.0498 206.223 77.0807C206.165 77.1116 206.11 77.1477 206.055 77.181C205.999 77.2143 205.945 77.2518 205.891 77.2875C205.837 77.3233 205.784 77.3613 205.732 77.3995C205.679 77.4377 205.647 77.5016 205.596 77.542C205.545 77.5824 205.484 77.6093 205.435 77.6521C205.386 77.6946 205.346 77.7467 205.3 77.7914C205.253 77.8361 205.215 77.8887 205.17 77.9356C205.125 77.9825 205.08 78.0277 205.037 78.0768C204.995 78.1256 204.927 78.1535 204.887 78.2042C204.846 78.2549 204.819 78.3161 204.781 78.3684C204.743 78.4207 204.71 78.4771 204.675 78.5311C204.639 78.585 204.615 78.646 204.582 78.7018C204.549 78.7574 204.499 78.8032 204.468 78.8601C204.437 78.917 204.41 78.9758 204.382 79.0341C204.353 79.0924 204.304 79.142 204.279 79.2016C204.253 79.261 204.227 79.3214 204.204 79.3824C204.181 79.4428 204.206 79.5203 204.186 79.5821C204.166 79.6437 204.129 79.6995 204.112 79.7621C204.095 79.8244 204.099 79.8917 204.085 79.9551C204.07 80.018 204.035 80.0765 204.024 80.1405C204.012 80.2042 203.997 80.2673 203.988 80.3318C203.98 80.3958 203.992 80.4622 203.986 80.527C203.98 80.5912 203.954 80.6544 203.951 80.7194C203.948 80.7839 203.95 80.849 203.95 80.9143C203.95 80.9796 203.937 81.0452 203.939 81.1097C203.942 81.1748 203.965 81.2387 203.97 81.303C203.976 81.3677 203.989 81.4314 203.998 81.4954C204.007 81.5599 203.986 81.6293 203.997 81.693C204.009 81.7569 204.039 81.8177 204.053 81.8808C204.068 81.9442 204.072 82.0106 204.089 82.073C204.107 82.1356 204.134 82.1958 204.154 82.2573C204.174 82.3191 204.199 82.3798 204.221 82.4402C204.244 82.5009 204.273 82.5598 204.298 82.6191C204.324 82.6787 204.356 82.7357 204.384 82.7939C204.412 82.8525 204.439 82.9116 204.469 82.9688C204.5 83.0259 204.549 83.0723 204.582 83.1279C204.616 83.1837 204.62 83.2571 204.656 83.3111C204.692 83.3653 204.758 83.3986 204.796 83.4509C204.834 83.5035 204.877 83.5507 204.917 83.6014C204.958 83.652 204.99 83.7087 205.033 83.7575C205.076 83.8063 205.101 83.8713 205.145 83.9182C205.19 83.9651 205.228 84.0201 205.275 84.0651C205.322 84.1098 205.378 84.1459 205.427 84.1887C205.475 84.2312 205.537 84.2594 205.587 84.3001C205.638 84.3405 205.691 84.3771 205.744 84.4153C205.796 84.4535 205.849 84.4895 205.904 84.5253C205.957 84.5611 206.014 84.5923 206.07 84.6256C206.125 84.6589 206.187 84.6793 206.244 84.7102C206.301 84.7408 206.343 84.8004 206.402 84.8286C206.46 84.8568 206.518 84.8863 206.578 84.9118C206.637 84.9373 206.696 84.9682 206.756 84.991C206.817 85.0137 206.881 85.0278 206.943 85.0479C207.005 85.0679 207.07 85.0766 207.133 85.094C207.195 85.111 207.253 85.1479 207.316 85.1623C207.379 85.1766 207.446 85.1777 207.51 85.1894C207.574 85.2008 207.64 85.1972 207.705 85.2059C207.769 85.2146 207.834 85.2045 207.899 85.2105C207.963 85.2162 208.027 85.22 208.092 85.223C208.157 85.2257 208.221 85.2476 208.286 85.2476C208.352 85.2476 208.416 85.2425 208.481 85.2395C208.546 85.2365 208.61 85.2316 208.674 85.2257C208.739 85.22 208.806 85.2287 208.87 85.2203C208.934 85.2116 208.996 85.1856 209.059 85.1739C209.123 85.1623 209.192 85.1734 209.255 85.1593C209.318 85.1449 209.376 85.1062 209.438 85.0891C209.501 85.0717 209.57 85.0772 209.632 85.0571C209.694 85.037 209.742 84.978 209.802 84.9552C209.863 84.9324 209.93 84.9265 209.99 84.901C210.05 84.8755 210.107 84.8443 210.165 84.8164C210.224 84.7882 210.271 84.7405 210.328 84.7099C210.386 84.679 210.465 84.6882 210.521 84.6549C210.577 84.6215 210.626 84.5771 210.68 84.5413C210.735 84.5055 210.776 84.4511 210.828 84.4128C210.88 84.3746 210.924 84.3261 210.975 84.2855C211.025 84.2451 211.088 84.2199 211.137 84.1773C211.186 84.1345 211.236 84.093 211.283 84.0483C211.329 84.0036 211.358 83.941 211.403 83.8941C211.448 83.8472 211.519 83.8244 211.561 83.7756C211.604 83.7268 211.627 83.6613 211.668 83.6106C211.708 83.5599 211.742 83.5046 211.78 83.452C211.818 83.3997 211.875 83.3607 211.911 83.3065C211.947 83.2525 211.954 83.181 211.987 83.1251C212.021 83.0696 212.05 83.0132 212.081 82.956C212.112 82.8991 212.158 82.8506 212.186 82.792C212.214 82.7338 212.225 82.6684 212.251 82.6085C212.276 82.5492 212.316 82.4958 212.339 82.4351C212.362 82.3746 212.382 82.3131 212.402 82.2513C212.422 82.1898 212.425 82.1239 212.443 82.0613C212.46 81.999 212.519 81.9469 212.533 81.8835C212.547 81.8206 212.521 81.7491 212.533 81.6851C212.544 81.6214 212.551 81.5577 212.56 81.4932C212.568 81.4293 212.619 81.3696 212.625 81.3049C212.63 81.2406 212.625 81.1742 212.628 81.1092C212.63 81.0447 212.627 80.9791 212.627 80.9137Z" stroke="#2E3436" stroke-width="0.647845" stroke-miterlimit="10" stroke-linecap="round" stroke-linejoin="round"/>
<path d="M206.944 76.6972C206.947 76.7959 206.978 76.7923 207.014 76.8845C207.05 76.9767 207.042 76.9796 207.077 77.0718C207.113 77.1639 207.135 77.1558 207.17 77.248C207.206 77.3404 207.202 77.3417 207.237 77.4342C207.273 77.5266 207.274 77.526 207.31 77.6187C207.345 77.7112 207.328 77.7179 207.363 77.8104C207.399 77.9028 207.42 77.8944 207.456 77.9868C207.491 78.0784 207.496 78.0765 207.532 78.1681C207.567 78.2598 207.567 78.2597 207.603 78.3514C207.638 78.4432 207.641 78.4419 207.677 78.5338C207.712 78.6259 207.685 78.6365 207.72 78.7284C207.756 78.8208 207.78 78.8113 207.816 78.9037C207.852 78.9964 207.84 79.001 207.876 79.0937C207.911 79.1862 207.913 79.1856 207.949 79.2778C207.984 79.3699 207.98 79.3715 208.015 79.4637C208.051 79.5561 208.055 79.5545 208.091 79.6469C208.127 79.7396 208.115 79.7439 208.151 79.8369C208.187 79.9296 208.211 79.9204 208.246 80.0128C208.282 80.1055 208.253 80.1166 208.289 80.2093C208.325 80.3023 208.324 80.3023 208.361 80.3953C208.396 80.4879 208.406 80.4844 208.441 80.5771C208.477 80.6698 208.494 80.6633 208.53 80.756C208.566 80.8484 208.562 80.8501 208.598 80.9425C208.633 81.0354 208.628 81.0376 208.664 81.1306C208.7 81.2238 208.692 81.2268 208.728 81.32C208.764 81.4135 208.778 81.4078 208.814 81.5014C208.85 81.5949 208.782 81.6586 208.873 81.6995C208.961 81.7388 208.97 81.6648 209.058 81.6268C209.146 81.5889 209.143 81.5808 209.231 81.5431C209.319 81.5052 209.316 81.4984 209.405 81.4607C209.493 81.4228 209.491 81.4181 209.58 81.3802C209.668 81.3423 209.679 81.3664 209.767 81.3284C209.856 81.2902 209.854 81.2864 209.943 81.2482C210.033 81.21 210.033 81.2094 210.122 81.1712C210.211 81.133 210.211 81.1336 210.3 81.0956C210.389 81.0577 210.388 81.055 210.476 81.0167C210.565 80.9785 210.566 80.9807 210.655 80.9428C210.745 80.9045 210.742 80.8975 210.831 80.8593C210.92 80.8211 210.924 80.83 211.013 80.7918C211.102 80.7536 211.102 80.7533 211.191 80.7151C211.281 80.6769 211.275 80.6628 211.364 80.6243C211.454 80.5861 211.457 80.595 211.547 80.5565C211.636 80.5183 211.634 80.5142 211.723 80.476C211.812 80.4378 211.81 80.4316 211.899 80.3934C211.988 80.3549 211.994 80.3684 212.084 80.3299C212.173 80.2914 212.163 80.2673 212.253 80.2288C212.343 80.1904 212.346 80.1982 212.436 80.1597C212.526 80.1212 212.536 80.1429 212.611 80.08C212.685 80.0185 212.616 80.0185 212.594 79.8987C212.585 79.8453 212.559 79.7849 212.542 79.7133C212.528 79.6561 212.534 79.5876 212.514 79.5209C212.497 79.4629 212.466 79.4049 212.443 79.3409C212.422 79.2829 212.384 79.2292 212.358 79.1675C212.334 79.11 212.31 79.0509 212.282 78.991C212.255 78.9346 212.237 78.8715 212.205 78.8135C212.175 78.7585 212.142 78.7029 212.108 78.6468C212.075 78.5931 212.046 78.5348 212.009 78.4806C211.973 78.4286 211.938 78.3736 211.898 78.3215C211.859 78.2714 211.8 78.237 211.757 78.1874C211.716 78.1394 211.677 78.0885 211.631 78.0413C211.587 77.9955 211.55 77.9424 211.502 77.8974C211.456 77.854 211.413 77.8044 211.363 77.7621C211.315 77.7212 211.256 77.6908 211.204 77.651C211.154 77.6125 211.1 77.5773 211.045 77.5401C210.993 77.5041 210.947 77.4567 210.891 77.422C210.837 77.3886 210.783 77.3534 210.725 77.3214C210.67 77.2905 210.603 77.2789 210.544 77.2496C210.487 77.2214 210.433 77.1867 210.373 77.1599C210.315 77.1341 210.255 77.1092 210.194 77.0851C210.136 77.0618 210.074 77.0433 210.012 77.0216C209.952 77.0005 209.891 76.9794 209.829 76.9599C209.769 76.9409 209.707 76.9208 209.644 76.9035C209.583 76.8867 209.519 76.8794 209.455 76.8642C209.393 76.8495 209.332 76.8303 209.268 76.8173C209.206 76.8045 209.142 76.7961 209.078 76.785C209.015 76.7742 208.954 76.7517 208.889 76.7422C208.826 76.7333 208.762 76.7224 208.697 76.7148C208.633 76.7075 208.569 76.6999 208.504 76.694C208.44 76.6883 208.374 76.7018 208.309 76.6975C208.246 76.6934 208.182 76.685 208.117 76.6823C208.054 76.6796 207.99 76.6774 207.924 76.6761C207.86 76.6747 207.796 76.6845 207.73 76.6845C207.666 76.6845 207.601 76.6677 207.536 76.669C207.472 76.6704 207.407 76.666 207.342 76.6685C207.278 76.6709 207.214 76.6937 207.148 76.6972C207.083 76.7005 207.01 76.6923 206.944 76.6972Z" fill="#2E3436"/>
<path d="M203.951 71.6738H213.493" stroke="#2E3436" stroke-width="0.647845" stroke-miterlimit="10" stroke-linecap="round" stroke-linejoin="round"/>
<path d="M203.951 68.4523H213.493" stroke="#2E3436" stroke-width="0.647845" stroke-miterlimit="10" stroke-linecap="round" stroke-linejoin="round"/>
<path d="M203.951 65.411H213.493" stroke="#2E3436" stroke-width="0.647845" stroke-miterlimit="10" stroke-linecap="round" stroke-linejoin="round"/>
<path d="M120.786 55.6285C128.683 55.6285 135.086 49.2261 135.086 41.3283C135.086 33.4305 128.683 27.0281 120.786 27.0281C112.888 27.0281 106.485 33.4305 106.485 41.3283C106.485 49.2261 112.888 55.6285 120.786 55.6285Z" fill="#47C3F1" stroke="#2E3436" stroke-width="0.647845" stroke-miterlimit="10" stroke-linecap="round" stroke-linejoin="round"/>
<path d="M123.248 53.0399C123.299 51.7663 123.507 50.4989 123.868 49.2763C124.133 48.377 124.587 47.3955 125.482 47.1166C126.466 46.8104 127.626 47.4861 128.525 46.9825C129.253 46.5751 129.418 45.5698 129.212 44.7616C129.108 44.3526 128.932 43.9601 128.884 43.5408C128.837 43.1215 128.953 42.6451 129.308 42.4168C129.606 42.225 130.035 42.2285 130.243 41.9417C130.439 41.6726 130.325 41.2804 130.11 41.0264C129.895 40.7725 129.598 40.602 129.364 40.3659C128.658 39.655 128.655 38.5361 128.432 37.5593C128.123 36.1965 127.289 34.9601 126.142 34.1613L125.345 33.7523C125.345 33.7523 116.568 42.4196 116.485 42.5022C116.402 42.5852 115.767 47.1671 115.767 47.1671L115.452 48.4718L123.248 53.0399Z" fill="#EDE73B" stroke="#2E3436" stroke-width="0.647845" stroke-miterlimit="10" stroke-linecap="round" stroke-linejoin="round"/>
<path d="M125.973 33.983C126.328 33.6089 126.174 32.9186 125.921 32.4695C125.668 32.0204 125.106 31.7689 124.602 31.8792C124.22 31.9629 123.892 32.2275 123.506 32.293C123.204 32.3443 122.897 32.2692 122.596 32.2131C120.779 31.8754 118.839 32.2603 117.289 33.2655C115.739 34.2708 114.596 35.8854 114.163 37.6815C114.12 37.8588 114.08 38.0466 113.957 38.1816C113.845 38.3055 113.68 38.3654 113.526 38.4307C112.313 38.9451 111.381 40.1168 111.239 41.4262C111.097 42.7359 111.798 44.1195 112.978 44.7063C113.275 44.8543 113.606 44.9603 113.836 45.1996C114.147 45.5237 114.199 46.0089 114.361 46.4277C114.682 47.2538 115.19 47.8552 116.075 47.8997C116.075 47.5321 116.232 46.9906 116.589 46.7572C116.947 46.5239 117.401 46.5228 117.82 46.4393C118.988 46.2065 120.013 45.0573 119.777 43.8899C119.678 43.3999 119.382 42.9706 119.252 42.4876C119.122 42.0046 119.238 41.378 119.704 41.1964C120.254 40.9817 120.783 41.5159 121.336 41.7235C122.194 42.0463 123.185 41.5135 123.685 40.7445C124.185 39.9756 124.312 39.0305 124.427 38.1206C124.525 37.3381 124.624 36.5557 124.723 35.7732C124.773 35.3747 124.827 34.9657 125.018 34.6123C125.209 34.2589 125.572 33.9686 125.973 33.983Z" fill="#475059" stroke="#475059" stroke-width="0.647845" stroke-miterlimit="10" stroke-linecap="round" stroke-linejoin="round"/>
<path d="M126.924 39.8763C127.096 39.8763 127.234 39.7375 127.234 39.5662C127.234 39.395 127.096 39.2562 126.924 39.2562C126.753 39.2562 126.614 39.395 126.614 39.5662C126.614 39.7375 126.753 39.8763 126.924 39.8763Z" fill="#475059" stroke="#475059" stroke-width="0.647845" stroke-miterlimit="10" stroke-linecap="round" stroke-linejoin="round"/>
<path d="M124.369 55.1759C123.224 55.4714 122.023 55.6286 120.786 55.6286C117.909 55.6286 115.231 54.778 112.988 53.3161C113.978 52.719 114.732 52.4008 114.732 52.4008L115.452 48.4724C120.434 48.4721 123.187 52.7081 124.369 55.1759Z" fill="white" stroke="#475059" stroke-width="0.647845" stroke-miterlimit="10" stroke-linecap="round" stroke-linejoin="round"/>
<path d="M119.972 90.6615C128.319 90.6615 135.086 83.8949 135.086 75.5479C135.086 67.2009 128.319 60.4343 119.972 60.4343C111.625 60.4343 104.858 67.2009 104.858 75.5479C104.858 83.8949 111.625 90.6615 119.972 90.6615Z" fill="#FF0000" stroke="#2E3436" stroke-width="0.647845" stroke-miterlimit="10" stroke-linecap="round" stroke-linejoin="round"/>
<path d="M128.308 70.3599C128.269 71.2199 128.232 72.087 128.355 72.9378C128.478 73.7886 128.774 74.6331 129.327 75.2603C129.678 75.6587 130.167 76.0816 130.067 76.6179C129.949 77.253 129.144 77.3758 128.712 77.8295C128.404 78.1515 128.3 78.6393 128.306 79.0987C128.312 79.5581 128.413 80.0102 128.452 80.4677C128.531 81.4148 128.272 82.4824 127.516 82.9846C126.995 83.3302 126.346 83.344 125.757 83.5237C124.864 83.7958 124.088 84.4815 123.672 85.3676L115.157 79.8625L115.836 77.2167L119.692 70.6041L125.629 67.691L128.308 70.3599Z" fill="#EDE73B" stroke="#2E3436" stroke-width="0.647845" stroke-miterlimit="10" stroke-linecap="round" stroke-linejoin="round"/>
<path d="M115.159 79.586C114.305 78.6816 113.631 77.5899 113.193 76.4016C112.424 74.3206 112.393 72.0282 112.443 69.7964C112.455 69.2349 112.474 68.6627 112.651 68.1325C113.062 66.8988 114.272 66.1185 115.494 65.8835C116.071 65.7726 116.675 65.7569 117.213 65.5124C117.897 65.2021 118.395 64.56 119.042 64.1711C120.369 63.3734 122.027 63.7683 123.503 64.1846C124.503 64.4665 125.503 64.7484 126.502 65.0302C127.329 65.2633 128.212 65.5344 128.748 66.2358C129.213 66.8432 129.328 67.6897 129.18 68.4532C129.032 69.2167 128.951 69.804 128.503 70.4252C128.154 70.1027 127.493 69.8799 127.071 69.6747C126.649 69.4696 126.143 69.3991 125.72 69.6016C125.386 69.7612 125.138 70.0702 124.942 70.3957C124.466 71.1828 124.229 72.1024 123.809 72.9237C123.513 73.5037 123.124 74.0319 122.665 74.4802C122.376 74.7624 122.024 75.0258 121.63 75.012C121.158 74.9955 120.786 74.5924 120.513 74.1881C120.24 73.7839 119.987 73.3281 119.565 73.1055C119.006 72.8098 118.277 73.0464 117.879 73.5549C117.481 74.0634 117.382 74.7792 117.503 75.4256C117.62 76.0536 117.926 76.6797 117.782 77.3015C117.629 77.9604 117.023 78.3769 116.449 78.6857C115.875 78.9944 115.242 79.3006 114.933 79.8956" fill="#475059"/>
<path d="M115.159 79.586C114.305 78.6816 113.631 77.5899 113.193 76.4016C112.424 74.3206 112.393 72.0282 112.443 69.7964C112.455 69.2349 112.474 68.6627 112.651 68.1325C113.062 66.8988 114.272 66.1185 115.494 65.8835C116.071 65.7726 116.675 65.7569 117.213 65.5124C117.897 65.2021 118.395 64.56 119.042 64.1711C120.369 63.3734 122.027 63.7683 123.503 64.1846C124.503 64.4665 125.503 64.7484 126.502 65.0302C127.329 65.2633 128.212 65.5344 128.748 66.2358C129.213 66.8432 129.328 67.6897 129.18 68.4532C129.032 69.2167 128.951 69.804 128.503 70.4252C128.154 70.1027 127.493 69.8799 127.071 69.6747C126.649 69.4696 126.143 69.3991 125.72 69.6016C125.386 69.7612 125.138 70.0702 124.942 70.3957C124.466 71.1828 124.229 72.1024 123.809 72.9237C123.513 73.5037 123.124 74.0319 122.665 74.4802C122.376 74.7624 122.024 75.0258 121.63 75.012C121.158 74.9955 120.786 74.5924 120.513 74.1881C120.24 73.7839 119.987 73.3281 119.565 73.1055C119.006 72.8098 118.277 73.0464 117.879 73.5549C117.481 74.0634 117.382 74.7792 117.503 75.4256C117.62 76.0536 117.926 76.6797 117.782 77.3015C117.629 77.9604 117.023 78.3769 116.449 78.6857C115.875 78.9944 115.242 79.3006 114.933 79.8956" stroke="#475059" stroke-width="0.647845" stroke-miterlimit="10" stroke-linecap="round" stroke-linejoin="round"/>
<path d="M113.434 82.9206C117.105 84.5886 120.844 86.1064 124.639 87.4686L113.434 82.9206Z" fill="#A1CFE2"/>
<path d="M113.434 82.9206C117.105 84.5886 120.844 86.1064 124.639 87.4686" stroke="#475059" stroke-width="0.647845" stroke-miterlimit="10" stroke-linecap="round" stroke-linejoin="round"/>
<path d="M126.755 74.4865C126.936 74.4865 127.083 74.3398 127.083 74.1588C127.083 73.9778 126.936 73.8311 126.755 73.8311C126.574 73.8311 126.427 73.9778 126.427 74.1588C126.427 74.3398 126.574 74.4865 126.755 74.4865Z" fill="#475059" stroke="#475059" stroke-width="0.647845" stroke-miterlimit="10" stroke-linecap="round" stroke-linejoin="round"/>
<path d="M124.864 85.4846C121.993 83.7594 118.042 81.6773 115.157 79.8627C114.69 80.3709 114.3 80.9501 114.006 81.5746C113.86 81.8847 113.736 82.2083 113.542 82.491C113.22 82.9599 112.732 83.2819 112.271 83.6158C111.199 84.3939 110.221 85.3011 109.359 86.3077C112.088 88.9997 115.836 90.6617 119.972 90.6617C122.026 90.6617 123.984 90.2511 125.77 89.5087C125.401 88.6874 124.965 87.7109 124.795 87.4366C124.765 87.3881 124.782 87.3266 124.781 87.2694C124.774 86.7227 124.864 86.1069 124.864 85.4846Z" fill="#0F775E" stroke="#2E3436" stroke-width="0.647845" stroke-miterlimit="10" stroke-linecap="round" stroke-linejoin="round"/>
<path d="M250.226 40.3005C257.111 40.3005 262.693 34.7185 262.693 27.8328C262.693 20.947 257.111 15.3651 250.226 15.3651C243.34 15.3651 237.758 20.947 237.758 27.8328C237.758 34.7185 243.34 40.3005 250.226 40.3005Z" fill="#FC7EE4" stroke="#2E3436" stroke-width="0.647845" stroke-miterlimit="10" stroke-linecap="round" stroke-linejoin="round"/>
<path d="M250.461 34.6088C250.407 34.6088 250.352 34.6056 250.297 34.5996C249.845 34.5489 249.442 34.2924 249.206 33.9054L243.39 24.3413C242.971 23.6526 243.193 22.7574 243.886 22.3411C244.579 21.9253 245.481 22.1459 245.899 22.8345L250.73 30.7778L263.696 17.4361C264.258 16.8576 265.186 16.8411 265.769 17.4C266.351 17.9587 266.367 18.8809 265.805 19.4598L251.516 34.1637C251.238 34.4497 250.857 34.6088 250.461 34.6088Z" fill="#0F775E" stroke="#2E3436" stroke-width="0.647845" stroke-miterlimit="10" stroke-linecap="round" stroke-linejoin="round"/>
<path d="M143.067 143.166C144.48 143.166 145.625 142.021 145.625 140.608C145.625 139.196 144.48 138.051 143.067 138.051C141.655 138.051 140.51 139.196 140.51 140.608C140.51 142.021 141.655 143.166 143.067 143.166Z" fill="#47C3F1" stroke="#2E3436" stroke-width="0.647845" stroke-miterlimit="10" stroke-linecap="round" stroke-linejoin="round"/>
<path d="M243.105 51.4751C244.518 51.4751 245.663 50.3301 245.663 48.9176C245.663 47.5051 244.518 46.3601 243.105 46.3601C241.693 46.3601 240.548 47.5051 240.548 48.9176C240.548 50.3301 241.693 51.4751 243.105 51.4751Z" fill="#FF0000" stroke="#2E3436" stroke-width="0.647845" stroke-miterlimit="10" stroke-linecap="round" stroke-linejoin="round"/>
<path d="M232.554 78.1054C233.966 78.1054 235.111 76.9604 235.111 75.5479C235.111 74.1355 233.966 72.9904 232.554 72.9904C231.141 72.9904 229.996 74.1355 229.996 75.5479C229.996 76.9604 231.141 78.1054 232.554 78.1054Z" fill="#FF0000" stroke="#2E3436" stroke-width="0.647845" stroke-miterlimit="10" stroke-linecap="round" stroke-linejoin="round"/>
<path d="M165.63 93.219C167.042 93.219 168.187 92.074 168.187 90.6615C168.187 89.249 167.042 88.104 165.63 88.104C164.217 88.104 163.072 89.249 163.072 90.6615C163.072 92.074 164.217 93.219 165.63 93.219Z" fill="#FF0000" stroke="#2E3436" stroke-width="0.647845" stroke-miterlimit="10" stroke-linecap="round" stroke-linejoin="round"/>
<path d="M84.2421 32.5992C85.6545 32.5992 86.7996 31.4542 86.7996 30.0417C86.7996 28.6292 85.6545 27.4842 84.2421 27.4842C82.8296 27.4842 81.6846 28.6292 81.6846 30.0417C81.6846 31.4542 82.8296 32.5992 84.2421 32.5992Z" fill="#FF0000" stroke="#2E3436" stroke-width="0.647845" stroke-miterlimit="10" stroke-linecap="round" stroke-linejoin="round"/>
<path d="M225.076 95.974C226.488 95.974 227.633 94.829 227.633 93.4165C227.633 92.004 226.488 90.859 225.076 90.859C223.663 90.859 222.518 92.004 222.518 93.4165C222.518 94.829 223.663 95.974 225.076 95.974Z" fill="#47C3F1" stroke="#2E3436" stroke-width="0.647845" stroke-miterlimit="10" stroke-linecap="round" stroke-linejoin="round"/>
<path d="M189.472 33.528C190.884 33.528 192.029 32.383 192.029 30.9705C192.029 29.5581 190.884 28.413 189.472 28.413C188.059 28.413 186.914 29.5581 186.914 30.9705C186.914 32.383 188.059 33.528 189.472 33.528Z" fill="#FF0000" stroke="#2E3436" stroke-width="0.647845" stroke-miterlimit="10" stroke-linecap="round" stroke-linejoin="round"/>
<path d="M177.938 58.2674C179.35 58.2674 180.495 57.1223 180.495 55.7099C180.495 54.2974 179.35 53.1523 177.938 53.1523C176.525 53.1523 175.38 54.2974 175.38 55.7099C175.38 57.1223 176.525 58.2674 177.938 58.2674Z" fill="#47C3F1" stroke="#2E3436" stroke-width="0.647845" stroke-miterlimit="10" stroke-linecap="round" stroke-linejoin="round"/>
<path d="M139.437 29.5045C140.85 29.5045 141.995 28.3595 141.995 26.947C141.995 25.5346 140.85 24.3895 139.437 24.3895C138.025 24.3895 136.88 25.5346 136.88 26.947C136.88 28.3595 138.025 29.5045 139.437 29.5045Z" fill="#47C3F1" stroke="#2E3436" stroke-width="0.647845" stroke-miterlimit="10" stroke-linecap="round" stroke-linejoin="round"/>
<path d="M143.067 95.1094C144.48 95.1094 145.625 93.9644 145.625 92.5519C145.625 91.1394 144.48 89.9944 143.067 89.9944C141.655 89.9944 140.51 91.1394 140.51 92.5519C140.51 93.9644 141.655 95.1094 143.067 95.1094Z" fill="#47C3F1" stroke="#2E3436" stroke-width="0.647845" stroke-miterlimit="10" stroke-linecap="round" stroke-linejoin="round"/>
<path d="M84.08 58.3062C85.4924 58.3062 86.6375 57.1612 86.6375 55.7487C86.6375 54.3363 85.4924 53.1912 84.08 53.1912C82.6675 53.1912 81.5225 54.3363 81.5225 55.7487C81.5225 57.1612 82.6675 58.3062 84.08 58.3062Z" fill="#47C3F1" stroke="#2E3436" stroke-width="0.647845" stroke-miterlimit="10" stroke-linecap="round" stroke-linejoin="round"/>
<path d="M92.7323 100.404C94.1448 100.404 95.2898 99.2594 95.2898 97.8469C95.2898 96.4345 94.1448 95.2894 92.7323 95.2894C91.3198 95.2894 90.1748 96.4345 90.1748 97.8469C90.1748 99.2594 91.3198 100.404 92.7323 100.404Z" fill="#FF0000" stroke="#2E3436" stroke-width="0.647845" stroke-miterlimit="10" stroke-linecap="round" stroke-linejoin="round"/>
<path d="M99.2035 125.888C100.616 125.888 101.761 124.743 101.761 123.331C101.761 121.918 100.616 120.773 99.2035 120.773C97.791 120.773 96.646 121.918 96.646 123.331C96.646 124.743 97.791 125.888 99.2035 125.888Z" fill="#47C3F1" stroke="#2E3436" stroke-width="0.647845" stroke-miterlimit="10" stroke-linecap="round" stroke-linejoin="round"/>
<path d="M140.51 73.2156C140.51 67.9908 144.745 63.7553 149.97 63.7553H169.143C174.368 63.7553 178.604 67.9908 178.604 73.2156C178.604 78.4404 174.368 82.6759 169.143 82.6759H149.97C149.264 82.6759 148.577 82.5962 147.916 82.4496L140.614 85.218L142.986 79.5958C141.448 77.9135 140.51 75.6745 140.51 73.2156Z" fill="white" stroke="#2E3436" stroke-width="0.647845" stroke-miterlimit="10" stroke-linecap="round" stroke-linejoin="round"/>
<path d="M140.51 40.0574C140.51 34.8326 144.745 30.5971 149.97 30.5971H169.143C174.368 30.5971 178.604 34.8326 178.604 40.0574C178.604 45.2822 174.368 49.5177 169.143 49.5177H149.97C149.264 49.5177 148.577 49.438 147.916 49.2914L140.614 52.0598L142.986 46.4376C141.448 44.7553 140.51 42.516 140.51 40.0574Z" fill="white" stroke="#2E3436" stroke-width="0.647845" stroke-miterlimit="10" stroke-linecap="round" stroke-linejoin="round"/>
<path d="M151.284 42.9179C152.696 42.9179 153.841 41.7729 153.841 40.3604C153.841 38.948 152.696 37.8029 151.284 37.8029C149.871 37.8029 148.726 38.948 148.726 40.3604C148.726 41.7729 149.871 42.9179 151.284 42.9179Z" fill="#475059" stroke="#475059" stroke-width="0.647845" stroke-miterlimit="10" stroke-linecap="round" stroke-linejoin="round"/>
<path d="M159.736 42.9179C161.148 42.9179 162.293 41.7729 162.293 40.3604C162.293 38.948 161.148 37.8029 159.736 37.8029C158.323 37.8029 157.178 38.948 157.178 40.3604C157.178 41.7729 158.323 42.9179 159.736 42.9179Z" fill="#475059" stroke="#475059" stroke-width="0.647845" stroke-miterlimit="10" stroke-linecap="round" stroke-linejoin="round"/>
<path d="M168.187 42.9179C169.6 42.9179 170.745 41.7729 170.745 40.3604C170.745 38.948 169.6 37.8029 168.187 37.8029C166.775 37.8029 165.63 38.948 165.63 40.3604C165.63 41.7729 166.775 42.9179 168.187 42.9179Z" fill="#475059" stroke="#475059" stroke-width="0.647845" stroke-miterlimit="10" stroke-linecap="round" stroke-linejoin="round"/>
<path d="M151.284 75.9726C152.696 75.9726 153.841 74.8275 153.841 73.4151C153.841 72.0026 152.696 70.8575 151.284 70.8575C149.871 70.8575 148.726 72.0026 148.726 73.4151C148.726 74.8275 149.871 75.9726 151.284 75.9726Z" fill="#475059" stroke="#475059" stroke-width="0.647845" stroke-miterlimit="10" stroke-linecap="round" stroke-linejoin="round"/>
<path d="M159.736 75.9726C161.148 75.9726 162.293 74.8275 162.293 73.4151C162.293 72.0026 161.148 70.8575 159.736 70.8575C158.323 70.8575 157.178 72.0026 157.178 73.4151C157.178 74.8275 158.323 75.9726 159.736 75.9726Z" fill="#475059" stroke="#475059" stroke-width="0.647845" stroke-miterlimit="10" stroke-linecap="round" stroke-linejoin="round"/>
<path d="M168.187 75.9726C169.6 75.9726 170.745 74.8275 170.745 73.4151C170.745 72.0026 169.6 70.8575 168.187 70.8575C166.775 70.8575 165.63 72.0026 165.63 73.4151C165.63 74.8275 166.775 75.9726 168.187 75.9726Z" fill="#475059" stroke="#475059" stroke-width="0.647845" stroke-miterlimit="10" stroke-linecap="round" stroke-linejoin="round"/>
<path d="M81.4121 211.14V227.233H117.214C117.214 227.233 117.214 211.14 99.3133 211.14H81.4121Z" fill="#2E3436" stroke="#2E3436" stroke-width="0.647845" stroke-miterlimit="10" stroke-linecap="round" stroke-linejoin="round"/>
<path d="M39.0112 211.14V227.233H67.4795C67.4795 227.233 67.4795 211.14 53.2454 211.14H39.0112Z" fill="#2E3436" stroke="#2E3436" stroke-width="0.647845" stroke-miterlimit="10" stroke-linecap="round" stroke-linejoin="round"/>
<path d="M103.722 213.941C104.154 213.941 104.58 213.705 104.864 213.255L107.604 208.908C106.743 208.409 105.799 207.984 104.763 207.652L102.583 211.112C102.098 211.881 102.216 212.985 102.846 213.577C103.107 213.822 103.416 213.941 103.722 213.941Z" fill="#2E3436" stroke="#2E3436" stroke-width="0.647845" stroke-miterlimit="10" stroke-linecap="round" stroke-linejoin="round"/>
<path d="M99.646 110.304L112.171 86.9394L90.408 80.6556L86.4556 89.05" fill="white"/>
<path d="M99.646 110.304L112.171 86.9394L90.408 80.6556L86.4556 89.05" stroke="#2E3436" stroke-width="0.647845" stroke-miterlimit="10" stroke-linecap="round" stroke-linejoin="round"/>
<path d="M73.8141 89.1212H70.915C69.0819 89.1212 67.5957 87.6353 67.5957 85.8019V79.2125C67.5957 77.3794 69.0816 75.8932 70.915 75.8932H73.8141C75.6472 75.8932 77.1334 77.3794 77.1334 79.2125V85.8019C77.1334 87.6353 75.6475 89.1212 73.8141 89.1212Z" fill="#FC7EE4" stroke="#2E3436" stroke-width="0.647845" stroke-miterlimit="10" stroke-linecap="round" stroke-linejoin="round"/>
<path d="M69.1167 73.689C68.8119 73.689 68.5058 73.7105 68.2001 73.7486C67.7186 72.0124 65.8794 70.9836 63.7636 70.9836C61.2777 70.9836 59.2627 72.7619 59.2627 74.9557C59.2627 76.3741 60.1078 77.6154 61.3755 78.3183C60.2594 80.0772 60.0654 81.8643 60.6381 83.8323C62.2454 89.3573 69.0476 88.7925 69.0476 88.7925C71.6486 88.7925 73.5223 86.0102 73.5223 82.7738C73.5223 79.5375 76.3451 77.1914 76.3451 77.1914C76.3451 77.1914 74.2899 73.689 69.1167 73.689Z" fill="#2E3436" stroke="#2E3436" stroke-width="0.647845" stroke-miterlimit="10" stroke-linecap="round" stroke-linejoin="round"/>
<path d="M101.909 120.141C106.696 120.141 110.577 116.337 110.577 111.646C110.577 106.954 106.696 103.15 101.909 103.15C97.1215 103.15 93.2407 106.954 93.2407 111.646C93.2407 116.337 97.1215 120.141 101.909 120.141Z" fill="#FC7EE4" stroke="#2E3436" stroke-width="0.647845" stroke-miterlimit="10" stroke-linecap="round" stroke-linejoin="round"/>
<path d="M106.403 90.1902L91.0522 85.7577" stroke="#2E3436" stroke-width="0.647845" stroke-miterlimit="10" stroke-linecap="round" stroke-linejoin="round"/>
<path d="M105.027 93.3433L89.6758 88.9108" stroke="#2E3436" stroke-width="0.647845" stroke-miterlimit="10" stroke-linecap="round" stroke-linejoin="round"/>
<path d="M103.65 96.4961L88.2993 92.0639" stroke="#2E3436" stroke-width="0.647845" stroke-miterlimit="10" stroke-linecap="round" stroke-linejoin="round"/>
<path d="M102.273 99.6492L86.9224 95.2166" stroke="#2E3436" stroke-width="0.647845" stroke-miterlimit="10" stroke-linecap="round" stroke-linejoin="round"/>
<path d="M87.427 123.578C88.3716 126.562 90.4529 129.089 93.2703 130.453C94.6076 131.1 96.0326 131.455 97.2706 131.033C100.872 129.806 102.777 125.951 101.525 122.422L101.622 122.726L94.0827 94.0628C93.2985 91.1068 90.044 88.9565 86.4556 89.05C77.8814 89.2737 62.524 88.9492 53.3242 88.9235C46.6863 88.9047 44.3413 90.8682 43.8831 93.1895L37.3411 122.152C37.0088 123.623 36.9455 125.145 37.2231 126.627C37.7561 129.472 40.6637 133.602 45.717 131.975C46.0031 131.883 46.2837 131.776 46.5579 131.656C47.7457 131.138 48.8005 130.357 49.7077 129.431L55.1233 123.905L55.5868 128.288L86.4559 128.271V120.509L87.427 123.578Z" fill="#0F775E" stroke="#2E3436" stroke-width="0.647845" stroke-miterlimit="10" stroke-linecap="round" stroke-linejoin="round"/>
<path d="M106.532 199.747L86.4553 128.288H76.0244H66.5279H55.5861L34.0757 206.849H61.3956L71.2762 153.788L81.1568 206.849L106.532 199.747Z" fill="#47C3F1" stroke="#2E3436" stroke-width="0.647845" stroke-miterlimit="10" stroke-linecap="round" stroke-linejoin="round"/>
<path d="M64.5777 196.694H34.0757V211.14H64.5777V196.694Z" fill="#47C3F1" stroke="#2E3436" stroke-width="0.647845" stroke-miterlimit="10" stroke-linecap="round" stroke-linejoin="round"/>
<path d="M107.752 196.694H77.25V211.14H107.752V196.694Z" fill="#47C3F1" stroke="#2E3436" stroke-width="0.647845" stroke-miterlimit="10" stroke-linecap="round" stroke-linejoin="round"/>
<path d="M55.2098 124.406L53.0093 107.451" stroke="#2E3436" stroke-width="0.647845" stroke-miterlimit="10" stroke-linecap="round" stroke-linejoin="round"/>
<path d="M86.4556 127.969V106.146" stroke="#2E3436" stroke-width="0.647845" stroke-miterlimit="10" stroke-linecap="round" stroke-linejoin="round"/>
<path d="M58.0984 136.622H68.4785V144.317C68.4785 146.845 66.0782 148.895 63.117 148.895C60.0753 148.895 57.6426 146.737 57.7594 144.141L58.0984 136.622Z" stroke="#2E3436" stroke-width="0.647845" stroke-miterlimit="10" stroke-linecap="round" stroke-linejoin="round"/>
<path d="M74.3616 136.622H84.7416V144.317C84.7416 146.845 82.3413 148.895 79.3801 148.895C76.3384 148.895 73.9058 146.737 74.0226 144.141L74.3616 136.622Z" stroke="#2E3436" stroke-width="0.647845" stroke-miterlimit="10" stroke-linecap="round" stroke-linejoin="round"/>
<path d="M65.5025 158.11L58.3667 192.223" stroke="#2E3436" stroke-width="0.647845" stroke-miterlimit="10" stroke-linecap="round" stroke-linejoin="round" stroke-dasharray="3.89 3.89"/>
<path d="M205.202 93.0698L205.191 93.088L205.191 93.0885C204.907 93.5886 204.676 94.3482 204.499 95.3224C204.321 96.3018 204.202 97.4722 204.129 98.7629C203.984 101.344 204.027 104.383 204.149 107.291C204.271 110.199 204.472 112.97 204.642 115.015C204.728 116.038 204.805 116.878 204.862 117.463C204.89 117.755 204.913 117.983 204.928 118.139L204.947 118.315L204.951 118.36L204.953 118.372L204.953 118.374L204.953 118.375C204.953 118.375 204.953 118.375 204.631 118.41L204.953 118.375L204.975 118.585L204.793 118.69C204.217 119.023 203.157 119.295 201.798 119.522C200.424 119.752 198.695 119.944 196.746 120.093C192.845 120.392 188.039 120.525 183.364 120.466C178.691 120.407 174.139 120.154 170.749 119.679C169.057 119.442 167.638 119.146 166.634 118.785C166.133 118.605 165.715 118.401 165.416 118.165C165.144 117.949 164.935 117.677 164.901 117.345C164.122 115.967 163.328 113.705 162.663 111.114C161.986 108.472 161.436 105.461 161.173 102.642C160.912 99.83 160.933 97.1785 161.418 95.2715C161.66 94.3189 162.026 93.5172 162.563 92.9796C163.107 92.4351 163.806 92.1818 164.65 92.2923L164.736 92.2853C164.817 92.2788 164.936 92.2693 165.091 92.257C165.402 92.2324 165.858 92.1969 166.436 92.1531C167.594 92.0654 169.244 91.9443 171.218 91.8107C175.166 91.5437 180.408 91.2268 185.584 91.0276C190.756 90.8284 195.872 90.7464 199.562 90.951C201.402 91.0529 202.912 91.2272 203.901 91.5025C204.387 91.6377 204.798 91.8102 205.05 92.049C205.182 92.174 205.286 92.332 205.317 92.5247C205.348 92.7189 205.297 92.9043 205.202 93.0698Z" fill="#7BD527" stroke="#2E3436" stroke-width="0.647845" stroke-linecap="round"/>
<path d="M208.26 119.694L208.375 119.643L208.494 119.683L208.494 119.683L208.697 119.751L208.714 119.965L208.391 119.99C208.714 119.965 208.714 119.965 208.714 119.965L208.714 119.967L208.714 119.972L208.716 119.994L208.723 120.081L208.749 120.42L208.851 121.71C208.939 122.823 209.064 124.419 209.215 126.349C209.516 130.21 209.92 135.406 210.329 140.749C211.147 151.431 211.987 162.717 212.071 165.082L212.085 165.458L211.711 165.416C198.359 163.897 185.988 163.353 176.525 163.585C171.792 163.701 167.794 164.012 164.768 164.49C163.254 164.729 161.991 165.009 161.003 165.324C160.007 165.643 159.325 165.987 158.943 166.338L158.358 166.873L158.4 166.082L158.724 166.099C158.4 166.082 158.4 166.082 158.4 166.081L158.4 166.08L158.401 166.075L158.402 166.054L158.406 165.972C158.41 165.9 158.415 165.793 158.422 165.652C158.436 165.371 158.455 164.958 158.478 164.43C158.524 163.373 158.585 161.855 158.643 160.014C158.759 156.33 158.865 151.351 158.824 146.165C158.783 140.978 158.595 135.592 158.125 131.093C157.89 128.843 157.585 126.821 157.194 125.161C156.819 123.566 156.372 122.335 155.853 121.552C155.709 121.524 155.592 121.498 155.505 121.473C155.452 121.457 155.391 121.437 155.338 121.409C155.314 121.397 155.266 121.369 155.223 121.321C155.177 121.268 155.104 121.148 155.152 120.995C155.19 120.871 155.284 120.813 155.314 120.796C155.354 120.773 155.393 120.76 155.418 120.753C155.471 120.738 155.531 120.729 155.587 120.722C155.704 120.709 155.865 120.7 156.059 120.695C156.84 120.674 158.316 120.705 160.283 120.764C161.521 120.801 162.957 120.849 164.543 120.901C168.009 121.017 172.192 121.156 176.597 121.257C183.019 121.405 189.903 121.473 195.709 121.272C198.612 121.171 201.241 121.003 203.404 120.745C205.577 120.486 207.249 120.139 208.26 119.694Z" fill="#7BD527" stroke="#2E3436" stroke-width="0.647845" stroke-linecap="round"/>
<path d="M223.176 125.617V126.055L223.129 126.041C222.988 127.576 223.149 130.111 223.488 133.124C223.854 136.387 224.425 140.172 225.024 143.77C225.622 147.367 226.248 150.775 226.724 153.284C226.962 154.538 227.162 155.567 227.303 156.283C227.374 156.641 227.43 156.92 227.468 157.11L227.511 157.326L227.522 157.382L227.525 157.396L227.526 157.399L227.526 157.4C227.526 157.4 227.526 157.4 227.208 157.465L227.526 157.4L227.596 157.745L227.246 157.786L213.978 159.336L213.634 159.376L213.617 159.031L211.854 124.591L211.839 124.299L212.127 124.254L212.177 124.574C212.127 124.254 212.127 124.254 212.127 124.254L212.128 124.254L212.129 124.254L212.132 124.253L212.144 124.252L212.188 124.245C212.227 124.24 212.284 124.232 212.357 124.224C212.505 124.206 212.72 124.183 212.997 124.162C213.55 124.119 214.346 124.08 215.326 124.099C217.286 124.136 219.986 124.399 222.947 125.308L222.859 125.594L223.176 125.617V125.617Z" fill="#7BD527" stroke="#2E3436" stroke-width="0.647845" stroke-linecap="round"/>
<path d="M151.297 135.777C151.401 136.084 151.401 136.084 151.401 136.083L151.402 136.083L151.404 136.082L151.409 136.081L151.421 136.076C151.43 136.073 151.442 136.068 151.456 136.062C151.484 136.05 151.522 136.032 151.568 136.007C151.661 135.957 151.788 135.879 151.943 135.76C152.254 135.521 152.678 135.119 153.168 134.449C154.146 133.111 155.394 130.703 156.545 126.39L156.609 126.152L156.424 126.044C153.298 123.218 149.251 121.512 144.305 119.427C144.152 119.363 143.999 119.298 143.844 119.233C138.662 117.047 132.464 114.388 125.177 109.596L124.857 109.386L124.703 109.736L119.468 121.594L119.312 121.947L119.687 122.039C126.86 123.81 134.717 127.31 140.791 130.375C143.826 131.906 146.411 133.326 148.237 134.363C149.15 134.882 149.874 135.305 150.368 135.598C150.616 135.744 150.806 135.858 150.934 135.936C150.998 135.974 151.047 136.004 151.079 136.023L151.116 136.046L151.125 136.051L151.127 136.053L151.127 136.053C151.128 136.053 151.128 136.053 151.297 135.777ZM151.297 135.777L151.401 136.084L151.257 136.132L151.128 136.053L151.297 135.777Z" fill="#7BD527" stroke="#2E3436" stroke-width="0.647845" stroke-linecap="round"/>
<path d="M202.765 167.683L202.791 167.698L202.813 167.717L202.814 167.718L202.923 167.81L202.928 167.953L202.604 167.964C202.928 167.953 202.928 167.953 202.928 167.954L202.928 167.955L202.928 167.961L202.929 167.985L202.932 168.08L202.944 168.449C202.955 168.773 202.971 169.248 202.991 169.854C203.032 171.067 203.091 172.805 203.163 174.903C203.308 179.1 203.507 184.742 203.724 190.519C204.16 202.088 204.666 214.162 204.953 216.316L205.008 216.727L204.596 216.68C198.559 216 194.303 216.001 191.563 216.17C190.192 216.255 189.201 216.382 188.555 216.486C188.232 216.539 187.995 216.586 187.841 216.619C187.763 216.636 187.707 216.649 187.67 216.658C187.663 216.66 187.657 216.661 187.652 216.663C187.643 216.665 187.635 216.667 187.63 216.668L187.621 216.671L187.619 216.671L187.619 216.671L187.619 216.671L187.619 216.671L187.21 216.783V216.359V167.094V166.859L187.434 166.786L187.534 167.094C187.434 166.786 187.434 166.786 187.434 166.786L187.434 166.786L187.436 166.785L187.441 166.783L187.462 166.777C187.479 166.771 187.505 166.763 187.539 166.753C187.606 166.733 187.704 166.703 187.832 166.668C188.086 166.596 188.455 166.499 188.917 166.394C189.841 166.185 191.14 165.944 192.643 165.82C195.639 165.574 199.483 165.788 202.765 167.683Z" fill="#7BD527" stroke="#2E3436" stroke-width="0.647845" stroke-linecap="round"/>
<path d="M165.714 167.146V166.955L165.881 166.862C167.138 166.169 168.783 165.769 170.519 165.551C172.26 165.333 174.119 165.294 175.819 165.338C177.52 165.383 179.068 165.511 180.191 165.628C180.753 165.686 181.209 165.742 181.525 165.783C181.683 165.803 181.805 165.82 181.889 165.832L181.985 165.846L182.009 165.85L182.016 165.85L182.018 165.851L182.018 165.851C182.018 165.851 182.018 165.851 181.97 166.171L182.018 165.851L182.359 165.902L182.286 166.239C181.859 168.223 181.66 172.278 181.609 177.283C181.558 182.275 181.653 188.176 181.803 193.826C181.953 199.477 182.157 204.875 182.324 208.86C182.407 210.853 182.481 212.493 182.534 213.634C182.561 214.205 182.582 214.651 182.597 214.954L182.614 215.3L182.618 215.388L182.62 215.41L182.62 215.416L182.62 215.417C182.62 215.418 182.62 215.418 182.296 215.434L182.62 215.418L182.636 215.745L182.309 215.758C178.53 215.903 177.156 215.808 175.399 215.515C175.012 215.451 174.608 215.377 174.156 215.294C172.575 215.005 170.402 214.608 166.309 214.123L166.008 214.087L166.023 213.784C166.151 211.329 166.371 200.685 166.409 190.143C166.429 184.873 166.403 179.634 166.299 175.46C166.246 173.372 166.174 171.554 166.079 170.133C165.982 168.699 165.863 167.704 165.727 167.238L165.714 167.193V167.147V167.146Z" fill="#7BD527" stroke="#2E3436" stroke-width="0.647845" stroke-linecap="round"/>
<path d="M186.57 102.505H186.562V102.181C186.562 100.522 186.919 98.7941 187.667 97.4688C188.418 96.1374 189.588 95.1801 191.198 95.1801C192.775 95.1801 194.418 96.1021 195.654 97.4051C196.892 98.7108 197.776 100.456 197.776 102.181C197.776 105.566 195.296 108.373 192.169 108.373C189.143 108.373 186.722 105.744 186.57 102.505Z" fill="white" fill-opacity="0.94118" stroke="#2E3436" stroke-width="0.647845" stroke-linecap="round"/>
<path d="M191.267 117.063L194.464 117.215L194.813 117.145V117.54V123.915V124.239H194.489H190.432H190.065L190.11 123.875L190.93 117.346L190.967 117.049L191.267 117.063Z" fill="#0F775E" stroke="#2E3436" stroke-width="0.647845" stroke-linecap="round"/>
<path d="M173.404 117.426L173.351 117.741L173.655 117.719L174.116 124.3L174.137 124.605L173.833 124.644L170.186 125.105L169.821 125.151V124.783V117.394V117.032L170.18 117.072L172.981 117.378L172.978 117.328L173.404 117.426L173.404 117.426Z" fill="#0F775E" stroke="#2E3436" stroke-width="0.647845" stroke-linecap="round"/>
<path d="M176.079 160.357L176.99 160.167L176.476 160.783L176.93 168.394L176.962 168.936L176.47 168.708L173.403 167.285L173.235 167.207L173.217 167.024L172.637 161.373L172.607 161.083L172.893 161.023L176.079 160.357Z" fill="#0F775E" stroke="#2E3436" stroke-width="0.647845" stroke-linecap="round"/>
<path d="M196.829 160.949L197.916 161.336L197.063 161.514L197.505 167.812L197.523 168.077L197.267 168.147L193.475 169.188L193.057 169.302L193.066 168.868L193.211 161.914L193.216 161.656L193.468 161.603L196.378 160.995L196.363 160.783L196.829 160.949L196.829 160.949Z" fill="#0F775E" stroke="#2E3436" stroke-width="0.647845" stroke-linecap="round"/>
<path d="M153.908 127.411L154.544 127.217L154.484 127.372L161.23 127.024L161.623 127.004L161.567 127.393L161.007 131.336L160.967 131.617L160.683 131.614L152.657 131.53L152.19 131.525L152.358 131.089L153.7 127.605L153.959 127.705L153.908 127.411L153.908 127.411Z" fill="#0F775E" stroke="#2E3436" stroke-width="0.647845" stroke-linecap="round"/>
<path d="M207.874 126.699H208.204L208.203 126.746L214.443 127.709L214.746 127.756L214.716 128.061L214.358 131.72L214.323 132.085L213.964 132.004L207.747 130.593L207.49 130.535L207.495 130.272L207.551 127.017L207.85 127.022L207.874 126.699H207.874Z" fill="#0F775E" stroke="#2E3436" stroke-width="0.647845" stroke-linecap="round"/>
<path d="M173.27 95.5484C176.375 95.1825 179.167 97.6797 179.563 101.042C179.757 102.689 179.605 104.447 179.018 105.851C178.427 107.261 177.377 108.348 175.778 108.537C174.212 108.722 172.472 107.998 171.093 106.849C169.71 105.697 168.628 104.067 168.426 102.354C168.03 98.9917 170.166 95.9142 173.27 95.5484Z" fill="white" fill-opacity="0.94118" stroke="#2E3436" stroke-width="0.647845" stroke-linecap="round"/>
<path d="M176.193 132.414L176.195 132.432V132.433C176.314 133.47 176.219 134.58 175.847 135.474C175.471 136.38 174.791 137.1 173.743 137.224C172.728 137.345 171.618 136.873 170.749 136.143C169.877 135.41 169.185 134.368 169.056 133.26C168.805 131.111 170.159 129.117 172.162 128.879C174.165 128.642 175.942 130.264 176.193 132.414Z" fill="#4E9A06" fill-opacity="0.94118" stroke="#2E3436" stroke-width="0.647845" stroke-linecap="round"/>
<path fill-rule="evenodd" clip-rule="evenodd" d="M172.987 131.344C172.891 130.499 172.219 129.886 171.487 129.975C170.754 130.065 170.237 130.824 170.333 131.669C170.429 132.514 171.369 133.309 172.102 133.219C172.834 133.129 173.083 132.189 172.987 131.344L172.987 131.344Z" fill="white" fill-opacity="0.94118"/>
<path d="M178.876 116.027L179.078 111.688L179.032 111.35H179.403H187.812H188.136V111.674V117.148V117.516L187.771 117.47L179.159 116.364L178.863 116.326L178.876 116.027Z" fill="white" fill-opacity="0.78431" stroke="#2E3436" stroke-width="0.647845" stroke-linecap="round"/>
<path d="M187.633 112.81C184.524 113.768 182.794 113.943 179.757 113.531C179.742 113.531 179.729 113.543 179.729 113.559V114.865C179.729 114.881 179.742 114.893 179.757 114.893C182.812 115.945 184.477 115.972 187.393 114.893C187.408 114.893 187.34 115.281 187.34 115.266L187.42 113.559C187.42 113.543 187.648 112.81 187.633 112.81Z" fill="#475059"/>
<path d="M189.355 100.312C189.355 101.993 190.395 103.356 191.679 103.356C192.962 103.356 194.002 101.993 194.002 100.312C194.002 98.6305 192.962 97.2675 191.679 97.2675C190.395 97.2675 189.355 98.6305 189.355 100.312Z" fill="#475059"/>
<path d="M171.73 100.312C171.73 101.993 172.77 103.356 174.053 103.356C175.336 103.356 176.376 101.993 176.376 100.312C176.376 98.6305 175.336 97.2675 174.053 97.2675C172.77 97.2675 171.73 98.6305 171.73 100.312Z" fill="#475059"/>
<path d="M198.45 81.226V81.4916L198.292 81.5233L188.393 92.0976L188.304 92.1925L188.174 92.1997L184.095 92.4263L183.394 92.4652L183.82 91.9065L184.077 92.1029C183.82 91.9065 183.82 91.9065 183.82 91.9063L183.82 91.9059L183.821 91.9044L183.825 91.8989L183.842 91.8776C183.856 91.859 183.877 91.8317 183.905 91.7961C183.961 91.7249 184.043 91.6209 184.15 91.4882C184.363 91.2228 184.675 90.843 185.071 90.3833C185.862 89.4641 186.988 88.224 188.329 86.9403C190.97 84.4118 194.496 81.6622 197.96 80.9295L198.45 80.406V81.226V81.226Z" fill="#475059" stroke="#2E3436" stroke-width="0.647845"/>
<path d="M198.66 83.5151C197.167 83.5151 195.957 82.3048 195.957 80.8119C195.957 79.319 197.167 78.1087 198.66 78.1087C200.153 78.1087 201.363 79.319 201.363 80.8119C201.363 82.3048 200.153 83.5151 198.66 83.5151Z" fill="#475059" stroke="#2E3436" stroke-width="0.647845"/>
<path d="M162.786 80.1223L162.932 79.9339L162.95 79.5444L162.95 79.5443L163.08 79.5306L163.124 79.5644C164.858 79.926 166.918 80.8568 169.02 82.034C171.158 83.2315 173.364 84.6976 175.352 86.1177C177.341 87.5383 179.116 88.9158 180.394 89.938C181.033 90.4492 181.548 90.8718 181.904 91.1668C182.081 91.3142 182.219 91.4298 182.313 91.5087L182.419 91.5988L182.447 91.622L182.454 91.6279L182.455 91.6295L182.456 91.6299C182.456 91.63 182.456 91.63 182.246 91.8763L182.456 91.63L183.185 92.2529L182.228 92.1997L178.149 91.9731L178.048 91.9675L177.968 91.9056L162.786 80.1223Z" fill="#475059" stroke="#2E3436" stroke-width="0.647845"/>
<path d="M162.215 81.3648C163.708 81.3648 164.918 80.1545 164.918 78.6616C164.918 77.1686 163.708 75.9584 162.215 75.9584C160.722 75.9584 159.512 77.1686 159.512 78.6616C159.512 80.1545 160.722 81.3648 162.215 81.3648Z" fill="#475059" stroke="#2E3436" stroke-width="0.647845"/>
<path d="M225.651 164.11L221.079 161.497L220.753 161.311L220.985 161.016L223.477 157.843L223.754 157.491L223.974 157.822L229.599 162.322L229.753 162.445L229.715 162.638L227.675 173.061L227.587 173.514L227.191 173.277L224.925 171.917L224.745 171.809L224.77 171.602L225.651 164.11Z" fill="#2E3436" stroke="#2E3436" stroke-width="0.647845"/>
<path d="M221.449 158.011L221.667 157.674L221.947 158.031L224.44 161.203L224.672 161.498L224.346 161.684L219.773 164.297L220.655 171.789L220.679 171.997L220.5 172.105L218.234 173.464L217.838 173.702L217.749 173.249L215.71 162.825L215.672 162.632L215.825 162.51L221.449 158.011Z" fill="#2E3436" stroke="#2E3436" stroke-width="0.647845"/>
<path d="M118.97 111.138L119.252 116.397L119.273 116.772L119.64 116.697L123.594 115.893L124.144 115.781L123.829 115.425L122.339 108.412L122.299 108.22L122.11 108.167L111.879 105.311L111.435 105.187L111.469 105.647L111.667 108.283L111.683 108.491L111.88 108.563L118.97 111.138Z" fill="#2E3436" stroke="#2E3436" stroke-width="0.647845"/>
<path d="M122.792 117.072L123.266 117.112L123.027 116.604L121.311 112.953L121.152 112.613L120.839 112.82L116.452 115.734L110.153 111.583L109.978 111.468L109.801 111.58L107.569 112.995L107.179 113.242L107.544 113.525L115.943 120.026L116.099 120.146L116.277 120.064L122.792 117.072Z" fill="#2E3436" stroke="#2E3436" stroke-width="0.647845"/>
<path d="M201.367 217.124C201.46 217.122 201.549 217.161 201.612 217.23L209.303 225.722C209.388 225.816 209.411 225.951 209.361 226.067C209.311 226.183 209.198 226.26 209.072 226.264L185.999 226.904C185.882 226.908 185.772 226.848 185.712 226.747C185.652 226.647 185.65 226.522 185.708 226.42L190.836 217.447C190.893 217.348 190.998 217.286 191.112 217.284L201.367 217.124Z" fill="#2E3436" stroke="#2E3436" stroke-width="0.647845" stroke-linecap="round" stroke-linejoin="round"/>
<path d="M178.934 216.002C179.021 216 179.105 216.034 179.167 216.095C179.198 216.125 179.222 216.161 179.238 216.2L183.723 226.476C183.766 226.575 183.758 226.687 183.701 226.778C183.644 226.869 183.546 226.925 183.439 226.93L163.57 227.706C163.457 227.71 163.35 227.655 163.287 227.561C163.225 227.466 163.216 227.346 163.265 227.244L168.392 216.381C168.445 216.27 168.556 216.198 168.679 216.196L178.934 216.002Z" fill="#2E3436" stroke="#2E3436" stroke-width="0.647845" stroke-linecap="round" stroke-linejoin="round"/>
<path d="M201.237 177.838L197.071 175.915L197.207 175.621L197.343 175.327L201.509 177.249L201.373 177.544L201.237 177.838Z" stroke="#2E3436" stroke-width="0.647845"/>
<path d="M200.4 173.951L198.638 179.72L198.328 179.625L198.018 179.53L199.781 173.762L200.09 173.857L200.4 173.951Z" stroke="#2E3436" stroke-width="0.647845"/>
<path d="M4.18554 38.9197C7.34643 41.2106 8.03436 45.6073 5.72239 48.7416C8.03436 45.6073 12.4695 44.9238 15.6344 47.2177C12.4695 44.9238 11.7815 40.5272 14.0935 37.3928C11.7813 40.527 7.34622 41.2105 4.18554 38.9197Z" fill="#EDE73B" stroke="#2E3436" stroke-width="0.761076" stroke-miterlimit="10" stroke-linecap="round" stroke-linejoin="round"/>
<path d="M23.8012 45.6731C25.8783 47.1785 26.3304 50.0679 24.8112 52.1275C26.3304 50.0679 29.2451 49.6187 31.3248 51.126C29.2449 49.6185 28.793 46.7293 30.3122 44.6697C28.793 46.7293 25.8785 47.1786 23.8012 45.6731Z" fill="#EDE73B" stroke="#2E3436" stroke-width="0.761076" stroke-miterlimit="10" stroke-linecap="round" stroke-linejoin="round"/>
<path d="M19.3647 31.3506C21.4418 32.856 21.8939 35.7453 20.3747 37.805C21.8939 35.7453 24.8086 35.2962 26.8882 36.8035C24.8083 35.296 24.3564 32.4068 25.8757 30.3472C24.3564 32.4068 21.442 32.8561 19.3647 31.3506Z" fill="#EDE73B" stroke="#2E3436" stroke-width="0.761076" stroke-miterlimit="10" stroke-linecap="round" stroke-linejoin="round"/>
<path d="M255 202.79C262.178 202.79 267.995 208.609 267.995 215.79C267.995 208.609 273.813 202.79 281 202.79C273.813 202.79 267.995 196.971 267.995 189.79C267.995 196.971 262.178 202.79 255 202.79Z" fill="#EDE73B" stroke="#2E3436" stroke-width="1.20197" stroke-miterlimit="10" stroke-linecap="round" stroke-linejoin="round"/>
<path d="M294 191.79C298.969 191.79 302.997 195.819 302.997 200.79C302.997 195.819 307.024 191.79 312 191.79C307.024 191.79 302.997 187.761 302.997 182.79C302.997 187.761 298.97 191.79 294 191.79Z" fill="#EDE73B" stroke="#2E3436" stroke-width="1.2716" stroke-miterlimit="10" stroke-linecap="round" stroke-linejoin="round"/>
</svg>
