<svg width="530" height="441" viewBox="0 0 530 441" fill="none" xmlns="http://www.w3.org/2000/svg">
<path d="M17.6035 70.5C27.5427 70.5 35.5972 78.7812 35.5972 89C35.5972 78.7812 43.6517 70.5 53.6035 70.5C43.6517 70.5 35.5972 62.2188 35.5972 52C35.5965 62.2188 27.542 70.5 17.6035 70.5Z" fill="#EDE73B" stroke="#2E3436" stroke-width="2" stroke-miterlimit="10" stroke-linecap="round" stroke-linejoin="round"/>
<path d="M68.6035 55C75.2293 55 80.5993 60.3719 80.5993 67C80.5993 60.3719 85.9693 55 92.6035 55C85.9686 55 80.5993 49.6281 80.5993 43C80.5993 49.6281 75.2299 55 68.6035 55Z" fill="#EDE73B" stroke="#2E3436" stroke-width="2" stroke-miterlimit="10" stroke-linecap="round" stroke-linejoin="round"/>
<path d="M520.604 67C512.597 67 506.109 73.7145 506.109 82C506.109 73.7145 499.62 67 491.604 67C499.62 67 506.109 60.2855 506.109 52C506.109 60.2855 512.597 67 520.604 67Z" fill="#EDE73B" stroke="#2E3436" stroke-width="2" stroke-miterlimit="10" stroke-linecap="round" stroke-linejoin="round"/>
<path d="M494.604 42C489.634 42 485.607 46.0289 485.607 51C485.607 46.0289 481.579 42 476.604 42C481.579 42 485.607 37.9711 485.607 33C485.607 37.9711 489.634 42 494.604 42Z" fill="#EDE73B" stroke="#2E3436" stroke-width="2" stroke-miterlimit="10" stroke-linecap="round" stroke-linejoin="round"/>
<path d="M4.60352 296.5C12.6101 296.5 19.0985 302.991 19.0985 311C19.0985 302.991 25.5869 296.5 33.6035 296.5C25.5869 296.5 19.0985 290.009 19.0985 282C19.0985 290.009 12.6101 296.5 4.60352 296.5Z" fill="#EDE73B" stroke="#2E3436" stroke-width="2" stroke-miterlimit="10" stroke-linecap="round" stroke-linejoin="round"/>
<path d="M26.6035 272C31.5728 272 35.6003 276.029 35.6003 281C35.6003 276.029 39.6277 272 44.6035 272C39.6277 272 35.6003 267.971 35.6003 263C35.6003 267.971 31.5728 272 26.6035 272Z" fill="#EDE73B" stroke="#2E3436" stroke-width="2" stroke-miterlimit="10" stroke-linecap="round" stroke-linejoin="round"/>
<path d="M87.5082 393.943V435.887H1.00049C1.00049 435.887 1.00049 393.943 44.2543 393.943H87.5082Z" fill="#47C3F1" stroke="#2E3436" stroke-width="2" stroke-miterlimit="10" stroke-linecap="round" stroke-linejoin="round"/>
<path d="M74.566 424.146C74.566 416.377 80.1419 409.921 87.5083 408.535V435.886H79.7723C76.5806 432.979 74.566 428.803 74.566 424.146Z" fill="#47C3F1" stroke="#2E3436" stroke-width="2" stroke-miterlimit="10" stroke-linecap="round" stroke-linejoin="round"/>
<path d="M87.5077 426.446V435.885H1C1 435.885 1.00192 431.928 2.25498 426.446H87.5077Z" fill="#2E3436" stroke="#2E3436" stroke-width="2" stroke-miterlimit="10" stroke-linecap="round" stroke-linejoin="round"/>
<path d="M37.5821 413.26C36.9253 413.765 36.1497 414.01 35.3799 414.01C34.296 414.01 33.2236 413.525 32.5112 412.598L21.9741 398.905C24.0698 397.795 26.3761 396.835 28.9116 396.061L38.2435 408.188C39.4614 409.771 39.1652 412.041 37.5821 413.26Z" fill="#47C3F1" stroke="#2E3436" stroke-width="2" stroke-miterlimit="10" stroke-linecap="round" stroke-linejoin="round"/>
<path d="M46.7256 413.259C46.0687 413.765 45.2932 414.009 44.5233 414.009C43.4394 414.009 42.367 413.524 41.6546 412.598L28.9261 396.057C31.3308 395.324 33.939 394.758 36.7758 394.398L47.3869 408.188C48.6042 409.771 48.308 412.041 46.7256 413.259Z" fill="#47C3F1" stroke="#2E3436" stroke-width="2" stroke-miterlimit="10" stroke-linecap="round" stroke-linejoin="round"/>
<path d="M55.8675 413.26C55.2106 413.765 54.435 414.01 53.6652 414.01C52.5813 414.01 51.5089 413.525 50.7965 412.598L36.7907 394.397C39.1238 394.102 41.607 393.942 44.2542 393.942H45.5672L56.5294 408.188C57.7461 409.771 57.4499 412.041 55.8675 413.26Z" fill="#47C3F1" stroke="#2E3436" stroke-width="2" stroke-miterlimit="10" stroke-linecap="round" stroke-linejoin="round"/>
<path d="M120.835 393.943V435.886H207.343C207.343 435.886 207.343 393.943 164.089 393.943H120.835Z" fill="#47C3F1" stroke="#2E3436" stroke-width="2" stroke-miterlimit="10" stroke-linecap="round" stroke-linejoin="round"/>
<path d="M133.775 424.146C133.775 416.377 128.2 409.921 120.833 408.535V435.886H128.569C131.761 432.979 133.775 428.803 133.775 424.146Z" fill="#47C3F1" stroke="#2E3436" stroke-width="2" stroke-miterlimit="10" stroke-linecap="round" stroke-linejoin="round"/>
<path d="M120.834 426.446V435.885H207.342C207.342 435.885 207.34 431.928 206.087 426.446H120.834Z" fill="#2E3436" stroke="#2E3436" stroke-width="2" stroke-miterlimit="10" stroke-linecap="round" stroke-linejoin="round"/>
<path d="M170.759 413.259C171.415 413.765 172.191 414.009 172.961 414.009C174.045 414.009 175.117 413.524 175.83 412.598L186.367 398.904C184.271 397.795 181.965 396.834 179.429 396.061L170.097 408.188C168.88 409.771 169.175 412.041 170.759 413.259Z" fill="#47C3F1" stroke="#2E3436" stroke-width="2" stroke-miterlimit="10" stroke-linecap="round" stroke-linejoin="round"/>
<path d="M161.616 413.26C162.273 413.765 163.048 414.01 163.818 414.01C164.902 414.01 165.974 413.524 166.687 412.598L179.415 396.057C177.011 395.324 174.402 394.758 171.566 394.398L160.954 408.188C159.737 409.771 160.033 412.041 161.616 413.26Z" fill="#47C3F1" stroke="#2E3436" stroke-width="2" stroke-miterlimit="10" stroke-linecap="round" stroke-linejoin="round"/>
<path d="M152.474 413.26C153.131 413.765 153.906 414.01 154.676 414.01C155.76 414.01 156.832 413.525 157.545 412.598L171.55 394.397C169.217 394.102 166.734 393.942 164.087 393.942H162.774L151.812 408.188C150.595 409.771 150.891 412.041 152.474 413.26Z" fill="#47C3F1" stroke="#2E3436" stroke-width="2" stroke-miterlimit="10" stroke-linecap="round" stroke-linejoin="round"/>
<path d="M112.885 331.348H166.283L159.746 306.246H110.668L112.885 331.348Z" fill="#FFF2ED" stroke="#2E3436" stroke-width="2" stroke-miterlimit="10" stroke-linecap="round" stroke-linejoin="round"/>
<path d="M139.506 228.531H68.6341L61.4694 256.042H146.67L139.506 228.531Z" fill="#FFF2ED" stroke="#2E3436" stroke-width="2" stroke-miterlimit="10" stroke-linecap="round" stroke-linejoin="round"/>
<path d="M30.4098 375.298H26.4163L20.8628 396.51H94.0822L96.2034 375.298H91.3737L93.0379 356.45H35.3186L30.4098 375.298Z" fill="#FFF2ED" stroke="#2E3436" stroke-width="2" stroke-miterlimit="10" stroke-linecap="round" stroke-linejoin="round"/>
<path d="M100.066 276.854C100.066 274.558 101.878 272.842 104.056 272.842C106.234 272.842 108.073 274.558 108.073 276.854L108.452 281.144H153.208L146.67 256.042H61.4696L54.9318 281.144H99.6876L100.066 276.854Z" fill="#FFF2ED" stroke="#2E3436" stroke-width="2" stroke-miterlimit="10" stroke-linecap="round" stroke-linejoin="round"/>
<path d="M41.8555 331.348L35.3183 356.45H93.0375L95.2545 331.348H41.8555Z" fill="#FFF2ED" stroke="#2E3436" stroke-width="2" stroke-miterlimit="10" stroke-linecap="round" stroke-linejoin="round"/>
<path d="M166.283 331.348H112.885L115.101 356.45H172.821L166.283 331.348Z" fill="#FFF2ED" stroke="#2E3436" stroke-width="2" stroke-miterlimit="10" stroke-linecap="round" stroke-linejoin="round"/>
<path d="M181.723 375.298H177.73L172.821 356.45H115.101L116.765 375.298H111.936L114.058 396.51H187.276L181.723 375.298Z" fill="#FFF2ED" stroke="#2E3436" stroke-width="2" stroke-miterlimit="10" stroke-linecap="round" stroke-linejoin="round"/>
<path d="M99.6874 281.144H54.9315L48.3937 306.246H97.4711L99.6874 281.144Z" fill="#FFF2ED" stroke="#2E3436" stroke-width="2" stroke-miterlimit="10" stroke-linecap="round" stroke-linejoin="round"/>
<path d="M110.669 306.246H159.746L153.208 281.144H108.452L110.669 306.246Z" fill="#FFF2ED" stroke="#2E3436" stroke-width="2" stroke-miterlimit="10" stroke-linecap="round" stroke-linejoin="round"/>
<path d="M97.4712 306.246H48.3938L41.856 331.348H95.2549L97.4712 306.246Z" fill="#FFF2ED" stroke="#2E3436" stroke-width="2" stroke-miterlimit="10" stroke-linecap="round" stroke-linejoin="round"/>
<path d="M144.908 245.746H142.615C134.641 245.746 128.177 239.282 128.177 231.308V204.075H167.124V223.53C167.124 235.799 157.178 245.746 144.908 245.746Z" fill="#EDE73B" stroke="#2E3436" stroke-width="2" stroke-miterlimit="10" stroke-linecap="round" stroke-linejoin="round"/>
<path d="M162.581 139.332C162.581 127.558 153.037 118.013 141.262 118.013H129.411H60.9051H49.0537C37.2795 118.013 27.7351 127.558 27.7351 139.332V179.741H60.9051V189.497V245.936H143.519V181.975L162.581 169.779V139.332Z" fill="#E0E0E0" stroke="#2E3436" stroke-width="2" stroke-miterlimit="10" stroke-linecap="round" stroke-linejoin="round"/>
<path d="M143.519 234.178L152.994 243.653C152.994 243.653 145.077 245.746 139.904 245.746L143.519 234.178Z" fill="#475059" stroke="#2E3436" stroke-width="2" stroke-miterlimit="10" stroke-linecap="round" stroke-linejoin="round"/>
<path d="M156.658 374.709L136.347 247.169" stroke="#2E3436" stroke-width="2" stroke-miterlimit="10" stroke-linecap="round" stroke-linejoin="round"/>
<path d="M131.419 375.299L124.33 247.17" stroke="#2E3436" stroke-width="2" stroke-miterlimit="10" stroke-linecap="round" stroke-linejoin="round"/>
<path d="M51.1381 374.709L71.4488 247.169" stroke="#2E3436" stroke-width="2" stroke-miterlimit="10" stroke-linecap="round" stroke-linejoin="round"/>
<path d="M76.3783 375.298L83.4671 247.169" stroke="#2E3436" stroke-width="2" stroke-miterlimit="10" stroke-linecap="round" stroke-linejoin="round"/>
<path d="M123.215 278.037L178.376 171.304L165.835 166.364L110.052 274.302" fill="#DD7800"/>
<path d="M123.215 278.037L178.376 171.304L165.835 166.364L110.052 274.302" stroke="#2E3436" stroke-width="2" stroke-miterlimit="10" stroke-linecap="round" stroke-linejoin="round"/>
<path d="M172.26 182.208L227.421 75.4748L214.88 70.5347L159.096 178.473" fill="#DD7800"/>
<path d="M172.26 182.208L227.421 75.4748L214.88 70.5347L159.096 178.473" stroke="#2E3436" stroke-width="2" stroke-miterlimit="10" stroke-linecap="round" stroke-linejoin="round"/>
<path d="M138.969 189.794C138.547 183.959 141.167 177.809 146.254 174.973L146.607 173.597C150.63 162.453 165.844 164.811 165.844 164.811L159.097 178.471L171.997 181.606L179.619 168.702C189.596 173.888 195.565 185.846 193.712 196.936C192.524 204.047 188.451 210.482 183.108 215.322C180.72 217.485 178.064 219.368 175.162 220.768C167.061 224.679 157.11 224.504 149.151 220.311C141.534 216.298 136.076 209.436 134.419 200.995C132.855 196.838 135.25 192.15 138.681 189.902L138.969 189.794Z" fill="#EDE73B" stroke="#2E3436" stroke-width="2" stroke-miterlimit="10" stroke-linecap="round" stroke-linejoin="round"/>
<path d="M146.608 173.597C142.586 184.741 152.821 191.62 159.998 194.885L146.608 173.597Z" fill="#EDE73B"/>
<path d="M146.608 173.597C142.586 184.741 152.821 191.62 159.998 194.885" stroke="#2E3436" stroke-width="2" stroke-miterlimit="10" stroke-linecap="round" stroke-linejoin="round"/>
<path d="M150.179 205.065C144.645 201.627 140.048 196.259 138.76 189.873L150.179 205.065Z" fill="#EDE73B"/>
<path d="M150.179 205.065C144.645 201.627 140.048 196.259 138.76 189.873" stroke="#2E3436" stroke-width="2" stroke-miterlimit="10" stroke-linecap="round" stroke-linejoin="round"/>
<path d="M27.7443 179.741C27.7443 232.642 55.8925 278.97 98.0286 304.563C102.161 307.072 107.129 307.995 111.822 306.837C114.801 306.101 118.735 304.927 120.834 300.078C123.638 299.722 126.353 298.723 128.528 296.941C131.476 294.526 132.811 289.28 132.054 285.545L133.709 284.961C137.367 283.34 139.908 279.603 140.399 275.632C140.645 273.646 140.405 271.628 139.775 269.729C138.951 267.241 137.395 265.059 135.434 263.319L132.335 260.674L127.637 269.765L116.15 262.938L121.371 252.683L119.287 251.547C90.2179 239.192 80.0581 213.156 73.406 179.845L27.7443 179.741Z" fill="#EDE73B" stroke="#2E3436" stroke-width="2" stroke-miterlimit="10" stroke-linecap="round" stroke-linejoin="round"/>
<path d="M106.734 295.489C109.425 298.636 113.691 300.099 117.83 300.22C118.829 300.249 119.837 300.204 120.833 300.077" fill="#EDE73B"/>
<path d="M106.734 295.489C109.425 298.636 113.691 300.099 117.83 300.22C118.829 300.249 119.837 300.204 120.833 300.077" stroke="#2E3436" stroke-width="2" stroke-miterlimit="10" stroke-linecap="round" stroke-linejoin="round"/>
<path d="M114.732 282.343C117.592 285.468 122.228 286.157 126.465 286.151C128.93 286.147 131.455 285.96 133.709 284.961" fill="#EDE73B"/>
<path d="M114.732 282.343C117.592 285.468 122.228 286.157 126.465 286.151C128.93 286.147 131.455 285.96 133.709 284.961" stroke="#2E3436" stroke-width="2" stroke-miterlimit="10" stroke-linecap="round" stroke-linejoin="round"/>
<path d="M269.176 137.209L312.526 56.2699L177.28 1L133.93 81.9388L269.176 137.209Z" fill="white" stroke="#2E3436" stroke-width="2" stroke-miterlimit="10" stroke-linecap="round" stroke-linejoin="round"/>
<path d="M125.277 118.252L123.048 123.452C115.71 138.964 99.3356 138.964 91.9973 123.452L89.5371 118.252H125.277Z" fill="white" stroke="#2E3436" stroke-width="2" stroke-miterlimit="10" stroke-linecap="round" stroke-linejoin="round"/>
<path d="M120.586 118.26L118.037 123.148C113.067 132.677 101.978 132.677 97.0086 123.148L94.4591 118.26H120.586Z" fill="#EDE73B" stroke="#2E3436" stroke-width="2" stroke-miterlimit="10" stroke-linecap="round" stroke-linejoin="round"/>
<path d="M120.586 118.26L118.037 123.148C117.676 123.84 117.28 124.475 116.859 125.067L110.053 118.26H120.586Z" fill="#475059" stroke="#2E3436" stroke-width="2" stroke-miterlimit="10" stroke-linecap="round" stroke-linejoin="round"/>
<path d="M145.66 175.779V156.126" stroke="#2E3436" stroke-width="2" stroke-miterlimit="10" stroke-linecap="round" stroke-linejoin="round"/>
<path d="M73.4066 179.845V156.126" stroke="#2E3436" stroke-width="2" stroke-miterlimit="10" stroke-linecap="round" stroke-linejoin="round"/>
<path d="M116.15 263.074L111.745 260.099L119.706 256.091L116.15 263.074Z" fill="#475059" stroke="#2E3436" stroke-width="2" stroke-miterlimit="10" stroke-linecap="round" stroke-linejoin="round"/>
<path d="M91.3738 375.297H30.4093" stroke="#2E3436" stroke-width="2" stroke-miterlimit="10" stroke-linecap="round" stroke-linejoin="round"/>
<path d="M177.729 375.297H116.765" stroke="#2E3436" stroke-width="2" stroke-miterlimit="10" stroke-linecap="round" stroke-linejoin="round"/>
<path d="M120.722 107.534H116.873C115.479 107.534 114.349 106.404 114.349 105.01V104.338C114.349 102.944 115.479 101.814 116.873 101.814H120.722C122.116 101.814 123.246 102.944 123.246 104.338V105.01C123.246 106.403 122.116 107.534 120.722 107.534Z" fill="#EDE73B" stroke="#2E3436" stroke-width="2" stroke-miterlimit="10" stroke-linecap="round" stroke-linejoin="round"/>
<path d="M112.712 118.261H101.244C97.8827 118.261 95.1583 115.536 95.1583 112.175V95.9456C95.1583 92.5848 97.8827 89.8604 101.244 89.8604H112.712C116.073 89.8604 118.797 92.5848 118.797 95.9456V112.175C118.797 115.536 116.073 118.261 112.712 118.261Z" fill="#EDE73B" stroke="#2E3436" stroke-width="2" stroke-miterlimit="10" stroke-linecap="round" stroke-linejoin="round"/>
<path d="M118.353 94.3271C117.094 92.6636 114.149 89.8594 111.903 89.8594H102.053C98.2453 89.8594 95.1583 92.9464 95.1583 96.7541V103.104L118.353 94.3271Z" fill="#475059" stroke="#2E3436" stroke-width="2" stroke-miterlimit="10" stroke-linecap="round" stroke-linejoin="round"/>
<path d="M97.9299 101.814L126.041 91.0371" stroke="#2E3436" stroke-width="4" stroke-miterlimit="10" stroke-linecap="round" stroke-linejoin="round"/>
<path d="M106.697 100.293C105.848 99.1777 104.511 98.4551 103.001 98.4551C100.434 98.4551 98.3529 100.536 98.3529 103.103C98.3529 105.671 100.434 107.752 103.001 107.752C104.69 107.752 106.164 106.849 106.977 105.502" fill="#EDE73B"/>
<path d="M106.697 100.293C105.848 99.1777 104.511 98.4551 103.001 98.4551C100.434 98.4551 98.3529 100.536 98.3529 103.103C98.3529 105.671 100.434 107.752 103.001 107.752C104.69 107.752 106.164 106.849 106.977 105.502" stroke="#2E3436" stroke-width="2" stroke-miterlimit="10" stroke-linecap="round" stroke-linejoin="round"/>
<path d="M118.383 109.742L114.467 106.922" stroke="#2E3436" stroke-width="2" stroke-miterlimit="10" stroke-linecap="round" stroke-linejoin="round"/>
<path d="M115.119 102.038C115.684 102.038 116.142 101.465 116.142 100.758C116.142 100.052 115.684 99.4785 115.119 99.4785C114.554 99.4785 114.096 100.052 114.096 100.758C114.096 101.465 114.554 102.038 115.119 102.038Z" fill="#475059" stroke="#2E3436" stroke-width="2" stroke-miterlimit="10" stroke-linecap="round" stroke-linejoin="round"/>
<path d="M73.4065 174.406H27.7442V179.846H73.4065V174.406Z" fill="white" stroke="#2E3436" stroke-width="2" stroke-miterlimit="10" stroke-linecap="round" stroke-linejoin="round"/>
<path d="M196.226 108.74L205.527 118.041L207.703 113.628L196.226 108.74Z" fill="#475059" stroke="#2E3436" stroke-width="2" stroke-miterlimit="10" stroke-linecap="round" stroke-linejoin="round"/>
<g style="mix-blend-mode:multiply" opacity="0.3">
<g style="mix-blend-mode:multiply" opacity="0.3">
<g style="mix-blend-mode:multiply" opacity="0.3">
<path d="M206.961 32.8992L215.786 48.8666L250.593 65.3289L255.467 55.8405L206.961 32.8992Z" fill="#2E3436"/>
</g>
<g style="mix-blend-mode:multiply" opacity="0.3">
<path d="M213.605 60.6044C206.963 61.1642 200.257 63.0021 193.813 66.0289L204.833 45.2159L213.605 60.6044ZM175.276 87.3623C182.393 79.2592 191.255 73.1777 200.756 69.8779L199.982 98.6898L206.72 101.779L207.615 68.0036C214.112 66.7045 220.559 66.7824 226.574 68.2326L205.223 30.78L175.267 87.358" fill="#2E3436"/>
</g>
<g style="mix-blend-mode:multiply" opacity="0.3">
<path d="M234.405 74.1089L244.285 78.7216L239.463 87.9885L210.508 74.4695L210.598 71.1194C219.003 69.8369 227.195 70.8629 234.409 74.1016" fill="#2E3436"/>
</g>
<g style="mix-blend-mode:multiply" opacity="0.3">
<path d="M212.61 92.5078L212.314 103.664L228.172 110.993L232.947 101.907L212.61 92.5078Z" fill="#2E3436"/>
</g>
</g>
</g>
<path d="M208.528 32.3645L217.364 48.3229L252.177 64.7942L257.042 55.3185L208.528 32.3645Z" fill="#F78F01"/>
<path d="M215.18 60.0704C208.537 60.6294 201.831 62.4663 195.386 65.4923L206.404 44.681L215.18 60.0704ZM176.851 86.8229C183.967 78.7208 192.829 72.6406 202.331 69.3422L201.562 98.1535L208.301 101.244L209.19 67.4688C215.688 66.1706 222.135 66.2493 228.151 67.7003L206.792 30.2454L176.842 86.8185" fill="#FBBF13"/>
<path d="M235.979 73.5746L245.86 78.188L241.04 87.4529L212.083 73.9318L212.173 70.5823C220.577 69.3011 228.769 70.3281 235.983 73.5673" fill="#F78F01"/>
<path d="M214.183 91.9724L213.889 103.127L229.748 110.457L234.522 101.373L214.183 91.9724Z" fill="#F78F01"/>
<path d="M443.982 96.678C448.193 96.678 451.606 93.2648 451.606 89.0543C451.606 84.8439 448.193 81.4307 443.982 81.4307C439.772 81.4307 436.359 84.8439 436.359 89.0543C436.359 93.2648 439.772 96.678 443.982 96.678Z" fill="#EDE73B" stroke="#475059" stroke-width="2" stroke-miterlimit="10" stroke-linecap="round" stroke-linejoin="round"/>
<path d="M462.41 125.14H425.287V108.298C425.287 101.857 430.509 96.6348 436.951 96.6348H450.746C457.188 96.6348 462.41 101.857 462.41 108.298V125.14Z" fill="#EDE73B" stroke="#475059" stroke-width="2" stroke-miterlimit="10" stroke-linecap="round" stroke-linejoin="round"/>
<path d="M431.986 124.667C431.986 128.102 434.771 130.887 438.207 130.887H449.405C452.841 130.887 455.626 128.102 455.626 124.667V112.363H431.987L431.986 124.667Z" fill="#FC7EE4" stroke="#475059" stroke-width="2" stroke-miterlimit="10" stroke-linecap="round" stroke-linejoin="round"/>
<path d="M449.964 118.036C449.598 116.71 448.396 115.729 446.952 115.729C445.509 115.729 444.306 116.709 443.941 118.036" stroke="#475059" stroke-width="2" stroke-miterlimit="10" stroke-linecap="round" stroke-linejoin="round"/>
<path d="M443.94 118.036C443.574 116.71 442.372 115.729 440.928 115.729C439.485 115.729 438.283 116.709 437.917 118.036" stroke="#475059" stroke-width="2" stroke-miterlimit="10" stroke-linecap="round" stroke-linejoin="round"/>
<path d="M440.928 123.606C441.294 124.932 442.497 125.913 443.94 125.913C445.383 125.913 446.586 124.933 446.952 123.606" stroke="#475059" stroke-width="2" stroke-miterlimit="10" stroke-linecap="round" stroke-linejoin="round"/>
<path d="M443.94 122.221C444.98 122.221 445.824 121.378 445.824 120.337C445.824 119.296 444.98 118.453 443.94 118.453C442.899 118.453 442.055 119.296 442.055 120.337C442.055 121.378 442.899 122.221 443.94 122.221Z" fill="#475059"/>
<path d="M496.595 247.343C509.455 247.343 519.881 238.195 519.881 226.909C519.881 225.475 519.68 223.183 519.36 221.833L501.066 144.304C499.55 137.083 495.059 130.887 487.649 130.887H400.102C394.101 130.887 389.021 134.837 387.322 140.278L357.637 214.997C357.305 215.962 356.973 216.926 356.642 217.891C356.158 219.804 355.905 221.81 355.916 223.877C355.989 237.029 367.028 247.498 380.18 247.498H412.805L492.252 247.77" fill="#FFF2ED"/>
<path d="M496.595 247.343C509.455 247.343 519.881 238.195 519.881 226.909C519.881 225.475 519.68 223.183 519.36 221.833L501.066 144.304C499.55 137.083 495.059 130.887 487.649 130.887H400.102C394.101 130.887 389.021 134.837 387.322 140.278L357.637 214.997C357.305 215.962 356.973 216.926 356.642 217.891C356.158 219.804 355.905 221.81 355.916 223.877C355.989 237.029 367.028 247.498 380.18 247.498H412.805L492.252 247.77" stroke="#475059" stroke-width="2" stroke-miterlimit="10" stroke-linecap="round" stroke-linejoin="round"/>
<path d="M397.931 247.769C395.417 262.055 387.702 260.265 385.189 274.551C382.676 288.838 390.391 290.15 387.878 304.437C385.365 318.723 377.649 317.411 375.136 331.698C372.623 345.987 380.338 347.298 377.825 361.586C375.312 375.874 367.596 374.563 365.083 388.851L440.169 388.665V282.189C440.169 280.029 442.233 277.905 444.442 277.905C446.62 277.905 448.665 279.979 448.716 282.096V388.665L523.802 388.851C521.289 374.563 513.573 375.874 511.06 361.586C508.547 347.298 516.262 345.987 513.749 331.698C511.236 317.412 503.521 318.723 501.008 304.437C498.494 290.15 506.21 288.838 503.697 274.551C501.184 260.265 493.469 261.577 490.956 247.291L397.931 247.769Z" fill="#DD7800" stroke="#475059" stroke-width="2" stroke-miterlimit="10" stroke-linecap="round" stroke-linejoin="round"/>
<path d="M480.572 241.203C494.326 241.203 505.476 231.419 505.476 219.35C505.476 207.28 494.326 197.496 480.572 197.496C466.818 197.496 455.668 207.28 455.668 219.35C455.668 231.419 466.818 241.203 480.572 241.203Z" fill="#FC7EE4" stroke="#475059" stroke-width="2" stroke-miterlimit="10" stroke-linecap="round" stroke-linejoin="round"/>
<path d="M483.872 202.866H496.414V202.486C492.109 199.368 486.59 197.496 480.572 197.496V202.866H483.872V202.866Z" fill="#475059" stroke="#475059" stroke-width="2" stroke-miterlimit="10" stroke-linecap="round" stroke-linejoin="round"/>
<path d="M479.279 182.924C478.627 177.11 474.927 171.542 469.406 169.685L468.807 168.396C462.235 157.148 444.569 164.932 444.569 164.932L453.742 177.124L439.538 166.968L436.182 169.114C427.32 176.035 422.914 189.388 426.764 199.953C429.232 206.726 434.413 212.308 440.55 216.09C443.294 217.78 446.249 219.146 449.358 219.993C458.038 222.356 467.79 220.365 474.847 214.788C481.603 209.45 485.714 201.706 485.8 193.104C486.577 188.731 483.365 184.56 479.582 182.977L479.279 182.924Z" fill="#FC7EE4" stroke="#475059" stroke-width="2" stroke-miterlimit="10" stroke-linecap="round" stroke-linejoin="round"/>
<path d="M468.807 168.396C474.798 178.617 465.992 187.252 459.534 191.774" stroke="#475059" stroke-width="2" stroke-miterlimit="10" stroke-linecap="round" stroke-linejoin="round"/>
<path d="M471.049 199.987C475.861 195.595 479.4 189.477 479.499 182.963" stroke="#475059" stroke-width="2" stroke-miterlimit="10" stroke-linecap="round" stroke-linejoin="round"/>
<path d="M428.449 178.627C422.442 181.244 420.009 179.219 412.761 183.447C404.44 188.302 406.417 191.689 398.096 196.543C389.775 201.398 387.799 198.011 379.479 202.866" stroke="#475059" stroke-width="2" stroke-miterlimit="10" stroke-linecap="round" stroke-linejoin="round"/>
<path d="M456.513 225.489C450.377 228.193 447.892 226.1 440.49 230.471C431.991 235.489 434.009 238.99 425.51 244.008C420.24 247.119 417.462 246.955 414.087 247.578" stroke="#475059" stroke-width="2" stroke-miterlimit="10" stroke-linecap="round" stroke-linejoin="round"/>
<path d="M410.593 174.438V184.785" stroke="#475059" stroke-width="2" stroke-miterlimit="10" stroke-linecap="round" stroke-linejoin="round"/>
<path d="M458.739 229.869L469.527 247.291" stroke="#475059" stroke-width="2" stroke-miterlimit="10" stroke-linecap="round" stroke-linejoin="round"/>
<path d="M476.528 259.427C477.811 269.587 482.154 279.34 488.847 287.092" stroke="#475059" stroke-width="2" stroke-miterlimit="10" stroke-linecap="round" stroke-linejoin="round"/>
<path d="M412.358 259.427C411.075 269.587 406.731 279.34 400.038 287.092" stroke="#475059" stroke-width="2" stroke-miterlimit="10" stroke-linecap="round" stroke-linejoin="round"/>
<path d="M428.087 130.887L433.482 136.978C439.134 143.358 449.627 143.208 455.068 136.669L459.878 130.887H428.087Z" fill="#FC7EE4" stroke="#475059" stroke-width="2" stroke-miterlimit="10" stroke-linecap="round" stroke-linejoin="round"/>
<path d="M428.087 130.887L433.482 136.978C433.631 137.146 433.785 137.307 433.94 137.466L440.519 130.887H428.087Z" fill="#475059" stroke="#475059" stroke-width="2" stroke-miterlimit="10" stroke-linecap="round" stroke-linejoin="round"/>
<path d="M462.564 388.933L501.75 388.77C501.75 403.961 512.116 419.949 526.146 423.57C529.942 424.55 530.51 429.694 527.019 431.478C523.27 433.394 517.693 434.962 509.477 434.962C509.477 434.962 487.238 436.154 476.51 422.97C475.242 421.413 472.776 421.782 472.056 423.658L469.569 430.708H469.568C469.107 432.156 467.752 433.205 466.151 433.205C464.277 433.205 462.741 431.767 462.58 429.935C462.575 429.936 462.569 429.937 462.564 429.938V388.933Z" fill="#2E3436"/>
<path d="M459.379 411.282L450.727 412.265L457.906 407.338L451.093 401.915L459.654 403.506L458.671 394.855L463.599 402.034L469.021 395.221L467.429 403.782L476.081 402.798L468.902 407.726L475.715 413.148L467.154 411.557L468.137 420.209L463.21 413.03L457.787 419.843L459.379 411.282Z" fill="white" stroke="#2E3436" stroke-width="2" stroke-miterlimit="10" stroke-linecap="round" stroke-linejoin="round"/>
<path d="M426.321 388.933L387.135 388.77C387.135 403.961 376.769 419.949 362.739 423.57C358.943 424.55 358.375 429.694 361.866 431.478C365.615 433.394 371.192 434.962 379.408 434.962C379.408 434.962 401.647 436.154 412.376 422.97C413.643 421.413 416.11 421.782 416.829 423.658L419.316 430.708H419.317C419.778 432.156 421.133 433.205 422.734 433.205C424.608 433.205 426.145 431.767 426.305 429.935C426.31 429.936 426.316 429.937 426.321 429.938V388.933Z" fill="#2E3436"/>
<path d="M429.507 411.282L438.158 412.265L430.98 407.338L437.793 401.915L429.232 403.506L430.215 394.855L425.288 402.034L419.865 395.221L421.456 403.782L412.805 402.798L419.984 407.726L413.171 413.148L421.731 411.557L420.748 420.209L425.676 413.03L431.099 419.843L429.507 411.282Z" fill="white" stroke="#2E3436" stroke-width="2" stroke-miterlimit="10" stroke-linecap="round" stroke-linejoin="round"/>
<path d="M344.353 128.091L344.32 128.147L344.32 128.148C343.687 129.269 343.161 130.99 342.755 133.227C342.345 135.482 342.07 138.181 341.902 141.164C341.567 147.13 341.665 154.157 341.947 160.889C342.23 167.618 342.695 174.032 343.09 178.766C343.287 181.132 343.467 183.077 343.597 184.43C343.663 185.107 343.715 185.635 343.752 185.994C343.77 186.174 343.784 186.311 343.794 186.403L343.805 186.507L343.807 186.533L343.808 186.539L343.808 186.541C343.808 186.541 343.808 186.541 342.814 186.647L343.808 186.541L343.877 187.188L343.314 187.513C341.936 188.309 339.438 188.944 336.296 189.47C333.103 190.005 329.092 190.448 324.573 190.794C315.531 191.487 304.393 191.797 293.562 191.659C282.736 191.521 272.182 190.937 264.318 189.834C260.394 189.283 257.087 188.597 254.737 187.751C253.568 187.33 252.571 186.847 251.848 186.276C251.203 185.766 250.67 185.097 250.567 184.259C248.755 181.036 246.92 175.793 245.386 169.813C243.814 163.684 242.537 156.698 241.928 150.155C241.321 143.636 241.367 137.461 242.501 133.003C243.067 130.777 243.931 128.871 245.219 127.581C246.528 126.27 248.216 125.658 250.234 125.915L250.409 125.9C250.595 125.885 250.871 125.863 251.231 125.835C251.951 125.778 253.006 125.696 254.346 125.594C257.027 125.391 260.85 125.111 265.422 124.801C274.565 124.183 286.708 123.449 298.696 122.987C310.675 122.526 322.532 122.336 331.09 122.81C335.353 123.046 338.873 123.451 341.192 124.096C342.324 124.411 343.325 124.824 343.956 125.421C344.29 125.737 344.567 126.15 344.649 126.664C344.732 127.184 344.595 127.671 344.353 128.091Z" fill="#7BD527" stroke="#2E3436" stroke-width="2" stroke-linecap="round"/>
<path d="M351.117 189.392L351.472 189.236L351.839 189.359L351.84 189.36L352.466 189.57L352.518 190.229L351.521 190.308C352.518 190.229 352.518 190.229 352.518 190.23L352.518 190.233L352.519 190.246L352.523 190.297L352.539 190.498L352.601 191.282C352.655 191.97 352.735 192.98 352.836 194.269C353.039 196.848 353.329 200.545 353.678 205.015C354.377 213.954 355.312 225.987 356.259 238.362C358.153 263.092 360.099 289.236 360.294 294.72L360.336 295.881L359.182 295.75C328.272 292.235 299.634 290.975 277.733 291.512C266.78 291.781 257.534 292.499 250.54 293.604C247.042 294.156 244.13 294.802 241.859 295.528C239.562 296.262 238.024 297.047 237.181 297.821L235.377 299.474L235.506 297.031L236.505 297.084C235.506 297.031 235.506 297.03 235.506 297.03L235.507 297.027L235.507 297.015L235.51 296.967L235.519 296.778C235.528 296.611 235.54 296.363 235.556 296.037C235.588 295.387 235.633 294.43 235.686 293.207C235.793 290.761 235.933 287.248 236.067 282.984C236.336 274.456 236.581 262.928 236.486 250.924C236.392 238.916 235.957 226.452 234.869 216.044C234.326 210.839 233.621 206.17 232.72 202.339C231.867 198.711 230.859 195.927 229.706 194.149C229.415 194.091 229.172 194.035 228.982 193.981C228.855 193.944 228.693 193.892 228.547 193.814C228.482 193.78 228.34 193.7 228.211 193.554C228.071 193.395 227.849 193.03 227.994 192.561C228.111 192.181 228.397 192.006 228.485 191.956C228.603 191.889 228.715 191.853 228.782 191.834C228.923 191.793 229.077 191.77 229.213 191.754C229.495 191.722 229.876 191.701 230.328 191.689C232.144 191.641 235.57 191.714 240.122 191.85C242.992 191.935 246.318 192.046 249.992 192.168C258.017 192.435 267.701 192.756 277.901 192.992C292.771 193.334 308.708 193.492 322.145 193.026C328.865 192.793 334.944 192.404 339.944 191.808C344.973 191.208 348.813 190.407 351.117 189.392Z" fill="#7BD527" stroke="#2E3436" stroke-width="2" stroke-linecap="round"/>
<path d="M386.009 203.339V204.692L385.874 204.65C385.599 208.198 385.967 213.909 386.73 220.695C387.579 228.245 388.899 237.004 390.285 245.334C391.67 253.663 393.119 261.553 394.221 267.361C394.772 270.265 395.237 272.648 395.563 274.305C395.726 275.133 395.855 275.78 395.943 276.219C395.987 276.439 396.021 276.607 396.044 276.72L396.07 276.848L396.076 276.88L396.078 276.888L396.078 276.89C396.078 276.89 396.078 276.89 395.098 277.089L396.078 276.89L396.294 277.956L395.214 278.082L364.488 281.671L363.428 281.795L363.373 280.729L359.29 200.974L359.244 200.074L360.135 199.935L360.289 200.923C360.135 199.935 360.135 199.935 360.136 199.935L360.137 199.935L360.139 199.935L360.147 199.933L360.176 199.929C360.201 199.925 360.236 199.92 360.281 199.914C360.372 199.902 360.505 199.884 360.677 199.864C361.022 199.823 361.524 199.769 362.168 199.719C363.455 199.619 365.307 199.53 367.586 199.573C372.142 199.658 378.418 200.271 385.302 202.383L385.031 203.269L386.009 203.338V203.339Z" fill="#7BD527" stroke="#2E3436" stroke-width="2" stroke-linecap="round"/>
<path d="M208.934 224.277C208.682 225.245 208.683 225.245 208.685 225.246L208.687 225.246L208.693 225.248L208.707 225.251C208.716 225.253 208.728 225.256 208.741 225.259C208.767 225.264 208.799 225.271 208.837 225.277C208.914 225.291 209.017 225.305 209.145 225.316C209.401 225.339 209.76 225.349 210.225 225.315C211.157 225.246 212.512 224.998 214.33 224.316C217.962 222.954 223.463 219.856 231.184 212.953L231.752 212.445L231.458 211.853C228.981 202.38 223.292 193.91 216.381 183.619C216.163 183.293 215.943 182.966 215.721 182.636C208.465 171.825 199.852 158.819 191.836 140.308L191.367 139.224L190.375 139.866L165.179 156.178L164.179 156.825L164.989 157.698C176.61 170.218 187.369 186.956 195.235 200.599C199.165 207.414 202.365 213.444 204.582 217.769C205.691 219.931 206.554 221.667 207.139 222.861C207.431 223.458 207.654 223.92 207.804 224.231C207.879 224.387 207.936 224.506 207.973 224.585L208.016 224.674L208.026 224.696L208.029 224.702L208.029 224.703C208.029 224.703 208.029 224.703 208.934 224.277ZM208.934 224.277L208.682 225.245L208.229 225.127L208.029 224.703L208.934 224.277Z" fill="#7BD527" stroke="#2E3436" stroke-width="2" stroke-linecap="round"/>
<path d="M338.617 300.535L338.697 300.581L338.767 300.641L338.768 300.642L339.104 300.929L339.119 301.37L338.119 301.403C339.119 301.37 339.119 301.37 339.119 301.371L339.119 301.375L339.119 301.389L339.121 301.444L339.128 301.663L339.157 302.518C339.182 303.267 339.218 304.368 339.265 305.772C339.36 308.581 339.496 312.604 339.664 317.464C339.999 327.183 340.461 340.247 340.964 353.626C341.972 380.427 343.145 408.37 343.808 413.341L343.977 414.61L342.705 414.467C328.737 412.893 318.896 412.895 312.566 413.286C309.4 413.482 307.113 413.774 305.625 414.016C304.881 414.136 304.338 414.244 303.984 414.321C303.807 414.359 303.678 414.389 303.595 414.41C303.554 414.42 303.524 414.427 303.506 414.432L303.487 414.437L303.485 414.438L303.484 414.438L303.484 414.438L303.484 414.438L302.221 414.783V413.473V299.388V298.662L302.912 298.437L303.221 299.388C302.912 298.437 302.912 298.437 302.912 298.437L302.914 298.437L302.917 298.435L302.931 298.431L302.979 298.416C303.02 298.403 303.081 298.384 303.16 298.36C303.317 298.312 303.547 298.244 303.843 298.161C304.435 297.995 305.294 297.768 306.369 297.524C308.518 297.037 311.538 296.478 315.031 296.19C321.992 295.617 330.955 296.111 338.617 300.535Z" fill="#7BD527" stroke="#2E3436" stroke-width="2" stroke-linecap="round"/>
<path d="M252.443 299.508V298.918L252.96 298.633C255.91 297.005 259.756 296.074 263.79 295.567C267.839 295.059 272.156 294.969 276.1 295.072C280.048 295.175 283.64 295.472 286.245 295.743C287.549 295.879 288.606 296.008 289.339 296.103C289.706 296.151 289.991 296.191 290.186 296.218C290.283 296.232 290.358 296.243 290.409 296.25L290.466 296.259L290.482 296.261L290.486 296.261L290.487 296.262C290.487 296.262 290.487 296.262 290.338 297.25L290.487 296.262L291.54 296.421L291.315 297.461C290.331 302.025 289.872 311.39 289.753 322.986C289.635 334.541 289.855 348.202 290.202 361.287C290.549 374.37 291.021 386.869 291.407 396.098C291.601 400.712 291.772 404.509 291.895 407.151C291.957 408.472 292.006 409.505 292.04 410.208C292.057 410.559 292.07 410.827 292.079 411.008L292.089 411.213L292.092 411.264L292.093 411.277L292.093 411.28C292.093 411.281 292.093 411.281 291.094 411.332L292.093 411.281L292.144 412.292L291.133 412.331C282.374 412.668 279.173 412.448 275.08 411.766C274.182 411.616 273.245 411.445 272.196 411.253C268.535 410.584 263.511 409.666 254.041 408.543L253.111 408.433L253.16 407.498C253.457 401.818 253.964 377.174 254.054 352.762C254.099 340.561 254.039 328.429 253.797 318.767C253.676 313.934 253.51 309.728 253.289 306.443C253.065 303.117 252.79 300.84 252.483 299.791L252.443 299.653V299.509V299.508Z" fill="#7BD527" stroke="#2E3436" stroke-width="2" stroke-linecap="round"/>
<path d="M300.752 150.067H300.721V149.067C300.721 145.194 301.552 141.147 303.31 138.031C305.079 134.896 307.86 132.604 311.706 132.604C315.45 132.604 319.315 134.787 322.205 137.834C325.103 140.89 327.188 144.99 327.188 149.067C327.188 157.018 321.356 163.655 313.955 163.655C306.866 163.655 301.216 157.567 300.752 150.067Z" fill="white" fill-opacity="0.94118" stroke="#2E3436" stroke-width="2" stroke-linecap="round"/>
<path d="M311.878 183.279L319.252 183.629L320.328 183.414V184.634V199.397V200.397H319.328H309.933H308.799L308.94 199.273L310.838 184.153L310.954 183.235L311.878 183.279Z" fill="#0F775E" stroke="#2E3436" stroke-width="2" stroke-linecap="round"/>
<path d="M270.557 184.127L270.393 185.097L271.33 185.031L272.397 200.269L272.463 201.213L271.525 201.331L263.079 202.399L261.954 202.541V201.407V184.294V183.179L263.062 183.3L269.251 183.977L269.24 183.823L270.557 184.127L270.557 184.127Z" fill="#0F775E" stroke="#2E3436" stroke-width="2" stroke-linecap="round"/>
<path d="M276.644 283.543L279.456 282.955L277.87 284.858L278.914 302.385L279.014 304.056L277.496 303.352L270.392 300.057L269.876 299.818L269.818 299.252L268.475 286.166L268.384 285.27L269.266 285.085L276.644 283.543Z" fill="#0F775E" stroke="#2E3436" stroke-width="2" stroke-linecap="round"/>
<path d="M324.831 284.923L328.186 286.115L325.554 286.665L326.561 301.033L326.618 301.85L325.828 302.067L317.046 304.477L315.754 304.832L315.782 303.492L316.118 287.386L316.134 286.591L316.913 286.428L323.437 285.065L323.391 284.411L324.83 284.922L324.831 284.923Z" fill="#0F775E" stroke="#2E3436" stroke-width="2" stroke-linecap="round"/>
<path d="M225.278 207.255L227.246 206.648L227.059 207.132L242.296 206.347L243.508 206.284L243.337 207.486L242.039 216.617L241.916 217.485L241.039 217.476L222.453 217.28L221.012 217.264L221.53 215.92L224.639 207.851L225.437 208.158L225.277 207.255L225.278 207.255Z" fill="#0F775E" stroke="#2E3436" stroke-width="2" stroke-linecap="round"/>
<path d="M350.325 205.593H351.342L351.34 205.738L365.574 207.936L366.509 208.08L366.417 209.022L365.589 217.495L365.479 218.624L364.372 218.373L349.975 215.105L349.182 214.926L349.196 214.113L349.325 206.576L350.248 206.592L350.325 205.593H350.325Z" fill="#0F775E" stroke="#2E3436" stroke-width="2" stroke-linecap="round"/>
<path d="M270.161 133.458C277.512 132.592 284.08 138.501 285.011 146.398C285.464 150.244 285.112 154.36 283.73 157.661C282.34 160.981 279.846 163.583 276.027 164.033C272.308 164.471 268.214 162.755 264.988 160.067C261.753 157.371 259.202 153.543 258.725 149.495C257.794 141.597 262.811 134.324 270.161 133.458Z" fill="white" fill-opacity="0.94118" stroke="#2E3436" stroke-width="2" stroke-linecap="round"/>
<path d="M277.207 219.048L277.214 219.106V219.107C277.489 221.534 277.267 224.144 276.389 226.26C275.495 228.411 273.859 230.164 271.314 230.466C268.871 230.756 266.234 229.621 264.19 227.905C262.137 226.18 260.492 223.711 260.183 221.066C259.589 215.979 262.793 211.215 267.593 210.645C272.395 210.074 276.612 213.96 277.207 219.048Z" fill="#4E9A06" fill-opacity="0.94118" stroke="#2E3436" stroke-width="2" stroke-linecap="round"/>
<path fill-rule="evenodd" clip-rule="evenodd" d="M269.535 216.6C269.313 214.643 267.756 213.223 266.06 213.43C264.364 213.638 263.167 215.395 263.389 217.352C263.611 219.31 265.788 221.15 267.484 220.942C269.18 220.734 269.757 218.558 269.535 216.6L269.535 216.6Z" fill="white" fill-opacity="0.94118"/>
<path d="M282.924 181.119L283.389 171.092L283.251 170.049H284.392H303.866H304.866V171.049V183.726V184.863L303.738 184.718L283.795 182.157L282.881 182.04L282.924 181.119Z" fill="white" fill-opacity="0.78431" stroke="#2E3436" stroke-width="2" stroke-linecap="round"/>
<path d="M303.607 173.865C296.671 176.393 292.709 177.05 285.368 175.534C285.333 175.534 285.304 175.563 285.304 175.599V178.624C285.304 178.66 285.333 178.688 285.368 178.688C292.075 181.074 295.935 181.013 303.051 178.688C303.086 178.688 302.929 179.588 302.929 179.552L303.115 175.599C303.115 175.563 303.643 173.865 303.607 173.865Z" fill="#475059"/>
<path d="M307.44 144.738C307.44 148.631 309.849 151.788 312.82 151.788C315.791 151.788 318.2 148.631 318.2 144.738C318.2 140.844 315.791 137.688 312.82 137.688C309.849 137.688 307.44 140.844 307.44 144.738Z" fill="#475059"/>
<path d="M266.622 144.738C266.622 148.631 269.031 151.788 272.003 151.788C274.974 151.788 277.383 148.631 277.383 144.738C277.383 140.844 274.974 137.688 272.003 137.688C269.031 137.688 266.622 140.844 266.622 144.738Z" fill="#475059"/>
<path d="M328.75 100.539V101.359L328.261 101.457L305.391 125.886L305.117 126.179L304.717 126.201L295.271 126.726L293.106 126.846L294.42 125.121L295.216 125.727C294.42 125.121 294.421 125.121 294.421 125.121L294.422 125.119L294.424 125.116L294.434 125.103L294.473 125.053C294.506 125.009 294.556 124.946 294.621 124.863C294.75 124.697 294.941 124.455 295.189 124.147C295.685 123.531 296.409 122.649 297.328 121.582C299.163 119.449 301.776 116.571 304.888 113.592C310.988 107.751 319.165 101.361 327.237 99.6245L328.75 98.0077V100.539V100.539Z" fill="#475059" stroke="#2E3436" stroke-width="2"/>
<path d="M328.986 106.09C325.391 106.09 322.477 103.175 322.477 99.5801C322.477 95.9849 325.391 93.0703 328.986 93.0703C332.582 93.0703 335.496 95.9849 335.496 99.5801C335.496 103.175 332.582 106.09 328.986 106.09Z" fill="#475059" stroke="#2E3436" stroke-width="2"/>
<path d="M246.801 96.4588C250.843 97.3127 255.618 99.4756 260.47 102.193C265.433 104.972 270.549 108.372 275.157 111.664C279.767 114.957 283.882 118.15 286.844 120.519C288.325 121.704 289.518 122.684 290.342 123.368C290.754 123.71 291.074 123.978 291.291 124.161C291.4 124.252 291.483 124.322 291.539 124.37L291.602 124.424L291.618 124.438L291.623 124.441L291.624 124.442C291.624 124.443 291.624 124.443 290.975 125.203L291.624 124.443L293.875 126.366L290.919 126.201L281.474 125.677L281.162 125.659L280.916 125.468L245.758 98.1811L246.209 97.599L246.265 96.3968L246.265 96.3967L246.666 96.3542L246.801 96.4588Z" fill="#475059" stroke="#2E3436" stroke-width="2"/>
<path d="M244.589 101.11C248.184 101.11 251.099 98.1959 251.099 94.6006C251.099 91.0054 248.184 88.0908 244.589 88.0908C240.994 88.0908 238.079 91.0054 238.079 94.6006C238.079 98.1959 240.994 101.11 244.589 101.11Z" fill="#475059" stroke="#2E3436" stroke-width="2"/>
<path d="M391.224 292.613L380.779 286.644L379.773 286.069L380.489 285.158L386.261 277.811L387.115 276.725L387.794 277.746L400.791 288.143L401.264 288.522L401.147 289.116L396.425 313.255L396.151 314.654L394.929 313.92L389.681 310.772L389.127 310.439L389.203 309.798L391.224 292.613Z" fill="#2E3436" stroke="#2E3436" stroke-width="2"/>
<path d="M381.573 278.184L382.246 277.146L383.111 278.245L388.883 285.592L389.599 286.503L388.593 287.078L378.147 293.047L380.169 310.232L380.244 310.873L379.69 311.206L374.443 314.354L373.221 315.088L372.947 313.689L368.224 289.55L368.108 288.956L368.581 288.577L381.573 278.184Z" fill="#2E3436" stroke="#2E3436" stroke-width="2"/>
<path d="M177.33 135.526L171.282 145.925L170.699 146.927L171.775 147.356L180.451 150.822L182.068 151.468L181.85 150.009L187.849 134.6L188.069 134.036L187.67 133.58L171.488 115.056L170.55 113.983L169.86 115.23L166.896 120.584L166.583 121.149L166.97 121.667L177.33 135.526Z" fill="#2E3436" stroke="#2E3436" stroke-width="2"/>
<path d="M177.391 152.09L178.548 152.998L178.792 151.282L180.106 142.032L180.269 140.885L179.11 140.891L167.08 140.959L160.219 125.074L159.963 124.481L159.317 124.471L153.198 124.375L151.773 124.353L152.237 125.701L160.244 148.957L160.441 149.53L161.04 149.62L177.391 152.09Z" fill="#2E3436" stroke="#2E3436" stroke-width="2"/>
<path d="M335.252 414.995C335.54 414.99 335.815 415.11 336.009 415.323L353.819 434.989C354.081 435.279 354.151 435.694 353.998 436.053C353.844 436.412 353.496 436.649 353.106 436.66L299.674 438.144C299.312 438.154 298.974 437.969 298.788 437.659C298.602 437.349 298.598 436.962 298.778 436.649L310.652 415.87C310.827 415.563 311.151 415.371 311.504 415.366L335.252 414.995Z" fill="#2E3436" stroke="#2E3436" stroke-width="2" stroke-linecap="round" stroke-linejoin="round"/>
<path d="M283.301 412.397C283.569 412.392 283.828 412.495 284.02 412.683C284.115 412.777 284.19 412.887 284.24 413.007L294.626 436.803C294.758 437.106 294.732 437.455 294.556 437.735C294.381 438.015 294.078 438.19 293.748 438.203L247.737 439.999C247.388 440.013 247.057 439.843 246.864 439.552C246.671 439.26 246.645 438.889 246.794 438.573L258.668 413.419C258.83 413.076 259.173 412.854 259.553 412.846L283.301 412.397Z" fill="#2E3436" stroke="#2E3436" stroke-width="2" stroke-linecap="round" stroke-linejoin="round"/>
<path d="M334.85 324.494L325.203 320.042L325.622 319.134L326.041 318.226L335.688 322.678L335.269 323.586L334.85 324.494Z" stroke="#2E3436" stroke-width="2"/>
<path d="M333.255 315.342L329.174 328.7L328.218 328.407L327.261 328.115L331.343 314.757L332.299 315.049L333.255 315.342Z" stroke="#2E3436" stroke-width="2"/>
</svg>
