<svg width="698" height="660" viewBox="0 0 698 660" fill="none" xmlns="http://www.w3.org/2000/svg">
<path d="M655.182 440.471H81.1761C71.7155 440.471 64.0457 432.801 64.0457 423.34V18.3835C64.0457 8.92285 71.7155 1.25299 81.1761 1.25299H655.183C664.643 1.25299 672.313 8.92285 672.313 18.3835V423.341C672.312 432.802 664.643 440.471 655.182 440.471Z" fill="#FFF2ED" stroke="#2E3436" stroke-width="2" stroke-miterlimit="10" stroke-linecap="round" stroke-linejoin="round"/>
<path d="M657.88 1.25299H78.4768C70.506 1.25299 64.0447 7.71434 64.0447 15.6851V50.8238H672.311V15.6851C672.312 7.71434 665.851 1.25299 657.88 1.25299Z" fill="#E0E0E0" stroke="#2E3436" stroke-width="2" stroke-miterlimit="10" stroke-linecap="round" stroke-linejoin="round"/>
<path d="M90.9952 35.7631C96.366 35.7631 100.72 31.4092 100.72 26.0385C100.72 20.6677 96.366 16.3138 90.9952 16.3138C85.6245 16.3138 81.2706 20.6677 81.2706 26.0385C81.2706 31.4092 85.6245 35.7631 90.9952 35.7631Z" fill="#FF0000" stroke="#2E3436" stroke-width="2" stroke-miterlimit="10" stroke-linecap="round" stroke-linejoin="round"/>
<path d="M119.969 35.7631C125.339 35.7631 129.693 31.4092 129.693 26.0385C129.693 20.6677 125.339 16.3138 119.969 16.3138C114.598 16.3138 110.244 20.6677 110.244 26.0385C110.244 31.4092 114.598 35.7631 119.969 35.7631Z" fill="#EDE73B" stroke="#2E3436" stroke-width="2" stroke-miterlimit="10" stroke-linecap="round" stroke-linejoin="round"/>
<path d="M148.343 35.7631C153.714 35.7631 158.067 31.4092 158.067 26.0385C158.067 20.6677 153.714 16.3138 148.343 16.3138C142.972 16.3138 138.618 20.6677 138.618 26.0385C138.618 31.4092 142.972 35.7631 148.343 35.7631Z" fill="#0F775E" stroke="#2E3436" stroke-width="2" stroke-miterlimit="10" stroke-linecap="round" stroke-linejoin="round"/>
<path d="M423.736 405.992V295.348" stroke="#2E3436" stroke-width="2" stroke-miterlimit="10" stroke-linecap="round" stroke-linejoin="round"/>
<path d="M512.663 407.015V296.371" stroke="#2E3436" stroke-width="2" stroke-miterlimit="10" stroke-linecap="round" stroke-linejoin="round"/>
<path d="M601.385 407.015V296.371" stroke="#2E3436" stroke-width="2" stroke-miterlimit="10" stroke-linecap="round" stroke-linejoin="round"/>
<path d="M380.894 381.132L442.991 341.351L492.325 361.241L561.394 318.798L601.385 330.825L646.673 295.348" stroke="#2E3436" stroke-width="2" stroke-miterlimit="10" stroke-linecap="round" stroke-linejoin="round"/>
<path d="M363.221 295.348H653.805" stroke="#2E3436" stroke-width="2" stroke-miterlimit="10" stroke-linecap="round" stroke-linejoin="round"/>
<path d="M363.22 324.787H653.804" stroke="#2E3436" stroke-width="2" stroke-miterlimit="10" stroke-linecap="round" stroke-linejoin="round"/>
<path d="M363.22 351.693H653.804" stroke="#2E3436" stroke-width="2" stroke-miterlimit="10" stroke-linecap="round" stroke-linejoin="round"/>
<path d="M363.22 405.992H653.804" stroke="#2E3436" stroke-width="2" stroke-miterlimit="10" stroke-linecap="round" stroke-linejoin="round"/>
<path d="M363.22 381.131H653.804" stroke="#2E3436" stroke-width="2" stroke-miterlimit="10" stroke-linecap="round" stroke-linejoin="round"/>
<path d="M380.894 388.546C384.988 388.546 388.308 385.226 388.308 381.131C388.308 377.037 384.988 373.717 380.894 373.717C376.799 373.717 373.479 377.037 373.479 381.131C373.479 385.226 376.799 388.546 380.894 388.546Z" fill="#47C3F1" stroke="#2E3436" stroke-width="2" stroke-miterlimit="10" stroke-linecap="round" stroke-linejoin="round"/>
<path d="M443.578 349.905C447.673 349.905 450.992 346.585 450.992 342.491C450.992 338.396 447.673 335.076 443.578 335.076C439.483 335.076 436.163 338.396 436.163 342.491C436.163 346.585 439.483 349.905 443.578 349.905Z" fill="#FF0000" stroke="#2E3436" stroke-width="2" stroke-miterlimit="10" stroke-linecap="round" stroke-linejoin="round"/>
<path d="M491.972 368.309C496.067 368.309 499.386 364.99 499.386 360.895C499.386 356.8 496.067 353.48 491.972 353.48C487.877 353.48 484.557 356.8 484.557 360.895C484.557 364.99 487.877 368.309 491.972 368.309Z" fill="#47C3F1" stroke="#2E3436" stroke-width="2" stroke-miterlimit="10" stroke-linecap="round" stroke-linejoin="round"/>
<path d="M560.533 326.5C564.628 326.5 567.948 323.181 567.948 319.086C567.948 314.991 564.628 311.671 560.533 311.671C556.438 311.671 553.119 314.991 553.119 319.086C553.119 323.181 556.438 326.5 560.533 326.5Z" fill="#FF0000" stroke="#2E3436" stroke-width="2" stroke-miterlimit="10" stroke-linecap="round" stroke-linejoin="round"/>
<path d="M601.385 338.24C605.48 338.24 608.8 334.92 608.8 330.825C608.8 326.73 605.48 323.411 601.385 323.411C597.29 323.411 593.971 326.73 593.971 330.825C593.971 334.92 597.29 338.24 601.385 338.24Z" fill="#47C3F1" stroke="#2E3436" stroke-width="2" stroke-miterlimit="10" stroke-linecap="round" stroke-linejoin="round"/>
<path d="M646.39 302.762C650.485 302.762 653.805 299.443 653.805 295.348C653.805 291.253 650.485 287.933 646.39 287.933C642.295 287.933 638.976 291.253 638.976 295.348C638.976 299.443 642.295 302.762 646.39 302.762Z" fill="#FF0000" stroke="#2E3436" stroke-width="2" stroke-miterlimit="10" stroke-linecap="round" stroke-linejoin="round"/>
<path d="M423.735 408.72C425.242 408.72 426.464 407.499 426.464 405.991C426.464 404.484 425.242 403.263 423.735 403.263C422.228 403.263 421.006 404.484 421.006 405.991C421.006 407.499 422.228 408.72 423.735 408.72Z" fill="#2E3436" stroke="#2E3436" stroke-width="2" stroke-miterlimit="10" stroke-linecap="round" stroke-linejoin="round"/>
<path d="M512.458 408.72C513.966 408.72 515.187 407.499 515.187 405.991C515.187 404.484 513.966 403.263 512.458 403.263C510.951 403.263 509.729 404.484 509.729 405.991C509.729 407.499 510.951 408.72 512.458 408.72Z" fill="#2E3436" stroke="#2E3436" stroke-width="2" stroke-miterlimit="10" stroke-linecap="round" stroke-linejoin="round"/>
<path d="M601.591 408.72C603.098 408.72 604.319 407.499 604.319 405.991C604.319 404.484 603.098 403.263 601.591 403.263C600.083 403.263 598.862 404.484 598.862 405.991C598.862 407.499 600.083 408.72 601.591 408.72Z" fill="#2E3436" stroke="#2E3436" stroke-width="2" stroke-miterlimit="10" stroke-linecap="round" stroke-linejoin="round"/>
<path d="M493.356 87.3338V86.1818C493.356 82.4974 497.005 79.5099 501.508 79.5099H582.777C587.28 79.5099 590.93 82.4966 590.93 86.1818V90.0997C590.93 93.7841 587.28 96.7716 582.777 96.7716H501.508C497.005 96.7716 493.356 93.7849 493.356 90.0997V87.3338Z" fill="#2E3436" stroke="#2E3436" stroke-width="2" stroke-miterlimit="10" stroke-linecap="round" stroke-linejoin="round"/>
<path d="M475.971 124.374V101.433C475.971 92.6046 483.128 85.4479 491.956 85.4479H584.523C575.695 85.4479 568.538 92.6046 568.538 101.433V124.374" fill="white"/>
<path d="M475.971 124.374V101.433C475.971 92.6046 483.128 85.4479 491.956 85.4479H584.523C575.695 85.4479 568.538 92.6046 568.538 101.433V124.374" stroke="#2E3436" stroke-width="2" stroke-miterlimit="10" stroke-linecap="round" stroke-linejoin="round"/>
<path d="M459.443 163.868V140.927C459.443 132.099 466.599 124.942 475.427 124.942H567.995C559.167 124.942 552.011 132.099 552.011 140.927V163.868" fill="white"/>
<path d="M459.443 163.868V140.927C459.443 132.099 466.599 124.942 475.427 124.942H567.995C559.167 124.942 552.011 132.099 552.011 140.927V163.868" stroke="#2E3436" stroke-width="2" stroke-miterlimit="10" stroke-linecap="round" stroke-linejoin="round"/>
<path d="M535.152 261.504H442.585V202.556V179.615C442.585 170.787 449.742 163.63 458.57 163.63H551.137C542.309 163.63 535.152 170.787 535.152 179.615V202.556V261.504" fill="white"/>
<path d="M535.152 261.504H442.585V202.556V179.615C442.585 170.787 449.742 163.63 458.57 163.63H551.137C542.309 163.63 535.152 170.787 535.152 179.615V202.556V261.504" stroke="#2E3436" stroke-width="2" stroke-miterlimit="10" stroke-linecap="round" stroke-linejoin="round"/>
<path d="M461.305 179.554H455.583V245.995H461.305V179.554Z" fill="#2E3436"/>
<path d="M477.183 212.567H471.461V245.787H477.183V212.567Z" fill="#2E3436"/>
<path d="M493.486 99.3458H551.138" stroke="#2E3436" stroke-width="2" stroke-miterlimit="10" stroke-linecap="round" stroke-linejoin="round"/>
<path d="M493.486 109.69H551.138" stroke="#2E3436" stroke-width="2" stroke-miterlimit="10" stroke-linecap="round" stroke-linejoin="round"/>
<path d="M476.877 136.862H534.529" stroke="#2E3436" stroke-width="2" stroke-miterlimit="10" stroke-linecap="round" stroke-linejoin="round"/>
<path d="M476.877 147.52H534.529" stroke="#2E3436" stroke-width="2" stroke-miterlimit="10" stroke-linecap="round" stroke-linejoin="round"/>
<path d="M518.636 232.931C518.636 232.742 518.632 232.553 518.623 232.366C518.615 232.178 518.534 231.995 518.517 231.809C518.501 231.621 518.556 231.425 518.531 231.24C518.505 231.053 518.389 230.881 518.355 230.697C518.322 230.511 518.303 230.325 518.262 230.143C518.22 229.959 518.153 229.784 518.103 229.604C518.053 229.422 518.127 229.203 518.069 229.025C518.011 228.845 517.888 228.687 517.822 228.511C517.756 228.335 517.665 228.169 517.592 227.996C517.518 227.823 517.473 227.636 517.391 227.467C517.309 227.297 517.252 227.114 517.163 226.949C517.074 226.783 516.934 226.644 516.837 226.483C516.741 226.322 516.694 226.127 516.591 225.97C516.487 225.813 516.33 225.691 516.219 225.54C516.108 225.388 515.951 225.272 515.834 225.125C515.717 224.978 515.642 224.796 515.519 224.654C515.395 224.513 515.217 224.422 515.087 224.286C514.958 224.15 514.84 224.005 514.705 223.875C514.569 223.745 514.452 223.595 514.311 223.472C514.17 223.348 514.069 223.172 513.922 223.055C513.775 222.938 513.557 222.913 513.405 222.803C513.253 222.692 513.167 222.485 513.011 222.382C512.854 222.278 512.633 222.276 512.472 222.179C512.31 222.082 512.159 221.972 511.994 221.883C511.829 221.794 511.671 221.691 511.501 221.609C511.332 221.528 511.147 221.483 510.974 221.409C510.802 221.335 510.615 221.302 510.439 221.235C510.264 221.169 510.13 220.983 509.951 220.925C509.772 220.867 509.592 220.802 509.411 220.752C509.23 220.703 509.036 220.695 508.852 220.654C508.67 220.612 508.483 220.584 508.298 220.551C508.113 220.518 507.918 220.55 507.731 220.525C507.546 220.5 507.369 220.388 507.181 220.372C506.995 220.355 506.801 220.417 506.613 220.409C506.426 220.4 506.239 220.398 506.05 220.398C505.861 220.398 505.675 220.412 505.488 220.42C505.299 220.428 505.11 220.404 504.923 220.42C504.736 220.437 504.553 220.492 504.368 220.517C504.181 220.542 503.995 220.566 503.812 220.599C503.626 220.633 503.421 220.573 503.239 220.615C503.055 220.656 502.891 220.78 502.71 220.831C502.528 220.881 502.338 220.902 502.16 220.959C501.981 221.018 501.809 221.1 501.634 221.165C501.458 221.231 501.279 221.292 501.107 221.366C500.934 221.44 500.763 221.52 500.594 221.601C500.424 221.683 500.236 221.73 500.07 221.819C499.904 221.909 499.744 222.013 499.583 222.11C499.422 222.206 499.266 222.315 499.11 222.419C498.952 222.522 498.798 222.632 498.647 222.743C498.495 222.854 498.4 223.039 498.254 223.156C498.107 223.274 497.929 223.351 497.787 223.475C497.646 223.599 497.529 223.75 497.394 223.879C497.258 224.009 497.148 224.161 497.018 224.297C496.888 224.433 496.758 224.565 496.634 224.707C496.51 224.848 496.315 224.929 496.197 225.076C496.08 225.223 496.001 225.401 495.89 225.552C495.78 225.704 495.686 225.867 495.582 226.024C495.479 226.18 495.41 226.357 495.314 226.519C495.217 226.68 495.073 226.813 494.984 226.978C494.895 227.143 494.815 227.313 494.733 227.482C494.651 227.651 494.509 227.795 494.435 227.968C494.361 228.14 494.285 228.315 494.218 228.492C494.152 228.667 494.224 228.892 494.166 229.071C494.108 229.249 494 229.411 493.95 229.593C493.901 229.773 493.913 229.968 493.872 230.152C493.83 230.334 493.728 230.504 493.695 230.69C493.662 230.874 493.618 231.057 493.593 231.244C493.568 231.43 493.602 231.622 493.586 231.81C493.569 231.996 493.492 232.179 493.484 232.368C493.476 232.555 493.481 232.744 493.481 232.933C493.481 233.122 493.443 233.313 493.451 233.5C493.459 233.688 493.524 233.874 493.54 234.06C493.557 234.248 493.596 234.432 493.621 234.618C493.646 234.805 493.585 235.006 493.618 235.19C493.652 235.376 493.739 235.552 493.781 235.735C493.822 235.919 493.836 236.111 493.886 236.292C493.936 236.474 494.015 236.648 494.074 236.826C494.132 237.006 494.202 237.182 494.268 237.357C494.334 237.533 494.418 237.703 494.492 237.875C494.565 238.048 494.657 238.213 494.739 238.382C494.821 238.552 494.898 238.723 494.987 238.889C495.076 239.055 495.218 239.189 495.314 239.35C495.411 239.512 495.425 239.725 495.529 239.881C495.633 240.039 495.823 240.135 495.933 240.287C496.044 240.439 496.168 240.576 496.286 240.723C496.403 240.87 496.497 241.034 496.621 241.176C496.744 241.317 496.817 241.506 496.947 241.642C497.077 241.778 497.186 241.937 497.322 242.068C497.458 242.197 497.621 242.302 497.762 242.426C497.903 242.549 498.081 242.631 498.228 242.749C498.375 242.866 498.53 242.972 498.681 243.083C498.833 243.193 498.988 243.298 499.145 243.402C499.301 243.505 499.465 243.596 499.627 243.692C499.788 243.789 499.968 243.848 500.133 243.938C500.298 244.026 500.419 244.199 500.589 244.281C500.758 244.363 500.927 244.448 501.1 244.522C501.272 244.596 501.441 244.686 501.618 244.752C501.793 244.818 501.98 244.859 502.159 244.917C502.337 244.975 502.527 245 502.708 245.05C502.889 245.1 503.057 245.207 503.241 245.248C503.423 245.29 503.617 245.293 503.802 245.327C503.987 245.36 504.179 245.35 504.366 245.375C504.552 245.4 504.743 245.371 504.931 245.388C505.117 245.405 505.302 245.416 505.491 245.424C505.678 245.432 505.863 245.496 506.053 245.496C506.242 245.496 506.429 245.481 506.616 245.472C506.805 245.464 506.992 245.449 507.178 245.432C507.366 245.416 507.558 245.441 507.744 245.416C507.931 245.391 508.11 245.316 508.294 245.282C508.479 245.248 508.679 245.28 508.861 245.24C509.045 245.198 509.211 245.086 509.392 245.036C509.574 244.986 509.776 245.002 509.954 244.943C510.133 244.885 510.273 244.714 510.448 244.648C510.624 244.582 510.819 244.565 510.992 244.491C511.165 244.417 511.331 244.327 511.5 244.246C511.669 244.164 511.808 244.026 511.973 243.937C512.139 243.847 512.37 243.874 512.531 243.777C512.693 243.681 512.836 243.552 512.993 243.448C513.15 243.344 513.27 243.186 513.422 243.076C513.573 242.965 513.7 242.824 513.847 242.706C513.994 242.589 514.176 242.516 514.317 242.393C514.459 242.269 514.604 242.148 514.739 242.019C514.875 241.889 514.958 241.708 515.088 241.572C515.218 241.436 515.424 241.37 515.548 241.228C515.671 241.087 515.738 240.897 515.856 240.75C515.973 240.603 516.07 240.443 516.18 240.29C516.291 240.138 516.457 240.025 516.561 239.868C516.664 239.712 516.686 239.504 516.782 239.342C516.879 239.181 516.965 239.018 517.054 238.852C517.143 238.687 517.276 238.546 517.358 238.377C517.44 238.208 517.472 238.018 517.546 237.845C517.62 237.673 517.735 237.518 517.801 237.342C517.867 237.167 517.926 236.988 517.984 236.809C518.042 236.631 518.052 236.44 518.102 236.258C518.152 236.078 518.323 235.927 518.365 235.743C518.406 235.561 518.331 235.353 518.365 235.168C518.398 234.983 518.417 234.798 518.442 234.611C518.467 234.426 518.614 234.253 518.63 234.065C518.647 233.879 518.632 233.687 518.641 233.498C518.647 233.311 518.636 233.121 518.636 232.931Z" stroke="#2E3436" stroke-width="2" stroke-miterlimit="10" stroke-linecap="round" stroke-linejoin="round"/>
<path d="M502.163 220.707C502.171 220.993 502.262 220.983 502.365 221.25C502.468 221.517 502.446 221.526 502.549 221.793C502.652 222.06 502.714 222.037 502.817 222.304C502.92 222.572 502.909 222.576 503.012 222.844C503.116 223.112 503.119 223.11 503.223 223.379C503.326 223.647 503.275 223.666 503.378 223.934C503.481 224.202 503.543 224.178 503.646 224.446C503.748 224.712 503.763 224.706 503.866 224.972C503.968 225.237 503.969 225.237 504.072 225.503C504.175 225.769 504.184 225.765 504.287 226.032C504.39 226.299 504.31 226.329 504.413 226.596C504.515 226.864 504.587 226.836 504.691 227.104C504.794 227.373 504.76 227.386 504.864 227.655C504.966 227.923 504.971 227.921 505.074 228.189C505.177 228.456 505.165 228.46 505.268 228.728C505.371 228.996 505.383 228.991 505.487 229.259C505.59 229.527 505.558 229.54 505.662 229.81C505.766 230.078 505.835 230.052 505.938 230.32C506.041 230.588 505.957 230.62 506.061 230.889C506.165 231.159 506.164 231.159 506.268 231.428C506.372 231.697 506.399 231.687 506.503 231.956C506.606 232.224 506.656 232.205 506.76 232.474C506.863 232.742 506.852 232.747 506.956 233.015C507.06 233.284 507.044 233.291 507.148 233.56C507.252 233.83 507.229 233.839 507.332 234.109C507.437 234.38 507.479 234.364 507.584 234.635C507.688 234.906 507.49 235.091 507.754 235.209C508.009 235.323 508.034 235.109 508.29 234.999C508.546 234.889 508.536 234.865 508.792 234.756C509.049 234.646 509.04 234.626 509.296 234.517C509.552 234.407 509.546 234.394 509.803 234.284C510.06 234.174 510.09 234.244 510.347 234.134C510.604 234.023 510.6 234.012 510.857 233.901C511.116 233.79 511.116 233.789 511.374 233.678C511.632 233.567 511.633 233.569 511.891 233.459C512.148 233.349 512.145 233.341 512.402 233.23C512.66 233.119 512.663 233.126 512.921 233.016C513.18 232.905 513.171 232.884 513.43 232.773C513.688 232.663 513.699 232.689 513.958 232.578C514.217 232.467 514.216 232.466 514.475 232.355C514.734 232.245 514.717 232.204 514.976 232.092C515.236 231.981 515.247 232.007 515.505 231.896C515.764 231.785 515.759 231.773 516.017 231.662C516.276 231.552 516.268 231.534 516.527 231.423C516.786 231.311 516.803 231.35 517.063 231.239C517.323 231.127 517.293 231.057 517.553 230.946C517.814 230.834 517.823 230.857 518.084 230.745C518.345 230.634 518.375 230.697 518.592 230.514C518.805 230.336 518.604 230.336 518.543 229.989C518.515 229.834 518.441 229.659 518.391 229.451C518.35 229.285 518.368 229.087 518.31 228.893C518.259 228.725 518.17 228.557 518.104 228.372C518.043 228.203 517.932 228.048 517.857 227.869C517.788 227.702 517.719 227.531 517.636 227.357C517.558 227.194 517.507 227.011 517.415 226.843C517.328 226.683 517.232 226.522 517.132 226.359C517.037 226.204 516.953 226.035 516.845 225.878C516.74 225.727 516.641 225.567 516.524 225.416C516.412 225.271 516.239 225.171 516.115 225.027C515.995 224.888 515.882 224.741 515.751 224.604C515.624 224.471 515.515 224.317 515.376 224.187C515.243 224.061 515.119 223.917 514.974 223.795C514.833 223.676 514.664 223.588 514.512 223.472C514.366 223.361 514.209 223.259 514.052 223.151C513.901 223.046 513.767 222.909 513.605 222.808C513.449 222.712 513.29 222.61 513.124 222.517C512.963 222.427 512.769 222.394 512.599 222.309C512.434 222.227 512.276 222.126 512.102 222.049C511.934 221.974 511.762 221.902 511.585 221.832C511.414 221.764 511.235 221.711 511.056 221.648C510.882 221.587 510.706 221.525 510.526 221.469C510.351 221.414 510.173 221.356 509.99 221.305C509.812 221.257 509.626 221.235 509.441 221.191C509.262 221.149 509.085 221.093 508.899 221.055C508.719 221.018 508.535 220.994 508.348 220.962C508.166 220.93 507.988 220.865 507.8 220.838C507.618 220.812 507.432 220.78 507.244 220.758C507.06 220.737 506.874 220.715 506.683 220.698C506.5 220.681 506.309 220.721 506.119 220.708C505.936 220.696 505.752 220.672 505.564 220.664C505.38 220.656 505.194 220.65 505.004 220.646C504.819 220.642 504.632 220.67 504.442 220.67C504.256 220.67 504.068 220.622 503.877 220.626C503.693 220.629 503.505 220.617 503.316 220.624C503.129 220.631 502.944 220.697 502.753 220.707C502.564 220.717 502.354 220.693 502.163 220.707Z" fill="#2E3436"/>
<path d="M493.486 206.144H521.149" stroke="#2E3436" stroke-width="2" stroke-miterlimit="10" stroke-linecap="round" stroke-linejoin="round"/>
<path d="M493.486 196.804H521.149" stroke="#2E3436" stroke-width="2" stroke-miterlimit="10" stroke-linecap="round" stroke-linejoin="round"/>
<path d="M493.486 187.987H521.149" stroke="#2E3436" stroke-width="2" stroke-miterlimit="10" stroke-linecap="round" stroke-linejoin="round"/>
<path d="M252.38 159.626C275.276 159.626 293.838 141.065 293.838 118.169C293.838 95.2721 275.276 76.7108 252.38 76.7108C229.483 76.7108 210.922 95.2721 210.922 118.169C210.922 141.065 229.483 159.626 252.38 159.626Z" fill="#47C3F1" stroke="#2E3436" stroke-width="2" stroke-miterlimit="10" stroke-linecap="round" stroke-linejoin="round"/>
<path d="M259.518 152.122C259.665 148.429 260.27 144.755 261.314 141.21C262.082 138.603 263.4 135.758 265.996 134.949C268.848 134.062 272.21 136.02 274.817 134.561C276.926 133.38 277.406 130.465 276.809 128.122C276.508 126.936 275.996 125.798 275.858 124.583C275.72 123.367 276.057 121.986 277.085 121.324C277.95 120.768 279.192 120.778 279.798 119.947C280.365 119.167 280.035 118.03 279.412 117.293C278.789 116.557 277.927 116.063 277.248 115.378C275.202 113.317 275.192 110.074 274.548 107.242C273.65 103.291 271.233 99.7063 267.909 97.3907L265.598 96.205C265.598 96.205 240.151 121.332 239.911 121.572C239.67 121.812 237.83 135.096 237.83 135.096L236.917 138.878L259.518 152.122Z" fill="#EDE73B" stroke="#2E3436" stroke-width="2" stroke-miterlimit="10" stroke-linecap="round" stroke-linejoin="round"/>
<path d="M267.418 96.8737C268.448 95.7893 268.001 93.788 267.267 92.486C266.533 91.1839 264.905 90.4547 263.445 90.7746C262.335 91.0174 261.386 91.7843 260.265 91.9744C259.39 92.1229 258.5 91.9053 257.627 91.7426C252.361 90.7636 246.735 91.8793 242.242 94.7937C237.748 97.7082 234.434 102.389 233.18 107.596C233.056 108.11 232.939 108.655 232.583 109.046C232.257 109.405 231.78 109.579 231.334 109.768C227.818 111.259 225.116 114.656 224.704 118.452C224.292 122.249 226.324 126.261 229.744 127.962C230.606 128.391 231.566 128.698 232.232 129.392C233.135 130.332 233.283 131.738 233.755 132.952C234.683 135.347 236.157 137.091 238.722 137.22C238.722 136.154 239.179 134.584 240.214 133.908C241.25 133.231 242.567 133.228 243.781 132.986C247.167 132.311 250.141 128.979 249.456 125.595C249.168 124.174 248.31 122.93 247.934 121.529C247.558 120.129 247.893 118.313 249.244 117.786C250.838 117.164 252.372 118.712 253.974 119.314C256.463 120.25 259.334 118.705 260.784 116.476C262.234 114.247 262.603 111.507 262.935 108.869C263.221 106.601 263.508 104.332 263.794 102.064C263.94 100.909 264.095 99.7229 264.649 98.6982C265.204 97.6736 266.255 96.832 267.418 96.8737Z" fill="#475059" stroke="#475059" stroke-width="2" stroke-miterlimit="10" stroke-linecap="round" stroke-linejoin="round"/>
<path d="M270.175 113.959C270.671 113.959 271.074 113.557 271.074 113.06C271.074 112.564 270.671 112.161 270.175 112.161C269.679 112.161 269.276 112.564 269.276 113.06C269.276 113.557 269.679 113.959 270.175 113.959Z" fill="#475059" stroke="#475059" stroke-width="2" stroke-miterlimit="10" stroke-linecap="round" stroke-linejoin="round"/>
<path d="M262.767 158.314C259.448 159.171 255.967 159.626 252.38 159.626C244.039 159.626 236.274 157.161 229.772 152.922C232.641 151.191 234.827 150.269 234.827 150.269L236.917 138.88C251.358 138.879 259.342 151.16 262.767 158.314Z" fill="white" stroke="#475059" stroke-width="2" stroke-miterlimit="10" stroke-linecap="round" stroke-linejoin="round"/>
<path d="M250.022 261.191C274.221 261.191 293.838 241.574 293.838 217.375C293.838 193.176 274.221 173.559 250.022 173.559C225.823 173.559 206.206 193.176 206.206 217.375C206.206 241.574 225.823 261.191 250.022 261.191Z" fill="#FF0000" stroke="#2E3436" stroke-width="2" stroke-miterlimit="10" stroke-linecap="round" stroke-linejoin="round"/>
<path d="M274.189 202.334C274.077 204.828 273.967 207.341 274.324 209.808C274.681 212.274 275.541 214.723 277.144 216.541C278.162 217.696 279.578 218.922 279.289 220.477C278.947 222.318 276.614 222.674 275.359 223.989C274.468 224.923 274.166 226.337 274.184 227.669C274.201 229.001 274.494 230.312 274.605 231.638C274.835 234.383 274.085 237.478 271.892 238.935C270.383 239.936 268.502 239.976 266.793 240.497C264.204 241.286 261.956 243.274 260.749 245.843L236.063 229.883L238.03 222.213L249.212 203.042L266.423 194.597L274.189 202.334Z" fill="#EDE73B" stroke="#2E3436" stroke-width="2" stroke-miterlimit="10" stroke-linecap="round" stroke-linejoin="round"/>
<path d="M236.068 229.082C233.592 226.46 231.638 223.295 230.366 219.85C228.139 213.817 228.048 207.171 228.192 200.701C228.228 199.073 228.283 197.414 228.795 195.877C229.987 192.3 233.494 190.038 237.039 189.357C238.712 189.035 240.46 188.99 242.022 188.281C244.006 187.381 245.448 185.52 247.323 184.392C251.169 182.08 255.978 183.225 260.258 184.431C263.156 185.249 266.053 186.066 268.951 186.883C271.347 187.559 273.91 188.345 275.464 190.378C276.81 192.139 277.143 194.593 276.714 196.806C276.285 199.02 276.051 200.723 274.753 202.524C273.739 201.589 271.825 200.943 270.601 200.348C269.376 199.753 267.911 199.549 266.683 200.136C265.716 200.599 264.997 201.494 264.428 202.438C263.049 204.72 262.363 207.386 261.145 209.767C260.284 211.448 259.158 212.98 257.828 214.28C256.99 215.098 255.969 215.861 254.826 215.821C253.459 215.773 252.381 214.605 251.588 213.432C250.795 212.261 250.062 210.939 248.84 210.294C247.219 209.437 245.107 210.123 243.952 211.597C242.798 213.071 242.512 215.146 242.862 217.02C243.201 218.841 244.088 220.656 243.67 222.459C243.227 224.369 241.471 225.577 239.807 226.472C238.141 227.366 236.308 228.254 235.411 229.979" fill="#475059"/>
<path d="M236.068 229.082C233.592 226.46 231.638 223.295 230.366 219.85C228.139 213.817 228.048 207.171 228.192 200.701C228.228 199.073 228.283 197.414 228.795 195.877C229.987 192.3 233.494 190.038 237.039 189.357C238.712 189.035 240.46 188.99 242.022 188.281C244.006 187.381 245.448 185.52 247.323 184.392C251.169 182.08 255.978 183.225 260.258 184.431C263.156 185.249 266.053 186.066 268.951 186.883C271.347 187.559 273.91 188.345 275.464 190.378C276.81 192.139 277.143 194.593 276.714 196.806C276.285 199.02 276.051 200.723 274.753 202.524C273.739 201.589 271.825 200.943 270.601 200.348C269.376 199.753 267.911 199.549 266.683 200.136C265.716 200.599 264.997 201.494 264.428 202.438C263.049 204.72 262.363 207.386 261.145 209.767C260.284 211.448 259.158 212.98 257.828 214.28C256.99 215.098 255.969 215.861 254.826 215.821C253.459 215.773 252.381 214.605 251.588 213.432C250.795 212.261 250.062 210.939 248.84 210.294C247.219 209.437 245.107 210.123 243.952 211.597C242.798 213.071 242.512 215.146 242.862 217.02C243.201 218.841 244.088 220.656 243.67 222.459C243.227 224.369 241.471 225.577 239.807 226.472C238.141 227.366 236.308 228.254 235.411 229.979" stroke="#475059" stroke-width="2" stroke-miterlimit="10" stroke-linecap="round" stroke-linejoin="round"/>
<path d="M231.069 238.749C241.711 243.585 252.551 247.985 263.554 251.934L231.069 238.749Z" fill="#A1CFE2"/>
<path d="M231.069 238.749C241.711 243.585 252.551 247.985 263.554 251.934" stroke="#475059" stroke-width="2" stroke-miterlimit="10" stroke-linecap="round" stroke-linejoin="round"/>
<path d="M269.686 214.298C270.211 214.298 270.636 213.872 270.636 213.348C270.636 212.823 270.211 212.398 269.686 212.398C269.162 212.398 268.736 212.823 268.736 213.348C268.736 213.872 269.162 214.298 269.686 214.298Z" fill="#475059" stroke="#475059" stroke-width="2" stroke-miterlimit="10" stroke-linecap="round" stroke-linejoin="round"/>
<path d="M264.203 246.182C255.88 241.181 244.425 235.145 236.061 229.884C234.707 231.357 233.578 233.037 232.726 234.847C232.302 235.746 231.942 236.684 231.38 237.504C230.446 238.863 229.03 239.796 227.695 240.765C224.586 243.02 221.752 245.65 219.254 248.569C227.166 256.373 238.03 261.191 250.021 261.191C255.977 261.191 261.653 260.001 266.83 257.849C265.759 255.468 264.498 252.637 264.004 251.841C263.917 251.701 263.965 251.522 263.962 251.357C263.941 249.772 264.203 247.987 264.203 246.182Z" fill="#0F775E" stroke="#2E3436" stroke-width="2" stroke-miterlimit="10" stroke-linecap="round" stroke-linejoin="round"/>
<path d="M627.64 115.189C647.602 115.189 663.785 99.0062 663.785 79.0438C663.785 59.0813 647.602 42.8986 627.64 42.8986C607.677 42.8986 591.495 59.0813 591.495 79.0438C591.495 99.0062 607.677 115.189 627.64 115.189Z" fill="#FC7EE4" stroke="#2E3436" stroke-width="2" stroke-miterlimit="10" stroke-linecap="round" stroke-linejoin="round"/>
<path d="M628.325 98.6879C628.167 98.6879 628.008 98.6789 627.849 98.6613C626.537 98.5144 625.369 97.7708 624.686 96.6486L607.823 68.9214C606.609 66.925 607.254 64.3295 609.263 63.1227C611.271 61.9171 613.885 62.5568 615.099 64.5532L629.104 87.5815L666.693 48.9027C668.323 47.2255 671.014 47.1778 672.702 48.7981C674.391 50.4178 674.438 53.0913 672.807 54.7696L631.381 97.3977C630.576 98.2266 629.471 98.6879 628.325 98.6879Z" fill="#0F775E" stroke="#2E3436" stroke-width="2" stroke-miterlimit="10" stroke-linecap="round" stroke-linejoin="round"/>
<path d="M316.978 413.406C321.073 413.406 324.392 410.086 324.392 405.992C324.392 401.897 321.073 398.577 316.978 398.577C312.883 398.577 309.563 401.897 309.563 405.992C309.563 410.086 312.883 413.406 316.978 413.406Z" fill="#47C3F1" stroke="#2E3436" stroke-width="2" stroke-miterlimit="10" stroke-linecap="round" stroke-linejoin="round"/>
<path d="M606.999 147.585C611.094 147.585 614.414 144.266 614.414 140.171C614.414 136.076 611.094 132.756 606.999 132.756C602.905 132.756 599.585 136.076 599.585 140.171C599.585 144.266 602.905 147.585 606.999 147.585Z" fill="#FF0000" stroke="#2E3436" stroke-width="2" stroke-miterlimit="10" stroke-linecap="round" stroke-linejoin="round"/>
<path d="M576.409 224.789C580.504 224.789 583.823 221.47 583.823 217.375C583.823 213.28 580.504 209.96 576.409 209.96C572.314 209.96 568.994 213.28 568.994 217.375C568.994 221.47 572.314 224.789 576.409 224.789Z" fill="#FF0000" stroke="#2E3436" stroke-width="2" stroke-miterlimit="10" stroke-linecap="round" stroke-linejoin="round"/>
<path d="M382.388 268.605C386.483 268.605 389.803 265.286 389.803 261.191C389.803 257.096 386.483 253.776 382.388 253.776C378.294 253.776 374.974 257.096 374.974 261.191C374.974 265.286 378.294 268.605 382.388 268.605Z" fill="#FF0000" stroke="#2E3436" stroke-width="2" stroke-miterlimit="10" stroke-linecap="round" stroke-linejoin="round"/>
<path d="M146.439 92.8622C150.534 92.8622 153.853 89.5427 153.853 85.4478C153.853 81.3528 150.534 78.0333 146.439 78.0333C142.344 78.0333 139.024 81.3528 139.024 85.4478C139.024 89.5427 142.344 92.8622 146.439 92.8622Z" fill="#FF0000" stroke="#2E3436" stroke-width="2" stroke-miterlimit="10" stroke-linecap="round" stroke-linejoin="round"/>
<path d="M554.728 276.592C558.823 276.592 562.143 273.273 562.143 269.178C562.143 265.083 558.823 261.763 554.728 261.763C550.633 261.763 547.314 265.083 547.314 269.178C547.314 273.273 550.633 276.592 554.728 276.592Z" fill="#47C3F1" stroke="#2E3436" stroke-width="2" stroke-miterlimit="10" stroke-linecap="round" stroke-linejoin="round"/>
<path d="M451.509 95.5551C455.604 95.5551 458.923 92.2355 458.923 88.1406C458.923 84.0457 455.604 80.7261 451.509 80.7261C447.414 80.7261 444.094 84.0457 444.094 88.1406C444.094 92.2355 447.414 95.5551 451.509 95.5551Z" fill="#FF0000" stroke="#2E3436" stroke-width="2" stroke-miterlimit="10" stroke-linecap="round" stroke-linejoin="round"/>
<path d="M418.071 167.277C422.166 167.277 425.485 163.957 425.485 159.862C425.485 155.767 422.166 152.448 418.071 152.448C413.976 152.448 410.656 155.767 410.656 159.862C410.656 163.957 413.976 167.277 418.071 167.277Z" fill="#47C3F1" stroke="#2E3436" stroke-width="2" stroke-miterlimit="10" stroke-linecap="round" stroke-linejoin="round"/>
<path d="M306.455 83.8905C310.55 83.8905 313.87 80.5709 313.87 76.476C313.87 72.3811 310.55 69.0615 306.455 69.0615C302.36 69.0615 299.041 72.3811 299.041 76.476C299.041 80.5709 302.36 83.8905 306.455 83.8905Z" fill="#47C3F1" stroke="#2E3436" stroke-width="2" stroke-miterlimit="10" stroke-linecap="round" stroke-linejoin="round"/>
<path d="M316.978 274.086C321.073 274.086 324.392 270.766 324.392 266.671C324.392 262.576 321.073 259.257 316.978 259.257C312.883 259.257 309.563 262.576 309.563 266.671C309.563 270.766 312.883 274.086 316.978 274.086Z" fill="#47C3F1" stroke="#2E3436" stroke-width="2" stroke-miterlimit="10" stroke-linecap="round" stroke-linejoin="round"/>
<path d="M145.967 167.389C150.062 167.389 153.381 164.07 153.381 159.975C153.381 155.88 150.062 152.56 145.967 152.56C141.872 152.56 138.552 155.88 138.552 159.975C138.552 164.07 141.872 167.389 145.967 167.389Z" fill="#47C3F1" stroke="#2E3436" stroke-width="2" stroke-miterlimit="10" stroke-linecap="round" stroke-linejoin="round"/>
<path d="M171.052 289.437C175.147 289.437 178.466 286.117 178.466 282.022C178.466 277.927 175.147 274.608 171.052 274.608C166.957 274.608 163.637 277.927 163.637 282.022C163.637 286.117 166.957 289.437 171.052 289.437Z" fill="#FF0000" stroke="#2E3436" stroke-width="2" stroke-miterlimit="10" stroke-linecap="round" stroke-linejoin="round"/>
<path d="M189.812 363.317C193.907 363.317 197.227 359.998 197.227 355.903C197.227 351.808 193.907 348.488 189.812 348.488C185.717 348.488 182.398 351.808 182.398 355.903C182.398 359.998 185.717 363.317 189.812 363.317Z" fill="#47C3F1" stroke="#2E3436" stroke-width="2" stroke-miterlimit="10" stroke-linecap="round" stroke-linejoin="round"/>
<path d="M309.563 210.613C309.563 195.466 321.843 183.187 336.991 183.187H392.575C407.722 183.187 420.001 195.466 420.001 210.613C420.001 225.76 407.722 238.04 392.575 238.04H336.991C334.944 238.04 332.952 237.809 331.034 237.384L309.864 245.409L316.741 229.11C312.284 224.233 309.563 217.742 309.563 210.613Z" fill="white" stroke="#2E3436" stroke-width="2" stroke-miterlimit="10" stroke-linecap="round" stroke-linejoin="round"/>
<path d="M309.563 114.484C309.563 99.337 321.843 87.0579 336.991 87.0579H392.575C407.722 87.0579 420.001 99.337 420.001 114.484C420.001 129.631 407.722 141.911 392.575 141.911H336.991C334.944 141.911 332.952 141.68 331.034 141.254L309.864 149.28L316.741 132.981C312.284 128.104 309.563 121.612 309.563 114.484Z" fill="white" stroke="#2E3436" stroke-width="2" stroke-miterlimit="10" stroke-linecap="round" stroke-linejoin="round"/>
<path d="M340.797 122.777C344.892 122.777 348.212 119.458 348.212 115.363C348.212 111.268 344.892 107.948 340.797 107.948C336.702 107.948 333.383 111.268 333.383 115.363C333.383 119.458 336.702 122.777 340.797 122.777Z" fill="#475059" stroke="#475059" stroke-width="2" stroke-miterlimit="10" stroke-linecap="round" stroke-linejoin="round"/>
<path d="M365.3 122.777C369.395 122.777 372.714 119.458 372.714 115.363C372.714 111.268 369.395 107.948 365.3 107.948C361.205 107.948 357.885 111.268 357.885 115.363C357.885 119.458 361.205 122.777 365.3 122.777Z" fill="#475059" stroke="#475059" stroke-width="2" stroke-miterlimit="10" stroke-linecap="round" stroke-linejoin="round"/>
<path d="M389.803 122.777C393.898 122.777 397.217 119.458 397.217 115.363C397.217 111.268 393.898 107.948 389.803 107.948C385.708 107.948 382.388 111.268 382.388 115.363C382.388 119.458 385.708 122.777 389.803 122.777Z" fill="#475059" stroke="#475059" stroke-width="2" stroke-miterlimit="10" stroke-linecap="round" stroke-linejoin="round"/>
<path d="M340.797 218.606C344.892 218.606 348.212 215.286 348.212 211.192C348.212 207.097 344.892 203.777 340.797 203.777C336.702 203.777 333.383 207.097 333.383 211.192C333.383 215.286 336.702 218.606 340.797 218.606Z" fill="#475059" stroke="#475059" stroke-width="2" stroke-miterlimit="10" stroke-linecap="round" stroke-linejoin="round"/>
<path d="M365.3 218.606C369.395 218.606 372.714 215.286 372.714 211.192C372.714 207.097 369.395 203.777 365.3 203.777C361.205 203.777 357.885 207.097 357.885 211.192C357.885 215.286 361.205 218.606 365.3 218.606Z" fill="#475059" stroke="#475059" stroke-width="2" stroke-miterlimit="10" stroke-linecap="round" stroke-linejoin="round"/>
<path d="M389.803 218.606C393.898 218.606 397.217 215.286 397.217 211.192C397.217 207.097 393.898 203.777 389.803 203.777C385.708 203.777 382.388 207.097 382.388 211.192C382.388 215.286 385.708 218.606 389.803 218.606Z" fill="#475059" stroke="#475059" stroke-width="2" stroke-miterlimit="10" stroke-linecap="round" stroke-linejoin="round"/>
<path d="M138.233 610.471V657.126H242.027C242.027 657.126 242.027 610.471 190.13 610.471H138.233Z" fill="#2E3436" stroke="#2E3436" stroke-width="2" stroke-miterlimit="10" stroke-linecap="round" stroke-linejoin="round"/>
<path d="M15.3088 610.471V657.126H97.8413C97.8413 657.126 97.8413 610.471 56.5751 610.471H15.3088Z" fill="#2E3436" stroke="#2E3436" stroke-width="2" stroke-miterlimit="10" stroke-linecap="round" stroke-linejoin="round"/>
<path d="M202.912 618.591C204.163 618.591 205.4 617.908 206.223 616.603L214.166 604C211.67 602.552 208.932 601.321 205.93 600.359L199.608 610.39C198.203 612.62 198.545 615.819 200.371 617.535C201.128 618.247 202.023 618.591 202.912 618.591Z" fill="#2E3436" stroke="#2E3436" stroke-width="2" stroke-miterlimit="10" stroke-linecap="round" stroke-linejoin="round"/>
<path d="M191.094 318.137L227.404 250.4L164.312 232.183L152.854 256.519" fill="white"/>
<path d="M191.094 318.137L227.404 250.4L164.312 232.183L152.854 256.519" stroke="#2E3436" stroke-width="2" stroke-miterlimit="10" stroke-linecap="round" stroke-linejoin="round"/>
<path d="M116.205 256.725H107.8C102.486 256.725 98.1775 252.418 98.1775 247.102V227.999C98.1775 222.685 102.485 218.376 107.8 218.376H116.205C121.52 218.376 125.828 222.685 125.828 227.999V247.102C125.828 252.418 121.52 256.725 116.205 256.725Z" fill="#FC7EE4" stroke="#2E3436" stroke-width="2" stroke-miterlimit="10" stroke-linecap="round" stroke-linejoin="round"/>
<path d="M102.588 211.986C101.704 211.986 100.817 212.048 99.9308 212.159C98.5347 207.125 93.2028 204.143 87.069 204.143C79.8619 204.143 74.0203 209.298 74.0203 215.658C74.0203 219.77 76.4703 223.369 80.1454 225.407C76.9099 230.506 76.3475 235.687 78.0077 241.392C82.6673 257.41 102.388 255.772 102.388 255.772C109.928 255.772 115.36 247.706 115.36 238.324C115.36 228.941 123.544 222.14 123.544 222.14C123.544 222.14 117.586 211.986 102.588 211.986Z" fill="#2E3436" stroke="#2E3436" stroke-width="2" stroke-miterlimit="10" stroke-linecap="round" stroke-linejoin="round"/>
<path d="M197.656 346.654C211.534 346.654 222.785 335.628 222.785 322.026C222.785 308.424 211.534 297.397 197.656 297.397C183.777 297.397 172.526 308.424 172.526 322.026C172.526 335.628 183.777 346.654 197.656 346.654Z" fill="#FC7EE4" stroke="#2E3436" stroke-width="2" stroke-miterlimit="10" stroke-linecap="round" stroke-linejoin="round"/>
<path d="M210.684 259.825L166.18 246.974" stroke="#2E3436" stroke-width="2" stroke-miterlimit="10" stroke-linecap="round" stroke-linejoin="round"/>
<path d="M206.693 268.966L162.19 256.115" stroke="#2E3436" stroke-width="2" stroke-miterlimit="10" stroke-linecap="round" stroke-linejoin="round"/>
<path d="M202.702 278.106L158.199 265.257" stroke="#2E3436" stroke-width="2" stroke-miterlimit="10" stroke-linecap="round" stroke-linejoin="round"/>
<path d="M198.71 287.247L154.207 274.397" stroke="#2E3436" stroke-width="2" stroke-miterlimit="10" stroke-linecap="round" stroke-linejoin="round"/>
<path d="M155.671 356.619C158.409 365.269 164.443 372.597 172.611 376.55C176.488 378.427 180.619 379.455 184.209 378.233C194.648 374.676 200.171 363.499 196.542 353.267L196.823 354.149L174.966 271.052C172.693 262.482 163.258 256.248 152.855 256.519C127.997 257.167 83.4745 256.227 56.8032 256.152C37.5592 256.098 30.7611 261.79 29.4325 268.52L10.4667 352.485C9.50316 356.75 9.31976 361.163 10.1244 365.46C11.6698 373.706 20.0992 385.681 34.7494 380.964C35.5786 380.697 36.3921 380.386 37.1871 380.04C40.6305 378.537 43.6887 376.272 46.3186 373.589L62.0192 357.567L63.3627 370.275L152.856 370.224V347.723L155.671 356.619Z" fill="#0F775E" stroke="#2E3436" stroke-width="2" stroke-miterlimit="10" stroke-linecap="round" stroke-linejoin="round"/>
<path d="M211.059 577.441L152.854 370.275H122.614H95.0824H63.3609L1 598.031H80.2031L108.848 444.2L137.493 598.031L211.059 577.441Z" fill="#47C3F1" stroke="#2E3436" stroke-width="2" stroke-miterlimit="10" stroke-linecap="round" stroke-linejoin="round"/>
<path d="M89.4285 568.591H1V610.471H89.4285V568.591Z" fill="#47C3F1" stroke="#2E3436" stroke-width="2" stroke-miterlimit="10" stroke-linecap="round" stroke-linejoin="round"/>
<path d="M214.595 568.591H126.167V610.471H214.595V568.591Z" fill="#47C3F1" stroke="#2E3436" stroke-width="2" stroke-miterlimit="10" stroke-linecap="round" stroke-linejoin="round"/>
<path d="M62.2692 359.02L55.8896 309.866" stroke="#2E3436" stroke-width="2" stroke-miterlimit="10" stroke-linecap="round" stroke-linejoin="round"/>
<path d="M152.854 369.348V306.082" stroke="#2E3436" stroke-width="2" stroke-miterlimit="10" stroke-linecap="round" stroke-linejoin="round"/>
<path d="M70.6439 394.434H100.737V416.743C100.737 424.073 93.778 430.017 85.1932 430.017C76.375 430.017 69.3224 423.758 69.6611 416.233L70.6439 394.434Z" stroke="#2E3436" stroke-width="2" stroke-miterlimit="10" stroke-linecap="round" stroke-linejoin="round"/>
<path d="M117.794 394.434H147.887V416.743C147.887 424.073 140.928 430.017 132.343 430.017C123.525 430.017 116.472 423.758 116.811 416.233L117.794 394.434Z" stroke="#2E3436" stroke-width="2" stroke-miterlimit="10" stroke-linecap="round" stroke-linejoin="round"/>
<path d="M92.1104 456.73L71.4229 555.629" stroke="#2E3436" stroke-width="2" stroke-miterlimit="10" stroke-linecap="round" stroke-linejoin="round" stroke-dasharray="12 12"/>
<path d="M497.166 268.203L497.133 268.259L497.132 268.26C496.315 269.701 495.648 271.894 495.136 274.714C494.621 277.55 494.275 280.94 494.065 284.681C493.644 292.161 493.768 300.967 494.121 309.399C494.475 317.827 495.058 325.861 495.552 331.789C495.799 334.753 496.024 337.189 496.188 338.884C496.269 339.731 496.336 340.393 496.381 340.843C496.404 341.068 496.422 341.24 496.434 341.355L496.447 341.486L496.451 341.518L496.452 341.527L496.452 341.528C496.452 341.529 496.452 341.529 495.458 341.635L496.452 341.529L496.521 342.176L495.958 342.501C494.277 343.472 491.193 344.262 487.256 344.921C483.269 345.588 478.256 346.143 472.602 346.576C461.292 347.443 447.356 347.83 433.802 347.658C420.254 347.485 407.053 346.754 397.223 345.375C392.317 344.687 388.196 343.831 385.279 342.78C383.826 342.257 382.607 341.663 381.734 340.973C380.94 340.346 380.322 339.547 380.218 338.566C377.958 334.565 375.657 328.006 373.731 320.498C371.766 312.837 370.17 304.104 369.409 295.927C368.65 287.774 368.711 280.079 370.12 274.54C370.823 271.774 371.889 269.437 373.456 267.868C375.044 266.277 377.089 265.536 379.55 265.857L379.795 265.837C380.028 265.818 380.374 265.791 380.824 265.755C381.725 265.684 383.045 265.581 384.723 265.454C388.078 265.2 392.864 264.849 398.587 264.461C410.033 263.687 425.231 262.768 440.235 262.191C455.231 261.614 470.065 261.376 480.767 261.969C486.102 262.264 490.485 262.77 493.359 263.57C494.769 263.962 495.972 264.466 496.714 265.169C497.104 265.538 497.415 266.007 497.507 266.582C497.599 267.162 497.448 267.714 497.166 268.203Z" fill="#7BD527" stroke="#2E3436" stroke-width="2" stroke-linecap="round"/>
<path d="M505.953 345.302L506.308 345.146L506.675 345.269L506.676 345.27L507.302 345.481L507.354 346.139L506.357 346.218C507.354 346.139 507.354 346.139 507.354 346.14L507.355 346.144L507.356 346.16L507.361 346.224L507.381 346.475L507.458 347.457C507.526 348.318 507.626 349.583 507.753 351.197C508.006 354.426 508.369 359.053 508.807 364.649C509.681 375.84 510.852 390.905 512.038 406.396C514.409 437.361 516.844 470.082 517.089 476.942L517.13 478.102L515.976 477.971C477.27 473.57 441.407 471.991 413.976 472.664C400.258 473.001 388.67 473.901 379.899 475.286C375.513 475.979 371.853 476.79 368.994 477.704C366.109 478.626 364.141 479.622 363.044 480.628L361.24 482.282L361.369 479.838L362.368 479.891C361.369 479.838 361.369 479.838 361.369 479.837L361.37 479.833L361.37 479.819L361.374 479.759L361.386 479.522C361.396 479.312 361.412 479.001 361.432 478.594C361.471 477.779 361.528 476.581 361.594 475.049C361.728 471.986 361.904 467.587 362.072 462.248C362.409 451.569 362.715 437.134 362.597 422.102C362.478 407.065 361.933 391.452 360.571 378.411C359.889 371.89 359.006 366.032 357.874 361.222C356.791 356.614 355.501 353.061 354.009 350.8C353.602 350.721 353.27 350.646 353.02 350.574C352.865 350.529 352.682 350.47 352.523 350.385C352.452 350.347 352.305 350.264 352.174 350.115C352.031 349.953 351.808 349.585 351.953 349.114C352.071 348.731 352.361 348.553 352.452 348.5C352.575 348.43 352.693 348.392 352.768 348.37C352.925 348.326 353.103 348.299 353.268 348.279C353.61 348.239 354.077 348.214 354.642 348.199C356.906 348.139 361.187 348.23 366.889 348.4C370.48 348.507 374.643 348.645 379.242 348.798C389.289 349.132 401.415 349.535 414.187 349.83C432.803 350.259 452.76 350.457 469.59 349.873C478.006 349.581 485.624 349.094 491.894 348.346C498.193 347.594 503.032 346.589 505.953 345.302Z" fill="#7BD527" stroke="#2E3436" stroke-width="2" stroke-linecap="round"/>
<path d="M549.282 362.531V363.884L549.138 363.84C548.744 368.288 549.209 375.598 550.185 384.288C551.249 393.746 552.903 404.716 554.638 415.147C556.373 425.575 558.186 435.455 559.566 442.728C560.257 446.364 560.838 449.348 561.247 451.422C561.451 452.46 561.613 453.27 561.723 453.82C561.778 454.095 561.82 454.306 561.849 454.447L561.881 454.607L561.889 454.647L561.891 454.657L561.892 454.66C561.892 454.66 561.892 454.661 560.912 454.859L561.892 454.661L562.108 455.727L561.028 455.853L522.561 460.346L521.501 460.469L521.447 459.403L516.336 359.558L516.289 358.658L517.18 358.519L517.334 359.507C517.18 358.519 517.181 358.519 517.181 358.519L517.182 358.519L517.185 358.518L517.195 358.517L517.229 358.511C517.259 358.507 517.303 358.501 517.359 358.493C517.471 358.478 517.636 358.456 517.85 358.43C518.278 358.379 518.904 358.313 519.706 358.251C521.31 358.125 523.621 358.014 526.465 358.068C532.15 358.175 539.983 358.94 548.575 361.575L548.303 362.461L549.282 362.53V362.531Z" fill="#7BD527" stroke="#2E3436" stroke-width="2" stroke-linecap="round"/>
<path d="M340.836 391.985C341.156 392.932 341.157 392.932 341.159 392.931L341.161 392.93L341.167 392.928L341.181 392.923C341.191 392.919 341.203 392.915 341.217 392.91C341.245 392.899 341.28 392.885 341.321 392.867C341.405 392.831 341.515 392.779 341.651 392.706C341.923 392.56 342.294 392.332 342.747 391.984C343.654 391.288 344.885 390.116 346.308 388.171C349.151 384.285 352.771 377.296 356.109 364.788L356.306 364.052L355.735 363.718C346.666 355.521 334.926 350.572 320.596 344.532C320.15 344.345 319.703 344.156 319.252 343.966C304.23 337.63 286.267 329.921 265.145 316.034L264.158 315.385L263.681 316.465L248.505 350.842L248.024 351.931L249.18 352.216C269.97 357.35 292.744 367.495 310.352 376.378C319.149 380.817 326.642 384.933 331.936 387.94C334.583 389.443 336.679 390.669 338.113 391.518C338.829 391.942 339.381 392.273 339.752 392.497C339.938 392.609 340.079 392.694 340.173 392.751L340.279 392.816L340.305 392.832L340.311 392.836L340.313 392.837C340.313 392.837 340.313 392.837 340.836 391.985ZM340.836 391.985L341.156 392.932L340.712 393.082L340.313 392.837L340.836 391.985Z" fill="#7BD527" stroke="#2E3436" stroke-width="2" stroke-linecap="round"/>
<path d="M490.077 484.43L490.157 484.476L490.226 484.536L490.229 484.538L490.564 484.824L490.579 485.265L489.58 485.298C490.579 485.265 490.579 485.266 490.579 485.267L490.579 485.271L490.58 485.289L490.582 485.358L490.591 485.632L490.627 486.702C490.658 487.641 490.704 489.018 490.763 490.776C490.881 494.293 491.052 499.33 491.262 505.414C491.682 517.582 492.259 533.937 492.889 550.686C494.151 584.228 495.62 619.228 496.452 625.467L496.621 626.736L495.348 626.593C477.849 624.621 465.515 624.624 457.574 625.114C453.603 625.359 450.731 625.727 448.86 626.03C447.924 626.182 447.239 626.318 446.792 626.414C446.569 626.463 446.405 626.501 446.299 626.527C446.246 626.54 446.208 626.55 446.184 626.556L446.159 626.563L446.155 626.564L446.154 626.564L446.154 626.564L444.891 626.909V625.599V482.776V482.05L445.581 481.825L445.891 482.776C445.581 481.825 445.581 481.825 445.582 481.825L445.583 481.824L445.588 481.823L445.604 481.818L445.663 481.799C445.714 481.783 445.789 481.76 445.887 481.73C446.082 481.67 446.368 481.586 446.737 481.482C447.475 481.275 448.546 480.993 449.887 480.688C452.568 480.08 456.337 479.382 460.696 479.023C469.388 478.307 480.548 478.929 490.077 484.43Z" fill="#7BD527" stroke="#2E3436" stroke-width="2" stroke-linecap="round"/>
<path d="M382.572 482.927V482.337L383.089 482.052C386.743 480.036 391.52 478.876 396.557 478.243C401.61 477.609 407.001 477.496 411.931 477.625C416.864 477.754 421.355 478.125 424.612 478.464C426.241 478.634 427.563 478.795 428.479 478.914C428.937 478.974 429.294 479.023 429.536 479.058C429.658 479.075 429.751 479.088 429.814 479.097L429.886 479.108L429.904 479.111L429.909 479.112L429.911 479.112C429.911 479.112 429.911 479.112 429.762 480.101L429.911 479.112L430.963 479.271L430.739 480.311C429.501 486.055 428.926 497.805 428.778 512.316C428.63 526.787 428.906 543.892 429.34 560.274C429.774 576.655 430.366 592.304 430.849 603.859C431.091 609.636 431.305 614.389 431.459 617.698C431.537 619.352 431.598 620.645 431.641 621.524C431.663 621.964 431.679 622.3 431.69 622.527L431.703 622.783L431.706 622.848L431.707 622.864L431.707 622.868C431.707 622.869 431.707 622.869 430.708 622.919L431.707 622.869L431.758 623.88L430.747 623.919C419.791 624.34 415.802 624.065 410.702 623.214C409.581 623.027 408.409 622.813 407.097 622.573C402.514 621.736 396.216 620.585 384.351 619.178L383.422 619.068L383.47 618.133C383.842 611.016 384.477 580.158 384.59 549.597C384.646 534.321 384.571 519.131 384.268 507.03C384.117 500.979 383.908 495.71 383.631 491.592C383.351 487.433 383.006 484.554 382.613 483.21L382.572 483.072V482.929V482.927Z" fill="#7BD527" stroke="#2E3436" stroke-width="2" stroke-linecap="round"/>
<path d="M443.038 295.588H443.013V294.588C443.013 289.77 444.048 284.749 446.222 280.896C448.407 277.023 451.817 274.23 456.513 274.23C461.108 274.23 465.886 276.914 469.475 280.699C473.072 284.492 475.644 289.566 475.644 294.588C475.644 304.429 468.432 312.599 459.329 312.599C450.536 312.599 443.507 304.976 443.038 295.588Z" fill="white" fill-opacity="0.94118" stroke="#2E3436" stroke-width="2" stroke-linecap="round"/>
<path d="M456.717 337.67L465.979 338.11L467.055 337.895V339.114V357.597V358.597H466.055H454.293H453.16L453.301 357.472L455.677 338.544L455.792 337.626L456.717 337.67Z" fill="#0F775E" stroke="#2E3436" stroke-width="2" stroke-linecap="round"/>
<path d="M404.942 338.725L404.778 339.696L405.715 339.63L407.051 358.707L407.117 359.65L406.179 359.769L395.606 361.105L394.48 361.247V360.113V338.69V337.575L395.589 337.696L403.636 338.576L403.625 338.421L404.942 338.725L404.942 338.725Z" fill="#0F775E" stroke="#2E3436" stroke-width="2" stroke-linecap="round"/>
<path d="M412.671 463.186L415.482 462.599L413.897 464.501L415.21 486.543L415.31 488.214L413.791 487.51L404.898 483.385L404.382 483.146L404.324 482.58L402.643 466.198L402.551 465.301L403.434 465.117L412.671 463.186Z" fill="#0F775E" stroke="#2E3436" stroke-width="2" stroke-linecap="round"/>
<path d="M472.86 464.904L476.214 466.097L473.583 466.647L474.859 484.853L474.916 485.671L474.126 485.888L463.132 488.905L461.84 489.259L461.868 487.919L462.288 467.757L462.305 466.961L463.083 466.799L471.466 465.046L471.42 464.392L472.86 464.904L472.86 464.904Z" fill="#0F775E" stroke="#2E3436" stroke-width="2" stroke-linecap="round"/>
<path d="M348.389 367.674L350.354 367.072L350.169 367.552L369.631 366.549L370.843 366.486L370.672 367.688L369.048 379.119L368.924 379.987L368.047 379.978L344.779 379.732L343.338 379.717L343.856 378.373L347.749 368.271L348.548 368.579L348.388 367.674L348.389 367.674Z" fill="#0F775E" stroke="#2E3436" stroke-width="2" stroke-linecap="round"/>
<path d="M504.861 365.605H505.878L505.875 365.75L523.913 368.535L524.847 368.679L524.756 369.621L523.719 380.228L523.609 381.357L522.503 381.106L504.478 377.016L503.685 376.836L503.699 376.023L503.861 366.588L504.784 366.604L504.861 365.605H504.861Z" fill="#0F775E" stroke="#2E3436" stroke-width="2" stroke-linecap="round"/>
<path d="M404.532 275.298C413.572 274.232 421.692 281.503 422.843 291.277C423.407 296.061 422.967 301.168 421.258 305.249C419.541 309.351 416.481 312.524 411.817 313.074C407.254 313.612 402.195 311.504 398.188 308.166C394.172 304.819 391.023 300.081 390.436 295.094C389.285 285.321 395.493 276.363 404.532 275.298Z" fill="white" fill-opacity="0.94118" stroke="#2E3436" stroke-width="2" stroke-linecap="round"/>
<path d="M413.073 382.227L413.08 382.285V382.286C413.424 385.299 413.148 388.527 412.067 391.13C410.971 393.769 408.985 395.878 405.917 396.242C402.951 396.594 399.718 395.216 397.19 393.093C394.653 390.962 392.639 387.926 392.262 384.695C391.531 378.437 395.472 372.622 401.318 371.928C407.166 371.234 412.342 375.969 413.073 382.227Z" fill="#4E9A06" fill-opacity="0.94118" stroke="#2E3436" stroke-width="2" stroke-linecap="round"/>
<path fill-rule="evenodd" clip-rule="evenodd" d="M403.719 379.133C403.441 376.683 401.492 374.905 399.369 375.165C397.245 375.425 395.747 377.625 396.025 380.075C396.303 382.526 399.028 384.829 401.152 384.569C403.275 384.309 403.997 381.584 403.719 379.134L403.719 379.133Z" fill="white" fill-opacity="0.94118"/>
<path d="M420.732 334.726L421.315 322.152L421.175 321.108H422.318H446.698H447.698V322.108V337.978V339.115L446.57 338.97L421.603 335.764L420.689 335.647L420.732 334.726Z" fill="white" fill-opacity="0.78431" stroke="#2E3436" stroke-width="2" stroke-linecap="round"/>
<path d="M446.178 325.401C437.164 328.179 432.149 328.685 423.344 327.491C423.3 327.491 423.264 327.527 423.264 327.572V331.36C423.264 331.404 423.3 331.44 423.344 331.44C432.2 334.491 437.028 334.569 445.481 331.44C445.526 331.44 445.329 332.565 445.329 332.521L445.562 327.572C445.562 327.527 446.222 325.401 446.178 325.401Z" fill="#475059"/>
<path d="M451.172 289.168C451.172 294.042 454.188 297.994 457.908 297.994C461.628 297.994 464.644 294.042 464.644 289.168C464.644 284.294 461.628 280.342 457.908 280.342C454.188 280.342 451.172 284.294 451.172 289.168Z" fill="#475059"/>
<path d="M400.072 289.168C400.072 294.042 403.088 297.994 406.808 297.994C410.528 297.994 413.544 294.042 413.544 289.168C413.544 284.294 410.528 280.342 406.808 280.342C403.088 280.342 400.072 284.294 400.072 289.168Z" fill="#475059"/>
<path d="M477.6 233.836V234.656L477.11 234.754L448.425 265.396L448.151 265.689L447.75 265.711L435.925 266.368L433.76 266.488L435.074 264.763L435.87 265.369C435.074 264.763 435.074 264.763 435.075 264.763L435.076 264.761L435.079 264.757L435.091 264.741L435.139 264.679C435.181 264.625 435.242 264.546 435.323 264.443C435.484 264.236 435.723 263.934 436.032 263.549C436.652 262.779 437.557 261.678 438.704 260.344C440.998 257.679 444.264 254.082 448.153 250.359C455.805 243.032 466.032 235.055 476.087 232.921L477.6 231.305V233.836V233.836Z" fill="#475059" stroke="#2E3436" stroke-width="2"/>
<path d="M478.146 240.534C473.784 240.534 470.248 236.998 470.248 232.636C470.248 228.274 473.784 224.738 478.146 224.738C482.508 224.738 486.044 228.274 486.044 232.636C486.044 236.998 482.508 240.534 478.146 240.534Z" fill="#475059" stroke="#2E3436" stroke-width="2"/>
<path d="M374.107 230.685L374.558 230.103L374.614 228.9L374.615 228.9L375.015 228.858L375.15 228.962C380.184 230.015 386.157 232.715 392.247 236.126C398.45 239.599 404.846 243.85 410.611 247.968C416.378 252.087 421.526 256.082 425.231 259.046C427.084 260.528 428.577 261.753 429.608 262.609C430.123 263.036 430.523 263.372 430.794 263.6C430.929 263.715 431.033 263.802 431.103 263.861L431.182 263.929L431.202 263.946L431.208 263.951L431.209 263.952C431.209 263.952 431.21 263.952 430.56 264.713L431.21 263.952L433.46 265.875L430.504 265.711L418.679 265.054L418.368 265.037L418.122 264.846L374.107 230.685Z" fill="#475059" stroke="#2E3436" stroke-width="2"/>
<path d="M372.49 234.299C376.851 234.299 380.387 230.764 380.387 226.402C380.387 222.04 376.851 218.504 372.49 218.504C368.128 218.504 364.592 222.04 364.592 226.402C364.592 230.763 368.128 234.299 372.49 234.299Z" fill="#475059" stroke="#2E3436" stroke-width="2"/>
<path d="M556.332 474.158L543.111 466.603L542.105 466.028L542.821 465.117L550.047 455.92L550.904 454.828L551.581 455.855L567.882 468.895L568.355 469.274L568.238 469.868L562.326 500.088L562.052 501.486L560.83 500.753L554.261 496.811L553.706 496.479L553.782 495.837L556.332 474.158Z" fill="#2E3436" stroke="#2E3436" stroke-width="2"/>
<path d="M544.171 456.4L544.845 455.366L545.707 456.463L552.933 465.66L553.649 466.571L552.643 467.146L539.422 474.702L541.972 496.381L542.048 497.022L541.493 497.355L534.924 501.296L533.702 502.03L533.428 500.631L527.516 470.412L527.399 469.817L527.872 469.439L544.171 456.4Z" fill="#2E3436" stroke="#2E3436" stroke-width="2"/>
<path d="M247.058 320.597L247.875 335.803L247.937 336.96L249.073 336.729L260.535 334.4L262.227 334.056L261.259 332.956L256.945 312.639L256.819 312.046L256.235 311.883L226.577 303.603L225.204 303.22L225.311 304.641L225.885 312.281L225.933 312.925L226.541 313.146L247.058 320.597Z" fill="#2E3436" stroke="#2E3436" stroke-width="2"/>
<path d="M258.03 336.8V336.8ZM258.03 336.8L258.03 336.8L258.03 336.8ZM258.208 337.818L259.673 337.943L258.935 336.374L253.96 325.789L253.467 324.74L252.502 325.381L239.816 333.804L221.588 321.795L221.049 321.439L220.503 321.785L214.032 325.886L212.828 326.649L213.955 327.522L238.306 346.369L238.785 346.74L239.335 346.487L258.208 337.818Z" fill="#2E3436" stroke="#2E3436" stroke-width="2"/>
<path d="M485.995 627.756C486.282 627.752 486.558 627.872 486.751 628.085L509.049 652.705C509.311 652.994 509.38 653.41 509.227 653.769C509.074 654.128 508.726 654.365 508.335 654.376L441.443 656.234C441.082 656.244 440.744 656.058 440.558 655.748C440.372 655.438 440.368 655.052 440.547 654.738L455.412 628.725C455.588 628.418 455.912 628.226 456.265 628.221L485.995 627.756Z" fill="#2E3436" stroke="#2E3436" stroke-width="2" stroke-linecap="round" stroke-linejoin="round"/>
<path d="M420.957 624.505C421.226 624.499 421.485 624.603 421.677 624.791C421.772 624.884 421.847 624.995 421.898 625.116L434.899 654.908C435.032 655.211 435.006 655.559 434.83 655.839C434.655 656.119 434.352 656.294 434.022 656.307L376.421 658.556C376.071 658.57 375.74 658.4 375.548 658.109C375.355 657.817 375.328 657.446 375.477 657.13L390.342 625.64C390.504 625.296 390.848 625.074 391.228 625.067L420.957 624.505Z" fill="#2E3436" stroke="#2E3436" stroke-width="2" stroke-linecap="round" stroke-linejoin="round"/>
<path d="M485.593 513.979L473.515 508.404L473.934 507.496L474.353 506.588L486.431 512.163L486.012 513.071L485.593 513.979Z" stroke="#2E3436" stroke-width="2"/>
<path d="M483.251 502.674L478.141 519.397L477.185 519.105L476.228 518.812L481.338 502.089L482.294 502.382L483.251 502.674Z" stroke="#2E3436" stroke-width="2"/>
<path d="M612 593.434C623.292 593.434 632.442 602.505 632.442 613.698C632.442 602.505 641.593 593.434 652.899 593.434C641.593 593.434 632.442 584.363 632.442 573.17C632.442 584.363 623.291 593.434 612 593.434Z" fill="#EDE73B" stroke="#2E3436" stroke-width="2" stroke-miterlimit="10" stroke-linecap="round" stroke-linejoin="round"/>
<path d="M670.335 575.899C677.678 575.899 683.629 581.798 683.629 589.077C683.629 581.798 689.58 575.899 696.932 575.899C689.579 575.899 683.629 570 683.629 562.721C683.629 570 677.678 575.899 670.335 575.899Z" fill="#EDE73B" stroke="#2E3436" stroke-width="2" stroke-miterlimit="10" stroke-linecap="round" stroke-linejoin="round"/>
</svg>
