<svg width="1322" height="810" viewBox="0 0 1322 810" fill="none" xmlns="http://www.w3.org/2000/svg">
<path d="M785.792 612.4C785.792 604.208 778.302 596.132 766.013 590.983C758.055 587.589 748.341 585.482 739.446 582.907C730.552 580.332 721.774 576.821 717.912 571.906H650.149C646.287 576.821 637.509 580.332 628.615 582.907C619.72 585.482 610.006 587.706 602.048 590.983C589.759 596.132 582.386 604.208 582.269 612.4H785.792Z" fill="#E0E0E0" stroke="#2E3436" stroke-width="2" stroke-miterlimit="10" stroke-linecap="round" stroke-linejoin="round"/>
<path d="M1045.73 93H258.434V535.391H1045.73V93Z" fill="#2E3436" stroke="#2E3436" stroke-width="2" stroke-miterlimit="10" stroke-linecap="round" stroke-linejoin="round"/>
<path d="M1077.79 124.014H290.384V571.789H1077.79V124.014Z" fill="#F4FFE9" stroke="#2E3436" stroke-width="2" stroke-miterlimit="10" stroke-linecap="round" stroke-linejoin="round"/>
<path d="M1077.79 527.199H290.384V571.789H1077.79V527.199Z" fill="#E0E0E0" stroke="#2E3436" stroke-width="2" stroke-miterlimit="10" stroke-linecap="round" stroke-linejoin="round"/>
<path d="M683.972 557.862C688.626 557.862 692.399 554.089 692.399 549.435C692.399 544.781 688.626 541.009 683.972 541.009C679.318 541.009 675.546 544.781 675.546 549.435C675.546 554.089 679.318 557.862 683.972 557.862Z" fill="#2E3436" stroke="#2E3436" stroke-width="2" stroke-miterlimit="10" stroke-linecap="round" stroke-linejoin="round"/>
<path d="M1117.7 520.294L1187.81 549.435" stroke="#2E3436" stroke-width="2" stroke-miterlimit="10" stroke-linecap="round" stroke-linejoin="round"/>
<path d="M1117.7 459.202L1180.78 467.277" stroke="#2E3436" stroke-width="2" stroke-miterlimit="10" stroke-linecap="round" stroke-linejoin="round"/>
<path d="M1113.84 392.96L1191.55 363.818" stroke="#2E3436" stroke-width="2" stroke-miterlimit="10" stroke-linecap="round" stroke-linejoin="round"/>
<path d="M194.884 337.368L109.214 363.818" stroke="#2E3436" stroke-width="2" stroke-miterlimit="10" stroke-linecap="round" stroke-linejoin="round"/>
<path d="M194.884 278.383L94 265.509" stroke="#2E3436" stroke-width="2" stroke-miterlimit="10" stroke-linecap="round" stroke-linejoin="round"/>
<path d="M665.6 716.3C637.1 636 560.5 578.5 470.4 578.5C380.3 578.5 303.6 636 275.1 716.3H665.6Z" fill="white" stroke="#2E3436" stroke-width="2" stroke-miterlimit="10" stroke-linecap="round" stroke-linejoin="round"/>
<path d="M665.6 716.3C637.1 636 560.5 578.5 470.4 578.5C380.3 578.5 303.6 636 275.1 716.3H665.6Z" stroke="#2E3436" stroke-width="2" stroke-miterlimit="10" stroke-linecap="round" stroke-linejoin="round"/>
<path d="M1056.2 716.3C1027.7 636 951 578.5 860.9 578.5C770.8 578.5 694.2 636 665.6 716.3H1056.2Z" fill="#0F775E" stroke="#2E3436" stroke-width="2" stroke-miterlimit="10" stroke-linecap="round" stroke-linejoin="round"/>
<path d="M497 557.7H491.3C489.1 557.7 487.3 555.9 487.3 553.7V552.8C487.3 550.6 489.1 548.8 491.3 548.8H497C499.2 548.8 501 550.6 501 552.8V553.7C501 555.9 499.2 557.7 497 557.7Z" fill="#FC7EE4" stroke="#2E3436" stroke-width="2" stroke-miterlimit="10" stroke-linecap="round" stroke-linejoin="round"/>
<path d="M481.6 578.5H459.2C453.9 578.5 449.7 574.2 449.7 569V538.2C449.7 532.9 454 528.7 459.2 528.7H481.6C486.9 528.7 491.1 533 491.1 538.2V569C491.1 574.2 486.8 578.5 481.6 578.5Z" fill="#FC7EE4" stroke="#2E3436" stroke-width="2" stroke-miterlimit="10" stroke-linecap="round" stroke-linejoin="round"/>
<path d="M490.7 507.2H471.2C470.7 507.2 463 507.2 463 507.2C455.5 507.3 448.4 513.2 446.3 520.9C445.4 524.5 445.3 528.6 442.7 531.2C442.1 531.8 441.4 532.2 440.7 532.6C439.8 532.5 438.9 532.5 438 532.5C420.4 532.5 406.3 547.3 407.4 565.1C408.3 580.4 420.8 592.8 436.1 593.8C453.9 594.9 468.7 580.8 468.7 563.2C468.7 557.9 467.3 552.9 465 548.5C464.4 547.4 464.5 546.2 465.2 545.2C466.7 543.3 469.5 540.4 474 539C479.6 537.3 485.8 536.7 491.4 536.7C499.6 536.5 506.2 529.5 505.7 521.1C505.4 513.3 498.6 507.2 490.7 507.2Z" fill="#2E3436" stroke="#2E3436" stroke-width="2" stroke-miterlimit="10" stroke-linecap="round" stroke-linejoin="round"/>
<path d="M485.1 549.3C485.873 549.3 486.5 547.912 486.5 546.2C486.5 544.488 485.873 543.1 485.1 543.1C484.327 543.1 483.7 544.488 483.7 546.2C483.7 547.912 484.327 549.3 485.1 549.3Z" fill="#2E3436" stroke="#2E3436" stroke-width="2" stroke-miterlimit="10" stroke-linecap="round" stroke-linejoin="round"/>
<path d="M491.1 563.1L481.9 558.1" stroke="#2E3436" stroke-width="2" stroke-miterlimit="10" stroke-linecap="round" stroke-linejoin="round"/>
<path d="M832.6 557.5H838.3C840.5 557.5 842.3 555.7 842.3 553.5V552.6C842.3 550.4 840.5 548.6 838.3 548.6H832.6C830.4 548.6 828.6 550.4 828.6 552.6V553.5C828.6 555.7 830.4 557.5 832.6 557.5Z" fill="#EDE73B" stroke="#2E3436" stroke-width="2" stroke-miterlimit="10" stroke-linecap="round" stroke-linejoin="round"/>
<path d="M848 578.3H870.4C875.7 578.3 879.9 574 879.9 568.8V538C879.9 532.7 875.6 528.5 870.4 528.5H848C842.7 528.5 838.5 532.8 838.5 538V568.8C838.5 574 842.8 578.3 848 578.3Z" fill="#EDE73B" stroke="#2E3436" stroke-width="2" stroke-miterlimit="10" stroke-linecap="round" stroke-linejoin="round"/>
<path d="M838.5 562.9L847.7 559.9" stroke="#2E3436" stroke-width="2" stroke-miterlimit="10" stroke-linecap="round" stroke-linejoin="round"/>
<path d="M845.6 548.3C846.373 548.3 847 546.912 847 545.2C847 543.488 846.373 542.1 845.6 542.1C844.827 542.1 844.2 543.488 844.2 545.2C844.2 546.912 844.827 548.3 845.6 548.3Z" fill="#2E3436" stroke="#2E3436" stroke-width="2" stroke-miterlimit="10" stroke-linecap="round" stroke-linejoin="round"/>
<path d="M620.8 653.2C621.2 652.6 621.7 651.9 622.2 651L622.5 650.5C624.2 647.7 625.1 644.4 625.1 641C625.1 630.6 616.7 622.3 606.4 622.3C599.3 622.3 593.2 626.2 590 632L572.1 658.2L557.1 641C557 641 556.9 641.1 556.8 641.1L527.8 606.9C527.7 606.8 527.6 606.6 527.5 606.5L527.1 606C523.7 602.2 518.8 599.9 513.3 599.9C502.9 599.9 494.6 608.3 494.6 618.6C494.6 622.8 496 626.7 498.3 629.8L498.6 630.1C498.8 630.4 499.1 630.7 499.4 631L525.8 662.5C525.7 662.6 525.6 662.8 525.4 662.9L510.4 645.3C509.4 643.7 508.1 642.2 506.7 640.9C503.4 638.1 499.2 636.4 494.6 636.4C484.2 636.4 475.9 644.8 475.9 655.1C475.9 658.9 477 662.4 479 665.4C479.8 666.6 480.7 667.6 481.7 668.6L506.2 698C506.2 698.2 506.1 698.3 506.1 698.5L496.1 686.8C495.1 685.2 493.8 683.7 492.4 682.4C489.1 679.6 484.9 677.9 480.3 677.9C469.9 677.9 461.6 686.3 461.6 696.6C461.6 701.3 463.3 705.6 466.2 708.8L472.6 716.3H701.6C666.1 715.1 635.6 697.9 606.7 675.8L620.8 653.2Z" fill="#EDE73B" stroke="#2E3436" stroke-width="2" stroke-miterlimit="10" stroke-linecap="round" stroke-linejoin="round"/>
<path d="M709 716.3H701C703.7 716.4 706.3 716.4 709 716.3Z" fill="#EDE73B" stroke="#2E3436" stroke-width="2" stroke-miterlimit="10" stroke-linecap="round" stroke-linejoin="round"/>
<path d="M801.9 716.4L835.4 664" stroke="#2E3436" stroke-width="2" stroke-miterlimit="10" stroke-linecap="round" stroke-linejoin="round"/>
<path d="M812.7 699.5L829.1 715.9H801.9" fill="#2E3436"/>
<path d="M812.7 699.5L829.1 715.9H801.9" stroke="#2E3436" stroke-width="2" stroke-miterlimit="10" stroke-linecap="round" stroke-linejoin="round"/>
<path d="M863.4 559.1C864.5 559.6 865.7 559.9 867 559.9C871.5 559.9 875.1 556.3 875.1 551.8C875.1 547.3 871.5 543.7 867 543.7C865.7 543.7 864.5 544 863.4 544.6" fill="#EDE73B"/>
<path d="M863.4 559.1C864.5 559.6 865.7 559.9 867 559.9C871.5 559.9 875.1 556.3 875.1 551.8C875.1 547.3 871.5 543.7 867 543.7C865.7 543.7 864.5 544 863.4 544.6" stroke="#2E3436" stroke-width="2" stroke-miterlimit="10" stroke-linecap="round" stroke-linejoin="round"/>
<path d="M863.4 545L859.3 535.3L855.3 545.1C854.9 545.8 854.7 546.6 854.7 547.4C854.7 550 856.8 552.1 859.4 552.1C862 552.1 864.1 550 864.1 547.4C864 546.5 863.8 545.7 863.4 545Z" fill="#47C3F1" stroke="#2E3436" stroke-width="2" stroke-miterlimit="10" stroke-linecap="round" stroke-linejoin="round"/>
<path d="M65.2487 608.68C76.0091 616.118 78.351 630.392 70.4805 640.568C78.351 630.392 93.4491 628.173 104.223 635.621C93.4491 628.173 91.1072 613.899 98.9777 603.723C91.1065 613.898 76.0084 616.117 65.2487 608.68Z" fill="#EDE73B" stroke="#2E3436" stroke-width="0.761076" stroke-miterlimit="10" stroke-linecap="round" stroke-linejoin="round"/>
<path d="M1179.25 129.68C1190.01 137.118 1192.35 151.392 1184.48 161.568C1192.35 151.392 1207.45 149.173 1218.22 156.621C1207.45 149.173 1205.11 134.899 1212.98 124.723C1205.11 134.898 1190.01 137.117 1179.25 129.68Z" fill="#EDE73B" stroke="#2E3436" stroke-width="0.761076" stroke-miterlimit="10" stroke-linecap="round" stroke-linejoin="round"/>
<path d="M132.025 630.606C139.096 635.494 140.635 644.875 135.463 651.562C140.635 644.875 150.557 643.416 157.637 648.31C150.557 643.416 149.018 634.036 154.19 627.349C149.018 634.036 139.097 635.494 132.025 630.606Z" fill="#EDE73B" stroke="#2E3436" stroke-width="0.761076" stroke-miterlimit="10" stroke-linecap="round" stroke-linejoin="round"/>
<path d="M1246.03 151.606C1253.1 156.494 1254.64 165.875 1249.46 172.562C1254.64 165.875 1264.56 164.416 1271.64 169.31C1264.56 164.416 1263.02 155.036 1268.19 148.349C1263.02 155.036 1253.1 156.494 1246.03 151.606Z" fill="#EDE73B" stroke="#2E3436" stroke-width="0.761076" stroke-miterlimit="10" stroke-linecap="round" stroke-linejoin="round"/>
<path d="M116.922 584.106C123.992 588.994 125.531 598.375 120.36 605.062C125.531 598.375 135.454 596.917 142.533 601.81C135.453 596.916 133.915 587.536 139.086 580.849C133.915 587.536 123.993 588.994 116.922 584.106Z" fill="#EDE73B" stroke="#2E3436" stroke-width="0.761076" stroke-miterlimit="10" stroke-linecap="round" stroke-linejoin="round"/>
<path d="M1230.92 105.106C1237.99 109.994 1239.53 119.375 1234.36 126.062C1239.53 119.375 1249.45 117.917 1256.53 122.81C1249.45 117.916 1247.91 108.536 1253.09 101.849C1247.91 108.536 1237.99 109.994 1230.92 105.106Z" fill="#EDE73B" stroke="#2E3436" stroke-width="0.761076" stroke-miterlimit="10" stroke-linecap="round" stroke-linejoin="round"/>
<path d="M625.344 803.757C626.545 803.827 627.127 804.455 627.19 805.743C627.212 806.247 627.944 806.212 627.921 805.708C627.841 804.026 626.964 803.088 625.384 803.001C624.902 802.972 624.857 803.728 625.344 803.757Z" fill="white"/>
</svg>
