<svg width="566" height="483" viewBox="0 0 566 483" fill="none" xmlns="http://www.w3.org/2000/svg">
<path d="M379.173 438.946C437.87 438.946 437.87 483 437.87 483H373.679L347.796 468.636V483H320.476V438.946H379.173Z" fill="#2E3436"/>
<path d="M375.48 249.637L398.839 440.536L296.185 439.905L294.261 248.27L375.48 249.637Z" fill="#0F775E" stroke="#2E3436" stroke-width="2" stroke-miterlimit="10" stroke-linecap="round" stroke-linejoin="round"/>
<path d="M343.893 324.74C349.528 340.755 359.658 355.526 373.128 367.371" stroke="#2E3436" stroke-width="2" stroke-miterlimit="10" stroke-linecap="round" stroke-linejoin="round"/>
<path d="M349.188 362.418C353.803 368.513 359.564 373.931 366.166 378.384" stroke="#2E3436" stroke-width="2" stroke-miterlimit="10" stroke-linecap="round" stroke-linejoin="round"/>
<path d="M213.56 438.946C154.863 438.946 154.863 483 154.863 483H219.054L244.938 468.636V483H272.257V438.946H213.56Z" fill="#2E3436"/>
<path d="M217.255 249.637L193.894 440.536L296.548 439.905L298.474 248.27L217.255 249.637Z" fill="#0F775E" stroke="#2E3436" stroke-width="2" stroke-miterlimit="10" stroke-linecap="round" stroke-linejoin="round"/>
<path d="M210.546 304.463L233.421 284.306H213.012L210.546 304.463Z" fill="#2E3436" stroke="#2E3436" stroke-width="2" stroke-miterlimit="10" stroke-linecap="round" stroke-linejoin="round"/>
<path d="M201.17 286.657C208.593 287.995 216.28 288.698 224.152 288.698C273.536 288.698 315.589 261.039 331.443 222.342H211.53L201.17 286.657Z" fill="#0F775E" stroke="#2E3436" stroke-width="2" stroke-miterlimit="10" stroke-linecap="round" stroke-linejoin="round"/>
<path d="M400.016 211.611V89.7019C400.016 71.0693 382.873 55.9653 361.727 55.9653H213.607C195.132 55.9653 179.712 67.4964 176.112 82.8355L176.079 82.9764L155.54 205.891C155.375 206.697 155.236 207.511 155.132 208.333L155.105 208.494H155.109C154.95 209.803 154.863 211.133 154.863 212.48C154.863 232.908 177.355 248.743 199.472 255.521L296.453 278.618L369.824 257.966C387.809 252.903 400.015 238.178 400.015 221.542V211.611" fill="#0F775E"/>
<path d="M400.016 211.611V89.7019C400.016 71.0693 382.873 55.9653 361.727 55.9653H213.607C195.132 55.9653 179.712 67.4964 176.112 82.8355L176.079 82.9764L155.54 205.891C155.375 206.697 155.236 207.511 155.132 208.333L155.105 208.494H155.109C154.95 209.803 154.863 211.133 154.863 212.48C154.863 232.908 177.355 248.743 199.472 255.521L296.453 278.618L369.824 257.966C387.809 252.903 400.015 238.178 400.015 221.542V211.611" stroke="#2E3436" stroke-width="2" stroke-miterlimit="10" stroke-linecap="round" stroke-linejoin="round"/>
<path d="M288.099 221.738L245.151 197.068C236.566 192.137 231.388 183.718 231.388 174.687V133.659" fill="#0F775E"/>
<path d="M288.099 221.738L245.151 197.068C236.566 192.137 231.388 183.718 231.388 174.687V133.659" stroke="#2E3436" stroke-width="2" stroke-miterlimit="10" stroke-linecap="round" stroke-linejoin="round"/>
<path d="M252.574 55.9653L287.737 165.185H288.529L323.694 55.9653H252.574Z" fill="#FFF2ED" stroke="#2E3436" stroke-width="2" stroke-miterlimit="10" stroke-linecap="round" stroke-linejoin="round"/>
<path d="M287.737 165.185H288.529L304.681 115.022L287.958 69.3757L271.771 115.597L287.737 165.185Z" fill="#47C3F1" stroke="#2E3436" stroke-width="2" stroke-miterlimit="10" stroke-linecap="round" stroke-linejoin="round"/>
<path d="M331.491 55.9653C332.615 55.9653 340.486 106.959 340.486 106.959L327.261 117.281L329.996 140.211L288.047 165.186" stroke="#2E3436" stroke-width="2" stroke-miterlimit="10" stroke-linecap="round" stroke-linejoin="round"/>
<path d="M364.139 142.167L345.632 90.0439C344.044 85.6858 338.746 83.2867 333.8 84.6861C328.854 86.0855 326.131 90.7532 327.719 95.1112L332.059 107.019H267.022C262.354 107.019 258.57 110.353 258.57 114.466C258.57 118.58 262.354 121.914 267.022 121.914H273.565C268.897 121.914 265.113 125.248 265.113 129.361C265.113 133.474 268.897 136.808 273.565 136.808H281.685C277.883 137.537 275.035 140.515 275.035 144.081C275.035 148.195 278.819 151.529 283.487 151.529H301.404L307.059 166.117L364.139 142.167Z" fill="#FC7EE4" stroke="#2E3436" stroke-width="2" stroke-miterlimit="10" stroke-linecap="round" stroke-linejoin="round"/>
<path d="M269.958 234.665L306.346 234.857L307.698 233.322L311.663 209.974C312.497 204.801 308.413 200.012 302.543 199.277C296.671 198.542 291.236 202.14 290.402 207.314L288.124 221.447L238.703 200.489C233.91 198.439 228.138 200.202 225.811 204.426C223.485 208.65 225.486 213.735 230.28 215.785L237 218.658L262.344 229.324L264.399 231.561L269.958 234.665Z" fill="#FC7EE4" stroke="#2E3436" stroke-width="2" stroke-miterlimit="10" stroke-linecap="round" stroke-linejoin="round"/>
<path d="M307.06 166.118L342.633 265.619" stroke="#2E3436" stroke-width="2" stroke-miterlimit="10" stroke-linecap="round" stroke-linejoin="round"/>
<path d="M250.149 267.655C248.815 272.204 251.923 276.844 257.087 278.014L265.793 279.986L272.717 281.555C277.862 282.72 283.31 280.174 284.727 275.662C286.171 271.067 283.051 266.341 277.832 265.158L261.893 261.547C256.736 260.379 251.48 263.113 250.149 267.655Z" fill="#FC7EE4" stroke="#2E3436" stroke-width="2" stroke-miterlimit="10" stroke-linecap="round" stroke-linejoin="round"/>
<path d="M235.896 229.806C234.563 234.356 237.67 238.995 242.835 240.165L263.985 244.957L270.909 246.526C276.054 247.691 281.502 245.145 282.919 240.633C284.363 236.038 281.243 231.312 276.024 230.129L247.64 223.699C242.484 222.531 237.229 225.265 235.896 229.806Z" fill="#FC7EE4" stroke="#2E3436" stroke-width="2" stroke-miterlimit="10" stroke-linecap="round" stroke-linejoin="round"/>
<path d="M243.536 249.092C242.202 253.641 245.31 258.281 250.474 259.451L259.18 261.423L266.104 262.992C271.249 264.158 276.697 261.611 278.114 257.1C279.558 252.504 276.438 247.778 271.22 246.596L255.28 242.985C250.123 241.817 244.867 244.55 243.536 249.092Z" fill="#FC7EE4" stroke="#2E3436" stroke-width="2" stroke-miterlimit="10" stroke-linecap="round" stroke-linejoin="round"/>
<path d="M272.257 122.012H305.91" stroke="#2E3436" stroke-width="2" stroke-miterlimit="10" stroke-linecap="round" stroke-linejoin="round"/>
<path d="M281.558 136.835H305.91" stroke="#2E3436" stroke-width="2" stroke-miterlimit="10" stroke-linecap="round" stroke-linejoin="round"/>
<path d="M350.085 102.586L382.045 191.981" stroke="#2E3436" stroke-width="2" stroke-miterlimit="10" stroke-linecap="round" stroke-linejoin="round"/>
<path d="M316.151 79.3924C316.151 79.3924 314.225 77.9665 287.667 55.9653C261.109 77.9665 259.941 78.8498 259.941 78.8498" stroke="#2E3436" stroke-width="2" stroke-miterlimit="10" stroke-linecap="round" stroke-linejoin="round"/>
<path d="M279.372 62.8375L287.667 69.3757L295.848 62.6702L287.667 55.9653L279.372 62.8375Z" fill="#47C3F1" stroke="#2E3436" stroke-width="2" stroke-miterlimit="10" stroke-linecap="round" stroke-linejoin="round"/>
<path d="M307.324 41.0109H301.602C299.283 41.0109 297.403 39.3543 297.403 37.311V36.7134C297.403 34.6701 299.283 33.0134 301.602 33.0134H307.324C309.643 33.0134 311.523 34.6701 311.523 36.7134V37.311C311.523 39.3543 309.643 41.0109 307.324 41.0109Z" fill="#FC7EE4" stroke="#2E3436" stroke-width="2" stroke-miterlimit="10" stroke-linecap="round" stroke-linejoin="round"/>
<path d="M293.845 56.0068H277.572C271.708 56.0068 266.954 51.8182 266.954 46.6511V25.6557C266.954 20.4886 271.708 16.2999 277.572 16.2999H293.845C299.709 16.2999 304.463 20.4886 304.463 25.6557V46.6511C304.463 51.8182 299.709 56.0068 293.845 56.0068Z" fill="#FC7EE4" stroke="#2E3436" stroke-width="2" stroke-miterlimit="10" stroke-linecap="round" stroke-linejoin="round"/>
<path d="M300.093 46.4381C302.258 46.4381 304.013 44.8918 304.013 42.9845C304.013 41.0771 302.258 39.5309 300.093 39.5309C297.928 39.5309 296.174 41.0771 296.174 42.9845C296.174 44.8918 297.928 46.4381 300.093 46.4381Z" fill="#2E3436" stroke="#2E3436" stroke-width="2" stroke-miterlimit="10" stroke-linecap="round" stroke-linejoin="round"/>
<path d="M279.399 41.3151C282.077 41.3151 284.416 40.052 285.708 38.1697" stroke="#2E3436" stroke-width="2" stroke-miterlimit="10" stroke-linecap="round" stroke-linejoin="round"/>
<path d="M308.314 10.2122C307.95 5.08437 302.332 0.706292 296.511 1.01544C287.997 1.46689 282.413 10.0405 273.949 10.9699L275.241 10.7638C263.93 12.7914 258.196 17.828 256.402 25.5968C254.734 32.8151 258.378 40.7224 265.133 45.016L264.958 44.9149C266.71 46.2909 269.02 47.128 271.553 47.128C275.993 47.128 279.635 44.86 280.897 41.3151H279.4C275.423 41.3151 272.181 38.5417 272.03 35.0704C271.936 32.9221 273.232 30.9534 275.184 29.6638C277.377 28.2143 279.309 28.1416 281.053 28.4969V29.6471C281.053 30.973 282.071 32.189 283.549 32.4392C285.538 32.7759 287.278 31.4411 287.278 29.7492V23.4986C287.278 22.6556 287.706 21.8214 288.512 21.3679C288.517 21.365 288.522 21.363 288.527 21.3601C291.22 19.8585 294.725 20.8174 297.905 20.6358C303.724 20.3002 308.678 15.3401 308.314 10.2122Z" fill="#EDE73B" stroke="#2E3436" stroke-width="2" stroke-miterlimit="10" stroke-linecap="round" stroke-linejoin="round"/>
<path d="M304.508 27.2084C303.929 29.0603 302.023 30.4284 299.737 30.4284H298.969C296.683 30.4284 294.777 29.0603 294.198 27.2084" stroke="#2E3436" stroke-width="2" stroke-miterlimit="10" stroke-linecap="round" stroke-linejoin="round"/>
<path d="M222.909 181.626H201.17" stroke="#2E3436" stroke-width="2" stroke-miterlimit="10" stroke-linecap="round" stroke-linejoin="round"/>
<path d="M222.909 174.651L210.961 168.219" stroke="#2E3436" stroke-width="2" stroke-miterlimit="10" stroke-linecap="round" stroke-linejoin="round"/>
<path d="M210.961 195.033L222.909 188.601" stroke="#2E3436" stroke-width="2" stroke-miterlimit="10" stroke-linecap="round" stroke-linejoin="round"/>
<path d="M244.689 55.9653C243.564 55.9653 235.694 106.959 235.694 106.959L248.919 117.281L246.184 140.211L288.133 165.186V220.815" stroke="#2E3436" stroke-width="2" stroke-miterlimit="10" stroke-linecap="round" stroke-linejoin="round"/>
<path d="M277.727 179.597C280.137 179.597 282.091 177.876 282.091 175.752C282.091 173.629 280.137 171.907 277.727 171.907C275.317 171.907 273.363 173.629 273.363 175.752C273.363 177.876 275.317 179.597 277.727 179.597Z" fill="#2E3436"/>
<path d="M358.495 160.394C360.199 160.394 361.58 159.177 361.58 157.676C361.58 156.175 360.199 154.958 358.495 154.958C356.791 154.958 355.41 156.175 355.41 157.676C355.41 159.177 356.791 160.394 358.495 160.394Z" fill="#2E3436"/>
<path d="M277.727 196.853C280.137 196.853 282.091 195.132 282.091 193.008C282.091 190.885 280.137 189.163 277.727 189.163C275.317 189.163 273.363 190.885 273.363 193.008C273.363 195.132 275.317 196.853 277.727 196.853Z" fill="#2E3436"/>
<path d="M372.582 165.509L315.228 189.163" stroke="#2E3436" stroke-width="2" stroke-miterlimit="10" stroke-linecap="round" stroke-linejoin="round"/>
<path d="M248.84 324.74C243.206 340.755 233.076 355.526 219.605 367.371" stroke="#2E3436" stroke-width="2" stroke-miterlimit="10" stroke-linecap="round" stroke-linejoin="round"/>
<path d="M243.545 362.418C238.931 368.513 233.169 373.931 226.567 378.384" stroke="#2E3436" stroke-width="2" stroke-miterlimit="10" stroke-linecap="round" stroke-linejoin="round"/>
<path d="M362.33 136.835L305.085 161.023L307.06 166.118L364.14 142.167L362.33 136.835Z" fill="#DD7800" stroke="#2E3436" stroke-width="2" stroke-miterlimit="10" stroke-linecap="round" stroke-linejoin="round"/>
<path d="M333.116 140.155C326.098 140.155 320.409 145.168 320.409 151.351C320.409 154.346 321.751 157.06 323.925 159.069L345.709 149.928C344.914 144.418 339.585 140.155 333.116 140.155Z" fill="white" stroke="#2E3436" stroke-width="2" stroke-miterlimit="10" stroke-linecap="round" stroke-linejoin="round"/>
<path d="M330.866 147.826L333.059 150.938L336.755 148.36" fill="white"/>
<path d="M330.866 147.826L333.059 150.938L336.755 148.36" stroke="#2E3436" stroke-width="2" stroke-miterlimit="10" stroke-linecap="round" stroke-linejoin="round"/>
<path d="M346.131 91.4491L339.699 93.7391C339.699 93.7391 342.664 103.587 349.775 101.71" stroke="#2E3436" stroke-width="2" stroke-miterlimit="10" stroke-linecap="round" stroke-linejoin="round"/>
<path d="M215.835 89.0758C210.954 97.9814 204.028 106.013 195.598 112.543" stroke="#2E3436" stroke-width="2" stroke-miterlimit="10" stroke-linecap="round" stroke-linejoin="round"/>
<path d="M218.489 103.038C216.012 107.068 212.734 110.716 208.851 113.765" stroke="#2E3436" stroke-width="2" stroke-miterlimit="10" stroke-linecap="round" stroke-linejoin="round"/>
<path d="M529.426 6H411.853C398.094 6 386.169 12.8705 380.251 22.9176C370.214 22.3909 359.966 23.3375 350 24.7348L350.215 24.8695C359.469 26.2454 368.425 29.0837 376.597 33.1405C376.394 34.4936 376.279 35.8714 376.279 37.2738C376.279 54.5455 392.205 68.5476 411.853 68.5476H529.426C549.073 68.5476 565 54.5455 565 37.2738C565 20.0021 549.073 6 529.426 6Z" fill="white" stroke="#2E3436" stroke-width="2" stroke-miterlimit="10" stroke-linecap="round" stroke-linejoin="round"/>
<path d="M503.633 37.3709C503.633 47.383 494.423 55.4971 483.061 55.4971C471.698 55.4971 462.488 47.383 462.488 37.3709C462.488 27.3594 471.698 19.244 483.061 19.244C494.423 19.244 503.633 27.3594 503.633 37.3709Z" fill="#47C3F1" stroke="#2E3436" stroke-width="2" stroke-miterlimit="10" stroke-linecap="round" stroke-linejoin="round"/>
<path d="M474.596 38.6696C475.556 42.038 479.005 44.5351 483.126 44.5351C487.246 44.5351 490.695 42.0374 491.655 38.6696" stroke="#2E3436" stroke-width="2" stroke-miterlimit="10" stroke-linecap="round" stroke-linejoin="round"/>
<path d="M489.367 35.0881C489.58 35.2041 489.861 35.0722 489.862 34.8515C489.862 34.8496 489.862 34.8484 489.862 34.8465C489.862 33.5237 488.645 32.452 487.143 32.452C485.643 32.452 484.426 33.5237 484.426 34.8465C484.426 34.849 484.426 34.8503 484.426 34.8515C484.426 35.0722 484.707 35.2047 484.92 35.0881C485.567 34.7361 486.327 34.5326 487.143 34.5326C487.959 34.5326 488.719 34.7361 489.367 35.0881Z" fill="#2E3436"/>
<path d="M481.332 35.0881C481.545 35.2041 481.825 35.0722 481.826 34.8515C481.826 34.8496 481.826 34.8484 481.826 34.8465C481.826 33.5237 480.609 32.452 479.108 32.452C477.607 32.452 476.391 33.5237 476.391 34.8465C476.391 34.849 476.391 34.8503 476.391 34.8515C476.392 35.0722 476.673 35.2047 476.886 35.0881C477.533 34.7361 478.293 34.5326 479.109 34.5326C479.925 34.5326 480.686 34.7361 481.332 35.0881Z" fill="#2E3436"/>
<path d="M482.947 13.7157C475.902 13.7157 462.581 14.8799 462.581 19.2851C462.581 23.691 475.903 24.8552 482.947 24.8552C489.991 24.8552 503.313 23.691 503.313 19.2851C503.313 14.8806 489.991 13.7157 482.947 13.7157ZM482.947 22.6111C471.152 22.6111 465.069 20.2813 465.069 19.2851C465.069 19.0207 465.514 18.6599 466.369 18.2763C469.583 15.7303 478.062 14.9808 483.023 14.9808C488.086 14.9808 496.827 15.7569 499.883 18.431H499.848C500.488 18.7563 500.825 19.0581 500.825 19.2851C500.825 20.2813 494.742 22.6111 482.947 22.6111Z" fill="#2E3436" stroke="#2E3436" stroke-miterlimit="10"/>
<path d="M499.848 18.4311H499.883C496.827 15.757 488.087 14.9808 483.023 14.9808C478.062 14.9808 469.584 15.7304 466.37 18.2763C468.726 17.2142 474.292 15.9599 482.947 15.9599C492.03 15.9599 497.709 17.3404 499.848 18.4311Z" fill="#2E3436" stroke="#2E3436" stroke-miterlimit="10"/>
<path d="M537.98 40.5834C531.866 40.5834 526.912 44.9493 526.912 50.3362C526.912 44.9487 521.957 40.5834 515.835 40.5834C521.957 40.5834 526.912 36.2175 526.912 30.8301C526.911 36.2175 531.866 40.5834 537.98 40.5834Z" fill="#DD7800" stroke="#2E3436" stroke-width="2" stroke-miterlimit="10" stroke-linecap="round" stroke-linejoin="round"/>
<path d="M547.592 27.6175C543.097 27.6175 539.454 30.8274 539.454 34.7881C539.454 30.8274 535.811 27.6175 531.31 27.6175C535.811 27.6175 539.454 24.4076 539.454 20.4463C539.454 24.4076 543.097 27.6175 547.592 27.6175Z" fill="#DD7800" stroke="#2E3436" stroke-width="2" stroke-miterlimit="10" stroke-linecap="round" stroke-linejoin="round"/>
<path d="M425.371 14.6086L429.549 25.9397C429.919 26.9435 430.981 27.6233 432.179 27.6233H445.7C448.379 27.6233 449.493 30.6436 447.325 32.031L436.386 39.0336C435.417 39.6537 435.011 40.7539 435.381 41.7577L439.56 53.0888C440.387 55.3335 437.472 57.2004 435.304 55.8129L424.365 48.8104C423.396 48.1902 422.084 48.1902 421.114 48.8104L410.175 55.8129C408.008 57.2004 405.092 55.3335 405.92 53.0888L410.098 41.7577C410.468 40.7539 410.063 39.6544 409.094 39.0336L398.154 32.031C395.987 30.6436 397.101 27.6233 399.779 27.6233H413.301C414.499 27.6233 415.561 26.9435 415.931 25.9397L420.109 14.6086C420.938 12.3639 424.542 12.3639 425.371 14.6086Z" fill="#EDE73B" stroke="#2E3436" stroke-width="2" stroke-miterlimit="10" stroke-linecap="round" stroke-linejoin="round"/>
<path d="M422.547 43.2802C423.9 43.2802 424.996 41.8477 424.996 40.0805C424.996 38.3133 423.9 36.8807 422.547 36.8807C421.195 36.8807 420.099 38.3133 420.099 40.0805C420.099 41.8477 421.195 43.2802 422.547 43.2802Z" fill="#2E3436" stroke="#2E3436" stroke-width="2" stroke-miterlimit="10" stroke-linecap="round" stroke-linejoin="round"/>
<path d="M423.035 31.3069C422.561 32.8237 421 33.9442 419.127 33.9442H418.499C416.627 33.9442 415.066 32.8237 414.591 31.3069" stroke="#2E3436" stroke-width="2" stroke-miterlimit="10" stroke-linecap="round" stroke-linejoin="round"/>
<path d="M431.234 31.3069C430.76 32.8237 429.199 33.9442 427.327 33.9442H426.698C424.826 33.9442 423.265 32.8237 422.791 31.3069" stroke="#2E3436" stroke-width="2" stroke-miterlimit="10" stroke-linecap="round" stroke-linejoin="round"/>
<path d="M169.454 165.624C169.454 149.491 156.378 136.413 140.247 136.413H81.0548C64.9246 136.413 51.8484 149.491 51.8484 165.624C51.8484 181.757 64.9246 194.836 81.0548 194.836H140.247C142.426 194.836 144.547 194.59 146.59 194.137L169.133 202.685L161.81 185.325C166.557 180.13 169.454 173.216 169.454 165.624Z" fill="white" stroke="#2E3436" stroke-width="2" stroke-miterlimit="10" stroke-linecap="round" stroke-linejoin="round"/>
<path d="M85.6537 172.899C90.2653 172.899 94.0037 169.16 94.0037 164.548C94.0037 159.935 90.2653 156.196 85.6537 156.196C81.042 156.196 77.3036 159.935 77.3036 164.548C77.3036 169.16 81.042 172.899 85.6537 172.899Z" fill="#2E3436"/>
<path d="M110.555 172.899C115.166 172.899 118.905 169.16 118.905 164.548C118.905 159.935 115.166 156.196 110.555 156.196C105.943 156.196 102.205 159.935 102.205 164.548C102.205 169.16 105.943 172.899 110.555 172.899Z" fill="#2E3436"/>
<path d="M135.456 172.899C140.068 172.899 143.806 169.16 143.806 164.548C143.806 159.935 140.068 156.196 135.456 156.196C130.845 156.196 127.106 159.935 127.106 164.548C127.106 169.16 130.845 172.899 135.456 172.899Z" fill="#2E3436"/>
<path d="M458.53 139.57L405.993 172.986L459.219 256.697L511.755 223.282L458.53 139.57Z" fill="#E0E0E0" stroke="#2E3436" stroke-width="2" stroke-miterlimit="10" stroke-linecap="round" stroke-linejoin="round"/>
<path d="M465.312 150.236L412.775 183.652L446.142 236.13L498.678 202.715L465.312 150.236Z" fill="#2E3436"/>
<path d="M478.398 234.106C481.354 234.106 483.751 231.709 483.751 228.752C483.751 225.795 481.354 223.397 478.398 223.397C475.441 223.397 473.044 225.795 473.044 228.752C473.044 231.709 475.441 234.106 478.398 234.106Z" fill="#2E3436"/>
<path d="M116.833 389.633H24.6712C11.5976 389.633 1 379.034 1 365.958V282.365C1 269.289 11.5976 258.69 24.6712 258.69H116.833C129.907 258.69 140.504 269.289 140.504 282.365V365.958C140.504 379.033 129.907 389.633 116.833 389.633Z" fill="#FFF2ED" stroke="#2E3436" stroke-width="2" stroke-miterlimit="10" stroke-linecap="round" stroke-linejoin="round"/>
<path d="M151.945 261.637C137.933 264.06 125.006 272.243 116.818 283.872" stroke="#2E3436" stroke-width="2" stroke-miterlimit="10" stroke-linecap="round" stroke-linejoin="round"/>
<path d="M162.288 240.629C149.629 239.315 136.709 242.727 125.723 249.152C114.737 255.577 105.614 264.899 98.4152 275.396" stroke="#2E3436" stroke-width="2" stroke-miterlimit="10" stroke-linecap="round" stroke-linejoin="round"/>
<path d="M184.177 323.29C180.538 331.803 173.689 338.898 165.309 342.831" stroke="#2E3436" stroke-width="2" stroke-miterlimit="10" stroke-linecap="round" stroke-linejoin="round"/>
<path d="M201.627 325.33C197.863 341.24 186.044 355.024 170.896 361.169" stroke="#2E3436" stroke-width="2" stroke-miterlimit="10" stroke-linecap="round" stroke-linejoin="round"/>
<path d="M82.2346 287.666L70.7283 276.158C75.0611 270.826 77.6609 264.029 77.6609 256.624C77.6609 239.502 63.784 225.623 46.6655 225.623C29.5478 225.623 15.671 239.502 15.671 256.624C15.671 273.745 29.5478 287.625 46.6655 287.625C47.3048 287.625 47.9374 287.599 48.5666 287.561L48.488 287.666H82.2346Z" fill="#EDE73B" stroke="#2E3436" stroke-width="2" stroke-miterlimit="10" stroke-linecap="round" stroke-linejoin="round"/>
<path d="M58.8011 243.074C53.0074 242.434 48.0612 246.711 47.6077 252.26C47.6044 252.304 47.5433 252.304 47.5399 252.26C47.0864 246.71 42.1395 242.433 36.344 243.074C31.6548 243.593 27.8869 247.444 27.4568 252.144C27.1371 255.641 28.6056 258.81 31.0515 260.844V260.846L31.0574 260.85C32.2807 261.954 31.0574 260.85 32.2807 261.954L47.5726 275.468L62.9063 261.954C64.0936 260.844 63.6769 261.191 64.0878 260.85L64.0936 260.846V260.844C66.5395 258.809 68.008 255.639 67.6884 252.142C67.2599 247.443 63.4903 243.592 58.8011 243.074Z" fill="#2E3436"/>
<path d="M25.6744 297.941H18.8992V368.052H25.6744V297.941Z" fill="#2E3436"/>
<path d="M36.8151 325.065H30.0398V367.959H36.8151V325.065Z" fill="#2E3436"/>
<path d="M47.4211 312.136H41.7135V368.052H47.4211V312.136Z" fill="#2E3436"/>
<path d="M58.5618 331.192H52.8542V368.052H58.5618V331.192Z" fill="#2E3436"/>
<path d="M69.7016 348.122H63.994V368.052H69.7016V348.122Z" fill="#2E3436"/>
<path d="M80.8423 314.706H75.1347V367.884H80.8423V314.706Z" fill="#2E3436"/>
<path d="M462.338 396.228C477.743 396.228 490.232 383.737 490.232 368.329C490.232 352.92 477.743 340.429 462.338 340.429C446.932 340.429 434.443 352.92 434.443 368.329C434.443 383.737 446.932 396.228 462.338 396.228Z" fill="#47C3F1" stroke="#2E3436" stroke-width="2" stroke-miterlimit="10" stroke-linecap="round" stroke-linejoin="round"/>
<path d="M462.338 368.329L486.636 354.62C486.636 354.62 482.515 344.01 467.038 340.825L462.338 368.329Z" fill="#2E3436"/>
</svg>
