<svg width="548" height="424" viewBox="0 0 548 424" fill="none" xmlns="http://www.w3.org/2000/svg">
<path d="M224.307 64.2209H219.001H1V386.213H224.306V89.0012C224.306 75.3154 235.401 64.2209 249.086 64.2209H224.307Z" fill="white" stroke="#2E3436" stroke-width="2" stroke-miterlimit="10" stroke-linecap="round" stroke-linejoin="round"/>
<path d="M158.64 366.41C184.257 366.41 205.023 345.644 205.023 320.028C205.023 294.412 184.257 273.646 158.64 273.646C133.024 273.646 112.258 294.412 112.258 320.028C112.258 345.644 133.024 366.41 158.64 366.41Z" stroke="#2E3436" stroke-width="2" stroke-miterlimit="10" stroke-linecap="round" stroke-linejoin="round"/>
<path d="M136.907 361.003C137.025 361.066 137.139 361.124 137.255 361.184C137.887 361.511 138.525 361.83 139.177 362.132C139.177 362.132 139.178 362.133 139.179 362.133L158.639 320.03L112.727 326.56C114.768 340.816 123.392 353.85 136.907 361.003Z" fill="#47C3F1" stroke="#2E3436" stroke-width="2" stroke-miterlimit="10" stroke-linecap="round" stroke-linejoin="round"/>
<path d="M137.094 278.966L158.641 320.03L181.073 279.448C180.104 278.914 179.12 278.399 178.101 277.928C164.495 271.639 149.419 272.511 137.094 278.966Z" fill="#EDE73B" stroke="#2E3436" stroke-width="2" stroke-miterlimit="10" stroke-linecap="round" stroke-linejoin="round"/>
<path d="M141.341 363.067C148.997 342.738 165.518 300.989 175.171 276.695C176.154 277.072 177.131 277.48 178.101 277.928C201.353 288.676 211.49 316.238 200.743 339.491C190.327 362.027 164.116 372.243 141.341 363.067Z" fill="#2E3436" stroke="#2E3436" stroke-width="2" stroke-miterlimit="10" stroke-linecap="round" stroke-linejoin="round"/>
<path d="M158.504 319.967C158.504 319.967 156.142 346.15 155.099 366.234C149.689 365.837 144.258 364.48 139.043 362.069C133.932 359.707 129.456 356.532 125.695 352.769L158.504 319.967Z" fill="#FF0000" stroke="#2E3436" stroke-width="2" stroke-miterlimit="10" stroke-linecap="round" stroke-linejoin="round"/>
<path d="M41.0839 145.395L69.9992 97.4494L98.2187 147.412L115.444 113.768L129.975 131.776L153.197 90.6584L178.261 131.06" stroke="#2E3436" stroke-width="2" stroke-miterlimit="10" stroke-linecap="round" stroke-linejoin="round"/>
<path d="M70.0912 104.24C73.8417 104.24 76.8821 101.2 76.8821 97.4494C76.8821 93.6988 73.8417 90.6584 70.0912 90.6584C66.3406 90.6584 63.3002 93.6988 63.3002 97.4494C63.3002 101.2 66.3406 104.24 70.0912 104.24Z" fill="#FF0000" stroke="#2E3436" stroke-width="2" stroke-miterlimit="10" stroke-linecap="round" stroke-linejoin="round"/>
<path d="M40.1453 153.269C43.8958 153.269 46.9362 150.229 46.9362 146.479C46.9362 142.728 43.8958 139.688 40.1453 139.688C36.3948 139.688 33.3544 142.728 33.3544 146.479C33.3544 150.229 36.3948 153.269 40.1453 153.269Z" fill="#EDE73B" stroke="#2E3436" stroke-width="2" stroke-miterlimit="10" stroke-linecap="round" stroke-linejoin="round"/>
<path d="M115.449 120.764C119.199 120.764 122.24 117.724 122.24 113.974C122.24 110.223 119.199 107.183 115.449 107.183C111.698 107.183 108.658 110.223 108.658 113.974C108.658 117.724 111.698 120.764 115.449 120.764Z" fill="#47C3F1" stroke="#2E3436" stroke-width="2" stroke-miterlimit="10" stroke-linecap="round" stroke-linejoin="round"/>
<path d="M152.501 97.4494C156.251 97.4494 159.292 94.409 159.292 90.6585C159.292 86.908 156.251 83.8676 152.501 83.8676C148.75 83.8676 145.71 86.908 145.71 90.6585C145.71 94.409 148.75 97.4494 152.501 97.4494Z" fill="#2E3436" stroke="#2E3436" stroke-width="2" stroke-miterlimit="10" stroke-linecap="round" stroke-linejoin="round"/>
<path d="M202.387 106.686C206.137 106.686 209.178 103.645 209.178 99.8947C209.178 96.1442 206.137 93.1038 202.387 93.1038C198.636 93.1038 195.596 96.1442 195.596 99.8947C195.596 103.645 198.636 106.686 202.387 106.686Z" fill="#2E3436" stroke="#2E3436" stroke-width="2" stroke-miterlimit="10" stroke-linecap="round" stroke-linejoin="round"/>
<path d="M130.56 138.604C134.31 138.604 137.351 135.563 137.351 131.813C137.351 128.062 134.31 125.022 130.56 125.022C126.809 125.022 123.769 128.062 123.769 131.813C123.769 135.563 126.809 138.604 130.56 138.604Z" fill="#EDE73B" stroke="#2E3436" stroke-width="2" stroke-miterlimit="10" stroke-linecap="round" stroke-linejoin="round"/>
<path d="M182.746 126.292L202.388 99.8947" stroke="#2E3436" stroke-width="2" stroke-miterlimit="10" stroke-linecap="round" stroke-linejoin="round"/>
<path d="M178.261 137.977C182.012 137.977 185.052 134.937 185.052 131.186C185.052 127.436 182.012 124.395 178.261 124.395C174.511 124.395 171.47 127.436 171.47 131.186C171.47 134.937 174.511 137.977 178.261 137.977Z" fill="white" stroke="#2E3436" stroke-width="2" stroke-miterlimit="10" stroke-linecap="round" stroke-linejoin="round"/>
<path d="M98.5422 157.526C102.293 157.526 105.333 154.486 105.333 150.736C105.333 146.985 102.293 143.945 98.5422 143.945C94.7917 143.945 91.7513 146.985 91.7513 150.736C91.7513 154.486 94.7917 157.526 98.5422 157.526Z" fill="#47C3F1" stroke="#2E3436" stroke-width="2" stroke-miterlimit="10" stroke-linecap="round" stroke-linejoin="round"/>
<path d="M51.2868 172.925H31.3285V366.446H51.2868V172.925Z" fill="#FFF2ED" stroke="#2E3436" stroke-width="2" stroke-miterlimit="10" stroke-linecap="round" stroke-linejoin="round"/>
<path d="M95.0945 267.297H75.1362V366.446H95.0945V267.297Z" fill="#47C3F1" stroke="#2E3436" stroke-width="2" stroke-miterlimit="10" stroke-linecap="round" stroke-linejoin="round"/>
<path d="M130.395 239.225C133.913 239.225 136.765 236.373 136.765 232.856C136.765 229.338 133.913 226.486 130.395 226.486C126.878 226.486 124.026 229.338 124.026 232.856C124.026 236.373 126.878 239.225 130.395 239.225Z" fill="#47C3F1" stroke="#2E3436" stroke-width="2" stroke-miterlimit="10" stroke-linecap="round" stroke-linejoin="round"/>
<path d="M149.135 239.225C152.653 239.225 155.504 236.373 155.504 232.856C155.504 229.338 152.653 226.486 149.135 226.486C145.617 226.486 142.765 229.338 142.765 232.856C142.765 236.373 145.617 239.225 149.135 239.225Z" fill="#FF0000" stroke="#2E3436" stroke-width="2" stroke-miterlimit="10" stroke-linecap="round" stroke-linejoin="round"/>
<path d="M167.873 239.225C171.39 239.225 174.242 236.373 174.242 232.856C174.242 229.338 171.39 226.486 167.873 226.486C164.355 226.486 161.503 229.338 161.503 232.856C161.503 236.373 164.355 239.225 167.873 239.225Z" fill="#EDE73B" stroke="#2E3436" stroke-width="2" stroke-miterlimit="10" stroke-linecap="round" stroke-linejoin="round"/>
<path d="M186.612 239.225C190.13 239.225 192.981 236.373 192.981 232.856C192.981 229.338 190.13 226.486 186.612 226.486C183.094 226.486 180.242 229.338 180.242 232.856C180.242 236.373 183.094 239.225 186.612 239.225Z" fill="#2E3436" stroke="#2E3436" stroke-width="2" stroke-miterlimit="10" stroke-linecap="round" stroke-linejoin="round"/>
<path d="M125.318 162.321L134.881 167.35L144.444 162.321L154.005 167.35L163.57 162.321L173.135 167.35L182.702 162.321L192.268 167.35" stroke="#2E3436" stroke-width="2" stroke-miterlimit="10" stroke-linecap="round" stroke-linejoin="round"/>
<path d="M125.607 170.41L135.17 175.439L144.734 170.41L154.295 175.439L163.86 170.41L173.425 175.439L182.991 170.41L192.558 175.439" stroke="#2E3436" stroke-width="2" stroke-miterlimit="10" stroke-linecap="round" stroke-linejoin="round"/>
<path d="M125.029 178.926L134.591 183.956L144.155 178.926L153.716 183.956L163.281 178.926L172.846 183.956L182.412 178.926L191.978 183.956" stroke="#2E3436" stroke-width="2" stroke-miterlimit="10" stroke-linecap="round" stroke-linejoin="round"/>
<path d="M17.6331 86.0231H38.5804" stroke="#2E3436" stroke-width="2" stroke-miterlimit="10" stroke-linecap="round" stroke-linejoin="round"/>
<path d="M17.6331 92.9589H38.5804" stroke="#2E3436" stroke-width="2" stroke-miterlimit="10" stroke-linecap="round" stroke-linejoin="round"/>
<path d="M17.6331 99.8947H38.5804" stroke="#2E3436" stroke-width="2" stroke-miterlimit="10" stroke-linecap="round" stroke-linejoin="round"/>
<path d="M278.629 20.0667C268.884 20.0667 260.987 27.9638 260.987 37.709C260.987 27.9638 253.09 20.0667 243.332 20.0667C253.09 20.0667 260.987 12.1691 260.987 2.42432C260.987 12.1691 268.884 20.0667 278.629 20.0667Z" fill="#EDE73B" stroke="#2E3436" stroke-width="2" stroke-miterlimit="10" stroke-linecap="round" stroke-linejoin="round"/>
<path d="M507.183 313.342H348.108C342.753 313.342 338.412 309.001 338.412 303.646V43.4879C338.412 38.1328 342.753 33.7921 348.108 33.7921H507.183C512.538 33.7921 516.879 38.1333 516.879 43.4879V303.646C516.879 309.001 512.538 313.342 507.183 313.342Z" fill="#FFF2ED" stroke="#2E3436" stroke-width="2" stroke-miterlimit="10" stroke-linecap="round" stroke-linejoin="round"/>
<path d="M427.646 299.171C435.044 299.171 441.042 293.174 441.042 285.775C441.042 278.377 435.044 272.379 427.646 272.379C420.247 272.379 414.25 278.377 414.25 285.775C414.25 293.174 420.247 299.171 427.646 299.171Z" fill="#FFF2ED" stroke="#2E3436" stroke-width="2" stroke-miterlimit="10" stroke-linecap="round" stroke-linejoin="round"/>
<path d="M516.879 63.1829H338.412V261.365H516.879V63.1829Z" fill="#EDE73B" stroke="#2E3436" stroke-width="2" stroke-miterlimit="10" stroke-linecap="round" stroke-linejoin="round"/>
<path d="M461.165 140.649C460.764 140.655 460.356 140.549 459.99 140.32C458.972 139.686 458.662 138.348 459.296 137.331L474.399 113.095C474.79 112.469 475.472 112.084 476.211 112.073C476.949 112.063 477.642 112.429 478.05 113.045L483.836 121.782L497.18 100.369C497.449 99.9168 497.878 99.5654 498.405 99.4029C499.325 99.118 500.323 99.4729 500.855 100.276L506.641 109.013L520.009 87.562C520.643 86.5447 521.981 86.2343 522.998 86.8682C524.016 87.502 524.327 88.8403 523.692 89.8576L508.589 114.093C508.109 114.865 507.195 115.254 506.309 115.071L506.186 115.045C505.624 114.929 505.132 114.596 504.815 114.118L499.102 105.49L485.784 126.861C485.303 127.632 484.391 128.024 483.505 127.839L483.382 127.814C482.819 127.699 482.326 127.365 482.009 126.887L476.295 118.257L462.979 139.626C462.574 140.277 461.88 140.639 461.165 140.649Z" fill="white" stroke="#2E3436" stroke-width="2" stroke-miterlimit="10" stroke-linecap="round" stroke-linejoin="round"/>
<path d="M533.1 62.2836L530.842 80.0074L547 87.632L529.446 90.9614L527.188 108.685L518.597 93.0191L501.043 96.3485L513.287 83.3368L504.697 67.6706L520.855 75.2952L533.1 62.2836Z" fill="#FC7EE4" stroke="#2E3436" stroke-width="2" stroke-miterlimit="10" stroke-linecap="round" stroke-linejoin="round"/>
<path d="M446.395 125.284C445.571 125.039 444.949 124.269 444.875 123.276L442.279 88.0323L421.38 107.073C420.752 107.645 419.907 107.826 419.173 107.539C418.436 107.255 417.917 106.555 417.814 105.702L412.185 59.2135L394.005 77.3888C393.416 77.9781 392.603 78.2036 391.863 77.9841C391.855 77.9816 391.845 77.9786 391.836 77.9761C391.09 77.7432 390.536 77.0888 390.38 76.2575L383.028 36.839C382.788 35.5482 383.566 34.231 384.767 33.8965C385.969 33.5636 387.137 34.3384 387.378 35.6292L393.982 71.0399L412.401 52.6257C413.018 52.0088 413.879 51.7753 414.64 52.0623C415.403 52.3317 415.944 53.0441 416.05 53.9174L421.708 100.652L442.794 81.44C443.438 80.8546 444.309 80.6837 445.052 80.9951C445.8 81.3065 446.307 82.0504 446.372 82.9313L449.297 122.626C449.394 123.948 448.483 125.164 447.262 125.343C446.96 125.388 446.666 125.364 446.395 125.284Z" fill="white" stroke="#2E3436" stroke-width="2" stroke-miterlimit="10" stroke-linecap="round" stroke-linejoin="round"/>
<path d="M375.807 1L387.148 19.1083L407.875 13.9177L394.158 30.3003L405.499 48.4085L385.68 40.425L371.962 56.807L373.431 35.4908L353.611 27.5068L374.338 22.3162L375.807 1Z" fill="#FF0000" stroke="#2E3436" stroke-width="2" stroke-miterlimit="10" stroke-linecap="round" stroke-linejoin="round"/>
<path d="M434.323 47.1807L442.836 51.6579L451.349 47.1807L459.86 51.6579L468.374 47.1807L476.888 51.6579L485.404 47.1807L493.919 51.6579" stroke="#2E3436" stroke-width="2" stroke-miterlimit="10" stroke-linecap="round" stroke-linejoin="round"/>
<path d="M260.981 64.1172C251.414 64.1172 243.662 71.8699 243.662 81.4356C243.662 71.8694 235.91 64.1172 226.331 64.1172C235.91 64.1172 243.662 56.3646 243.662 46.7983C243.662 56.3646 251.414 64.1172 260.981 64.1172Z" fill="#EDE73B" stroke="#2E3436" stroke-width="2" stroke-miterlimit="10" stroke-linecap="round" stroke-linejoin="round"/>
<path d="M330.097 18.6423C325.563 18.6423 321.89 22.3162 321.89 26.8494C321.89 22.3162 318.216 18.6423 313.677 18.6423C318.216 18.6423 321.89 14.9685 321.89 10.4353C321.89 14.9685 325.563 18.6423 330.097 18.6423Z" fill="#EDE73B" stroke="#2E3436" stroke-width="2" stroke-miterlimit="10" stroke-linecap="round" stroke-linejoin="round"/>
<path d="M295.482 66.6618C306.945 66.6618 316.237 57.3698 316.237 45.9075C316.237 34.4452 306.945 25.1532 295.482 25.1532C284.02 25.1532 274.728 34.4452 274.728 45.9075C274.728 57.3698 284.02 66.6618 295.482 66.6618Z" fill="#E0E0E0" stroke="#2E3436" stroke-width="2" stroke-miterlimit="10" stroke-linecap="round" stroke-linejoin="round"/>
<path d="M291.473 54.7284L299.49 37.0865" stroke="#2E3436" stroke-width="2" stroke-miterlimit="10" stroke-linecap="round" stroke-linejoin="round"/>
<path d="M292.428 43.8996C293.518 43.8996 294.402 42.514 294.402 40.8047C294.402 39.0954 293.518 37.7097 292.428 37.7097C291.338 37.7097 290.454 39.0954 290.454 40.8047C290.454 42.514 291.338 43.8996 292.428 43.8996Z" stroke="#2E3436" stroke-width="2" stroke-miterlimit="10" stroke-linecap="round" stroke-linejoin="round"/>
<path d="M298.535 54.1054C299.625 54.1054 300.508 52.7198 300.508 51.0105C300.508 49.3012 299.625 47.9155 298.535 47.9155C297.445 47.9155 296.561 49.3012 296.561 51.0105C296.561 52.7198 297.445 54.1054 298.535 54.1054Z" stroke="#2E3436" stroke-width="2" stroke-miterlimit="10" stroke-linecap="round" stroke-linejoin="round"/>
<path d="M295.482 60.6052C303.599 60.6052 310.179 54.0248 310.179 45.9073C310.179 37.7899 303.599 31.2095 295.482 31.2095C287.364 31.2095 280.784 37.7899 280.784 45.9073C280.784 54.0248 287.364 60.6052 295.482 60.6052Z" stroke="#2E3436" stroke-width="2" stroke-miterlimit="10" stroke-linecap="round" stroke-linejoin="round"/>
<path d="M284.691 43.6523C284.19 45.8315 284.474 48.1825 285.48 50.1797" stroke="#2E3436" stroke-width="2" stroke-miterlimit="10" stroke-linecap="round" stroke-linejoin="round"/>
<path d="M313.677 87.2535L316.844 87.343" stroke="#2E3436" stroke-width="2" stroke-miterlimit="10" stroke-linecap="round" stroke-linejoin="round"/>
<path d="M236.426 90.9335H196.663C192.137 90.9335 188.467 87.264 188.467 82.7375C188.467 78.2111 192.137 74.5415 196.663 74.5415H236.426C240.953 74.5415 244.622 78.2111 244.622 82.7375C244.622 87.264 240.953 90.9335 236.426 90.9335Z" fill="#FC7EE4" stroke="#2E3436" stroke-width="2" stroke-miterlimit="10" stroke-linecap="round" stroke-linejoin="round"/>
<path d="M236.426 107.326H196.662C192.136 107.326 188.466 103.657 188.466 99.1302C188.466 94.6038 192.136 90.9342 196.662 90.9342H236.426C240.952 90.9342 244.622 94.6038 244.622 99.1302C244.622 103.657 240.953 107.326 236.426 107.326Z" fill="#FC7EE4" stroke="#2E3436" stroke-width="2" stroke-miterlimit="10" stroke-linecap="round" stroke-linejoin="round"/>
<path d="M232.312 149.221C236.928 149.221 240.671 145.479 240.671 140.862V119.91C240.671 119.231 240.121 118.681 239.442 118.681H225.182C224.504 118.681 223.953 119.231 223.953 119.91V140.862C223.954 145.479 227.696 149.221 232.312 149.221Z" fill="#FC7EE4" stroke="#2E3436" stroke-width="2" stroke-miterlimit="10" stroke-linecap="round" stroke-linejoin="round"/>
<path d="M232.626 123.336L240.641 131.352V118.751H232.626V123.336Z" fill="#2E3436" stroke="#2E3436" stroke-width="2" stroke-miterlimit="10" stroke-linecap="round" stroke-linejoin="round"/>
<path d="M236.426 123.719H196.662C192.136 123.719 188.466 120.049 188.466 115.523C188.466 110.996 192.136 107.327 196.662 107.327H236.426C240.952 107.327 244.622 110.996 244.622 115.523C244.622 120.049 240.953 123.719 236.426 123.719Z" fill="#FC7EE4" stroke="#2E3436" stroke-width="2" stroke-miterlimit="10" stroke-linecap="round" stroke-linejoin="round"/>
<path d="M193.088 110.326H190.478C189.228 111.765 188.466 113.639 188.466 115.694C188.466 117.749 189.228 119.623 190.478 121.062H193.088C197.117 121.062 200.382 118.659 200.382 115.694C200.382 112.729 197.117 110.326 193.088 110.326Z" fill="#FC7EE4" stroke="#2E3436" stroke-width="2" stroke-miterlimit="10" stroke-linecap="round" stroke-linejoin="round"/>
<path d="M193.088 93.7621H190.478C189.228 95.201 188.466 97.0747 188.466 99.1302C188.466 101.186 189.228 103.059 190.478 104.498H193.088C197.117 104.498 200.382 102.095 200.382 99.1302C200.382 96.1651 197.117 93.7621 193.088 93.7621Z" fill="#FC7EE4" stroke="#2E3436" stroke-width="2" stroke-miterlimit="10" stroke-linecap="round" stroke-linejoin="round"/>
<path d="M193.088 77.3695H190.478C189.228 78.8084 188.466 80.6821 188.466 82.7376C188.466 84.7931 189.228 86.6668 190.478 88.1057H193.088C197.117 88.1057 200.382 85.7021 200.382 82.7376C200.382 79.7731 197.117 77.3695 193.088 77.3695Z" fill="#FC7EE4" stroke="#2E3436" stroke-width="2" stroke-miterlimit="10" stroke-linecap="round" stroke-linejoin="round"/>
<path d="M274.072 151.924H253.134C252.495 151.924 251.855 151.942 251.218 151.996C225.298 154.209 204.945 176.057 204.945 202.549C204.945 228.236 224.077 249.453 248.869 252.731L248.855 253.144L253.96 253.146C254.495 253.163 255.032 253.174 255.57 253.174C256.103 253.174 256.633 253.163 257.162 253.146L382.576 253.174C378.059 196.495 331.206 151.924 274.072 151.924Z" fill="#EDE73B" stroke="#2E3436" stroke-width="2" stroke-miterlimit="10" stroke-linecap="round" stroke-linejoin="round"/>
<path d="M436.555 415.176V422.287L436.495 422.473V422.471C432.194 422.471 432.357 419.123 428.056 419.123C423.758 419.123 423.758 422.473 419.461 422.473C415.162 422.473 415.162 419.123 410.863 419.123C406.565 419.123 406.565 422.473 402.267 422.473C397.967 422.473 397.967 419.123 393.666 419.123C389.368 419.123 389.368 422.473 385.071 422.473C380.772 422.473 380.772 419.123 376.472 419.123C372.175 419.123 372.175 422.473 367.877 422.473C363.576 422.473 363.576 419.123 359.276 419.123C354.978 419.123 354.978 422.473 350.68 422.473C346.381 422.473 346.381 419.123 342.082 419.123C337.785 419.123 337.785 422.473 333.487 422.473V420.798L333.878 415.176L333.487 420.798C333.487 398.626 351.461 380.652 373.633 380.652H436.719L436.495 422.472" fill="white"/>
<path d="M436.555 415.176V422.287L436.495 422.473V422.471C432.194 422.471 432.357 419.123 428.056 419.123C423.758 419.123 423.758 422.473 419.461 422.473C415.162 422.473 415.162 419.123 410.863 419.123C406.565 419.123 406.565 422.473 402.267 422.473C397.967 422.473 397.967 419.123 393.666 419.123C389.368 419.123 389.368 422.473 385.071 422.473C380.772 422.473 380.772 419.123 376.472 419.123C372.175 419.123 372.175 422.473 367.877 422.473C363.576 422.473 363.576 419.123 359.276 419.123C354.978 419.123 354.978 422.473 350.68 422.473C346.381 422.473 346.381 419.123 342.082 419.123C337.785 419.123 337.785 422.473 333.487 422.473V420.798L333.878 415.176L333.487 420.798C333.487 398.626 351.461 380.652 373.633 380.652H436.719L436.495 422.472" stroke="#2E3436" stroke-width="2" stroke-miterlimit="10" stroke-linecap="round" stroke-linejoin="round"/>
<path d="M300.685 407.202L295.775 422.471L309.221 380.652H232.913C210.741 380.652 192.767 398.626 192.767 420.798V422.473C197.065 422.473 197.065 419.123 201.362 419.123C205.661 419.123 205.661 422.473 209.96 422.473C214.258 422.473 214.258 419.123 218.556 419.123C222.857 419.123 222.857 422.473 227.158 422.473C231.456 422.473 231.456 419.123 235.753 419.123C240.052 419.123 240.052 422.473 244.351 422.473C248.649 422.473 248.649 419.123 252.947 419.123C257.247 419.123 257.247 422.473 261.548 422.473C265.846 422.473 265.846 419.123 270.143 419.123C274.442 419.123 274.442 422.473 278.742 422.473C283.039 422.473 283.039 419.123 287.337 419.123C291.637 419.123 291.475 422.47 295.776 422.47V422.472" fill="white"/>
<path d="M300.685 407.202L295.775 422.471L309.221 380.652H232.913C210.741 380.652 192.767 398.626 192.767 420.798V422.473C197.065 422.473 197.065 419.123 201.362 419.123C205.661 419.123 205.661 422.473 209.96 422.473C214.258 422.473 214.258 419.123 218.556 419.123C222.857 419.123 222.857 422.473 227.158 422.473C231.456 422.473 231.456 419.123 235.753 419.123C240.052 419.123 240.052 422.473 244.351 422.473C248.649 422.473 248.649 419.123 252.947 419.123C257.247 419.123 257.247 422.473 261.548 422.473C265.846 422.473 265.846 419.123 270.143 419.123C274.442 419.123 274.442 422.473 278.742 422.473C283.039 422.473 283.039 419.123 287.337 419.123C291.637 419.123 291.475 422.47 295.776 422.47V422.472" stroke="#2E3436" stroke-width="2" stroke-miterlimit="10" stroke-linecap="round" stroke-linejoin="round"/>
<path d="M227.254 382.679L238.314 396.557C239.104 397.548 240.269 398.065 241.445 398.065C242.319 398.065 243.199 397.779 243.936 397.193C245.665 395.816 245.948 393.298 244.572 391.569L235.87 380.651H232.913C230.733 380.651 228.594 380.831 226.509 381.166C226.642 381.702 226.887 382.219 227.254 382.679Z" fill="white" stroke="#2E3436" stroke-width="2" stroke-miterlimit="10" stroke-linecap="round" stroke-linejoin="round"/>
<path d="M303.321 397.814C299.327 397.435 295.962 394.897 294.406 391.38L294.454 391.452C293.73 389.738 292.033 388.535 290.055 388.535H287.976C283.622 388.535 280.093 385.005 280.093 380.651H309.222L303.321 397.814Z" fill="#E0E0E0" stroke="#2E3436" stroke-width="2" stroke-miterlimit="10" stroke-linecap="round" stroke-linejoin="round"/>
<path d="M256.439 380.652H246.982C247.066 381.369 247.34 382.073 247.823 382.68L258.883 396.558C259.672 397.549 260.838 398.065 262.014 398.065C262.889 398.065 263.769 397.78 264.506 397.193C266.234 395.816 266.518 393.299 265.141 391.57L256.439 380.652Z" fill="white" stroke="#2E3436" stroke-width="2" stroke-miterlimit="10" stroke-linecap="round" stroke-linejoin="round"/>
<path d="M193.958 411.305H280.715H298.927" fill="white"/>
<path d="M193.958 411.305H280.715H298.927" stroke="#2E3436" stroke-width="2" stroke-miterlimit="10" stroke-linecap="round" stroke-linejoin="round"/>
<path d="M246.121 380.652H236.663C236.746 381.369 237.021 382.073 237.504 382.68L248.564 396.558C249.354 397.549 250.519 398.065 251.696 398.065C252.569 398.065 253.45 397.78 254.187 397.193C255.915 395.816 256.199 393.299 254.822 391.57L246.121 380.652Z" fill="white" stroke="#2E3436" stroke-width="2" stroke-miterlimit="10" stroke-linecap="round" stroke-linejoin="round"/>
<path d="M438.704 369.127L382.575 253.174H351.187H323.944H292.555L230.848 380.652H309.221L337.565 294.551L365.91 380.652L438.704 369.127Z" fill="#47C3F1" stroke="#2E3436" stroke-width="2" stroke-miterlimit="10" stroke-linecap="round" stroke-linejoin="round"/>
<path d="M157.001 350.208C171.456 356.851 187.542 360.556 204.493 360.556C265.215 360.556 314.834 313.022 318.171 253.134L318.349 253.144H248.887V253.145C246.176 270.416 242.699 277.087 225.523 284.463C218.838 274.541 213.801 268.015 200.937 268.015C188.046 268.015 176.688 274.571 170.008 284.528C169.288 284.377 162.242 284.296 161.477 284.296C155.489 284.296 150.636 289.15 150.636 295.137C150.636 299.688 153.443 303.578 157.417 305.185C157.417 305.202 157.417 305.169 157.417 305.185C157.417 305.185 157.417 305.185 157.416 305.235C152.154 305.978 148.119 311.352 148.119 316.82C148.119 322.214 152.272 326.851 157.203 328.028C151.94 328.771 147.978 333.753 147.978 339.22C147.978 344.614 152.372 348.429 157.001 350.208Z" fill="#FC7EE4" stroke="#2E3436" stroke-width="2" stroke-miterlimit="10" stroke-linecap="round" stroke-linejoin="round"/>
<path d="M156.392 304.835C162.797 307.463 169.767 308.706 176.686 308.455" stroke="#2E3436" stroke-width="2" stroke-miterlimit="10" stroke-linecap="round" stroke-linejoin="round"/>
<path d="M157.031 327.998C162.95 330.164 169.539 331.256 175.839 331.028" stroke="#2E3436" stroke-width="2" stroke-miterlimit="10" stroke-linecap="round" stroke-linejoin="round"/>
<path d="M142.238 249.475C171.149 249.475 194.586 226.038 194.586 197.127C194.586 168.216 171.149 144.779 142.238 144.779C113.327 144.779 89.8898 168.216 89.8898 197.127C89.8898 226.038 113.327 249.475 142.238 249.475Z" fill="#FC7EE4" stroke="#2E3436" stroke-width="2" stroke-miterlimit="10" stroke-linecap="round" stroke-linejoin="round"/>
<path d="M318.349 360.556H230.848V380.652H318.349V360.556Z" fill="#47C3F1" stroke="#2E3436" stroke-width="2" stroke-miterlimit="10" stroke-linecap="round" stroke-linejoin="round"/>
<path d="M442.203 360.556H354.702V380.652H442.203V360.556Z" fill="#47C3F1" stroke="#2E3436" stroke-width="2" stroke-miterlimit="10" stroke-linecap="round" stroke-linejoin="round"/>
<path d="M367.974 382.68L379.033 396.557C379.823 397.548 380.988 398.065 382.164 398.065C383.039 398.065 383.918 397.779 384.656 397.193C386.384 395.816 386.668 393.299 385.29 391.57L376.589 380.651H373.632C371.451 380.651 369.313 380.831 367.227 381.166C367.361 381.703 367.606 382.22 367.974 382.68Z" fill="white" stroke="#2E3436" stroke-width="2" stroke-miterlimit="10" stroke-linecap="round" stroke-linejoin="round"/>
<path d="M334.677 411.305H436.133" stroke="#2E3436" stroke-width="2" stroke-miterlimit="10" stroke-linecap="round" stroke-linejoin="round"/>
<path d="M397.159 380.652H387.702C387.785 381.369 388.059 382.073 388.543 382.68L399.602 396.558C400.392 397.549 401.558 398.065 402.734 398.065C403.608 398.065 404.488 397.78 405.225 397.193C406.953 395.816 407.237 393.299 405.861 391.57L397.159 380.652Z" fill="white" stroke="#2E3436" stroke-width="2" stroke-miterlimit="10" stroke-linecap="round" stroke-linejoin="round"/>
<path d="M386.84 380.652H377.383C377.466 381.369 377.741 382.073 378.224 382.68L389.283 396.558C390.073 397.549 391.239 398.065 392.415 398.065C393.289 398.065 394.169 397.78 394.906 397.193C396.634 395.816 396.919 393.299 395.541 391.57L386.84 380.652Z" fill="white" stroke="#2E3436" stroke-width="2" stroke-miterlimit="10" stroke-linecap="round" stroke-linejoin="round"/>
<path d="M436.555 380.652H415.502C415.502 385.006 419.032 388.535 423.386 388.535H425.466C427.444 388.535 429.14 389.739 429.864 391.453L429.816 391.381C431.08 394.237 433.537 396.447 436.555 397.38V380.652H436.555Z" fill="#E0E0E0" stroke="#2E3436" stroke-width="2" stroke-miterlimit="10" stroke-linecap="round" stroke-linejoin="round"/>
<path d="M350.906 283.91L375.42 349.915" stroke="#2E3436" stroke-width="2" stroke-miterlimit="10" stroke-linecap="round" stroke-linejoin="round"/>
<path d="M142.241 230.707C157.063 230.707 169.078 215.413 169.078 196.547C169.078 177.681 157.063 162.387 142.241 162.387C127.419 162.387 115.403 177.681 115.403 196.547C115.403 215.413 127.419 230.707 142.241 230.707Z" fill="white" stroke="#2E3436" stroke-width="2" stroke-miterlimit="10" stroke-linecap="round" stroke-linejoin="round"/>
<path d="M144.432 198.418C144.432 185.629 139.711 173.95 131.929 165.002C122.225 170.146 115.401 182.331 115.401 196.546C115.401 211.82 123.277 224.75 134.142 229.121C140.598 220.582 144.432 209.949 144.432 198.418Z" fill="#2E3436" stroke="#2E3436" stroke-width="2" stroke-miterlimit="10" stroke-linecap="round" stroke-linejoin="round"/>
<path d="M231.719 211.614H204.961C201.875 211.614 199.374 209.112 199.374 206.027V171.628C199.374 168.542 201.875 166.041 204.961 166.041H231.719C234.805 166.041 237.307 168.542 237.307 171.628V206.027C237.307 209.112 234.805 211.614 231.719 211.614Z" fill="#FC7EE4" stroke="#2E3436" stroke-width="2" stroke-miterlimit="10" stroke-linecap="round" stroke-linejoin="round"/>
<path d="M218.341 186.103C219.156 186.103 219.817 184.718 219.817 183.009C219.817 181.301 219.156 179.915 218.341 179.915C217.525 179.915 216.865 181.301 216.865 183.009C216.865 184.718 217.525 186.103 218.341 186.103Z" fill="#2E3436" stroke="#2E3436" stroke-width="2" stroke-miterlimit="10" stroke-linecap="round" stroke-linejoin="round"/>
<path d="M210.321 186.103C211.137 186.103 211.798 184.718 211.798 183.009C211.798 181.301 211.137 179.915 210.321 179.915C209.506 179.915 208.845 181.301 208.845 183.009C208.845 184.718 209.506 186.103 210.321 186.103Z" fill="#2E3436" stroke="#2E3436" stroke-width="2" stroke-miterlimit="10" stroke-linecap="round" stroke-linejoin="round"/>
<path d="M232.625 194.167C233.74 194.639 234.985 194.862 236.292 194.766C240.215 194.477 243.388 191.208 243.568 187.278C243.776 182.756 240.171 179.024 235.695 179.024" fill="#FC7EE4"/>
<path d="M232.625 194.167C233.74 194.639 234.985 194.862 236.292 194.766C240.215 194.477 243.388 191.208 243.568 187.278C243.776 182.756 240.171 179.024 235.695 179.024" stroke="#2E3436" stroke-width="2" stroke-miterlimit="10" stroke-linecap="round" stroke-linejoin="round"/>
<path d="M231.673 166.04H205.008C201.896 166.04 199.374 168.563 199.374 171.674V172.755H228.043V182.014L232.624 179.644C233.568 179.245 234.605 179.024 235.694 179.024H237.307V177.172V177.056V171.675C237.307 168.563 234.785 166.04 231.673 166.04Z" fill="#2E3436" stroke="#2E3436" stroke-width="2" stroke-miterlimit="10" stroke-linecap="round" stroke-linejoin="round"/>
<path d="M214.328 191.328C215.389 191.328 216.249 190.468 216.249 189.407C216.249 188.346 215.389 187.485 214.328 187.485C213.267 187.485 212.407 188.346 212.407 189.407C212.407 190.468 213.267 191.328 214.328 191.328Z" fill="#2E3436" stroke="#2E3436" stroke-width="2" stroke-miterlimit="10" stroke-linecap="round" stroke-linejoin="round"/>
<path d="M210.32 194.353C210.32 194.353 214.327 198.167 218.34 194.353" stroke="#2E3436" stroke-width="2" stroke-miterlimit="10" stroke-linecap="round" stroke-linejoin="round"/>
<path d="M150.904 125.807C111.515 121.021 75.7047 149.072 70.9186 188.461C66.1325 227.849 94.1833 263.66 133.572 268.446C142.968 269.588 152.159 268.857 160.776 266.553L175.465 294.179C182.417 292.35 189.212 289.932 195.755 286.955L180.366 258.015C198.091 246.9 210.837 228.18 213.557 205.792C218.343 166.404 190.292 130.593 150.904 125.807ZM191.206 203.076C187.92 230.121 163.333 249.381 136.288 246.095C109.244 242.809 89.9839 218.221 93.2695 191.177C96.5558 164.132 121.143 144.872 148.188 148.158C175.232 151.444 194.493 176.032 191.206 203.076Z" fill="#0F775E" stroke="#2E3436" stroke-width="2" stroke-miterlimit="10" stroke-linecap="round" stroke-linejoin="round"/>
<path d="M184.867 291.312L207.382 282.321" stroke="#2E3436" stroke-width="2" stroke-miterlimit="10" stroke-linecap="round" stroke-linejoin="round"/>
<path d="M318.349 231.287L340.267 253.204H318.17L318.349 231.287Z" fill="#2E3436" stroke="#2E3436" stroke-width="2" stroke-miterlimit="10" stroke-linecap="round" stroke-linejoin="round"/>
<path d="M318.35 307.389L310.558 331.058" stroke="#2E3436" stroke-width="2" stroke-miterlimit="10" stroke-linecap="round" stroke-linejoin="round"/>
<path d="M248.887 253.144V197.127" stroke="#2E3436" stroke-width="2" stroke-miterlimit="10" stroke-linecap="round" stroke-linejoin="round"/>
<path d="M318.35 249.474V197.127" stroke="#2E3436" stroke-width="2" stroke-miterlimit="10" stroke-linecap="round" stroke-linejoin="round"/>
<path d="M166.006 226.19C162.969 229.991 158.859 232.926 154.278 234.566" stroke="#2E3436" stroke-width="2" stroke-miterlimit="10" stroke-linecap="round" stroke-linejoin="round"/>
<path d="M352.898 253.167L382.575 253.174C381.999 245.934 380.727 238.894 378.835 232.117L352.898 253.167Z" fill="#FC7EE4" stroke="#2E3436" stroke-width="2" stroke-miterlimit="10" stroke-linecap="round" stroke-linejoin="round"/>
<path d="M326.273 205.669C325.235 213.927 327.481 222.552 332.415 229.254" stroke="#2E3436" stroke-width="2" stroke-miterlimit="10" stroke-linecap="round" stroke-linejoin="round"/>
<path d="M367.737 232.01L350.906 246.46" stroke="#2E3436" stroke-width="2" stroke-miterlimit="10" stroke-linecap="round" stroke-linejoin="round"/>
<path d="M142.238 136.768C134.492 136.768 127.081 138.195 120.25 140.801C97.0325 149.66 80.5396 172.137 80.5396 198.467" stroke="#2E3436" stroke-width="2" stroke-miterlimit="10" stroke-linecap="round" stroke-linejoin="round"/>
<path d="M81.3511 208.255C82.4012 208.255 83.2524 207.404 83.2524 206.354C83.2524 205.304 82.4012 204.452 81.3511 204.452C80.3011 204.452 79.4498 205.304 79.4498 206.354C79.4498 207.404 80.3011 208.255 81.3511 208.255Z" fill="#2E3436" stroke="#2E3436" stroke-width="2" stroke-miterlimit="10" stroke-linecap="round" stroke-linejoin="round"/>
<path d="M450.247 222.443H449.247V223.443V241.888C449.247 245.554 446.016 248.786 442.35 248.786C438.683 248.786 435.452 245.554 435.452 241.888V223.444V222.444H434.452H423.905H422.905V223.444V241.888C422.905 245.555 419.674 248.786 416.008 248.786C412.341 248.786 409.11 245.555 409.11 241.888V223.444V222.444H408.11H402.836C401.482 222.444 400.43 221.996 399.72 221.286C399.01 220.576 398.563 219.525 398.563 218.17V166.489H459.794V218.17C459.794 219.524 459.347 220.576 458.637 221.286C457.927 221.996 456.876 222.443 455.521 222.443H450.247Z" fill="#7BD527" stroke="#2E3436" stroke-width="2"/>
<path d="M480.863 210.272C480.863 213.939 477.632 217.17 473.966 217.17C470.298 217.17 467.068 213.939 467.068 210.272V173.383C467.068 169.738 470.3 166.489 473.966 166.489C477.631 166.489 480.863 169.738 480.863 173.383V210.272Z" fill="#7BD527" stroke="#2E3436" stroke-width="2"/>
<path d="M391.289 210.272C391.289 213.939 388.058 217.17 384.391 217.17C380.725 217.17 377.495 213.939 377.494 210.272V173.383C377.494 169.738 380.726 166.489 384.391 166.489C388.058 166.489 391.289 169.738 391.289 173.383V210.272Z" fill="#7BD527" stroke="#2E3436" stroke-width="2"/>
<path d="M429.256 128.622L429.254 129.622C434.354 129.632 438.901 130.653 442.94 132.675L443.585 132.998L444.095 132.489L444.42 132.164L444.421 132.163L451.493 125.114L451.497 125.111C452.16 124.444 453.093 124.444 453.756 125.111L453.758 125.113C454.423 125.778 454.423 126.71 453.759 127.374L453.758 127.375L446.916 134.218L446.054 135.08L447.068 135.756C449.191 137.174 451.121 138.912 452.801 140.903L452.801 140.903C456.824 145.671 459.395 151.884 459.748 158.62L459.748 158.625C459.754 158.716 459.756 158.738 459.757 158.755C459.759 158.769 459.76 158.78 459.763 158.831C459.768 158.958 459.773 159.085 459.777 159.212H398.579C398.583 159.085 398.589 158.958 398.595 158.831L398.595 158.828C398.596 158.808 398.597 158.786 398.6 158.748L398.6 158.742C398.603 158.71 398.606 158.665 398.608 158.618C398.962 151.883 401.533 145.671 405.555 140.903C407.236 138.911 409.165 137.174 411.288 135.756L412.302 135.079L411.44 134.217L404.599 127.374L404.598 127.374C403.934 126.71 403.934 125.778 404.599 125.113L404.601 125.111C405.264 124.444 406.196 124.443 406.86 125.111L406.86 125.111L406.864 125.114L413.936 132.164L413.937 132.164L414.264 132.49L414.774 132.998L415.417 132.675C419.457 130.652 424.003 129.632 429.103 129.622L429.101 128.622M429.256 128.622V129.622C429.236 129.622 429.216 129.622 429.205 129.622L429.203 129.622L429.179 129.621H429.178L429.154 129.622L429.152 129.622C429.141 129.622 429.122 129.622 429.101 129.622V128.622M429.256 128.622C434.492 128.632 439.194 129.681 443.388 131.781H414.969C419.163 129.681 423.865 128.632 429.101 128.622M429.256 128.622C429.243 128.622 429.23 128.622 429.217 128.622C429.205 128.622 429.192 128.621 429.179 128.621H429.178C429.165 128.621 429.152 128.622 429.14 128.622C429.127 128.622 429.114 128.622 429.101 128.622M411.047 147.054C411.047 149.788 413.264 152.004 415.998 152.004C418.732 152.004 420.948 149.788 420.948 147.054C420.948 144.319 418.732 142.103 415.998 142.103C413.264 142.103 411.047 144.319 411.047 147.054ZM437.408 147.054C437.408 149.788 439.625 152.004 442.359 152.004C445.093 152.004 447.31 149.788 447.31 147.054C447.31 144.319 445.093 142.103 442.359 142.103C439.625 142.103 437.408 144.319 437.408 147.054Z" fill="#7BD527" stroke="#2E3436" stroke-width="2"/>
</svg>
