<svg width="587" height="497" viewBox="0 0 587 497" fill="none" xmlns="http://www.w3.org/2000/svg">
<path d="M194.585 318.001H183.194V453.657H194.585V318.001Z" fill="#DD7800" stroke="#2E3436" stroke-width="2" stroke-miterlimit="10" stroke-linecap="round" stroke-linejoin="round"/>
<path d="M247.598 443.669H130.181V453.657H247.598V443.669Z" fill="#DD7800" stroke="#2E3436" stroke-width="2" stroke-miterlimit="10" stroke-linecap="round" stroke-linejoin="round"/>
<path d="M232.036 197.999L241.343 492.49L253.033 494.055L243.726 197.999" fill="#DD7800"/>
<path d="M232.036 197.999L241.343 492.49L253.033 494.055L243.726 197.999" stroke="#2E3436" stroke-width="2" stroke-miterlimit="10" stroke-linecap="round" stroke-linejoin="round"/>
<path d="M145.742 197.999L136.361 494.055H124.745L134.052 197.999" fill="#DD7800"/>
<path d="M145.742 197.999L136.361 494.055H124.745L134.052 197.999" stroke="#2E3436" stroke-width="2" stroke-miterlimit="10" stroke-linecap="round" stroke-linejoin="round"/>
<path d="M194.585 168.035H183.194V303.691H194.585V168.035Z" fill="#DD7800" stroke="#2E3436" stroke-width="2" stroke-miterlimit="10" stroke-linecap="round" stroke-linejoin="round"/>
<path d="M247.598 322.772H130.181L134.052 197.999H243.726L247.598 322.772Z" fill="#0F775E" stroke="#2E3436" stroke-width="2" stroke-miterlimit="10" stroke-linecap="round" stroke-linejoin="round"/>
<path d="M278.496 429.582C268.892 445.383 253.107 455.669 236.727 464.092C229.877 467.669 221.835 472.589 221.984 480.266C222.059 484.962 225.409 489.061 229.579 491.297C233.674 493.459 238.514 494.055 243.13 494.204C271.423 495.471 300.386 484.962 326.967 475.197C328.307 479.744 329.871 483.844 331.881 488.092C332.998 490.477 334.264 492.863 336.423 494.428C337.838 495.471 339.625 495.993 341.337 495.919C343.124 495.844 344.985 495.173 346.177 493.831C347.442 492.49 347.964 490.105 348.113 487.347L353.324 429.954L278.496 429.582Z" fill="#FF0000" stroke="#2E3436" stroke-width="2" stroke-miterlimit="10" stroke-linecap="round" stroke-linejoin="round"/>
<path d="M278.496 430.327C272.838 439.644 265.02 446.725 256.16 452.762C264.126 459.247 274.327 463.123 285.421 463.123C306.045 463.123 323.468 449.706 329.573 431.147L278.496 430.327Z" fill="#EDE73B" stroke="#2E3436" stroke-width="2" stroke-miterlimit="10" stroke-linecap="round" stroke-linejoin="round"/>
<path d="M409.539 430.029L414.751 487.421C414.9 490.179 415.421 492.639 416.686 493.906C417.952 495.173 419.739 495.918 421.526 495.993C423.313 496.068 425.026 495.546 426.44 494.502C428.599 493.012 429.865 490.552 430.982 488.167C432.992 483.918 434.481 479.744 435.896 475.272C462.477 485.036 491.44 495.546 519.733 494.279C524.424 494.055 529.189 493.533 533.284 491.372C537.379 489.21 540.804 485.036 540.879 480.34C540.953 472.589 532.987 467.669 526.137 464.166C509.756 455.669 493.972 444.638 484.367 428.836L409.539 430.029Z" fill="#FF0000" stroke="#2E3436" stroke-width="2" stroke-miterlimit="10" stroke-linecap="round" stroke-linejoin="round"/>
<path d="M484.293 430.327C489.951 439.644 497.769 446.725 506.63 452.762C498.663 459.247 488.462 463.123 477.368 463.123C456.744 463.123 439.321 449.706 433.216 431.147L484.293 430.327Z" fill="#EDE73B" stroke="#2E3436" stroke-width="2" stroke-miterlimit="10" stroke-linecap="round" stroke-linejoin="round"/>
<path d="M433.663 118.841H435.077L313.714 119.885V174.892H341.263H342.231L279.763 402.45H274.253L266.584 430.401H368.067L370.971 402.45H364.27L376.332 272.758C376.332 269.702 378.863 267.466 381.842 267.466C384.82 267.466 387.426 269.702 387.426 272.758L399.488 402.45H392.787L395.69 430.401H497.174L489.505 402.45H483.995L427.557 196.582L422.197 176.979" fill="#47C3F1"/>
<path d="M433.663 118.841H435.077L313.714 119.885V174.892H341.263H342.231L279.763 402.45H274.253L266.584 430.401H368.067L370.971 402.45H364.27L376.332 272.758C376.332 269.702 378.863 267.466 381.842 267.466C384.82 267.466 387.426 269.702 387.426 272.758L399.488 402.45H392.787L395.69 430.401H497.174L489.505 402.45H483.995L427.557 196.582L422.197 176.979" stroke="#2E3436" stroke-width="2" stroke-miterlimit="10" stroke-linecap="round" stroke-linejoin="round"/>
<path d="M341.784 176.905H313.714V119.81H349.677V182.271C349.677 182.271 349.677 207.986 333.594 207.986L333.296 207.837C333.594 206.645 336.424 196.508 336.424 196.508L341.784 176.905Z" fill="white" stroke="#2E3436" stroke-width="2" stroke-miterlimit="10" stroke-linecap="round" stroke-linejoin="round"/>
<path d="M258.468 11.5096C259.734 7.26102 257.5 2.71433 253.405 1.37268C252.586 1.07454 251.767 1 250.948 1H250.501C246.555 1.14907 241.715 2.49072 238.439 5.7703C235.61 8.60266 233.525 12.6276 232.185 16.6525L232.483 15.7581L195.478 131.512V131.289C194.362 134.643 193.766 138.221 193.691 141.947C193.468 161.178 209.029 176.905 227.494 176.905H313.565V119.661H269.785L296.292 36.7027C297.93 31.6343 294.654 26.0441 289.591 25.6714C289.367 25.6714 289.144 25.6714 288.921 25.6714H288.325H286.91L291.229 12.2549L291.154 12.4785C291.378 11.7332 291.452 10.9878 291.452 10.2425C291.452 5.54669 287.804 1.67082 283.262 1.67082C278.72 1.67082 276.263 5.7703 275.072 10.2425C275.072 5.54669 271.423 1.67082 266.882 1.67082C262.34 1.67082 259.883 5.7703 258.691 10.2425" fill="#EDE73B"/>
<path d="M258.468 11.5096C259.734 7.26102 257.5 2.71433 253.405 1.37268C252.586 1.07454 251.767 1 250.948 1H250.501C246.555 1.14907 241.715 2.49072 238.439 5.7703C235.61 8.60266 233.525 12.6276 232.185 16.6525L232.483 15.7581L195.478 131.512V131.289C194.362 134.643 193.766 138.221 193.691 141.947C193.468 161.178 209.029 176.905 227.494 176.905H313.565V119.661H269.785L296.292 36.7027C297.93 31.6343 294.654 26.0441 289.591 25.6714C289.367 25.6714 289.144 25.6714 288.921 25.6714H288.325H286.91L291.229 12.2549L291.154 12.4785C291.378 11.7332 291.452 10.9878 291.452 10.2425C291.452 5.54669 287.804 1.67082 283.262 1.67082C278.72 1.67082 276.263 5.7703 275.072 10.2425C275.072 5.54669 271.423 1.67082 266.882 1.67082C262.34 1.67082 259.883 5.7703 258.691 10.2425" stroke="#2E3436" stroke-width="2" stroke-miterlimit="10" stroke-linecap="round" stroke-linejoin="round"/>
<path d="M258.468 11.5095L251.395 35.0629C250.129 39.3114 245.736 41.6966 241.641 40.3549" stroke="#2E3436" stroke-width="2" stroke-miterlimit="10" stroke-linecap="round" stroke-linejoin="round"/>
<path d="M236.578 30.2178L241.343 14.4907" stroke="#2E3436" stroke-width="2" stroke-miterlimit="10" stroke-linecap="round" stroke-linejoin="round"/>
<path d="M447.586 177.278C460.095 179.365 469.55 190.172 469.55 203.216C469.55 217.751 457.34 229.9 442.821 229.9H440.662H436.641L441.257 248.534H407.007C402.168 248.534 397.998 252.335 397.849 257.18C397.775 262.174 401.721 266.199 406.71 266.199H412.666C407.752 266.199 403.731 270.224 403.806 275.218C403.88 280.063 408.05 283.864 412.964 283.864H418.846C413.932 283.864 409.911 287.889 409.986 292.883C410.06 297.728 414.23 301.529 419.144 301.529H434.928C485.558 301.529 527.7 260.013 527.254 209.328C527.03 181.228 514.075 156.184 493.972 139.563L493.674 139.339C486.899 133.823 479.304 129.202 471.114 125.773L463.296 122.866L447.511 176.98" fill="#EDE73B"/>
<path d="M447.586 177.278C460.095 179.365 469.55 190.172 469.55 203.216C469.55 217.751 457.34 229.9 442.821 229.9H440.662H436.641L441.257 248.534H407.007C402.168 248.534 397.998 252.335 397.849 257.18C397.775 262.174 401.721 266.199 406.71 266.199H412.666C407.752 266.199 403.731 270.224 403.806 275.218C403.88 280.063 408.05 283.864 412.964 283.864H418.846C413.932 283.864 409.911 287.889 409.986 292.883C410.06 297.728 414.23 301.529 419.144 301.529H434.928C485.558 301.529 527.7 260.013 527.254 209.328C527.03 181.228 514.075 156.184 493.972 139.563L493.674 139.339C486.899 133.823 479.304 129.202 471.114 125.773L463.296 122.866L447.511 176.98" stroke="#2E3436" stroke-width="2" stroke-miterlimit="10" stroke-linecap="round" stroke-linejoin="round"/>
<path d="M406.784 266.273H439.247" stroke="#2E3436" stroke-width="2" stroke-miterlimit="10" stroke-linecap="round" stroke-linejoin="round"/>
<path d="M398.445 402.45H483.995" stroke="#2E3436" stroke-width="2" stroke-miterlimit="10" stroke-linecap="round" stroke-linejoin="round"/>
<path d="M365.312 402.45H279.762" stroke="#2E3436" stroke-width="2" stroke-miterlimit="10" stroke-linecap="round" stroke-linejoin="round"/>
<path d="M251.395 35.063C250.874 36.7028 250.725 37.5227 250.576 39.237C250.576 43.9328 254.224 47.8086 258.766 47.8086C262.34 47.8086 265.393 45.4235 266.51 42.1439" stroke="#2E3436" stroke-width="2" stroke-miterlimit="10" stroke-linecap="round" stroke-linejoin="round"/>
<path d="M270.53 25.6714L275.221 10.168" stroke="#2E3436" stroke-width="2" stroke-miterlimit="10" stroke-linecap="round" stroke-linejoin="round"/>
<path d="M261.372 34.1687C261.372 38.8645 265.02 42.7403 269.562 42.7403H288.399" stroke="#2E3436" stroke-width="2" stroke-miterlimit="10" stroke-linecap="round" stroke-linejoin="round"/>
<path d="M288.474 25.6714H269.637C265.095 25.6714 261.447 29.4727 261.447 34.243" stroke="#2E3436" stroke-width="2" stroke-miterlimit="10" stroke-linecap="round" stroke-linejoin="round"/>
<path d="M382.288 115.338C404.987 115.338 423.388 96.9172 423.388 74.1941C423.388 51.471 404.987 33.0503 382.288 33.0503C359.589 33.0503 341.189 51.471 341.189 74.1941C341.189 96.9172 359.589 115.338 382.288 115.338Z" fill="#2E3436" stroke="#2E3436" stroke-width="2" stroke-miterlimit="10" stroke-linecap="round" stroke-linejoin="round"/>
<path d="M422.122 176.905L427.483 196.508C427.483 196.508 430.238 206.645 430.61 207.837L430.312 207.986C414.23 207.986 414.23 182.271 414.23 182.271V118.99L434.259 118.841C434.259 118.841 448.703 118.618 463.371 123.015L447.586 177.277C446.171 177.054 444.757 176.905 443.268 176.905H422.122Z" fill="white" stroke="#2E3436" stroke-width="2" stroke-miterlimit="10" stroke-linecap="round" stroke-linejoin="round"/>
<path d="M405.444 119.512H358.09V187.713H405.444V119.512Z" fill="white" stroke="#2E3436" stroke-width="2" stroke-miterlimit="10" stroke-linecap="round" stroke-linejoin="round"/>
<path d="M357.718 119.885L360.919 126.966C370.599 148.134 392.116 148.134 401.796 126.966L404.997 119.885H357.718Z" fill="white" stroke="#2E3436" stroke-width="2" stroke-miterlimit="10" stroke-linecap="round" stroke-linejoin="round"/>
<path d="M364.195 119.885L367.546 126.295C374.098 138.817 388.691 138.817 395.243 126.295L398.594 119.885H364.195Z" fill="#EDE73B" stroke="#2E3436" stroke-width="2" stroke-miterlimit="10" stroke-linecap="round" stroke-linejoin="round"/>
<path d="M386.458 119.885H376.332C372.386 119.885 369.259 116.68 369.259 112.804V97.7474C369.259 93.797 372.46 90.6665 376.332 90.6665H386.458C390.404 90.6665 393.532 93.8715 393.532 97.7474V112.804C393.606 116.68 390.404 119.885 386.458 119.885Z" fill="#EDE73B" stroke="#2E3436" stroke-width="2" stroke-miterlimit="10" stroke-linecap="round" stroke-linejoin="round"/>
<path d="M412.741 283.938H442.672" stroke="#2E3436" stroke-width="2" stroke-miterlimit="10" stroke-linecap="round" stroke-linejoin="round"/>
<path d="M369.407 96.2568H394.127V85.8218H364.195" fill="#2E3436"/>
<path d="M369.407 96.2568H394.127V85.8218H364.195" stroke="#2E3436" stroke-width="2" stroke-miterlimit="10" stroke-linecap="round" stroke-linejoin="round"/>
<path d="M266.956 42.9636C265.913 48.4793 263.159 53.8459 258.915 58.5416" stroke="#2E3436" stroke-width="2" stroke-miterlimit="10" stroke-linecap="round" stroke-linejoin="round"/>
<path d="M241.641 40.3552C237.546 39.0135 235.312 34.4668 236.578 30.2183" stroke="#2E3436" stroke-width="2" stroke-miterlimit="10" stroke-linecap="round" stroke-linejoin="round"/>
<path d="M440.736 248.534H448.256" stroke="#2E3436" stroke-width="2" stroke-miterlimit="10" stroke-linecap="round" stroke-linejoin="round"/>
<path d="M410.06 392.91L409.539 388.438" stroke="#2E3436" stroke-width="2" stroke-linecap="round" stroke-linejoin="round"/>
<path d="M408.496 379.717L396.956 279.466" stroke="#2E3436" stroke-width="2" stroke-linecap="round" stroke-linejoin="round" stroke-dasharray="11.78 11.78"/>
<path d="M396.509 275.069L395.988 270.671" stroke="#2E3436" stroke-width="2" stroke-linecap="round" stroke-linejoin="round"/>
<path d="M353.697 392.91L354.144 388.438" stroke="#2E3436" stroke-width="2" stroke-linecap="round" stroke-linejoin="round"/>
<path d="M355.186 379.717L366.727 279.466" stroke="#2E3436" stroke-width="2" stroke-linecap="round" stroke-linejoin="round" stroke-dasharray="11.78 11.78"/>
<path d="M367.248 275.069L367.769 270.671" stroke="#2E3436" stroke-width="2" stroke-linecap="round" stroke-linejoin="round"/>
<path d="M353.027 194.793C356.934 194.793 360.1 191.623 360.1 187.712C360.1 183.802 356.934 180.631 353.027 180.631C349.121 180.631 345.954 183.802 345.954 187.712C345.954 191.623 349.121 194.793 353.027 194.793Z" fill="#47C3F1" stroke="#2E3436" stroke-width="2" stroke-miterlimit="10" stroke-linecap="round" stroke-linejoin="round"/>
<path d="M409.465 194.793C413.371 194.793 416.538 191.623 416.538 187.712C416.538 183.802 413.371 180.631 409.465 180.631C405.558 180.631 402.391 183.802 402.391 187.712C402.391 191.623 405.558 194.793 409.465 194.793Z" fill="#47C3F1" stroke="#2E3436" stroke-width="2" stroke-miterlimit="10" stroke-linecap="round" stroke-linejoin="round"/>
<path d="M388.245 104.307C387.798 102.816 386.458 101.698 384.82 101.698C383.182 101.698 381.842 102.816 381.395 104.307" stroke="#2E3436" stroke-width="2" stroke-miterlimit="10" stroke-linecap="round" stroke-linejoin="round"/>
<path d="M381.395 104.307C380.948 102.816 379.608 101.698 377.97 101.698C376.332 101.698 374.991 102.816 374.545 104.307" stroke="#2E3436" stroke-width="2" stroke-miterlimit="10" stroke-linecap="round" stroke-linejoin="round"/>
<path d="M377.97 110.642C378.416 112.133 379.757 113.251 381.395 113.251C383.033 113.251 384.373 112.133 384.82 110.642" stroke="#2E3436" stroke-width="2" stroke-miterlimit="10" stroke-linecap="round" stroke-linejoin="round"/>
<path d="M381.394 109.077C382.587 109.077 383.554 108.109 383.554 106.916C383.554 105.722 382.587 104.754 381.394 104.754C380.202 104.754 379.235 105.722 379.235 106.916C379.235 108.109 380.202 109.077 381.394 109.077Z" fill="#2E3436"/>
<path d="M423.016 157.302C422.718 158.942 419.293 159.314 418.474 160.581C417.58 161.923 418.623 165.203 417.283 166.097C415.942 166.991 413.336 164.904 411.698 165.203C410.209 165.501 408.571 168.557 407.008 168.259C405.444 167.96 404.997 164.532 403.732 163.712C402.391 162.817 399.115 163.861 398.222 162.519C397.328 161.178 399.413 158.569 399.115 156.929C398.818 155.438 395.765 153.799 396.063 152.233C396.36 150.594 399.785 150.221 400.604 148.954C401.498 147.612 400.456 144.333 401.796 143.438C403.136 142.544 405.742 144.631 407.38 144.333C408.869 144.034 410.507 140.978 412.071 141.277C413.709 141.575 414.081 145.003 415.347 145.823C416.687 146.718 419.963 145.674 420.856 147.016C421.75 148.357 419.665 150.966 419.963 152.606C420.261 154.097 423.313 155.662 423.016 157.302Z" fill="#FB0D1B"/>
<path d="M423.016 157.302C422.718 158.942 419.293 159.314 418.474 160.581C417.58 161.923 418.623 165.203 417.283 166.097C415.942 166.991 413.336 164.904 411.698 165.203C410.209 165.501 408.571 168.557 407.008 168.259C405.444 167.96 404.997 164.532 403.732 163.712C402.391 162.817 399.115 163.861 398.222 162.519C397.328 161.178 399.413 158.569 399.115 156.929C398.818 155.438 395.765 153.799 396.063 152.233C396.36 150.594 399.785 150.221 400.604 148.954C401.498 147.612 400.456 144.333 401.796 143.438C403.136 142.544 405.742 144.631 407.38 144.333C408.869 144.034 410.507 140.978 412.071 141.277C413.709 141.575 414.081 145.003 415.347 145.823C416.687 146.718 419.963 145.674 420.856 147.016C421.75 148.357 419.665 150.966 419.963 152.606C420.261 154.097 423.313 155.662 423.016 157.302Z" stroke="#2E3436" stroke-width="2" stroke-miterlimit="10" stroke-linecap="round" stroke-linejoin="round"/>
<path d="M409.465 161.029C412.919 161.029 415.719 158.226 415.719 154.768C415.719 151.31 412.919 148.507 409.465 148.507C406.011 148.507 403.21 151.31 403.21 154.768C403.21 158.226 406.011 161.029 409.465 161.029Z" fill="white" stroke="#2E3436" stroke-width="2" stroke-miterlimit="10" stroke-linecap="round" stroke-linejoin="round"/>
<path d="M269.935 119.661L262.936 142.097L292.495 119.512L269.935 119.661Z" fill="#2E3436" stroke="#2E3436" stroke-width="2" stroke-miterlimit="10" stroke-linecap="round" stroke-linejoin="round"/>
<path d="M323.989 241.006H439.247" stroke="#2E3436" stroke-width="2" stroke-miterlimit="10" stroke-linecap="round" stroke-linejoin="round"/>
<path d="M337.019 231.838H427.483" stroke="#2E3436" stroke-width="2" stroke-miterlimit="10" stroke-linecap="round" stroke-linejoin="round" stroke-dasharray="12 12"/>
<path d="M341.189 137.922L328.754 156.482" stroke="#2E3436" stroke-width="2" stroke-miterlimit="10" stroke-linecap="round" stroke-linejoin="round"/>
<path d="M444.458 148.879L432.024 167.439" stroke="#2E3436" stroke-width="2" stroke-miterlimit="10" stroke-linecap="round" stroke-linejoin="round"/>
<path d="M382.288 151.414L367.099 174.072" stroke="#2E3436" stroke-width="2" stroke-miterlimit="10" stroke-linecap="round" stroke-linejoin="round"/>
<path d="M388.245 166.47L382.288 175.34" stroke="#2E3436" stroke-width="2" stroke-miterlimit="10" stroke-linecap="round" stroke-linejoin="round"/>
<path d="M333.817 119.81L325.404 132.332" stroke="#2E3436" stroke-width="2" stroke-miterlimit="10" stroke-linecap="round" stroke-linejoin="round"/>
<path d="M439.321 126.071L430.908 138.593" stroke="#2E3436" stroke-width="2" stroke-miterlimit="10" stroke-linecap="round" stroke-linejoin="round"/>
<path d="M364.195 119.885L367.546 126.295C367.993 127.189 368.514 128.009 369.109 128.829L378.044 119.885H364.195Z" fill="#2E3436" stroke="#2E3436" stroke-width="2" stroke-miterlimit="10" stroke-linecap="round" stroke-linejoin="round"/>
<path d="M143.136 151.041H40.3128C34.2074 151.041 29.2189 146.047 29.2189 139.935V66.5914C29.2189 60.4795 34.2074 55.4856 40.3128 55.4856H143.136C149.242 55.4856 154.23 60.4795 154.23 66.5914V139.935C154.23 146.047 149.242 151.041 143.136 151.041Z" fill="white" stroke="#2E3436" stroke-width="2" stroke-miterlimit="10" stroke-linecap="round" stroke-linejoin="round"/>
<path d="M143.136 151.041H40.3128C34.2074 151.041 29.2189 146.047 29.2189 139.935V66.5914C29.2189 60.4795 34.2074 55.4856 40.3128 55.4856H143.136C149.242 55.4856 154.23 60.4795 154.23 66.5914V139.935C154.23 146.047 149.242 151.041 143.136 151.041Z" stroke="#2E3436" stroke-width="2" stroke-miterlimit="10" stroke-linecap="round" stroke-linejoin="round"/>
<path d="M142.392 55.4856H41.0574C34.5052 55.4856 29.2189 60.7776 29.2189 67.3368V69.871H154.23V67.3368C154.23 60.7776 148.944 55.4856 142.392 55.4856Z" fill="white" stroke="#2E3436" stroke-width="2" stroke-miterlimit="10" stroke-linecap="round" stroke-linejoin="round"/>
<path d="M40.9085 64.9517C42.2244 64.9517 43.2911 63.8838 43.2911 62.5665C43.2911 61.2493 42.2244 60.1814 40.9085 60.1814C39.5926 60.1814 38.5259 61.2493 38.5259 62.5665C38.5259 63.8838 39.5926 64.9517 40.9085 64.9517Z" fill="#2E3436"/>
<path d="M48.2796 64.9517C49.5954 64.9517 50.6621 63.8838 50.6621 62.5665C50.6621 61.2493 49.5954 60.1814 48.2796 60.1814C46.9637 60.1814 45.897 61.2493 45.897 62.5665C45.897 63.8838 46.9637 64.9517 48.2796 64.9517Z" fill="#2E3436"/>
<path d="M55.7251 64.9517C57.041 64.9517 58.1077 63.8838 58.1077 62.5665C58.1077 61.2493 57.041 60.1814 55.7251 60.1814C54.4092 60.1814 53.3425 61.2493 53.3425 62.5665C53.3425 63.8838 54.4092 64.9517 55.7251 64.9517Z" fill="#2E3436"/>
<path d="M110.003 85.598L122.139 101.101L67.191 151.041H92.9528L132.861 114.742L144.402 129.202L162.346 77.0264L110.003 85.598Z" fill="#FF0000" stroke="#2E3436" stroke-width="2" stroke-miterlimit="10" stroke-linecap="round" stroke-linejoin="round"/>
<path d="M62.1283 110.642L41.2062 126.966L48.6518 136.208L32.6438 147.91C34.6541 149.848 37.409 151.115 40.4617 151.115H43.1421L60.7881 137.699L53.2681 128.456L67.3402 117.425L73.2967 125.028L83.795 98.7166L55.7996 102.741L62.1283 110.642Z" fill="white" stroke="#2E3436" stroke-width="2" stroke-miterlimit="10" stroke-linecap="round" stroke-linejoin="round"/>
<path d="M81.1142 118.916L41.876 150.817C42.695 150.966 43.514 151.115 44.4075 151.115H55.0547L86.4006 125.624L95.1119 136.655L109.035 101.772L71.8817 107.139L81.1142 118.916Z" fill="#47C3F1" stroke="#2E3436" stroke-width="2" stroke-miterlimit="10" stroke-linecap="round" stroke-linejoin="round"/>
<path d="M577.363 113.027H531.2C526.435 113.027 522.638 109.152 522.638 104.456V65.9208C522.638 61.1505 526.51 57.3491 531.2 57.3491H577.363C582.128 57.3491 585.926 61.225 585.926 65.9208V104.456C585.926 109.226 582.128 113.027 577.363 113.027Z" fill="#47C3F1" stroke="#2E3436" stroke-width="2" stroke-miterlimit="10" stroke-linecap="round" stroke-linejoin="round"/>
<path d="M579.969 57.3491H528.595C525.318 57.3491 522.638 60.4051 522.638 64.281V65.7717H586V64.281C585.926 60.4796 583.245 57.3491 579.969 57.3491Z" fill="white" stroke="#2E3436" stroke-width="2" stroke-miterlimit="10" stroke-linecap="round" stroke-linejoin="round"/>
<path d="M536.039 63.0137C536.862 63.0137 537.529 62.3462 537.529 61.5229C537.529 60.6996 536.862 60.0322 536.039 60.0322C535.217 60.0322 534.55 60.6996 534.55 61.5229C534.55 62.3462 535.217 63.0137 536.039 63.0137Z" fill="#2E3436"/>
<path d="M532.317 63.0137C533.139 63.0137 533.806 62.3462 533.806 61.5229C533.806 60.6996 533.139 60.0322 532.317 60.0322C531.494 60.0322 530.828 60.6996 530.828 61.5229C530.828 62.3462 531.494 63.0137 532.317 63.0137Z" fill="#2E3436"/>
<path d="M528.52 63.0137C529.342 63.0137 530.009 62.3462 530.009 61.5229C530.009 60.6996 529.342 60.0322 528.52 60.0322C527.697 60.0322 527.031 60.6996 527.031 61.5229C527.031 62.3462 527.697 63.0137 528.52 63.0137Z" fill="#2E3436"/>
<path d="M1.07446 235.043H55.7995C55.7251 234.298 55.7251 233.478 55.7251 232.658C55.7251 228.782 56.4696 226.546 57.3631 224.534H2.63803C1.74456 226.546 1 228.782 1 232.658C1 233.553 1 234.298 1.07446 235.043Z" fill="#FC7EE4" stroke="#2E3436" stroke-width="2" stroke-miterlimit="10" stroke-linecap="round" stroke-linejoin="round"/>
<path d="M1 279.541C1 267.839 5.24398 267.839 5.24398 256.062C5.24398 244.36 1 244.36 1 232.583C1 228.707 1.74456 226.471 2.63803 224.459H57.3631C56.4696 226.471 55.725 228.707 55.725 232.583C55.725 244.285 59.969 244.285 59.969 256.062C59.969 267.764 55.725 267.764 55.725 279.541H1Z" stroke="#2E3436" stroke-width="2" stroke-miterlimit="10" stroke-linecap="round" stroke-linejoin="round"/>
<path d="M15.4445 247.043C16.8426 247.043 17.976 245.909 17.976 244.509C17.976 243.109 16.8426 241.975 15.4445 241.975C14.0464 241.975 12.913 243.109 12.913 244.509C12.913 245.909 14.0464 247.043 15.4445 247.043Z" stroke="#2E3436" stroke-width="2" stroke-miterlimit="10" stroke-linecap="round" stroke-linejoin="round"/>
<path d="M12.913 272.087C14.3111 272.087 15.4445 270.953 15.4445 269.553C15.4445 268.153 14.3111 267.019 12.913 267.019C11.5149 267.019 10.3815 268.153 10.3815 269.553C10.3815 270.953 11.5149 272.087 12.913 272.087Z" stroke="#2E3436" stroke-width="2" stroke-miterlimit="10" stroke-linecap="round" stroke-linejoin="round"/>
<path d="M14.1789 258.969C15.5771 258.969 16.7105 257.834 16.7105 256.435C16.7105 255.035 15.5771 253.9 14.1789 253.9C12.7808 253.9 11.6475 255.035 11.6475 256.435C11.6475 257.834 12.7808 258.969 14.1789 258.969Z" fill="#2E3436" stroke="#2E3436" stroke-width="2" stroke-miterlimit="10" stroke-linecap="round" stroke-linejoin="round"/>
<path d="M25.1239 244.509H51.4068" stroke="#2E3436" stroke-width="2" stroke-miterlimit="10" stroke-linecap="round" stroke-linejoin="round"/>
<path d="M22.6669 256.435H49.0242" stroke="#2E3436" stroke-width="2" stroke-miterlimit="10" stroke-linecap="round" stroke-linejoin="round"/>
<path d="M23.3368 268.435H49.6942" stroke="#2E3436" stroke-width="2" stroke-miterlimit="10" stroke-linecap="round" stroke-linejoin="round"/>
<path d="M91.4642 315.84C91.4642 304.137 87.2202 304.137 87.2202 292.361C87.2202 280.659 91.4642 280.659 91.4642 268.882C91.4642 265.006 90.7197 262.77 89.8262 260.758H35.1012C35.9947 262.77 36.7392 265.006 36.7392 268.882C36.7392 280.584 32.4952 280.584 32.4952 292.361C32.4952 304.063 36.7392 304.063 36.7392 315.84H91.4642Z" fill="white" stroke="#2E3436" stroke-width="2" stroke-miterlimit="10" stroke-linecap="round" stroke-linejoin="round"/>
<path d="M91.3897 271.342H36.6646C36.7391 270.596 36.7391 269.776 36.7391 268.956C36.7391 265.081 35.9945 262.845 35.1011 260.832H89.8261C90.7196 262.845 91.4642 265.081 91.4642 268.956C91.4642 269.776 91.3897 270.596 91.3897 271.342Z" fill="#EDE73B" stroke="#2E3436" stroke-width="2" stroke-miterlimit="10" stroke-linecap="round" stroke-linejoin="round"/>
<path d="M45.9717 283.342C47.3698 283.342 48.5032 282.208 48.5032 280.808C48.5032 279.408 47.3698 278.274 45.9717 278.274C44.5736 278.274 43.4402 279.408 43.4402 280.808C43.4402 282.208 44.5736 283.342 45.9717 283.342Z" stroke="#2E3436" stroke-width="2" stroke-miterlimit="10" stroke-linecap="round" stroke-linejoin="round"/>
<path d="M43.5145 308.386C44.9127 308.386 46.046 307.251 46.046 305.852C46.046 304.452 44.9127 303.318 43.5145 303.318C42.1164 303.318 40.983 304.452 40.983 305.852C40.983 307.251 42.1164 308.386 43.5145 308.386Z" stroke="#2E3436" stroke-width="2" stroke-miterlimit="10" stroke-linecap="round" stroke-linejoin="round"/>
<path d="M44.7807 295.268C46.1788 295.268 47.3121 294.133 47.3121 292.733C47.3121 291.334 46.1788 290.199 44.7807 290.199C43.3825 290.199 42.2491 291.334 42.2491 292.733C42.2491 294.133 43.3825 295.268 44.7807 295.268Z" fill="#2E3436" stroke="#2E3436" stroke-width="2" stroke-miterlimit="10" stroke-linecap="round" stroke-linejoin="round"/>
<path d="M55.6506 280.808H82.008" stroke="#2E3436" stroke-width="2" stroke-miterlimit="10" stroke-linecap="round" stroke-linejoin="round"/>
<path d="M53.1941 292.734H79.5515" stroke="#2E3436" stroke-width="2" stroke-miterlimit="10" stroke-linecap="round" stroke-linejoin="round"/>
<path d="M53.9384 304.659H80.2957" stroke="#2E3436" stroke-width="2" stroke-miterlimit="10" stroke-linecap="round" stroke-linejoin="round"/>
<path d="M44.1845 459.769C42.3976 452.762 40.3128 444.787 41.8019 436.737C42.621 432.041 44.6313 427.793 46.5671 423.693C48.503 419.519 50.3644 415.569 50.96 411.395C52.0024 404.314 49.5454 397.233 46.9394 389.779C46.2693 387.841 45.5247 385.829 44.9291 383.816C39.196 365.63 45.0035 356.536 48.9497 352.66L53.0448 356.983C45.8226 363.915 48.8753 376.81 50.5133 382.028C51.1089 383.965 51.779 385.903 52.4491 387.767C55.204 395.593 58.0333 403.643 56.7676 412.215C56.023 417.208 53.9383 421.755 51.8535 426.153C49.9921 430.103 48.2796 433.83 47.535 437.78C46.3438 444.489 48.2052 451.793 49.8432 458.203L44.1845 459.769Z" fill="#FF0000" stroke="#2E3436" stroke-width="2" stroke-miterlimit="10" stroke-linecap="round" stroke-linejoin="round"/>
<path d="M108.142 248.012L104.717 243.093C106.95 241.527 108.365 238.695 108.142 235.937C107.993 233.627 106.802 231.242 105.61 228.782C104.642 226.918 103.674 224.981 103.079 222.819C101.739 218.421 102.036 213.726 103.823 209.477C104.344 208.359 104.866 207.315 105.461 206.272C106.057 205.154 106.653 204.036 107.099 202.992C108.142 200.011 107.695 196.508 105.908 193.899L110.822 190.545C113.651 194.719 114.396 200.235 112.684 205.005C112.162 206.496 111.418 207.912 110.673 209.179C110.152 210.073 109.705 210.968 109.333 211.862C108.067 214.769 107.918 218.123 108.812 221.105C109.333 222.744 110.152 224.384 110.971 226.099C112.386 229.005 113.949 231.987 114.173 235.565C114.47 240.335 112.088 245.254 108.142 248.012Z" fill="#FC7EE4" stroke="#2E3436" stroke-width="2" stroke-miterlimit="10" stroke-linecap="round" stroke-linejoin="round"/>
<path d="M311.555 91.4867C307.162 85.1512 308.875 77.3249 310.29 73.2254C311.183 70.6167 312.374 68.157 313.491 65.7718C314.683 63.2376 315.799 60.8525 316.618 58.3928C318.256 53.3243 317.884 48.554 315.65 45.6471L320.341 41.9949C323.915 46.5416 324.585 53.1753 322.351 60.2562C321.458 63.0885 320.192 65.7718 318.927 68.3806C317.81 70.6912 316.767 72.9273 316.023 75.2379C315.204 77.6976 313.566 83.8841 316.544 88.1326L311.555 91.4867Z" fill="#FC7EE4" stroke="#2E3436" stroke-width="2" stroke-miterlimit="10" stroke-linecap="round" stroke-linejoin="round"/>
<path d="M534.454 436.788C538.847 430.453 537.134 422.627 535.72 418.527C534.826 415.918 533.635 413.459 532.518 411.074C531.327 408.539 530.21 406.154 529.391 403.695C527.753 398.626 528.125 393.856 530.359 390.949L525.668 387.297C522.094 391.843 521.424 398.477 523.658 405.558C524.551 408.39 525.817 411.074 527.083 413.682C528.2 415.993 529.242 418.229 529.987 420.54C530.806 422.999 532.444 429.186 529.465 433.434L534.454 436.788Z" fill="#FF0000" stroke="#2E3436" stroke-width="2" stroke-miterlimit="10" stroke-linecap="round" stroke-linejoin="round"/>
<path d="M88.2621 442.476C92.655 436.141 90.9425 428.314 89.5279 424.215C88.6344 421.606 87.4431 419.147 86.3263 416.761C85.135 414.227 84.0181 411.842 83.1991 409.382C81.5611 404.314 81.9334 399.544 84.1671 396.637L79.4763 392.984C75.9024 397.531 75.2324 404.165 77.466 411.246C78.3595 414.078 79.6252 416.761 80.891 419.37C82.0078 421.681 83.0502 423.917 83.7948 426.227C84.6138 428.687 86.2518 434.874 83.2736 439.122L88.2621 442.476Z" fill="#EDE73B" stroke="#2E3436" stroke-width="2" stroke-miterlimit="10" stroke-linecap="round" stroke-linejoin="round"/>
<path d="M546.888 387.148C551.281 380.812 549.569 372.986 548.154 368.886C547.26 366.278 546.069 363.818 544.952 361.433C543.761 358.899 542.644 356.513 541.825 354.054C540.187 348.985 540.559 344.215 542.793 341.308L538.102 337.656C534.528 342.202 533.858 348.836 536.092 355.917C536.985 358.749 538.251 361.433 539.517 364.041C540.634 366.352 541.676 368.588 542.421 370.899C543.24 373.358 544.878 379.545 541.9 383.793L546.888 387.148Z" fill="#FC7EE4" stroke="#2E3436" stroke-width="2" stroke-miterlimit="10" stroke-linecap="round" stroke-linejoin="round"/>
<path d="M273.806 334.697L271.2 329.331C274.253 327.84 275.37 323.442 274.849 319.939C274.402 316.809 273.062 313.753 271.573 310.548C271.052 309.355 270.53 308.163 270.009 306.97C267.329 300.411 266.956 295.044 268.743 290.572C269.637 288.336 271.051 286.473 272.392 284.758C273.211 283.64 274.03 282.671 274.625 281.553C278.646 274.696 275.668 265.975 274.179 262.472L279.688 260.161C283.56 269.18 283.56 278.125 279.837 284.535C279.018 285.951 278.05 287.143 277.157 288.336C275.966 289.827 274.923 291.243 274.253 292.734C273.062 295.715 273.434 299.591 275.444 304.659C275.891 305.777 276.412 306.895 276.933 308.013C278.497 311.442 280.061 315.02 280.656 318.97C281.55 324.635 279.763 331.865 273.806 334.697Z" fill="#FF0000" stroke="#2E3436" stroke-width="2" stroke-miterlimit="10" stroke-linecap="round" stroke-linejoin="round"/>
<path d="M576.224 445.062C568.852 436.789 566.321 424.639 569.746 414.13C570.639 411.297 571.98 408.614 573.245 406.08C574.809 402.875 576.298 399.893 576.968 396.688C578.383 390.204 576.298 383.123 574.139 377.16C573.692 375.967 573.245 374.849 572.799 373.657C570.639 367.917 568.331 362.029 567.885 355.619C567.14 346.377 570.863 337.805 577.34 333.854L580.393 338.923C574.809 342.277 573.32 349.731 573.767 355.097C574.213 360.613 576.224 365.905 578.383 371.495C578.83 372.688 579.276 373.88 579.723 375.073C582.255 381.856 584.563 389.906 582.776 397.955C581.957 401.831 580.244 405.334 578.532 408.689C577.341 411.148 576.149 413.533 575.33 415.993C572.575 424.565 574.586 434.403 580.617 441.112L576.224 445.062Z" fill="#EDE73B" stroke="#2E3436" stroke-width="2" stroke-miterlimit="10" stroke-linecap="round" stroke-linejoin="round"/>
<path d="M481.687 99.0891L487.271 96.9276C485.559 92.4554 483.623 87.4615 484.144 82.6912C484.442 80.3061 485.261 77.9955 486.229 75.4612C486.825 73.8215 487.42 72.1817 487.942 70.3928C489.654 64.0572 488.463 58.2434 484.74 54.9639L480.794 59.436C483.176 61.523 483.027 65.6225 482.208 68.8275C481.836 70.3183 481.241 71.809 480.645 73.3742C479.602 76.0575 478.56 78.8899 478.262 82.0204C477.518 88.2069 479.826 94.2443 481.687 99.0891Z" fill="#FF0000" stroke="#2E3436" stroke-width="2" stroke-miterlimit="10" stroke-linecap="round" stroke-linejoin="round"/>
<path d="M452.5 63.461L458.085 61.2994C456.372 56.8273 454.436 51.8333 454.957 47.0631C455.255 44.6779 456.074 42.3673 457.042 39.8331C457.638 38.1933 458.233 36.5535 458.755 34.7646C460.467 28.4291 459.276 22.6153 455.553 19.3357L451.607 23.8078C453.989 25.8949 453.841 29.9943 453.021 33.1994C452.649 34.6901 452.054 36.1808 451.458 37.7461C450.416 40.4294 449.373 43.2617 449.075 46.3922C448.331 52.5787 450.639 58.6161 452.5 63.461Z" fill="#EDE73B" stroke="#2E3436" stroke-width="2" stroke-miterlimit="10" stroke-linecap="round" stroke-linejoin="round"/>
<g style="mix-blend-mode:multiply" opacity="0.3">
<g style="mix-blend-mode:multiply" opacity="0.3">
<g style="mix-blend-mode:multiply" opacity="0.3">
<path d="M157.35 232.475L176.369 243.458H224.694V232.475H157.35Z" fill="#2E3436"/>
</g>
<g style="mix-blend-mode:multiply" opacity="0.3">
<path d="M180.775 259.533C173.088 263.287 166.145 268.403 160.28 274.632V247.695L180.775 259.533ZM151.509 305.7C154.933 293.863 161.767 283.298 171.159 275.325L188.7 305.7H198.842L178.264 270.099C185.301 265.643 193.16 262.646 201.376 261.285L151.495 232.475V305.7" fill="#2E3436"/>
</g>
<g style="mix-blend-mode:multiply" opacity="0.3">
<path d="M210.851 263.376H224.697V274.344H184.116L182.253 271.114C190.978 266.156 200.817 263.49 210.851 263.367" fill="#2E3436"/>
</g>
<g style="mix-blend-mode:multiply" opacity="0.3">
<path d="M195.889 294.717L202.236 305.7H224.703V294.717H195.889Z" fill="#2E3436"/>
</g>
</g>
</g>
<path d="M158.788 231.037L177.807 242.02H226.132V231.037H158.788Z" fill="#F78F01"/>
<path d="M182.213 258.094C174.526 261.849 167.583 266.964 161.718 273.194V246.257L182.213 258.094ZM152.947 304.261C156.371 292.425 163.205 281.86 172.597 273.887L190.138 304.261H200.28L179.702 268.66C186.739 264.205 194.598 261.208 202.814 259.846L152.933 231.037V304.261" fill="#FBBF13"/>
<path d="M212.289 261.937H226.135V272.906H185.554L183.691 269.675C192.416 264.717 202.255 262.052 212.289 261.929" fill="#F78F01"/>
<path d="M197.327 293.278L203.673 304.261H226.141V293.278H197.327Z" fill="#F78F01"/>
</svg>
