<svg width="31" height="30" viewBox="0 0 31 30" fill="none" xmlns="http://www.w3.org/2000/svg">
<path d="M27.0751 20.9498C27.0751 24.3317 24.3328 27.0732 20.9507 27.0732H9.05169C5.66969 27.0732 2.92733 24.3317 2.92733 20.9498V9.05024C2.92733 5.6691 5.66969 2.92681 9.05169 2.92681H20.9507C24.3328 2.92681 27.0751 5.6691 27.0751 9.05024V20.9498ZM30.0012 8.91611C30.0012 3.99209 26.0098 0 21.0849 0H8.91756C3.99264 0 0.0012207 3.99209 0.0012207 8.91611V21.0839C0.0012207 26.0079 3.99264 30 8.91756 30H21.0849C26.0098 30 30.0012 26.0079 30.0012 21.0839V8.91611ZM24.6824 6.98713C24.6824 7.94852 23.9032 8.72771 22.9426 8.72771C21.9812 8.72771 21.202 7.94852 21.202 6.98713C21.202 6.02574 21.9812 5.24732 22.9426 5.24732C23.9032 5.24732 24.6824 6.02574 24.6824 6.98713Z" fill="white"/>
<path d="M1.50122 14.25H28.5012V6.5C28.5012 3.73858 26.2626 1.5 23.5012 1.5H6.50122C3.7398 1.5 1.50122 3.73858 1.50122 6.5V14.25Z" fill="white"/>
<path d="M15.0012 22.5C10.8591 22.5 7.50122 19.5 7.50122 14.25H22.5012C22.5012 20.25 19.1434 22.5 15.0012 22.5Z" fill="white"/>
<path d="M15.0012 10.5C12.5159 10.5 10.5012 12.5147 10.5012 15H19.5012C19.5012 12.5147 17.4865 10.5 15.0012 10.5Z" fill="#7BD427"/>
<path d="M15.0012 19.5C12.5159 19.5 10.5012 17.5714 10.5012 15H19.5012C19.5012 18.2143 17.4865 19.5 15.0012 19.5Z" fill="#7BD427"/>
<circle cx="23.2512" cy="6.75" r="2.25" fill="#7BD427"/>
</svg>
