<svg width="31" height="30" viewBox="0 0 31 30" fill="none" xmlns="http://www.w3.org/2000/svg">
<g clip-path="url(#clip0)">
<path d="M21.885 17.8837L21.8738 17.9775C19.125 16.6075 18.8375 16.425 18.4825 16.9575C18.2363 17.3262 17.5188 18.1625 17.3025 18.41C17.0838 18.6537 16.8663 18.6725 16.495 18.5037C16.12 18.3162 14.9163 17.9225 13.4913 16.6475C12.3813 15.6537 11.6363 14.435 11.4163 14.06C11.05 13.4275 11.8163 13.3375 12.5138 12.0175C12.6388 11.755 12.575 11.5487 12.4825 11.3625C12.3888 11.175 11.6425 9.33747 11.33 8.60497C11.03 7.87497 10.7213 7.96747 10.49 7.96747C9.77002 7.90497 9.24377 7.91497 8.78002 8.39747C6.76252 10.615 7.27127 12.9025 8.99752 15.335C12.39 19.775 14.1975 20.5925 17.5025 21.7275C18.395 22.0112 19.2088 21.9712 19.8525 21.8787C20.57 21.765 22.0613 20.9775 22.3725 20.0962C22.6913 19.215 22.6913 18.4837 22.5975 18.315C22.505 18.1462 22.26 18.0525 21.885 17.8837Z" fill="white"/>
<path d="M25.6512 4.3113C16.04 -4.97995 0.133721 1.7588 0.127471 14.8663C0.127471 17.4863 0.813721 20.0413 2.12122 22.2976L0.0012207 30.0001L7.91997 27.9351C17.8012 33.2726 29.9962 26.1851 30.0012 14.8738C30.0012 10.9038 28.4512 7.16755 25.6325 4.36005L25.6512 4.3113ZM27.5037 14.8326C27.4962 24.3738 17.0225 30.3326 8.73872 25.4626L8.28872 25.1951L3.60122 26.4138L4.85747 21.8576L4.55872 21.3888C-0.59628 13.1826 5.32622 2.45755 15.0912 2.45755C18.4087 2.45755 21.5225 3.7513 23.8675 6.09505C26.2112 8.4188 27.5037 11.5326 27.5037 14.8326Z" fill="white"/>
</g>
<defs>
<clipPath id="clip0">
<rect width="30" height="30" fill="white" transform="translate(0.0012207)"/>
</clipPath>
</defs>
</svg>
