<svg width="31" height="30" viewBox="0 0 31 30" fill="none" xmlns="http://www.w3.org/2000/svg">
<g clip-path="url(#clip0)">
<path d="M28.9447 17.3662C29.8397 9.83241 28.5147 5.07616 26.1247 2.92491L26.126 2.92366C22.2685 -0.750091 9.24095 -1.29384 4.62595 3.08866C2.55345 5.23241 1.82345 8.37866 1.74345 12.2737C1.66345 16.1699 1.56845 23.4687 8.3697 25.4487H8.37595L8.3697 28.4724C8.3697 28.4724 8.32345 29.6974 9.10595 29.9437C10.001 30.2337 10.406 29.6649 13.1897 26.3399C17.8447 26.7437 21.4197 25.8187 21.826 25.6837C22.766 25.3687 28.0847 24.6649 28.9447 17.3662ZM13.6485 24.2124C13.6485 24.2124 10.7022 27.8862 9.78595 28.8399C9.48595 29.1499 9.1572 29.1212 9.1622 28.5062C9.1622 28.1024 9.1847 23.4862 9.1847 23.4862C3.41845 21.8337 3.75845 15.6187 3.82095 12.3674C3.88345 9.11491 4.47845 6.45116 6.23345 4.65741C10.2822 0.861159 21.7035 1.70991 24.6135 4.44491C28.171 7.59866 26.9047 16.5087 26.9122 16.8124C26.181 22.9049 21.871 23.2912 21.0785 23.5549C20.7397 23.6674 17.596 24.4762 13.6485 24.2124Z" fill="white"/>
<path d="M15.2785 5.37109C14.7973 5.37109 14.7973 6.12109 15.2785 6.12734C19.0123 6.15609 22.0873 8.75859 22.121 13.5323C22.121 14.0361 22.8585 14.0298 22.8523 13.5261H22.851C22.811 8.38234 19.4535 5.39984 15.2785 5.37109Z" fill="white"/>
<path d="M20.19 12.7413C20.1788 13.2388 20.915 13.2625 20.9213 12.7588C20.9825 9.92254 19.2338 7.5863 15.9475 7.34005C15.4663 7.30505 15.4163 8.0613 15.8963 8.0963C18.7463 8.31255 20.2475 10.2575 20.19 12.7413Z" fill="white"/>
<path d="M19.4026 15.9676C18.7851 15.6101 18.1564 15.8326 17.8964 16.1839L17.3526 16.8876C17.0764 17.2451 16.5601 17.1976 16.5601 17.1976C12.7926 16.2014 11.7851 12.2589 11.7851 12.2589C11.7851 12.2589 11.7389 11.7251 12.0839 11.4389L12.7639 10.8764C13.1039 10.6064 13.3189 9.95638 12.9726 9.31763C12.0476 7.64638 11.4264 7.07013 11.1101 6.62763C10.7776 6.21138 10.2776 6.11763 9.75761 6.39888H9.74636C8.66511 7.03138 7.48137 8.21513 7.86012 9.43388C8.50637 10.7189 9.69386 14.8151 13.4789 17.9101C15.2576 19.3739 18.0726 20.8739 19.2676 21.2201L19.2789 21.2376C20.4564 21.6301 21.6013 20.4001 22.2126 19.2864V19.2776C22.4838 18.7389 22.3939 18.2289 21.9976 17.8951C21.2951 17.2101 20.2351 16.4539 19.4026 15.9676Z" fill="white"/>
<path d="M16.4624 10.1301C17.6637 10.2001 18.2462 10.8276 18.3087 12.1164C18.3312 12.6201 19.0624 12.5851 19.0399 12.0814C18.9599 10.3988 18.0824 9.46135 16.5024 9.37385C16.0212 9.3451 15.9762 10.1013 16.4624 10.1301Z" fill="white"/>
</g>
<defs>
<clipPath id="clip0">
<rect width="30" height="30" fill="white" transform="translate(0.0012207)"/>
</clipPath>
</defs>
</svg>
