<svg width="272" height="217" viewBox="0 0 272 217" fill="none" xmlns="http://www.w3.org/2000/svg">
<path d="M257.25 25.7344V178.74L224.55 204.828H14.75V25.7344H257.25Z" fill="#DFFFC1" stroke="#2E3436" stroke-width="4"/>
<path d="M255 179.931V104C223.874 146.736 131.382 167.609 17 174.5V203H222.172L255 179.931Z" fill="#BCED8D"/>
<path d="M254.5 179.5L227 176V203L254.5 179.5Z" fill="#7BD527" stroke="#2E3436" stroke-width="4"/>
<path d="M89.25 25.7344H91.25V23.7344C91.25 12.8845 80.376 4.78125 68 4.78125C55.624 4.78125 44.75 12.8845 44.75 23.7344V50.8594C44.75 57.9709 51.8098 63.0312 59.5 63.0312C67.1902 63.0312 74.25 57.9709 74.25 50.8594V23.7344V21.7344H72.25H63.75H61.75V23.7344V50.8594C61.75 51.2277 61.1856 52.25 59.5 52.25C57.8144 52.25 57.25 51.2277 57.25 50.8594V23.7344C57.25 19.6277 61.6287 15.5625 68 15.5625C74.3713 15.5625 78.75 19.6277 78.75 23.7344V25.7344H80.75H89.25Z" fill="#EDE73B" stroke="#2E3436" stroke-width="4"/>
</svg>
