<svg width="85" height="68" viewBox="0 0 85 68" fill="none" xmlns="http://www.w3.org/2000/svg">
<path d="M10.3292 28.2305C18.1295 33.8841 19.8272 44.734 14.1218 52.469C19.8272 44.734 30.7721 43.0473 38.5824 48.7081C30.7721 43.0473 29.0744 32.1974 34.7798 24.4625C29.0739 32.1971 18.129 33.8837 10.3292 28.2305Z" fill="#EDE73B" stroke="#2E3436" stroke-width="2" stroke-miterlimit="10" stroke-linecap="round" stroke-linejoin="round"/>
<path d="M58.7372 44.8963C63.8629 48.6114 64.9786 55.7418 61.2295 60.8245C64.9786 55.7418 72.1714 54.6333 77.3037 58.3531C72.1709 54.6329 71.0557 47.5029 74.8048 42.4202C71.0557 47.5029 63.8634 48.6118 58.7372 44.8963Z" fill="#EDE73B" stroke="#2E3436" stroke-width="2" stroke-miterlimit="10" stroke-linecap="round" stroke-linejoin="round"/>
<path d="M47.7875 9.55162C52.9132 13.2667 54.0289 20.397 50.2798 25.4797C54.0289 20.397 61.2217 19.2886 66.3539 23.0084C61.2212 19.2882 60.106 12.1582 63.8551 7.07549C60.106 12.1582 52.9137 13.267 47.7875 9.55162Z" fill="#EDE73B" stroke="#2E3436" stroke-width="2" stroke-miterlimit="10" stroke-linecap="round" stroke-linejoin="round"/>
</svg>
